<svg xmlns="http://www.w3.org/2000/svg" viewBox="0 0 191.79 146.59"><defs><style>.cls-1{fill:olive;}</style></defs><g id="Layer_2" data-name="Layer 2"><g id="Layer_1-2" data-name="Layer 1"><path class="cls-1" d="M176.49,42.66a16.88,16.88,0,0,0-1.73.1c7-7.9,12-16,11.38-23.68C185.19,6.24,177.6,0,162.94,0a75,75,0,0,0-8.63.55C125.94,3.82,101,22.84,88.77,40.24c-2.27,3.25-4.7,6.56-7.24,9.87a44,44,0,0,0-35.87-1.65,17.17,17.17,0,0,0-12-6.55A14,14,0,0,0,32,41.8a14.22,14.22,0,0,0-10.66,5,16.42,16.42,0,0,0-4,10.64,15.13,15.13,0,0,0,5.6,11.2c-.5.93-1,1.88-1.39,2.85a15.57,15.57,0,0,0-5.89-1.15A16.4,16.4,0,0,0,3.5,75.73a13.76,13.76,0,0,0-3.38,11,17,17,0,0,0,16.5,14.77,15.35,15.35,0,0,0,2.74-.24l0,.07a13.94,13.94,0,0,0-7.73,4.79c-2.83,3.51-3.79,8.19-2.72,13.18,1.71,7.91,7.85,12.83,16,12.83a15.54,15.54,0,0,0,6.68-1.5c.07,8.51,6,15.19,14.09,15.91.52,0,1,.07,1.56.07a16.14,16.14,0,0,0,16-13.21l1.2-.06c1.64,7.62,7.37,12.73,14.67,12.73a16,16,0,0,0,3.41-.37c8.26-1.75,13.61-7.92,13.61-15.72,0-.23,0-.44,0-.67a19.48,19.48,0,0,0,12.59,6.51c.46,0,.91.06,1.36.06,8,0,13.87-6.83,13.87-16.23a15.74,15.74,0,0,0-15-15.78c-.36,0-.72,0-1.08,0a17.16,17.16,0,0,0-4.81.7,43.89,43.89,0,0,0,2.68-15.1c0-.57,0-1.14,0-1.72,1.88-.4,3.78-.77,5.66-1.11,18.93-3.45,34.84-16.62,40.8-22.12,1.41-1.31,2.92-2.68,4.49-4.1l3-2.75q-.06.75-.06,1.53c0,8.78,8.71,14.94,16.77,15.61.43,0,.87,0,1.29,0,8.31,0,14.11-7,14.11-16.93A15.1,15.1,0,0,0,176.49,42.66Z"/><path class="cls-1" d="M83.57,32.22c8.3,0,15.36-6.72,16.08-15.28A13.93,13.93,0,0,0,96.12,6.05,16.92,16.92,0,0,0,83.57,1,15.83,15.83,0,0,0,71.94,5.75,14.92,14.92,0,0,0,68,16.9,15.82,15.82,0,0,0,83.57,32.22Z"/></g></g></svg>