<svg xmlns="http://www.w3.org/2000/svg" viewBox="0 0 170.75 168.42"><defs><style>.cls-1{fill:none;}.cls-2{fill:#ffe1b1;}</style></defs><g id="Layer_2" data-name="Layer 2"><g id="Layer_1-2" data-name="Layer 1"><path class="cls-1" d="M62.59,65.73a40.73,40.73,0,0,0-.84,4.89c-.09,1-.09,2.16-.09,3.33s0,2.24-.07,3.43a39,39,0,0,1-2.67,10.77c-1.23,3.5-2.4,6.81-2.19,10a12.4,12.4,0,0,0,2.33,6.16c.46.55.69.82,2.63.75,1.17,0,1.43-.25,3.11-1.79l.34-.31c1.13-1,2.29-1.91,3.41-2.76a35.21,35.21,0,0,0,3-2.44,53.06,53.06,0,0,1,9.8-6.88,66.78,66.78,0,0,0,6.23-4,11.92,11.92,0,0,0,5-9.38c.29-3.67.21-5.75-1.08-7.68a20.41,20.41,0,0,0-3.36-3.55c-.72-.65-1.46-1.32-2.21-2.08-.35-.35-.69-.72-1-1.1a13.74,13.74,0,0,0-1.71-1.67C82,60.5,79.38,60,77.32,59.56l-1.76-.38A19.38,19.38,0,0,1,68,55.88a11.62,11.62,0,0,1-2.53-2.52c-.2.48-.42,1.1-.67,1.88a42,42,0,0,0-1.5,6.69C63.11,63.26,62.85,64.52,62.59,65.73Z"/><path class="cls-1" d="M50.92,22.4A21.07,21.07,0,0,0,50.57,25c.13-.6.2-1.28.29-2Z"/><path class="cls-1" d="M54.6,39.54a23.24,23.24,0,0,0,2.16,1.19A9.52,9.52,0,0,1,57.5,39a9.91,9.91,0,0,1,4.28-3.81,22.06,22.06,0,0,1,.4-3.48,7.08,7.08,0,0,1,2.06-4.11,26.46,26.46,0,0,1-5.15-2.26,19.14,19.14,0,0,1-.54,2.55,29.85,29.85,0,0,1-2.31,5.84,20.31,20.31,0,0,0-1.37,3.69c-.17.56-.35,1.13-.54,1.72a3.35,3.35,0,0,0,.19.38Z"/><path class="cls-1" d="M99.32,52.1c.46-.17.88-.28,1.23-.38a5.08,5.08,0,0,0,.86-.28,7.82,7.82,0,0,0,.83-.66c.22-.18.43-.36.64-.52a11.76,11.76,0,0,0,1-.92c-.51-.28-1-.57-1.51-.86-.34-.2-.66-.39-1-.56A8,8,0,0,1,97.85,51a11.63,11.63,0,0,1,1.08.78Z"/><path class="cls-1" d="M102.36,66.67l-1-1.06a14.25,14.25,0,0,0-1.83-1.79l-.16-.11a17.3,17.3,0,0,1-2.93-2.28l-.21,0c-.23,0-.44.08-.66.1a21.75,21.75,0,0,1,3,3.54c2.9,4.34,2.82,8.83,2.48,13a20.36,20.36,0,0,1-8.36,15.44,69.86,69.86,0,0,1-7,4.55,47,47,0,0,0-8.31,5.76,43.13,43.13,0,0,1-3.73,3c-1,.76-2,1.47-2.8,2.24l-.32.3c-2,1.88-4.17,3.83-8.48,4-3,.12-6.53-.24-9.48-3.8a20.72,20.72,0,0,1-4.27-11C48,93.78,49.48,89.49,51,85.33a32.82,32.82,0,0,0,2.2-8.48c.06-.92.06-1.87.06-2.88,0-1.31,0-2.67.12-4.1a47.9,47.9,0,0,1,1-5.89c.25-1.16.48-2.25.65-3.35a51.9,51.9,0,0,1,1.81-8,31,31,0,0,1,1.11-3l-.09-.09-.43,0-.23,0-.44.23A9.91,9.91,0,0,1,54,50.88l-1,.24c-.82.2-1.65.4-2.52.57-.23,0-.48.1-.75.17a17.67,17.67,0,0,1-.44,2.19,22.69,22.69,0,0,0-.67,4.24l0,.46c0,.23,0,.47-.07.73-.2,2.2-.47,5.22-1.76,7.47a13,13,0,0,1-2.87,3.21c-.3.26-.58.51-.75.69a29,29,0,0,1-4.36,3.63,14.85,14.85,0,0,0-1.17,1A20.15,20.15,0,0,1,35.73,77a12.39,12.39,0,0,1-1.91,1c-.23.11-.54.25-.63.31l-.3.33a12.31,12.31,0,0,1-1,1,26.61,26.61,0,0,1-5.17,3.66,43.08,43.08,0,0,0-6.32,4.42l-1.09.86a8.59,8.59,0,0,0-.9.86A14.62,14.62,0,0,1,16,91.6c-.42.28-.83.57-1.25.87-.7.5-1.44,1-2.23,1.52l-1.43.84a11.26,11.26,0,0,0-2.5,1.71c-.12,2.57-.12,5.45,0,8.82a16.11,16.11,0,0,0,.56,4,9.3,9.3,0,0,0,.52,1.16A16.24,16.24,0,0,1,10.69,113c.55,1.83.93,3.59,1.3,5.29.21,1,.42,1.92.64,2.83.12.48.19.88.25,1.2l.07.36a44.81,44.81,0,0,0,3.7,4.56l.13.14a73.58,73.58,0,0,0,7.36,6.9,33,33,0,0,1,5.57,5.89,39.25,39.25,0,0,0,2.79,3.27,8.63,8.63,0,0,0,.93.77,17.43,17.43,0,0,1,1.73,1.48A16.75,16.75,0,0,1,37,148.07c.29.41.55.77.79,1.05C41.21,153,44.71,155.74,48,157a38.41,38.41,0,0,0,7.27,2.08c.79.13,1.61.21,2.47.28a36.12,36.12,0,0,1,4,.53,2.36,2.36,0,0,0,1.26,0c.07-.06.3-.33.46-.52a10.77,10.77,0,0,1,2.16-2A9.42,9.42,0,0,1,69.24,156l.59-.13a9.57,9.57,0,0,0,.67-1.39,14.15,14.15,0,0,1,2-3.54,23.79,23.79,0,0,1,2.66-2.66A9.41,9.41,0,0,0,77.29,146a20.23,20.23,0,0,0,2.44-5.75,43.55,43.55,0,0,0,.61-7.68c0-.51,0-1.19-.11-1.91-.19-2.63-.44-5.9,1.08-8.65a23.62,23.62,0,0,1,4.5-5.4c.66-.65,1.29-1.26,1.81-1.84.77-.87,1.53-1.67,2.27-2.45s1.35-1.42,2-2.14a31.2,31.2,0,0,0,5.33-7.69l2.07-4.7c.64-1.47,1.29-2.94,1.93-4.4.4-.92.83-1.77,1.24-2.6,1-2,1.89-3.81,2-5.58s0-3.33,0-5.11c0-1,0-1.93,0-2.9s0-1.73.07-2.58a23.24,23.24,0,0,0-.07-4.47A6,6,0,0,0,102.36,66.67Z"/><path class="cls-1" d="M160.68,55.53a24.64,24.64,0,0,0-3.3-.67,49.44,49.44,0,0,1-16.11-5.64c-.52-.28-1.13-.57-1.78-.88a22.79,22.79,0,0,1-5.24-3.09,26.72,26.72,0,0,1-3.66-4.1c-.34-.44-.69-.89-1-1.31-.63-.77-1.21-1.58-1.77-2.36A16.69,16.69,0,0,0,125,34.17c-3-2.34-6.48-4.82-9.94-5.52a24.93,24.93,0,0,0-3-.41l.21.1A8.73,8.73,0,0,1,114.69,30c2.07,2,3.76,6,2.81,9.31a7,7,0,0,1-.67,1.61,9.28,9.28,0,0,1,1,1.23,7.27,7.27,0,0,1,1,2.39.3.3,0,0,1,0,.1,14.51,14.51,0,0,0,1.09,1.77l.25.38a32.82,32.82,0,0,1,2.14,3.72,77.3,77.3,0,0,0,7.15,3.74c1.18.52,2.31,1.09,3.41,1.64,1.47.74,2.85,1.43,4.24,2a14.59,14.59,0,0,0,2.92.65l.87.15a25.79,25.79,0,0,0,4.81.13c.79,0,1.62-.05,2.43-.06l2.61,0a40.68,40.68,0,0,0,5.1-.07,20,20,0,0,0,6.25-1.39,5.18,5.18,0,0,0,.21-1.37l-.16,0A14,14,0,0,1,160.68,55.53Z"/><path class="cls-2" d="M168.35,49.44a9.3,9.3,0,0,0-4.45-1.82l-.6-.13a30.35,30.35,0,0,0-4.63-1,40.81,40.81,0,0,1-13.38-4.73c-.72-.39-1.47-.74-2.19-1.09a17,17,0,0,1-3.34-1.85A19.63,19.63,0,0,1,137.29,36c-.4-.52-.8-1-1.2-1.52s-.93-1.21-1.43-1.92a23.49,23.49,0,0,0-4.42-5c-3.76-2.94-8.29-6.09-13.47-7.15s-10-.64-14.84-.25c-2.09.16-4.09.32-6,.36-2.3-1.16-4.61-2.3-7-3.45a30,30,0,0,0-9.15-2.53c-1.22-.64-2.45-1.15-3.58-1.63-.55-.23-1.11-.46-1.65-.7a23.49,23.49,0,0,0-7.77-1.67c-1-.09-2-.17-2.84-.33a19.41,19.41,0,0,0-6.3.15,23.25,23.25,0,0,1-2.48.28l-.45,0c-1.37-.36-2.77-.7-4.19-1C49.13,9,47.8,8.43,46.66,8s-2.5-1.12-3.82-1.76c-1.49-.71-3-1.45-4.65-2.11A53.3,53.3,0,0,0,27.74,1.38l-1.59-.31a18,18,0,0,0-3.3-.28c-.41,0-.8,0-1.18-.05a5.51,5.51,0,0,1-.91-.2A12.53,12.53,0,0,0,18.12.08l-.44,0C15.35-.07,11-.3,8.39,3A7.88,7.88,0,0,0,6.9,9.84a8.49,8.49,0,0,0,4.82,5.64,16.45,16.45,0,0,0,6,1.12c.58,0,1.12,0,1.61.1l1,.11a46.38,46.38,0,0,0,5.48.38c1.34,0,2.68,0,4,0q3.09,0,6.17,0c2.25,0,4.58,0,6.83,0l.69,0A19.82,19.82,0,0,0,42.79,20a25.8,25.8,0,0,0,.51,14.17c.34.91.7,1.72,1.05,2.51s.65,1.45.9,2.15l-.16.3a23,23,0,0,0-1.32,2.63,23.8,23.8,0,0,0-1,2.85,4.63,4.63,0,0,0-.7.09,6.27,6.27,0,0,0-1.48.48,6.44,6.44,0,0,0-1.84,0,6.59,6.59,0,0,0-1.94.68c-.39.06-.85.11-1.33.16-.68.07-1.45.15-2.25.3a7.88,7.88,0,0,1-1.44,0,14.33,14.33,0,0,0-3.11.15,11,11,0,0,0-1.6.42l-.3.09a6.89,6.89,0,0,0-2,0,8.36,8.36,0,0,0-2,.62l-.2.09a1,1,0,0,1,.32-.08L24,56a7.81,7.81,0,0,0,2-.59,6.61,6.61,0,0,0,1.62,0,10.89,10.89,0,0,0,2-.48c.17,0,.4-.13.49-.14a7.57,7.57,0,0,1,1.4,0,14.2,14.2,0,0,0,3.27-.18c.45-.08,1-.14,1.54-.2.75-.08,1.59-.17,2.46-.35a6,6,0,0,0,1.38-.47,3.45,3.45,0,0,0,.48,0c-.25,1.32-.37,2.54-.5,3.81l0,.45c0,.25,0,.52-.08.81a17.38,17.38,0,0,1-.66,4,11.24,11.24,0,0,1-1.14,1.09c-.4.35-.8.71-1.19,1.1A19.88,19.88,0,0,1,34,67.49a17.7,17.7,0,0,0-2,1.6,13.33,13.33,0,0,1-1.11.91,6.2,6.2,0,0,1-.63.31,11.23,11.23,0,0,0-2.25,1.29A10.39,10.39,0,0,0,26.6,73c-.12.13-.27.3-.34.36a18.57,18.57,0,0,1-3.44,2.48,49.16,49.16,0,0,0-7.68,5.29L14.07,82a16.68,16.68,0,0,0-1.78,1.65,6.76,6.76,0,0,1-1,1c-.48.32-.94.65-1.41,1-.65.46-1.25.89-1.85,1.27-.35.22-.74.43-1.13.66C4.42,88.88.34,91.2.11,96.06c-.14,2.82-.15,6,0,9.61a25,25,0,0,0,1,6.27,16,16,0,0,0,1,2.31,11.24,11.24,0,0,1,.55,1.24c.45,1.5.78,3,1.12,4.63.22,1,.45,2,.71,3.08.06.25.09.47.13.67a8.58,8.58,0,0,0,1.58,3.87,51.28,51.28,0,0,0,4.45,5.45l.14.14A81.85,81.85,0,0,0,19,141a25.52,25.52,0,0,1,4.13,4.46,45.06,45.06,0,0,0,3.4,4,15.67,15.67,0,0,0,1.75,1.5,11.16,11.16,0,0,1,.92.77,8.83,8.83,0,0,1,.95,1.22,21.72,21.72,0,0,0,1.32,1.75c4.36,5,8.91,8.45,13.51,10.2a46.15,46.15,0,0,0,8.92,2.53c1.08.18,2.08.27,3,.36a27,27,0,0,1,3,.38,12.22,12.22,0,0,0,2.56.28,9,9,0,0,0,5.22-1.57,10.55,10.55,0,0,0,2.08-2l.41-.46.62-.13a11,11,0,0,0,2.48-.7c3-1.32,4.21-4,5-5.77a8.3,8.3,0,0,1,.76-1.53,16.85,16.85,0,0,1,1.75-1.71,16.88,16.88,0,0,0,4-4.59,27.65,27.65,0,0,0,3.33-8.28,51.92,51.92,0,0,0,.73-9.18c0-.83-.06-1.7-.12-2.54-.09-1.16-.25-3.32,0-3.93a16.93,16.93,0,0,1,3-3.43c.75-.73,1.51-1.47,2.24-2.29s1.35-1.48,2.07-2.23,1.44-1.52,2.18-2.35a39,39,0,0,0,6.76-9.92q1-2.34,2.06-4.69L109,96.73c.31-.73.68-1.45,1.06-2.23,1.26-2.53,2.69-5.41,2.85-9,.08-1.91,0-3.79,0-5.62q0-1.38,0-2.76c0-.69,0-1.43.06-2.22a30.81,30.81,0,0,0-.17-6.18,14.19,14.19,0,0,0-4.37-8l-.81-.86c-.43-.47-.89-1-1.38-1.45a17.81,17.81,0,0,0,1.51-1.17l.45-.38a19.77,19.77,0,0,0,3.18-3.15c.28.16.55.33.83.51,1.16.71,2.32,1.43,3.5,2.14a42.34,42.34,0,0,1,2.4,9.16,74.77,74.77,0,0,1,.65,9.15,88.49,88.49,0,0,0,.65,9.46,87.11,87.11,0,0,0,4.18,15.76c.44,1.31.87,2.61,1.29,3.91a50,50,0,0,1,1.19,4.92c.32,1.51.65,3.08,1.09,4.66.39,1.4.91,2.8,1.41,4.15a23,23,0,0,1,1.8,6.62l8.45-.25a29.34,29.34,0,0,0-2.32-9.31c-.46-1.25-.9-2.43-1.2-3.5-.36-1.31-.65-2.66-.95-4.09a55.66,55.66,0,0,0-1.42-5.77c-.42-1.34-.87-2.68-1.32-4A82.22,82.22,0,0,1,127.73,83a81.53,81.53,0,0,1-.56-8.58,85,85,0,0,0-.75-10.16c-.11-.73-.24-1.5-.4-2.31,1,.45,2,.94,3,1.47,1.57.79,3.19,1.6,4.92,2.29a21.9,21.9,0,0,0,4.7,1.14l.78.13a32.32,32.32,0,0,0,6.52.25c.75,0,1.45,0,2.13,0s1.57,0,2.41,0a47.63,47.63,0,0,0,6.18-.12c8.53-.87,11.07-3.12,12.23-4.75C171.1,59.33,171.81,52.57,168.35,49.44Zm-66.93-1.52c.32.17.64.36,1,.56.5.29,1,.58,1.51.86a11.76,11.76,0,0,1-1,.92c-.21.16-.42.34-.64.52a7.82,7.82,0,0,1-.83.66,5.08,5.08,0,0,1-.86.28c-.35.1-.77.21-1.23.38l-.39-.33A11.63,11.63,0,0,0,97.85,51,8,8,0,0,0,101.42,47.92ZM65.49,53.36A11.62,11.62,0,0,0,68,55.88a19.38,19.38,0,0,0,7.54,3.3l1.76.38c2.06.42,4.63.94,5.92,1.86A13.74,13.74,0,0,1,85,63.09c.35.38.69.75,1,1.1.75.76,1.49,1.43,2.21,2.08a20.41,20.41,0,0,1,3.36,3.55c1.29,1.93,1.37,4,1.08,7.68a11.92,11.92,0,0,1-5,9.38,66.78,66.78,0,0,1-6.23,4,53.06,53.06,0,0,0-9.8,6.88,35.21,35.21,0,0,1-3,2.44c-1.12.85-2.28,1.72-3.41,2.76l-.34.31c-1.68,1.54-1.94,1.74-3.11,1.79-1.94.07-2.17-.2-2.63-.75a12.4,12.4,0,0,1-2.33-6.16c-.21-3.2,1-6.51,2.19-10a39,39,0,0,0,2.67-10.77c.08-1.19.08-2.33.07-3.43s0-2.28.09-3.33a40.73,40.73,0,0,1,.84-4.89c.26-1.21.52-2.47.73-3.8a42,42,0,0,1,1.5-6.69C65.07,54.46,65.29,53.84,65.49,53.36Zm-10.62-16a20.31,20.31,0,0,1,1.37-3.69,29.85,29.85,0,0,0,2.31-5.84,19.14,19.14,0,0,0,.54-2.55,26.46,26.46,0,0,0,5.15,2.26,7.08,7.08,0,0,0-2.06,4.11,22.06,22.06,0,0,0-.4,3.48A9.91,9.91,0,0,0,57.5,39a9.52,9.52,0,0,0-.74,1.76,23.24,23.24,0,0,1-2.16-1.19l-.08,0a3.35,3.35,0,0,1-.19-.38C54.52,38.52,54.7,38,54.87,37.39Zm-3.95-15-.06.51c-.09.76-.16,1.44-.29,2A21.07,21.07,0,0,1,50.92,22.4Zm53.55,52.17c0,.85-.07,1.72-.07,2.58s0,1.93,0,2.9c0,1.78.06,3.46,0,5.11s-1,3.53-2,5.58c-.41.83-.84,1.68-1.24,2.6-.64,1.46-1.29,2.93-1.93,4.4l-2.07,4.7a31.2,31.2,0,0,1-5.33,7.69c-.64.72-1.3,1.41-2,2.14s-1.5,1.58-2.27,2.45c-.52.58-1.15,1.19-1.81,1.84a23.62,23.62,0,0,0-4.5,5.4c-1.52,2.75-1.27,6-1.08,8.65.06.72.11,1.4.11,1.91a43.55,43.55,0,0,1-.61,7.68A20.23,20.23,0,0,1,77.29,146a9.41,9.41,0,0,1-2.14,2.31,23.79,23.79,0,0,0-2.66,2.66,14.15,14.15,0,0,0-2,3.54,9.57,9.57,0,0,1-.67,1.39l-.59.13a9.42,9.42,0,0,0-3.71,1.36,10.77,10.77,0,0,0-2.16,2c-.16.19-.39.46-.46.52a2.36,2.36,0,0,1-1.26,0,36.12,36.12,0,0,0-4-.53c-.86-.07-1.68-.15-2.47-.28A38.41,38.41,0,0,1,48,157c-3.24-1.23-6.74-3.94-10.13-7.85-.24-.28-.5-.64-.79-1.05a16.75,16.75,0,0,0-1.87-2.34,17.43,17.43,0,0,0-1.73-1.48,8.63,8.63,0,0,1-.93-.77,39.25,39.25,0,0,1-2.79-3.27,33,33,0,0,0-5.57-5.89,73.58,73.58,0,0,1-7.36-6.9l-.13-.14a44.81,44.81,0,0,1-3.7-4.56l-.07-.36c-.06-.32-.13-.72-.25-1.2-.22-.91-.43-1.84-.64-2.83-.37-1.7-.75-3.46-1.3-5.29a16.24,16.24,0,0,0-1.06-2.54,9.3,9.3,0,0,1-.52-1.16,16.11,16.11,0,0,1-.56-4c-.12-3.37-.12-6.25,0-8.82a11.26,11.26,0,0,1,2.5-1.71L12.48,94c.79-.5,1.53-1,2.23-1.52.42-.3.83-.59,1.25-.87a14.62,14.62,0,0,0,2.42-2.11,8.59,8.59,0,0,1,.9-.86l1.09-.86a43.08,43.08,0,0,1,6.32-4.42,26.61,26.61,0,0,0,5.17-3.66,12.31,12.31,0,0,0,1-1l.3-.33c.09-.06.4-.2.63-.31a12.39,12.39,0,0,0,1.91-1,20.15,20.15,0,0,0,1.89-1.53,14.85,14.85,0,0,1,1.17-1,29,29,0,0,0,4.36-3.63c.17-.18.45-.43.75-.69A13,13,0,0,0,46.77,67c1.29-2.25,1.56-5.27,1.76-7.47,0-.26,0-.5.07-.73l0-.46a22.69,22.69,0,0,1,.67-4.24,17.67,17.67,0,0,0,.44-2.19c.27-.07.52-.13.75-.17.87-.17,1.7-.37,2.52-.57l1-.24a9.91,9.91,0,0,0,2.65-1.08l.44-.23.23,0,.43,0,.09.09a31,31,0,0,0-1.11,3,51.9,51.9,0,0,0-1.81,8c-.17,1.1-.4,2.19-.65,3.35a47.9,47.9,0,0,0-1,5.89c-.13,1.43-.13,2.79-.12,4.1,0,1,0,2-.06,2.88A32.82,32.82,0,0,1,51,85.33c-1.47,4.16-3,8.45-2.66,13.38a20.72,20.72,0,0,0,4.27,11c2.95,3.56,6.45,3.92,9.48,3.8,4.31-.18,6.43-2.13,8.48-4l.32-.3c.84-.77,1.8-1.48,2.8-2.24a43.13,43.13,0,0,0,3.73-3,47,47,0,0,1,8.31-5.76,69.86,69.86,0,0,0,7-4.55,20.36,20.36,0,0,0,8.36-15.44c.34-4.22.42-8.71-2.48-13a21.75,21.75,0,0,0-3-3.54c.22,0,.43-.06.66-.1l.21,0a17.3,17.3,0,0,0,2.93,2.28l.16.11a14.25,14.25,0,0,1,1.83,1.79l1,1.06a6,6,0,0,1,2,3.43A23.24,23.24,0,0,1,104.47,74.57ZM162.08,57.3a20,20,0,0,1-6.25,1.39,40.68,40.68,0,0,1-5.1.07l-2.61,0c-.81,0-1.64,0-2.43.06a25.79,25.79,0,0,1-4.81-.13l-.87-.15a14.59,14.59,0,0,1-2.92-.65c-1.39-.56-2.77-1.25-4.24-2-1.1-.55-2.23-1.12-3.41-1.64a77.3,77.3,0,0,1-7.15-3.74,32.82,32.82,0,0,0-2.14-3.72l-.25-.38a14.51,14.51,0,0,1-1.09-1.77.3.3,0,0,0,0-.1,7.27,7.27,0,0,0-1-2.39,9.28,9.28,0,0,0-1-1.23,7,7,0,0,0,.67-1.61c1-3.35-.74-7.3-2.81-9.31a8.73,8.73,0,0,0-2.42-1.62l-.21-.1a24.93,24.93,0,0,1,3,.41c3.46.7,7,3.18,9.94,5.52a16.69,16.69,0,0,1,2.76,3.31c.56.78,1.14,1.59,1.77,2.36.35.42.7.87,1,1.31a26.72,26.72,0,0,0,3.66,4.1,22.79,22.79,0,0,0,5.24,3.09c.65.31,1.26.6,1.78.88a49.44,49.44,0,0,0,16.11,5.64,24.64,24.64,0,0,1,3.3.67,14,14,0,0,0,1.45.36l.16,0A5.18,5.18,0,0,1,162.08,57.3Z"/></g></g></svg>