<svg xmlns="http://www.w3.org/2000/svg" viewBox="0 0 163.02 153.71"><defs><style>.cls-1{fill:#ffe4b4;}</style></defs><g id="Layer_2" data-name="Layer 2"><g id="Layer_1-2" data-name="Layer 1"><path class="cls-1" d="M121.84,11.34c.56.24,1,.63,1.5.89a7.16,7.16,0,0,1,1.8.88,29.23,29.23,0,0,1,3.06,2.64c1.21,1.27,2,3.66,3.91,3.78,1.69.09,3.2,1.91,3.88,3.36.32.68.47,1.4.85,2.06a10.64,10.64,0,0,0,1.78,2.23A7,7,0,0,0,141.39,29c.35.1.69,0,1,.2a7.17,7.17,0,0,1,.78.68,2.9,2.9,0,0,1,1,1,16.93,16.93,0,0,0,1,1.47,29.24,29.24,0,0,1,2,3.15c.51.93.65,2,1.52,2.74.39.32.56.24.63.79s-.27.78.28,1.12A1.79,1.79,0,0,0,151,40c.18.25.47.08.73.2a11.12,11.12,0,0,1,1.19.94,7.66,7.66,0,0,1,2.5,2.2,4.72,4.72,0,0,1,.57,2.81,23.49,23.49,0,0,0,.41,4.88,4.53,4.53,0,0,0,1.55,2.81c.79.67,1.62,1.3,2.44,1.93A7.09,7.09,0,0,1,163,60.67a9.46,9.46,0,0,1,0,2.71c-.28,1.08-1.13,2-1.34,3.15-.39,2,1.09,3.7,1.11,5.66,0,.88.28,1.64.27,2.54a10.63,10.63,0,0,1-.28,3.08,22,22,0,0,1-2.23,6,21.13,21.13,0,0,0-1.53,3.09c-.48,1-.74,2-1.15,3.11a9.57,9.57,0,0,0-.61,1.53,10.68,10.68,0,0,0,0,1.13,1.86,1.86,0,0,1-.53,1.18c.37.26.44.3.53.72a9,9,0,0,1,0,1.64,13.94,13.94,0,0,0,.35,4,3.56,3.56,0,0,1,0,2.49A8.61,8.61,0,0,1,155,105a5.06,5.06,0,0,0-2.13,3.35,6.86,6.86,0,0,1-1.32,3.76,11.91,11.91,0,0,1-2.95,3.1,3.08,3.08,0,0,0-1,.82c-.28.39-.34.86-1,.84a1,1,0,0,1,.65.6c-.33.69-1.06.89-1.65,1.28a5,5,0,0,0-1.15,1.18,4.57,4.57,0,0,0-1.34,2.63c-.37,2.33-.37,4.62-1.19,6.86a7.26,7.26,0,0,1-2.62,3.77,16.13,16.13,0,0,1-1.66,1.26c-.57.3-1.27.28-1.86.53a11.09,11.09,0,0,0-1.37.71,5.08,5.08,0,0,0-1.76,1.58,16.61,16.61,0,0,1-1.54,3,8.77,8.77,0,0,1-3.15,2.65,13.44,13.44,0,0,1-5.88,1.61,9.72,9.72,0,0,1-1.87,0,16.51,16.51,0,0,1-1.74-.74,6.6,6.6,0,0,0-1.81-.35c0,.39-.6.78-.82,1.15a10.25,10.25,0,0,1-1,1.72c-.85,1-2.18,2.41-3.56,2.47s-2.89.27-4.34.25a12.42,12.42,0,0,0-3.72.64c-1.84.55-4,.14-5.9-.1a18.7,18.7,0,0,0-2.81-.26,20.47,20.47,0,0,1-2.93-.14,45.6,45.6,0,0,0-5.73-.13c-1.38,0-2.66.29-4,.27-.92,0-1.71.29-2.64.28-.55,0-1.11,0-1.65,0a9.17,9.17,0,0,0-1.2.31,15.16,15.16,0,0,0-2,.12A14,14,0,0,0,72,151.05a33.32,33.32,0,0,1-3.89,1.47c-.78.29-1.55.57-2.34.84a8.16,8.16,0,0,1-2.82.35,12.52,12.52,0,0,1-4.44-.54c-1.3-.52-2.58-1.21-3.83-1.83-1.48-.74-2.65-1.81-4.06-2.64-.74-.43-2.17-1.55-3-1.52-.35-.42-.1-1.09-.39-1.58a3.15,3.15,0,0,0-.89-.81,9.12,9.12,0,0,0-3.5-1.66,23.94,23.94,0,0,0-4.56,0,8.12,8.12,0,0,1-4.11-1.26c-.79-.46-1-1.41-1.46-2.16a20.58,20.58,0,0,1-1-1.85c-.18-.37-.21-.62-.56-.84a6.73,6.73,0,0,0-2.1-.38c-1.47-.28-3,0-4.44-.48a11.48,11.48,0,0,1-1.67-1A10.85,10.85,0,0,1,21,134.07a12,12,0,0,1-2.87-2.4,8.27,8.27,0,0,1-1-3.23,26.47,26.47,0,0,1-.31-4.8c0-1.52.28-3,.29-4.51,0-1.18-.79-1.48-1.74-2.09a11.84,11.84,0,0,1-1.76-1.54c-.38-.35-.77-.32-1.23-.56s-.48-.48-.74-1.08a16.92,16.92,0,0,0-1-1.8,13.17,13.17,0,0,0-1.19-1.42c-.38-.46-.73-.93-1.11-1.39-.74-.91-1.68-1.74-1.83-3a31.4,31.4,0,0,1,0-3.88c0-.56,0-1.13,0-1.69a10.06,10.06,0,0,0-.51-2,5.7,5.7,0,0,0-.5-1.86c-.32-.51-.76-.89-1.07-1.43-.65-1.13-1.56-2-2.18-3.2a4.86,4.86,0,0,1-.75-1.69,15.09,15.09,0,0,1,0-2.33A22,22,0,0,1,2,83.89a20.24,20.24,0,0,0,.28-4,3.47,3.47,0,0,0-.54-2.42,4.06,4.06,0,0,1-.88-1.63C.7,75.14.32,74.48.15,73.75A5.42,5.42,0,0,1,1.34,69a60.6,60.6,0,0,0,3.92-6.55,4.57,4.57,0,0,0,.62-2.59,9.37,9.37,0,0,0-.29-1.32A5.92,5.92,0,0,0,5.4,57.2a7,7,0,0,1,.41-6.45c.29-.45.67-.79,1-1.24a4.92,4.92,0,0,0,.55-1.1c.4-1.15.13-2.35.52-3.51A10.09,10.09,0,0,1,9.23,42,3.73,3.73,0,0,1,12,40.38c1.09-.26,2.19-.5,3.28-.74.3-.07,1.37-.6,1.55-.44-.31-.28-.74-.09-1.12-.18,0-.39.36-.88.47-1.28s.21-1,.33-1.51a13.31,13.31,0,0,1,.76-2.2c.85-1.71,2.39-3.05,3.61-4.49.71-.84,1.61-2,2.76-2.22,1.61-.24,3.35.26,5,0a5.14,5.14,0,0,0,2.5-.84A12.44,12.44,0,0,0,33.56,24a13.65,13.65,0,0,1,1.34-1.51,6.8,6.8,0,0,0,.83-.87c.2-.3.33-.65.56-.94.74-1,1.05-2.12,1.73-3.1s2.19-1,3.23-1.11c.71-.07,1.45-.2,2.15-.3a3.08,3.08,0,0,0,1.39-.53,5.39,5.39,0,0,0,.56-1.39,6.77,6.77,0,0,1,.85-1.7,5.1,5.1,0,0,1,2.08-2.16,21.55,21.55,0,0,1,3.07-.67,7,7,0,0,0,2-1,23.79,23.79,0,0,1,2.78-1.83,10.47,10.47,0,0,1,3.58-.76,8.91,8.91,0,0,0,1.79,0,8,8,0,0,0,.85-.54,23,23,0,0,1,2.31-1.33,3,3,0,0,1,1.75-.36,8.11,8.11,0,0,0,1.1.3,13.66,13.66,0,0,0,3-.07c1.14-.19,2.31-.15,3.4-.43a14,14,0,0,0,1.69-.34c.47-.18.95-.29,1.4-.48C78.88,2.05,80.49,0,82.6,0a6.57,6.57,0,0,1,2.72.76c.42.18.74.56,1.18.65a6.63,6.63,0,0,0,1.26,0c.41,0,.84,0,1.25,0s.89-.27,1.4-.29A6,6,0,0,0,91.69.86a3,3,0,0,1,1.57.19c1,.25,2.07,0,3.08.54a9,9,0,0,1,2.37,1.77A5.51,5.51,0,0,0,101,4.46a10.79,10.79,0,0,0,2.66.56c.92,0,1.88,0,2.8,0,.75,0,1.31-.52,2.09-.56a14.05,14.05,0,0,1,4.68.34c1.68.5,2.4,2.24,3.53,3.43a11.23,11.23,0,0,0,3.37,2.37,4.16,4.16,0,0,0,1.12.27c.34.08.58.39,1,.29C121.1,11.2,121.47,11.19,121.84,11.34ZM65,54.4c-.71-.15-1.83.56-2.51.76A9.23,9.23,0,0,0,60,56.35a12.92,12.92,0,0,0-1.87,1.75c-.73.73-1.53,1.41-2.24,2.17a7,7,0,0,0-1.4,1.94A5.41,5.41,0,0,1,53,64.16a7,7,0,0,0-2.17,4.45c-.3,1.87-1,3.7-1.1,5.59,0,.51-.27.89-.3,1.4s0,.93,0,1.39,0,.75,0,1.12-.23.9-.29,1.39c-.19,1.68-.82,3.23-.5,5,.17.91.35,1.67.56,2.53a8.2,8.2,0,0,1,.21,1.12c0,.44.24.66.3,1.1a16.66,16.66,0,0,0,.49,2.24,4.7,4.7,0,0,0,.25,1.11c.24.5.6.91.85,1.4s.29.89.51,1.23.52.59.75.94c.46.72,1.15,1.29,1.6,2,1.81,2.87,3.72,5.75,6.63,7.6.72.46,1.35,1,2,1.55A25.94,25.94,0,0,0,65.27,109a13.15,13.15,0,0,0,1.85.67,11.27,11.27,0,0,0,1.24.53,14.48,14.48,0,0,0,3.29.27c1.15,0,2.29,0,3.43,0a4.38,4.38,0,0,0,1.1-.22,6.8,6.8,0,0,1,1.69-.06,13.82,13.82,0,0,0,6.06-1.12c.76-.35,1.6-.75,2.35-1a7.54,7.54,0,0,0,1.06-.42,7.54,7.54,0,0,1,1.12-.48,11.54,11.54,0,0,0,4.26-2.74,42.93,42.93,0,0,1,4-4c1.06-.82,2.09-1.69,3.15-2.5a12.24,12.24,0,0,0,2.46-2.52c2.08-3.27,5-6.11,6.54-9.76a7.5,7.5,0,0,0,.49-3.08,31.38,31.38,0,0,0,0-3.36,22.7,22.7,0,0,0-.62-3,27.72,27.72,0,0,0-1.41-3.2,27.76,27.76,0,0,0-2.23-4.89A36.88,36.88,0,0,0,91,55a18,18,0,0,0-4.48-2,21.47,21.47,0,0,0-2.79-.33,9.89,9.89,0,0,1-1.1-.3c-.45-.08-.93,0-1.38,0a30.37,30.37,0,0,0-5.32-.21,20.87,20.87,0,0,0-5,.49c-1.57.39-3,1-4.46,1.4-.94.22-1,.32-1.46,1.17a11.19,11.19,0,0,1-1.33,2,5.89,5.89,0,0,1-2,1.62c-.33.16-.71.24-1,.41a15.34,15.34,0,0,0-1.4,1,13.06,13.06,0,0,0-3.83,3.2,12.52,12.52,0,0,0-1.81,4.32c-.07.3-.27.71-.35,1.07-.13.52-.24,1-.36,1.56A16.36,16.36,0,0,0,52.47,74a36.56,36.56,0,0,0,.35,7.69,15,15,0,0,1,.48,3.2v2.72A4.93,4.93,0,0,1,53,89.81a7.37,7.37,0,0,1-1.12,1.87c.07-1.45.29-2.62.29-4.09V83c0-.41,0-.83,0-1.24a10.09,10.09,0,0,0-.31-1.11,15.35,15.35,0,0,1-.26-2.37c0-1.54,0-3.07,0-4.6,0-.7,0-1.4,0-2.1,0-.43.2-.53.26-.86A11.5,11.5,0,0,1,52,69.52a2.59,2.59,0,0,0,.21-.89,10.1,10.1,0,0,1,.26-1.24,6.92,6.92,0,0,1,.52-1.9,8.36,8.36,0,0,1,2-3.23,6.39,6.39,0,0,1,1.31-1c.6-.29,1.24-.51,1.86-.8.32-.15.61-.43.94-.6s.68-.31,1-.48a18.73,18.73,0,0,0,1.67-1.12c1.21-.81,2.39-1.92,1.79-3.58C63.5,54.71,63.42,54.69,65,54.4Z"/></g></g></svg>