<svg xmlns="http://www.w3.org/2000/svg" viewBox="0 0 263.3 158.99"><defs><style>.cls-1{fill:#648fe7;}</style></defs><g id="Layer_2" data-name="Layer 2"><g id="Layer_1-2" data-name="Layer 1"><path class="cls-1" d="M262.33,96.43c-.65-1.73-1.67-2.41-2.73-3.84-.89-1.21-1.26-3.19-2-4.5-.93-1.6-2.36-3.1-3-4.75-.45-1.09-.16-1.72-.84-2.75a15.24,15.24,0,0,0-1.82-1.77c-2.43-2.4-4.77-4.75-7.16-7.16a33.08,33.08,0,0,0-4.48-3.88c-1.39-1-3.15-3.25-4.78-3.59-4.49-.93-7-4.64-11.35-6.11s-8.28-1.76-12.56-2.22c-4.1-.44-6.56-3.31-9.79-5.73-2.8-2.09-7.33-2.46-10.48-3.25a43.32,43.32,0,0,0-11.35-1.79c-4.72,0-9.31-.49-13.73,1.19-2.1.8-4.6,1.09-6.48,2.38-1.55,1.07-2.63,2.3-4.3,3.29-3.4,2-5.95,4.76-9.32,7-1-7-12.29-3.79-16.94-4.34-2.56-.29-1.68-.2-2.66-2.38-.82-1.85-.53-2.94-.84-4.8a40.53,40.53,0,0,0-2.6-8.91c-4.61-11.17-9.44-21.67-18.72-29.63C99.87,5.12,93.65,3.58,88,2.21,81.5.66,76-1.14,69.43.94c-2.29.72-5,1.41-7.17,2.32C59.33,4.47,58,5.75,54.53,5.68c-7-.13-13.49,4.46-19.76,7.16-5.66,2.44-13.39,6.22-17.88,10.72a29.31,29.31,0,0,0-5.08,7.13,28.27,28.27,0,0,0-2.12,4.78c-.4,1.77.67,3.05-1.13,4.36-2.07-1.47,0-4-1.37-5.3-2.13-2.08-4.27,1.31-4.63,2.77a43.29,43.29,0,0,0-1.13,6.63C1.17,46.37.17,47.75.2,50.46c.06,5,1.23,8.69,1.2,13.73a17.2,17.2,0,0,0-.07,3.65c.24.93,1.33,1.31,1.38,2.26C2.84,72.22.72,75,.3,76.84a18,18,0,0,0,.17,7.39c.26.94.82,1.37,1,2.63s-.24,2.76.08,4.1c.21.92.94,1.36,1.14,2.44s-.2,2.37,0,3.53a12.93,12.93,0,0,0,2.56,5.15,47.35,47.35,0,0,1,8.09,12.37,48.4,48.4,0,0,1,2.68,8c.94,3.77,2.56,5.26,5.12,8.07a32.45,32.45,0,0,0,10.05,7.75c2.31,1.16,4.85,1.09,7.2,2.07,3.55,1.48,7.18,2.62,10.81,3.9,6.08,2.15,12.16,5.51,17.89,8.36a68.5,68.5,0,0,0,14.32,5c13.23,3.27,28.14-.26,41.66-.26h21.6c7.53,0,14.56,1.19,22.11,1.19h28c3.25,0,5.91,0,8.66-.9s5.39-2,8.1-2.95c5.91-2.11,11.66-5.3,17.31-8.09,4.49-2.21,9.42-4.09,10.15-9.55,6.15-6.31,11.67-12.89,17.62-19.43,2.14-2.37,5.11-5.28,6-8.31C263.62,106,263.5,99.53,262.33,96.43Zm-90.3,16c-1.81,3.73-5.4,7.44-9.4,8.82-5.42,1.86-9.61-1.54-14.14-3.2,0,0,.8,3.07,1,4.6a19.14,19.14,0,0,1,0,5.45c-.65,3.09-3.74,5.69-6.71,6.42-6,1.47-13.64.26-18.11-3.79s-6.46-9.91-3.71-15c4-7.49,13.35-5,14.94-4.94-3.18-1.95-2.5-9.29-1.87-12.59.81-4.26,3.28-7.34,6.45-10.15,3.84-3.41,7.61-3.59,12.55-3.58a26.33,26.33,0,0,1,7.16.93c1.77.43,5.9,2.33,6,2.65,3.29,1.16,6.2,5.7,7.16,9.55.1.38.94,2.45,1,2.65.15,1.84-.7,2.66-1,4.52C172.82,107.53,173.34,109.74,172,112.46Zm31.18,22.19c0,4.79-2.11,8.54-7.11,9.62-1.19.26-2.38-.12-3.64.2s-2,1.1-3.61,1a25.19,25.19,0,0,1-5.23-1.36,19.16,19.16,0,0,1-8.52-7c-1.65-3-.75-9.67-.58-13.18.23-4.73,3.69-9.89,8.13-11.07,5.74-1.52,11,1.52,11,1.52-.66,0,3.18,1.74,4.1,2.38,1.7,1.18,2.83,3.18,4,4.85C204.24,125.15,203.18,130.27,203.21,134.65Zm6-53.7c-1.93,4.58-3.44,4.75-8.39,4.74a66.35,66.35,0,0,1-7.19,0c-2.29-.28-2.84-1-4.46-2.71-2.38-2.47-5.25-4.16-7.75-6.58a10.05,10.05,0,0,1-2.69-9.84c1-4,3.44-6.56,6.8-9.26,2.43-1.95,4.23-.9,6.93-1.43,3-.59,2.56-.84,5.34,0,1.76.51,3.44.26,5.14,1.43,6.71,4.61,6.9,10.61,7.23,10.68C211.45,71.48,210.51,77.86,209.21,81Zm36.5,31.12c-1.82.53-1.83,1.38-4,.82a16.34,16.34,0,0,1-3.9-1.47c-2.2-1.64-1.13-7.12-1.14-9.61,0-3.31.1-6.57,2.07-9.28A7.83,7.83,0,0,1,245,89.27c2.16,0,3.8,1,6,1.16a9.1,9.1,0,0,1,4.17,1.32c2.63,1.84,3,5,3,8.27C258.17,106.22,250.89,110.58,245.71,112.07Z"/></g></g></svg>