<svg xmlns="http://www.w3.org/2000/svg" viewBox="0 0 202.62 157.67"><defs><style>.cls-1{fill:#da9dda;}</style></defs><g id="Layer_2" data-name="Layer 2"><g id="Layer_1-2" data-name="Layer 1"><path class="cls-1" d="M199.92,95.11c-9.09,3.33-15.82,5.18-27.55,5.38,6.75,4.55,12.95,6.09,17.79,10.52-3.84,1.86-6.51-.79-9.45-1.89s-6.05-2.29-9.08-3.43c-5.33-2.17-10.41-5.49-16.74-3.55l13.32,5.69c1.86.82,3.65,2.06,5.59,2.38,6.07,1,7.34,5.17,7.34,10.34-2.45,1.72-4.34.2-6.12-1.18-1.35-1.05-2.33-2.57-4.31-2.68-1.24-.07-2.31-.13-2.74,1.36s.5,1.76,1.62,2.35a12.14,12.14,0,0,0,11.34.15c3.16-1.2,3.67,2.14,5.51,3.2,4.18,2.42,8.41,4.75,12.21,8.65-5.87-1.22-11.76-2.37-17.61-3.69-2.43-.55-4.73-2.59-7.12.23-1.33,1.57-2.62-.14-3.83-.57-3.56-1.27-7-3-10.85-3.13-.5-1.13-1.57-1.49-2.58-2-1.24-.63-2.67-1.86-3.67-.29-1.4,2.21.75,2.77,2.23,3.46.76.36,1.55.67,2.33,1l1,1.51-2.71.31c-2.22-1.2-3.69-.33-4.75,1.72-1.69,3.26,2.44,3.17,3,5.16-.53,1.62-2,1.6-3.3,1.88-1.33-.54-2.88-1.26-3.06,1-.21,2.72,1.58,4.82,2.64,7.15.86,1.89,3.12,3.49,1.8,6.12-2.13-.11-2-2.83-3.93-2.8-.47-1.29-1.4-3.4-2.45-2.71-2,1.33-.47,2.74,1,3.69-.15,2.33,2.39,4,1.45,7.18-4.8-4.67-7.9-10.14-11.43-15.27-.26-1.59-1.45-3-2.44-1.3-1.26,2.24-3,4.83-1.61,7.82,0,1,0,2,.07,3a1.4,1.4,0,0,0,.83,2.17l.28,3.3c-4.5-2.77-7.87-6.75-11.37-10.59-.4-1.33-.79-2.67-1.6-5.4-1,4.39-1.78,7.61-2.53,10.83-2.89-3.37-.12-7.83-1.91-10.9l-6.79,3.8.09-10.72c.08-4-1.71-7.81-1.16-12a31.55,31.55,0,0,0-4.48,13.7c-1.89,5.37-3.17,11-7.6,15.35.44-2.74.87-5.47,1.29-8.12-3.17-3.15-4.39,3.56-7.91,1,1.85-4.93,3.77-10,5.68-15.13,1.62-1,1.92-2.87,2.57-4.41.5-1.21-.18-2.17-1.75-1.89L88,127.21a6.18,6.18,0,0,1-4.41,2.49q-.4-.31-.81-.66c0-2.68-1.14-2.49-3-1.34-1.25.79-2,4-4.26,1.08.81-5.37-1.95-1.83-3.47-1.39-1.3-1.75-2.26-4.62-4.94-1.28-2,2.42-4.23.8-5.18-.61-2.43-3.58,2.28-1.77,2.83-3.25a8.12,8.12,0,0,0,.27-1.73l.37-.42c2.33-1.66,5.19-2.73,7.25-6.14l-5.53,1.22-3.27-.85a3.42,3.42,0,0,1,.27-.8c.39-.57.13-1-.56-.65-4.11,2-8.17,4-12.25,6l-2.06-2.07c2.56-3.59,8.48-3.7,10-9.38-6.27-.08-9.73,5.06-14.83,5.87-.4-.45-1.08-.86-1-1.21.14-1.72,2.79-2.6,1.93-4.55-1.1-2.48-3.65-1.37-5.51-1.46s-3.53,2.2-6.1,1.25c.16-2,1.66-2.56,3.27-2.86A1.84,1.84,0,0,0,38.75,103c-4.48.58-.17-6.17-5.44-6.08C29.31,97,25,98,20.7,95.38c-2.5-1.56-5.52,2.34-8.68,2.73-3.18.82-4.52-2.63-.9-3.85,4.86-1.75,10.19-2.47,14.37-5.78,2.87-2.28,2.48-4-1-5.64-6.36-3-12.45-1.29-19.08,1.08C2.81,84.84,0,81.42,0,81.42c.19-.92,2.74-1.19,4.33-1.92,8.47-3.24,17.33-4.07,26.72-4.33L24.69,72c.93-2.47,4.18-.12,5.16-2.49,2.86-2,5.49-.29,8.31.31,4.49,1,8.78,3.44,14.59,2.07L24.56,63.36l1.93-1.72c4.39-1,8.25,2.93,13.63,1.41-6.25-4.52-13.9-2.78-19.31-7.71,5,.53,9.9,1,14.83,1.63,1.55.2,3,.55,3.41-1.39s-1.5-2.5-2.55-3-2.85-.07-4.26-.32c-2.41-.42-3.21-1.87-3.14-4.41,0-.53,1.44-3.23-1.46-3.65s-3.66-1.7-2-4.91c1-1.91-4-1.9-4.13-5.46C28.63,37.93,37.06,36,44,39.93c1.1,1.7,2.89,1,4.43,1.28.41,1.27.42,2.91,2.33,2.92.42,0,1.2-.45,1.21-.73.1-1.63-1.22-2.35-2.33-3.17L47.52,37l1.7-1.69c1.42-.13,2.16,2.08,4.29.89C50,33.74,49,28.77,44,28.13l.08.26c-1-1.77.2-4.2-2.1-5.71C38,20.1,38.65,16.49,40.6,12.29c2.68,1.18,5.47,5.72,7.89,3.27,2.25-2.28,5.7,3,6.46-2,.31-2,1.64-.34,2.32.21,4.46,3.64,8.89,7.34,13.33,11,1.63-.76-.33-3.14,1.67-3.73.71.71,1.41,1.43,2.12,2.15,1-1.08-.36-1.92-.3-2.91a4.29,4.29,0,0,0-.1-.86c.42-1.29.06-2.95,1.75-3.64,2.4.86.13,5.27,3.88,5.11-1,1.73-.5,3,1.12,4.13-.1-1.5,1.12-3.36-1.33-4,1.38-3.38-1.44-6.93.66-10.8,2.25,5.17,5,9.72,5.11,16.55C89.78,17.53,88,8.13,92.13,0c.73,3.47,1.8,6.81.86,10.38-2.16,6.6-2.15,6.91.48,13.68l2.07-9.82c3.9-3.45,5.15-8.61,8-14.25,1.87,8.38-1.75,14.94-1.14,22,5-3,6.27-8.68,11.5-12.59-.06,5.43-4.77,8.93-2.34,13.7,4.28-2.27,6.3-7.43,10.91-9.27,1.75,2.46-1,3.35-.92,5-1.46.77-2.25,2.15-1,3.28.83.74,1.74-.85,2.5-1.56,5.61-1.65,9.57-6.22,14.84-8.46l1.88,1.76c-4.83,3.93-5.06,10.92-9.58,15.52l13.21-6.54c1.12.51,2.67.05,3.36,1.51q-6.19,7.53-12.4,15c-2.72,1.14-5.78,2-5.05,6.38,2.82-1.57,5.66-2.28,7.1-5,3.11-1.46,6.31-2.76,9.31-4.43,2.57-1.43,4.84-2.23,8-1.57,4.73,1,9.31-2.37,14.22-1.46,1.23.41,2.7.25,3.55,1.53L158.8,38.65c-12.48,1.06-24.39,6.69-27.41,13.1a7.53,7.53,0,0,0,2.58-.21c6.31-3.1,12.46-6.09,20-5.86,2.65.08,6.49-.44,8.89-3.06,1.92.07,3.88-1.71,5.91.15l-3.07,3.33c5.49.33,10-2.52,14.87-1.91a3.38,3.38,0,0,0,0,1.45c-5.64,2.84-12.07,3.72-17.54,7-1.51.92-3,1.62-3.7,3.38,2.39,1.69,4.85.33,7.29.22s5.16-1.1,6.84,1.76c-6.68,1.7-6.86,2.1-3.26,7,.85,2.36,4.39,1,5.06,3.65l-.39.1c-12-1.32-22.75,3.66-34.92,5.73,2.47,2.16,4.27,2.08,5.93,1.74,9.21-1.89,18.37-3.28,27.64-.09,1.55.53,3.48-.06,5.24-.14a16.09,16.09,0,0,1,11.53,3.4c-8.47,3.47-16.15-.29-23.8.3a8.2,8.2,0,0,0-2.5-.4c-1.22.18-3.25-.51-3.3,1.49,0,1.59,1.64,2.16,3.06,2.38a2.32,2.32,0,0,0,2.66-1.6c5.1.71,10.2-.55,15.42.32,2.75.46,3.73,2.22,5.53,3.37-3.37,3.29-6.77,6.41-12,4.59-4-6.39-8.59-1.39-13.34-1,1.69,2.41,4.4,1,5.74,2.24-1.82,2.31-6.5-1.79-6.8,3-.33,5.18,4.17.23,5.56,2.11.85,1.15,2,.88,3.08,1.19,3.64,1.08,3.24-2.11,4.21-3.85,7.92,2.85,15.51,1.35,22.13-3.1C202,87.66,205.29,93.55,199.92,95.11ZM93.6,95.55c4,3.77,3.37,8.83,3.64,13.67,3,.67,6,1.51,8-1.65s1.64-6.17-1.66-8.33c-1.35-.88-.77-1.39-.39-2.61,2-6.67,2-7-4.32-9.73-2.45-1.06-2.2-2-1.63-3.78l.87,0H99c3.88,2.54,6.06.69,5.33-3.11-.85-4.44.71-8.37.45-12.6,6.61.83,6.66.79,9.58,5.54,1.94,3.16,4.37,3.39,7.44,1.79,2.3-1.21,2.24-3.36,2.17-5.33-.1-2.92-2.82-6.32-4.45-5.58-5.93,2.67-4.4-2.39-5.61-4.56-1.87-3.33-6.29-4.11-8.79-1.37-1.88,2.05-1.82,4.85-2.34,7.4-4.74-1.17-1.12-5.54-3-8-1.52-1.94-2.55-3.55-5.48-3.43-3.14.14-4,1.83-4.31,4.33-.19,1.43-.22,2.88-.32,4.34-7.42-1.06-7.53-1.07-8.57,5.53-.32,2.1-.34,3.85-2.71,4.94s-2.88,3.68-2.53,6.1-.32,4.49-1,6.79c-1.48,5.12-.33,7.17,5,9.43,2.08.9,2.75,1.53,3.35,4,.49,2-.42,7.47,4.68,6.31s3.81-4.9,2.56-8.35A14.25,14.25,0,0,1,90,95.55Zm25.57,7.64a11.27,11.27,0,0,0-2.31-5.87c-3.15-3.89-4.73-8-.81-12.51,2-2.3.58-4.44-.69-6.42a4.29,4.29,0,0,0-5.34-2c-2.3.8-3.65,4.15-3.12,4.79,3.22,3.88-.31,8.23,1,11.51s2.08,5.88.89,9.55c-.43,1.32.58,6.12,4.86,6.12A5.19,5.19,0,0,0,119.17,103.19Zm2.5-4.73c2.9.07,4.9-2.36,4.29-5.68-.55-3-1.78-5.81,1.38-8.4,2-1.61,2-4.18.26-6.31-1.4-1.76-3.47-2.57-5.4-1.52-2.27,1.24-5.19,3.44-3.8,6,2,3.66.1,5.57-1.42,8.34C115.3,94,118.33,98.37,121.67,98.46ZM46.2,91.53c-5.58-1.07-12.15-4.81-17.81,2.1Zm81.41-59.3c-2.23.8-3.17.89-3.73,1.4-1,.9-3.11-.89-3.39,1.41-.06.49.19,1.35.54,1.51,1.57.71,3.23,1.33,4.31-.84C125.72,35,126.26,34.29,127.61,32.23Zm16.25,63.14c-2.09-2.15-4.25-1.11-6-1.69-.88-.29-1.57.37-1.14,1.69Zm6.08-16.09c1.43.06,2.8.16,4.16.17.87,0,1.7-.2,1.63-1.35-.1-1.62-1-1.85-2.24-1.15S150.55,77.19,149.94,79.28Zm.62,16.28,2.76-.72a20,20,0,0,0-3.26-1.07c-.61-.1-1.88,0-1.53,1C148.68,95.28,150,95.37,150.56,95.56Zm2.65-9.74a6.5,6.5,0,0,0,6.8,0A6.5,6.5,0,0,0,153.21,85.82ZM60.47,108.5c2-.06,3-1.47,3.93-2.89a6.61,6.61,0,0,0-1.89-1.09c-2-.41-3.27.73-3.61,2.61A1.25,1.25,0,0,0,60.47,108.5Zm13.68-3.79a2.78,2.78,0,0,0-2.63,1.87c-.4,1.13.48,1.45,1.41,1.23a2.69,2.69,0,0,0,2.34-2.19C75.3,105.37,74.55,105,74.15,104.71ZM155.66,57.6c-2.23-1.74-3.91-1.29-5.71-.07C151.65,58.57,153.24,58.81,155.66,57.6ZM29.15,39.27l-1.06.57c.18.17.41.51.55.48a5.41,5.41,0,0,0,1.1-.5ZM47.52,37l1.7-1.69Q46.6,31.74,44,28.13l.08.26c-1.64-3.64-4.82-1.54-7.49-2.14,2.24,4.57,5.85,7.63,9.34,10.79A3.46,3.46,0,0,1,47.52,37Zm6.34,84.22c3.55,2.79,4.56,2.34,7.59-3.35C57.8,116.48,56.32,120,53.86,121.25Zm11.59-1.15c-.48-2,.69-3.44,1.72-4.92l-3.27-.85c-1.08,1-4.12-.33-3.24,2.87l4.42,3.32Zm-24.22-6.44a1.61,1.61,0,0,0-.61,1.28c0,.71.6.85,1.11.31a7.25,7.25,0,0,0,.81-1.25C42.09,113.86,41.5,113.5,41.23,113.66ZM82.8,129c-.86.78-1.94,1.52-.62,2.78.48-.7.95-1.41,1.43-2.12Q83.21,129.39,82.8,129Z"/></g></g></svg>