<svg xmlns="http://www.w3.org/2000/svg" viewBox="0 0 160.86 172.62"><defs><style>.cls-1{fill:plum;}</style></defs><g id="Layer_2" data-name="Layer 2"><g id="Layer_1-2" data-name="Layer 1"><path class="cls-1" d="M153.26,68.65c-2.64.72-4.78,2.68-7.81,2.84a27.72,27.72,0,0,1,4-10.72,12.47,12.47,0,0,0-5.87,4.93c-1.85,2.75-4.82,4.16-6.77,6.65-1.43,1.82-2.36.67-3.41-.32l-.51.66a5.14,5.14,0,0,1-.1,1.9c-1,1.91-3.17,3.87-4.68,3.3-3.73-1.42-1.81,2.84-3.81,3.1a16.38,16.38,0,0,1-6.18-.16c.58,2,1.57,4.18.12,6-1.12,1.39-2.2,3.47-4.82,2.39-.77-.31-.79.5-.67,1.25.46,3-1.58,5-3,7.24-.91,1.41-2.44.95-3.8.49,1.62-.89,3.24-1.69,2-4.11-.38-.71,0-1.79-.07-2.7-.12-3,.31-5.59,4.68-4.42-4.64-6.13-4.59-10.29-.12-13-2.45-2.92-5.57-5.79-.89-9.41.49-.38.22-1-.31-1.21-3-1.23-2.07-3.69-1.32-5.55,2.54-6.22,1.58-12.29.27-18.59-.6-2.87-.34-5.9-2.09-8.88-1.06,6.64,2.32,14.09-6.24,18.6,3.61.1,4,1.15,2.16,2.91-1.2,1.12-2.53,2.11-3.8,3.17-.24.35-.48.7-.71,1.06.65.3,1.14.21,1.38-.55a3.3,3.3,0,0,0,2.16-.66c-.4,1.52-.68,2.81-2.12,3.81s-4.33.87-2.69,4.47c.89,2-3.3,1.72-4.25,3.65.9,1.4,2-1.44,2.75.08s-.16,3.08-1.07,4.25c-1.08,1.39-2.9,1.84-1.47,4.61.6,1.16-2.42,4.2-3.94,6.62.27-9.11.38-17.64-.13-26.28-.4-6.7-3.54-12.45-4.38-18.88a39.28,39.28,0,0,1-.59-4.1c-.18-8.71-1-17.29-4.74-25.37.22,3.34,1.52,6.57.84,10-1.1,5.58-1.38,11.26-2.72,16.85a48.25,48.25,0,0,0-1.29,14.75c.26,3.22,2,6.55,1.23,10.07-.63,2.85.08,5.62.32,8.76-4.91-6.35-6.16-13.5-7-20.78-.75-6.83-1.5-13.65-2.85-20.41a48.88,48.88,0,0,1-1-10.71c.14-5.44-3.36-10.6-.63-16.18a4.83,4.83,0,0,0-2.4,4.37c0,7.5-.54,15,.35,22.54C66,33.22,63.9,39.51,63,45.8c-.23,1.6-3.2.61-2.52,3.43.32,1.36,1.4,2.67,1.06,4.32-1.5,7.52.85,15.29-1.44,22.81-.3,1-1.06,1.67-.84,3.4,1,7.93.67,16,2.23,24-1.14-2-1.54-4.37-4-5.34-1.13-.44,0-1.2,0-1.8-.06-3.07,1.73-6.88-3-8.34-1.25-.38-.52-1.06-.16-1.75,1.52-2.91,1.92-5.84-.64-8.36-.82-.8,0-1.08.1-1.51,1.42-4.68,0-7.56-4.65-9.05,2.13-2.56,5.34-4.16,5.81-8.08.16-1.3,0-2.11-.78-2.49-3.46-1.68-2.14-3.25-.49-5.58,2.68-3.81,4-8,.14-12.09-.32-.34-1.05-.59.07-1.27,3.18-1.93,2.3-5,1.78-7.88-.21-1.2-3-1.57-1.35-2.82,1.5-1.11,2.56-4.21,5.44-2.26-.2,1.39-1.63,1.2-2.75,1.72,3-.13,4,1.53,4,4.11.75-.45,1.39-.81,1.31-1.56-.3-3-.61-6.09-1.08-9.11,0-.24,0-1.8-1.23-1.28-.54.23-1.16.89-.61,1.58,1.55,1.93-.66,2.3-1.3,3.32-.74-.73-1.8.24-2.73-.81-1.34-1.52-.26-2.05.38-3.17a37.11,37.11,0,0,0,3.16-7.64c-3.63,2.28-4.38,9.61-11.76,5.85,1.33,2.17,3.72,2.36,3.68,4.7,0,1,1,2-.17,3.05-1.53,1.35-1.86-.61-2.78-1a4.27,4.27,0,0,0-1.15-.14l-.68.5C47.41,26.8,49,28.12,49.8,30.1c.73,1.79,1.63,3.52,0,5.33-1.78,2-3.65,1.19-5.6.37-.37-.15-.66-.9-1.32-.34a2.38,2.38,0,0,0,1.92,2.48c4,.57,3.71,3.48,3.4,6.14-.33,2.82-2.06,4.33-6.07,3,4.65,3.5,4.84,7.95,1,11.25-1,.83-1.69,3.18-3,2.39-2.26-1.4-2.82-4.21-2.78-6.73,0-2.28,2.17-1.65,3.64-1.77A7.79,7.79,0,0,0,42,52c-2.32-2-5.77-1.48-7.64-3.89-2.49-3.23-2.26-4.63,1.57-7.39-2.51-.33-5.06.33-6.35-2-.39-.71-1.75-.9-1.28-2,.34-.81,1.19-.92,2-.84,1,.11,1.71-.29,2.21-1.6-11,2.27-14-8.2-21-13.16-.24,3.12,2.54,4.24,3.13,6.64a42.45,42.45,0,0,1,.61,17c-.87,5.59-1.56,11.21-2.27,16.83-.12.92.07,1.88-1.35,1.78-.21,0-.83-.24-.69.52.19,1.12,3.89,5.88,5.18,6.61-.66,1,.28,2.16-.62,3.39C13.94,76,14.2,76,17,76.65c1.28.3,2.1,1.87,3.78,1.5a8.52,8.52,0,0,1,3.59,0c-1.77,1.47-3.67,2.06-5.89,1.12S14.8,79,15.38,81.54c2.28,10.11,1.28,20.37,1.57,30.57.12,4.39,3.08,7.54,5.73,11-1.83.8-3.42.32-5.48.15,5.28,3.62,11.07.23,16.58,2.64-2.58,1.78-5.08,1.78-7.13,2.58-.07,2.21,3.31-.57,2.48,2-.47,1.46-2.46,1.31-3.45.85-2.68-1.25-5.64-.05-8.28-1.29-1.31-.62-2.31-.21-2,1.55.12.72,1.65,1.51,0,2.1-1.12.42-2-.29-2.43-1.38-.71-1.76-2-2.23-3.87-2.57a7.16,7.16,0,0,0-8.7,6.43c-.4,4.46-2,12.4,4.92,10.42,1.5-.43,4.62-.46,5.27,1.08.82,1.91,2.26,3.47,4.13,3.61s1.75-2,2.19-3.37a1.33,1.33,0,0,1,.66-.77c5.49-2,.81-4,0-6-.24-.56-1-.88-1.33-1.41s-2.3-.16-1.4-2a2.4,2.4,0,0,1,3-1.59c4.19.81,6,4.63,8.87,7.11.71.62-.36,1-.71,1.41-.73.81-.38,1.36.25,2s1.14.65,1.67.05c2.54-2.88,3.43,1.44,5.4,1.24.88-.09,1,.62.62,1.31-.26.44-1,1-.94,1.16.77,1.66,1.75,3.24,1.35,5.38,3.19-1.8,4.14-5.71,3.22-7.49-1.62-3.13,0-4.83,1.17-6.77.84-1.36,1.17-2.37.59-3.8-1.66.16-2.13,1.62-3.17,2.3s-1.67,2.65-2.94,1.09c-1.07-1.33.9-2,1.57-2.95l.71-1.06c-.65-.3-1.14-.21-1.38.54-1.37.36-2.43-.36-3.55-1a10.77,10.77,0,0,1,11.24,0c1.4-.67-1.59-2.35.67-2.83.82-.17,2.15-.66,2.37-.37a2.55,2.55,0,0,1-.16,2.87c-1.54,2.55-1.44,4.78,1.3,6.62,1.83,1.23-.87,2.75,0,4.14l.6.6-.57.28c-2.42-.58-1.48-3.13-2.62-4.5a27.23,27.23,0,0,1-2.15-3.81,2.8,2.8,0,0,0-.47,3.44,4.56,4.56,0,0,1-.45,5.06c-2.62,3.48-.94,5.62,2.33,6.17,3.74.63.93,3.36,2.09,4.65.51,1.89-.09,2.49,1.17,1.31,1.33-3.89,1.33-3.89,7.62,0C61.45,166,70,171.57,73.38,171.42s10.89,3.83,11.19-1.91-1.66-7,.86-9.15c1.45-2.29,4.15-1.86,6.07-3a6.52,6.52,0,0,1,2.11-.77c3.7-.71,6.36-2.08,4.87-6.65-.35-1.06,0-2.34-.35-3.41s.2-1.52.93-1.54a1.06,1.06,0,0,1,.89,1.46c-1,2.34,0,4.52.21,7.17,2.84-3.25,6.9-4.7,8.48-8.7.55-1.39,1.16-2.38-.78-3.32-2.8-1.37-5.42-3.12-8.49-4.92v6.91c-1.49.09-2-1-1.65-1.64,2-3.45-1.1-5.28-2.28-7.69-1.08-2.21-2.29-3.95-3.62,0-.25.74-2.44.06-2.07,1.89-.76.25-1.31,1.21-2.55.61.55-2.61,4.48-4,3.16-7.58,2,3.31,7.4-2,8.28,4-.09-4-4.52-8.87-8-8.6-3.13.24-.27,2.84-1,4.37-3.5-4.93-2.32-8.93,2.81-10,.93-.19,2.59.64,2.66-.69.1-1.82,1.53-4.12.7-5.19-2.82-3.59.59-3.33,2.31-4.65.39,2-1.35,3.6.06,5.37,1.23,1.54,2.39,1.8,3.45.12.54-.86,1.06-1.46,2-.35.53.65,1.58,1.14-.18,1.68-.7.22-.33,2.11-1.84,1.77-1.26-.28-.92.74-.59.92,4.29,2.32.63,3.12-.86,4.33.59,1.8,2.81,1.78,3.58,3.3.44.64,1.61.14,1.8,1.17a60.44,60.44,0,0,0,6.25,3.46c3.19,1.76,3.09-1.63,4-3.34l-.5-.68c-1.31.49-.91,2.49-2.72,2.8,1.19-3.92,2.5-7.73,2.37-11.81,0-.94.25-1.19,1.33-1.25,3.14-.17,5.91-1.83,9.55,0,1.69.85,5.65.16,8.6-.59,1.35-.34,2.17.43,2.86-1.62.81-2.39-1.37-2.42-1.89-3.65-1.2,1.24-2.52-.11-3.87.16-2.26.46-4.89.73-7,0-3.3-1.17-4.4.33-5.42,3.37-.17-1.23-.15-2.67-.41-2.73-3.45-.7-3.35-2.35-1.51-4.72s4.41-4,6.88-3.17c3.37,1.14,5,.18,6.52-2.51,3.08-5.44,6.09-10.9,7.28-17.5-4.52,1.83-6.58,5.4-8.64,8.91-1.26,2.16-1.89,4.67-3.65,6.56-.67.72-.33,2.15-1.87,2.28A3.43,3.43,0,0,1,125,97.66c1.11-2.87-2.07-5.8.1-8.64.6-.78,2.21-1.55-.37-1.59-.41,0-.7-.87-.15-1.22a6.48,6.48,0,0,1,1.8-.52c-.31-.8-1.5-.28-1.56-.65-.24-1.35.78-1.48,1.8-1.41.65,0,1.62,1.51,1.36-.88-.22-2,2.42-3.22,4-4.6,1,1.73,2.37.89,3.86,1,5.64.49,9.15-2.61,13.31-5.54,3.15-2.23,6.27-6.38,11.71-3.85C158.9,67.58,157.24,67.56,153.26,68.65ZM20.73,42.44a.74.74,0,0,1-.6,1.13c-.7.09-.76-.44-.86-1-.52-2.68-1.07-5.34-1.7-8.47C20.13,36.72,19.49,39.91,20.73,42.44ZM16.27,70.28c-.41-2.61-.72-5.21.51-7.73C16.43,65.11,19.52,67.88,16.27,70.28Zm2.54-8c-.53.25-1.24.23-1.14-.74l.27-.57.6.6C18.91,61.75,19.2,62.13,18.81,62.31Zm.9-3.14-1-.78c-.27-.67,0-1,.35-.89a1.28,1.28,0,0,1,.83.65C20,58.42,19.8,58.82,19.71,59.17ZM21,54.11c.11,1.79-1.1,2.51-2.63,2.88l-.57-.28.6-.59c0-.91,0-1.82.09-2.72a2.27,2.27,0,0,1,.62-1.31c1.24-1.15.95,1.84,2.09.85s-.62-1.72-.42-2.74a21.82,21.82,0,0,1,.39-3.15,26.07,26.07,0,0,1,2.87,9.55C22.09,56.73,22.72,54.45,21,54.11ZM23.33,62c-.32-.53-.53-1.66.61-1.79a1.4,1.4,0,0,1,1.51,1.43c-.35,1.85,1.13,3.38.73,5.47C24,65.77,24.28,63.55,23.33,62ZM34.89,82.11a2,2,0,0,1-2-1l-4.09-.49c-.32,8,5.9,15.55,2.11,24-.71-2.43-3.67-4-2.45-7.14.37-1-1.79-1.64-2.91-2-3.41-1.13-4.23-3.06-2.25-6.06.56-.84,1.16-1.27-.33-1.93-1.78-.79-3.13-2.59-1.8-4.34C22,82,23,78.63,25.72,81.46c.61.63.36-.5.61-.71.73-.6-1.72-2,.15-1.79,2.31.2,4.71-1.4,6.87.32.2.16.07.74.09,1.13a2.18,2.18,0,0,1,2.13,1.2l.69,1C35.61,82.94,35.11,82.86,34.89,82.11Zm7.43-20.53a3.52,3.52,0,0,1,.39,1c0,.15-.3.34-.47.51a6,6,0,0,1-.49-1C41.73,62,42.06,61.79,42.32,61.58Zm-2.57,4.09c-.37-.67.77-1.7,1.29-1.53.92.29,2.33.18,2.53,1.73.26,2-.45,3.87-1.13,5.75C40.07,70.3,40.81,67.58,39.75,65.67ZM42,93.88c3-3.61,4-.39,5.36,1.06C45.35,95.25,44.18,93.33,42,93.88Zm18.67,15.7a3,3,0,0,1,.66-.57l.26.65c-.12.37-.29.69-.73.47C60.68,110.06,60.55,109.68,60.62,109.58Zm-1.74,2.2a2,2,0,0,1-.23-.47s.15-.14.24-.23c.08.08.23.18.21.24A1.76,1.76,0,0,1,58.88,111.78Zm2.8,3.1c-1.39-.33-1.1-1.92-2.25-2.73,2-.59,2.77.17,2.93,1.68C62.42,114.33,62.26,115,61.68,114.88Zm28.23,21.31c1.8.13,3.44.52,3,2.93-.34,1.82-2.07,1.07-2.79.82C87.4,139,90.26,137.46,89.91,136.19Zm13.43-29c-.31-4,2.36-6.12,2.58-9C108.43,101.86,104.79,103.66,103.34,107.17Z"/><path class="cls-1" d="M103.08,126c-.78.34-1.61-1.07-2.18-.12-.31.51-.13,2,.2,2.1,3.16,1.3,6.39,2.41,9.61,3.57.09-.2.18-.41.26-.62l-6-3.66C104.55,126.53,103.3,127,103.08,126Z"/><path class="cls-1" d="M60.52,2.7c-2.25,2.81-2.71,5.77-3.17,8.74C58.81,8.84,61.5,6.69,60.52,2.7Z"/><path class="cls-1" d="M16.4,122.75c.25,0,.66-.38.65-.57,0-.53-.34-.92-1.11-.9-.15.19-.48.43-.52.71C15.32,122.71,15.91,122.81,16.4,122.75Z"/><path class="cls-1" d="M101.92,49.64a5.52,5.52,0,0,0-1,.54l.64.54.81-.62C102.23,49.94,102,49.61,101.92,49.64Z"/><path class="cls-1" d="M132.87,72.69l.51-.66-1.06-.72C132,72,132.11,72.46,132.87,72.69Z"/><path class="cls-1" d="M45.39,24.2l.69,1.06.68-.5C46.53,24,46,23.92,45.39,24.2Z"/><path class="cls-1" d="M10.86,20.35a4.08,4.08,0,0,0-.53-.89c-.18.3-.44.55-.39.68a2.79,2.79,0,0,0,.59.71C10.65,20.68,10.9,20.47,10.86,20.35Z"/><path class="cls-1" d="M116.3,125.41l-1,.69c.16.23.33.45.5.68C116.5,126.55,116.58,126.05,116.3,125.41Z"/></g></g></svg>