<?xml version="1.0" encoding="utf-8"?>
<!-- Generator: Adobe Illustrator 25.2.0, SVG Export Plug-In . SVG Version: 6.00 Build 0)  -->
<svg version="1.1" id="Layer_1" xmlns="http://www.w3.org/2000/svg" xmlns:xlink="http://www.w3.org/1999/xlink" x="0px" y="0px"
	 viewBox="0 0 71.93 134.45" style="enable-background:new 0 0 71.93 134.45;" xml:space="preserve">
<style type="text/css">
	.st0{fill:#87CEFA;}
</style>
<path class="st0" d="M67.12,6.49c-3.61-1.77-7.63-2.41-11.36-3.32c-1.6-0.39-3.12-1.02-4.74-1.42c-1.66-0.41-2.98-1.2-4.59-1.75
	c0.04,0.96,1.12,1.57,1.64,2.33c0.51,0.76,0.83,1.84,1.17,2.7c0.98,2.44,2.41,4.99,2.76,7.61c0.34,2.56-0.04,5.46-0.04,8.05
	c0,2.71,0.47,5.91-0.21,8.52c-1.16,4.42-1.93,10.18-5.47,13.74c-1.8,1.81-4.08,2.34-6.62,2.36c-1.36,0.01-2.07,0.53-3.05,0.74
	c-1.51,0.32-3,0.01-4.55,0.19c-1.24,0.14-1.67,0.75-2.77,1.02c-1.19,0.29-2.64-0.23-3.86-0.07c-1.38,0.18-1.96,0.78-3.26,1.01
	c-1.58,0.28-2.19,0.08-3.58,0.68c-4.64,2-7.93,6.48-7.36,11.62c0.53,4.78,4.4,8.42,8.57,10.63c1.94,1.03,4.92,2.9,5.58,5.05
	c0.71,2.3,0.17,6.02,0.08,8.45c-0.27,7.13-8.09,6.21-13.05,8.28c-2.32,0.97-4.71,2.82-6.87,4.26C4.01,98.2,0.3,99.99,0,101.93
	c1.97,0.25,3.71,1.59,5.51,2.13c2.67,0.8,4.67,1.21,7.06,2.81c1.86,1.25,3.9,2.44,5.69,3.79c0.92,0.69,1.28,1.56,2.05,2.37
	c1.16,1.22,2.78,2.12,4.19,3.08c5.26,3.58,9.79,7.95,15.2,11.36c1.84,1.16,3.63,2.45,5.16,4.03c1.17,1.21,3.06,2.95,4.83,2.95
	c-1.22-1.71-1.5-4.62-1.51-6.74c-0.01-2.29-0.67-3.98-0.99-6.16c-0.63-4.37,0.04-9.31,0.04-13.73c0-3.99,0.54-8.39,0.02-12.33
	c-0.23-1.77-0.95-2.79-0.97-4.72c-0.01-1.58-0.37-2.33-0.74-3.78c-0.25-0.99,0.04-1.94-0.16-2.89c-0.28-1.32-1.48-2.92-2.05-4.18
	c-0.75-1.65-2.07-3.83-2.52-5.45c-1.05-3.78,1.64-6.21,4.55-8.08c4.17-2.68,7.74-6.32,11.34-9.73c1.96-1.85,4.26-2.5,6.41-4
	c1.51-1.05,2.45-2.62,3.86-3.79c-0.68-1.64-2.04-3.95-2.49-5.65c-0.58-2.24-0.73-4.18-1.11-6.42c-0.13-0.71-0.41-1.36-0.84-1.94
	c-0.18-0.54,0-0.91,0.53-1.11c0.15-0.91,0.71-1.77,0.97-2.63c0.8-2.66,2.02-4.92,3.34-7.36c1.8-3.34,5.06-6.54,4.5-10.65
	c-0.68-4.96-4.34-5.62-8.33-7.53C64.46,5.35,65.33,5.03,67.12,6.49z"/>
</svg>
