<svg xmlns="http://www.w3.org/2000/svg" viewBox="0 0 97.19 134.73"><defs><style>.cls-1{fill:#da9dda;}</style></defs><g id="Layer_2" data-name="Layer 2"><g id="Layer_1-2" data-name="Layer 1"><path class="cls-1" d="M67.19,39.31c1.91.84,1,4.88,4.48,3.95l.71.56c-2,2.18.64,3.47.9,5.15a20.54,20.54,0,0,1-.85,10.32c-.77,2-.84,4.42-2.54,6.14-.86.86,0,1.21.81,1.32,4.12.58,8.61,9.08,6.74,12.76-1.07,2.09-2.47,1.6-5.23.62-2.43-.86-4.62-2.29-7.11-2.85-1.52-.34-2.61.67-3.66,1.89-3.46,4-7,7.9-13.15,7.4-2.64-.22-3.64,2.5-4.26,4.24-.47,1.3-1.36,3.83,1.33,5.1,1.69.8,1.39,3,2,4.59,2.1,6,1.47,12.07-.51,17.91a4.87,4.87,0,0,0,.66,5c2.24,2.71,1.7,5.38.53,8.14-1.31,3.07-4.1,2.49-6.55,2.34-2.16-.13-4.43.75-6.49-.74-2.78-2-5.45-3.51-4-8.08,1.62-5.17-1.91-10.26-1.61-15.58a1.9,1.9,0,0,0-1.11-1.5c-.63-.07-1.1.66-1.39,1.37a32.08,32.08,0,0,0-2.51,13.22A13.57,13.57,0,0,1,21.7,131c-3,4.27-7.7,3-11.73,3.63-1.94.33-4.06-.51-6.11-.71C1,133.65-.76,131.3.32,128.71c1.28-3,2.39-5.84,1.25-9.36-1-3.19,1-6.18,2.47-8.9,2.84-5.33,1.55-10.72,1.46-16.3C5.38,86.61,1.16,80.29.66,73.08c-.52-7.5-1.19-15.17,6.1-20.54,3.05-2.24.79-5.47.34-8-2.27-12.77,3-21.84,13.12-28,.12-.06.23-.19.35-.19,9-.46,18.26-2.42,25.32,5.77C48.4,25,51.1,27.67,53.23,31c4.37,6.89.5,12.84-1.4,19-2,6.35-2,6.92,3.27,10.2C57.42,61.59,59.75,63,62,64.52c3.35,2.23,3.36,1.53,5.9-1.38,3.42-3.92,2.85-8.17,2.94-12.53,0-.73.47-1.77-.69-2.12a2.21,2.21,0,0,0-2.25.73c-1.52,1.39-3.27,2.55-4.75,4-1.1,1.08-1.78,1.37-3.08.16s-.29-2.19.15-3.11A3.15,3.15,0,0,1,62,48.57c5.4-.87,5.45-4.44,4.55-8.57Z"/><path class="cls-1" d="M87.54,16.84c-2-1.4-4.29-2.29-5.3-4.84-.82-2.08-.16-3.46,1.4-4.72.63-.51,1.12-1.53,2.06-1.1A2.4,2.4,0,0,1,87,8.59c-.06,3.66,1.16,4.57,3.89,1.62.77-.82,1.77-1.18,2.51-.44a2.52,2.52,0,0,1,.24,2.35C92.38,14.59,89.7,15.36,87.54,16.84Z"/><path class="cls-1" d="M85.62,27.58c-1.47-1.77,1.95-4.33-.08-5.07-1.84-.68-3,2.38-4.63,3.56a3.46,3.46,0,0,1-1.19.31c.87-6.36,2.34-7.46,6.91-5.3.47-1.25.94-2.51,1.67-4.44.36,3,1.13,4.58,3.56,2.23A1.66,1.66,0,0,1,93.4,19c.79.63-.12,1.14-.28,1.73a3.86,3.86,0,0,1-2.25,2.82c-2.33.69-3.47,2.76-5.35,3.92Z"/><path class="cls-1" d="M71.67,43.26c.09-4.4,4.28-6.24,6.12-9.59.95-1.75,1.14-3.89,3.1-5.39,1.74-1.34,2.93-1.79,4.72-.7,0,0-.1-.1-.09-.09-.54,2.69-3.44,3-4.87,4.76-1.14,1.44-3.24,2.76.34,3.93,1,.33,1.75,1.78-.34,2.12s-3.27,2.36-5.71,2.14c-1-.09-1,2.71-2.56,3.38ZM78.6,36.9c-.24-.28-.45-.65-.54-.62a5.83,5.83,0,0,0-1.06.53c.18.18.38.52.55.5A3.86,3.86,0,0,0,78.6,36.9Z"/><path class="cls-1" d="M66.59,40c-.78-3.74-3.27-5-6.74-4.26C56.61,36.38,56,34,55,32a2.06,2.06,0,0,1,.65-2.61c.91-.84,1.46,0,2.19.27,1,.32,1.83,1.11,3.08,1.05,2.09-.11,4.77-1.08,3.81,3.22-.3,1.37,2.21,3.28,2.47,5.42Z"/><path class="cls-1" d="M83.15,34.84c1.79-4.62,7.7-8.74,11.29-8.49,1.23.09,2.23.35,2.64,1.53s-.47,2.08-1.31,2.84C94.37,32,92.42,33,90.91,32.3,87.32,30.66,85.59,33.41,83.15,34.84Z"/><path class="cls-1" d="M95.44,41.77c.24,3.57-3.46,2.89-4.75,2.92-3.81.1-2.28-4.06-3.56-6.16-.84-1.39,1.49-2.22,2.62-2.47C91.85,35.6,95.47,39.38,95.44,41.77Z"/><path class="cls-1" d="M72,28.3c-1.22-2.44-2.73-4-3.3-6.18a1.81,1.81,0,0,1,.23-1.81c.85-1.22,1.54,0,2,.22C74.06,22,74.39,24.3,72,28.3Z"/><path class="cls-1" d="M68.42,3.49C69.7,1.11,71-.83,73.88.36a1.47,1.47,0,0,1,.9,2.28C73,6.49,70.6,2.93,68.42,3.49Z"/><path class="cls-1" d="M62.82,24.76c-1.76-.46-2.42-1.78-3.4-2.69-.73-.67-1.9-1.26-.67-2.65s2.76-.1,3.14.35C63,21,63.93,22.68,62.82,24.76Z"/><path class="cls-1" d="M68.43,17.91c-.09-4.42-.09-4.42,3.92-4Z"/><path class="cls-1" d="M66.49,8.18a2.39,2.39,0,0,1-1.9,1.33c-.75,0-1-.31-.68-1S64,7,64.92,7C65.73,6.93,66.06,7.64,66.49,8.18Z"/><path class="cls-1" d="M63.11,10.69c-.71.61-1,1.09-1.46,1.21s-1.19.25-1.06-.62a1.27,1.27,0,0,1,.7-.89A6.07,6.07,0,0,1,63.11,10.69Z"/><path class="cls-1" d="M59.45,14.52c-.47-1.15-.69-2-.08-2.27,1.13-.51.79.37.62.94C59.87,13.56,59.7,13.91,59.45,14.52Z"/></g></g></svg>