<svg xmlns="http://www.w3.org/2000/svg" viewBox="0 0 110.84 77.88"><defs><style>.cls-1{fill:#6492ea;}</style></defs><g id="Layer_2" data-name="Layer 2"><g id="Layer_1-2" data-name="Layer 1"><path class="cls-1" d="M61.69,25.82c.43-.65.9-1.28,1.38-1.9C68.42,18.8,77.79,9.82,83.61,4c6-6,1-4.75-4.21.41-1.94,1.93-9.06,8.11-12.77,11.28-3,2.56-6.74,5.82-10,8.65a17.66,17.66,0,0,0-1.83.7,2.65,2.65,0,0,1-2.6,0A1.77,1.77,0,0,0,50.75,25a4.84,4.84,0,0,1-2.3-.07,1.48,1.48,0,0,1-1.12-.83,3.59,3.59,0,0,0-.49-.73.5.5,0,0,0-.65-.16,3.52,3.52,0,0,0-2.15,2,2,2,0,0,1-.25.5c-.24.4-.47.49-.86.27a5.56,5.56,0,0,1-.81-.64,2.72,2.72,0,0,0-2.12-.8,22.1,22.1,0,0,0-2.42.5,2.53,2.53,0,0,1-1.65-.08,8,8,0,0,1-2.43-1.53,9.53,9.53,0,0,0-1-.81c-4.17-4.2-8.88-9.12-11.64-11.81-8-7.82-7.74-4.07-2.17,1.91,2.57,2.76,8.69,9.23,13,14.26.26.31.51.62.75.94.08.21.15.43.22.64A3.09,3.09,0,0,0,34,30.36h0a14.36,14.36,0,0,1,.86,2c0,.06,0,.12,0,.19a1.32,1.32,0,0,1-.1.3,5.93,5.93,0,0,1-1.18,1.57,3.08,3.08,0,0,0-1.31,2,4,4,0,0,1-.35,1.14,2,2,0,0,0-.11,1.92,5.51,5.51,0,0,1,.51,3.59.66.66,0,0,0,.34.75c.18.12.36.22.55.33a.5.5,0,0,1,.12.08,20.16,20.16,0,0,1-3,3.59C21,57,12.94,63.77,4.4,72.2s-2.78,5.94,1.5,2.31c5.43-4.62,9.24-8,17.8-15.35,3.76-3.23,8.43-7.51,12.85-10.49a.92.92,0,0,1,.23.69,4,4,0,0,0,0,.49,1.3,1.3,0,0,0,1.63,1.2c.34-.06.68-.18,1-.22A6.13,6.13,0,0,1,41,50.71a4.56,4.56,0,0,1,2.3.59,1.06,1.06,0,0,0,.53.16A11.46,11.46,0,0,0,48.68,51a2.87,2.87,0,0,1,1.46-.32,7.22,7.22,0,0,0,2.7,0,2.21,2.21,0,0,1,2,.69,2.72,2.72,0,0,0,1.83.88,3,3,0,0,1,1.78.65,10.89,10.89,0,0,0,1.93,1.42c1.8,1.59,4.09,3.63,9.18,8.34C75.31,68,76,65.79,71.51,61c-3.92-4.16-5.33-5.57-9.22-9.46l-.09-.1c-.72-.72-1.38-1.49-2.09-2.22a10.91,10.91,0,0,0-1.22-1.14c-.16-.12-.28-.26-.43-.39l-.74-.78a5.84,5.84,0,0,1-.58-.8,1.77,1.77,0,0,1,.23-2.35,1.3,1.3,0,0,0,.41-1,4.89,4.89,0,0,1,.91-3.09,1.92,1.92,0,0,0,.23-1.77,1.32,1.32,0,0,1-.08-.62c.16-.95.35-1.89.55-2.83a1.55,1.55,0,0,1,.34-.63,2.07,2.07,0,0,0,.47-1.49,5.13,5.13,0,0,1,0-1c.06-.42.19-.82.26-1.24.1-.62.19-1.25.27-1.87a3.37,3.37,0,0,1,.07-.86A10.38,10.38,0,0,1,61.69,25.82Z"/><path class="cls-1" d="M90.82,24a9,9,0,0,0-2-1,4.46,4.46,0,0,0-3.53.65,2.59,2.59,0,0,0-1,3.56,8.44,8.44,0,0,0,1.78,1.8,4.63,4.63,0,0,0,1.32.5,4.46,4.46,0,0,0,1.85-.66,3.78,3.78,0,0,0,2.15-3.41A1.52,1.52,0,0,0,90.82,24Z"/><path class="cls-1" d="M13.89,20.09a6.69,6.69,0,0,0,.95.42,1.85,1.85,0,0,0,2.62-1.82v-.48c0-.14,0-.43-.05-.72a1.85,1.85,0,0,0-3-1.38A3.17,3.17,0,0,0,13,18.19,1.73,1.73,0,0,0,13.89,20.09Z"/><path class="cls-1" d="M110.48,1.86a2.06,2.06,0,0,0-2.11-.7c-.38,0-.7,0-1,.05a1.47,1.47,0,0,0-1.38,1A5.42,5.42,0,0,0,106,5a1,1,0,0,0,1.23.77A2.2,2.2,0,0,0,108.67,5a9,9,0,0,1,1.69-1.57C111,3,111,2.45,110.48,1.86Z"/></g></g></svg>