<svg xmlns="http://www.w3.org/2000/svg" viewBox="0 0 168.55 142.81"><defs><style>.cls-1{fill:#ffe1b1;}</style></defs><g id="Layer_2" data-name="Layer 2"><g id="Layer_1-2" data-name="Layer 1"><path class="cls-1" d="M67.84,96.61c-.59.38-1.2.61-1.62-.17a2,2,0,0,1,.14-2.19,2.11,2.11,0,0,1,2-.82c1.12,0,1.36,1.09,2,1.67,1.45,1.36,1.27,6.9-.16,8.24-.55.52-1,1.4-1.89.73a1.71,1.71,0,0,1-.17-2.44,11.79,11.79,0,0,1,1.55-1.7c.72-.71,1.78-1.39,1.05-2.55S69.11,95.73,67.84,96.61Z"/><path class="cls-1" d="M75.22,106.52c-.57,0-1.25,0-1.42-.82-.07-.3.19-1,.3-1,2.47,0,2.68-2,3.7-3.55.83-1.23,2.4-3.36,4-2,1.77,1.57-.93,3.19-1.54,4.62S77,105.63,75.22,106.52Z"/><path class="cls-1" d="M86.26,68.4c0-.13-.71-1.75.82-2s.89,1.51,1.37,2.29c.24.4.69.92,1.07.94,1.78.11,2.84.84,2.23,2.68-.55,1.68-2.17,1-3.37,1.07-1.78.14-2.22-.94-2.13-2.46C86.28,70.39,86.26,69.87,86.26,68.4Z"/><path class="cls-1" d="M47.72,76.77c-.06-3,1.26-4.62,3.79-5.19,1.22-.28,1.87.59,1.9,1.82,0,.87-4,5.32-4.69,5.21C47.41,78.39,47.83,77.3,47.72,76.77Z"/><path class="cls-1" d="M97.7,130.2c1.4.81,3.23,1.62,3.32,3.88a1.52,1.52,0,0,1-2.13,1.54A4.52,4.52,0,0,1,95.42,132C95.22,130.74,96.13,130.16,97.7,130.2Z"/><path class="cls-1" d="M52.32,113.69c-1.44.06-2.78,0-2.72-1.88.07-2.28,1.87-1.56,3.16-1.68s2.47,0,2.49,1.6C55.27,113.81,53.73,113.76,52.32,113.69Z"/><path class="cls-1" d="M76.69,82.76c.23,1,.15,2.27.75,2.92,3,3.25.82,3.62-1.94,3.8-1.88-1.12,1-5-2.88-5,.26-1.09.19-2.7.87-3.16C74.76,80.52,75.6,82.26,76.69,82.76Z"/><path class="cls-1" d="M168.55,52.47c-.92,1.11-1.71,2.47-3.4,2.6a1.62,1.62,0,0,1-2-1.74c0-2.1,1.47-2,2.91-2C167,51.38,168.18,50.88,168.55,52.47Z"/><path class="cls-1" d="M55.43,92a7.19,7.19,0,0,1-3.92,3.47,1.24,1.24,0,0,1-1.59-.76,1,1,0,0,1,1-1.28c1.65,0,2.29-.72,2.3-2.31a1,1,0,0,1,1.33-1C55.33,90.42,55.31,91.14,55.43,92Z"/><path class="cls-1" d="M57.09,117.9c-.14,1.39.3,3.09-1.93,3.11-1.24,0-2-.6-1.9-1.86a3.6,3.6,0,0,1,2.87-3.21C57.4,115.64,57,117.14,57.09,117.9Z"/><path class="cls-1" d="M63.06,66.12,64.6,66l1.47,1.11c1,1.24,2.57,2.47,1.25,4.2-1.16,1.52-2.83,1.19-4.37.34A11.33,11.33,0,0,1,63.06,66.12Z"/><path class="cls-1" d="M55.27,1.89c-.09,1.23-.68,2-2,1.85A3.57,3.57,0,0,1,50,1c-.27-1.26,1.24-.9,2.07-.9C53.48.06,55.11-.27,55.27,1.89Z"/><path class="cls-1" d="M72.64,73.62c1,.54,2.23,1.26,2.32,2.34a2.56,2.56,0,0,1-2.4,2.52c-1.53.09-1-1.49-1-2.39S71.09,74,72.64,73.62Z"/><path class="cls-1" d="M81.39,60.69c-.83-.09-2.38.11-2-1,.54-1.76,2.89-1.41,4.25-2.46.52-.41,1.12.79,1,1.6C84.35,60.83,82.79,60.64,81.39,60.69Z"/><path class="cls-1" d="M110,115.52a1.63,1.63,0,0,1-1.83-1.92c0-1.27.78-1.77,2-1.75a1.67,1.67,0,0,1,1.84,1.94C112,115.07,111.25,115.59,110,115.52Z"/><path class="cls-1" d="M18.66,69.86a4.45,4.45,0,0,1-3,3.19c-.66.23-1-.66-1-1.32a4.25,4.25,0,0,1,3-3.54C18.2,68,18.66,68.84,18.66,69.86Z"/><path class="cls-1" d="M133.87,13.5c-.38,1.41-1.17,1.35-1.92,1.31-1.45-.09-1.91-1-1.86-2.31,0-.7.61-1.41,1.17-1.11A15.29,15.29,0,0,1,133.87,13.5Z"/><path class="cls-1" d="M38.85,80.74c-.15,1.5-1.11,1.94-2.43,1.85-.69,0-1.48-.32-1.16-1.13a3.57,3.57,0,0,1,2.43-2.29C38.65,79,38.9,79.88,38.85,80.74Z"/><path class="cls-1" d="M77,125.83c-.75.91-1.39,2.21-2.72,2.3-.86.05-1-1-.94-1.8.06-1.28.78-1.73,2-1.65C76.07,124.74,76.88,124.62,77,125.83Z"/><path class="cls-1" d="M88.3,82.64c-.11.76-.24,1.78-1.27,1.4a3.34,3.34,0,0,1-2.27-2.36c-.16-.8.56-1,1.26-1C87.4,80.62,88.21,81.2,88.3,82.64Z"/><path class="cls-1" d="M2.94,67.19c-.46.9-.59,2.12-1.84,2.25-.78.08-1.07-.61-1.1-1.3,0-1.16.29-2.08,1.69-2C2.33,66.15,3,66.32,2.94,67.19Z"/><path class="cls-1" d="M59.82,85.78c.33.73,1,.58,1.62.68.78.14,1.88-.56,2.27.69.26.85-.33,1.28-1,1.83-1.09,1-1.74.36-2.65-.21-1.23-.77-1.89-1.66-1.47-3.13Z"/><path class="cls-1" d="M54.17,142.81a4.25,4.25,0,0,1-2.39-2.39c-.23-.92.69-1.18,1.55-1.16a1.82,1.82,0,0,1,2,1.87A1.38,1.38,0,0,1,54.17,142.81Z"/><path class="cls-1" d="M81,86c.19-1.84-1.85-2.18-2.37-3.54.5-1.41,2-2.52,2-.48C80.62,83.35,84.43,84.59,81,86Z"/><path class="cls-1" d="M51.72,16.47c0,.79-.1,1.63-1.15,1.65-.76,0-1.08-.6-1.13-1.28s.09-1.67,1-1.85C51.46,14.78,51.57,15.71,51.72,16.47Z"/><path class="cls-1" d="M60.57,81.69c-.26-1.69.72-2.86,1.68-4,3.6.58,1.34,3.07,1.54,4.76l-2.3.15Z"/><path class="cls-1" d="M67.9,63c0,.3-.08.61-.11.91L64,63.6a1.58,1.58,0,0,0-1.11-1.27l.06-1.73a3.84,3.84,0,0,1,3.43.79A2,2,0,0,0,67.9,63Z"/><path class="cls-1" d="M95.31,101.14c.56-1.89,2-2,3.6-1.75.28,1.24.78,2.62-1,3.17A1.9,1.9,0,0,1,95.31,101.14Z"/></g></g></svg>