<svg xmlns="http://www.w3.org/2000/svg" viewBox="0 0 154.26 143.08"><defs><style>.cls-1{fill:#84cbf7;}</style></defs><g id="Layer_2" data-name="Layer 2"><g id="Layer_1-2" data-name="Layer 1"><path class="cls-1" d="M145.18,45.42c-1.83,1.19-4.35,1.93-4.53,4.46-.34,4.64-2.82,4.58-6.23,3.39-6.92-2.4-8.64-1.07-8.34,5.53.15,3.11,3.41,3.92,3.78,6.58-5.08,1.11-9.67-.92-14.37-2.21.23-3.4.82-6.82.56-10.16-.32-4.29-3.36-4.69-6.61-3.19a7.21,7.21,0,0,0-4,6.26c-.31,3.45,2.15,4.37,4.68,5.23,1.85.64,4.36-1.18,5.64,1.55-3.25,2.63-7,4.65-9.18,8.57-1.21,2.13-4.58,3.27-2.84,6.49,1.47,2.72,3.4,5.61,7.13,3.77,2.77-1.38,5,.11,7.42.57,5.15,1,9.65,7.84,7.06,11.86-2.84,4.44-1.62,8-.22,12.73,2.28-2.18,7.91-1.65,6.84-5-2.47-7.61,1.6-13.12,4-19.26,1.95-5.09-.42-8.46-4-11.51-1.86-1.59-4.89-2.71-2.35-6,11.08.77,13,10.17,16.07,17.88,1.72,4.33-1.89,11.44,7.43,10.94.8,0,2.34,5.9-.08,8.4-7.16,7.43-14.92,14-26.45,11.51-3.87-.84-7.82-.77-11.67-2.19-6.53-2.43-11.39-2.36-14.73,6.24-3.18,8.21-2.28-2.11-3.71-1.61-4.72,1.65-7.42,1.1-7.61-4.76-.05-1.44-2.66-1.8-4.57-1.37-3.86.89-4.19,4.33-5,7.17-.56,1.87.58,3.41,2.84,3.3,3.23-.14,5.78.87,3.81,4.39-3.57,6.38-6.58,13.3-13,17.64l-2.89.45c-5.82-1.92-11.8-3.44-17.41-5.84-7.06-3-10.22-9.33-11.85-16.47-.91-4,2.64-4.79,4.85-6.86,3.48-3.27,8.06-7.73-1.78-9.11-3.08-.43-3.33-4.14-4-6.33-2.18-7.31-6.71-9.79-14-8.92-6,.72-12.7,4.12-16.14-5.24C9,82.62.91,86.45.17,79.26c-.63-6.14.3-13,5.45-15.39,8.88-4.13,10.31-11.09,10.74-19,.29-5.48,3.07-9.08,7.41-11.71.86-.52,2.68-.21,3.68.37,1.89,1.07,1.89,2.67.17,4.13a5,5,0,0,0-1,.89c-2.18,3.2-5.66,6.24-1.8,10.44C26.36,50.6,28,52,30.6,50.77,34.45,49,35.47,45.92,34.93,42c-.3-2.17-.7-4.86,2.07-5.46,3-.66,4.58,1.91,6.23,4.1s.29,4.23.35,6.33c.11,3.41,1.12,6.21,5.23,6.34,3,.09,5.48-1,5.64-4.26.16-3.45.56-7.28-4.52-8.24-2.41-.46-6.71,3.43-7-2.24-.27-4.64,2.89-6.91,7.31-7.47l0,.24c6.27,3.47,6.8-1.27,6.92-5.29.14-4.45-3-4.28-6.51-3.88-8.13.92-10.43-1.07-8.87-8.59,1-4.76.67-10.68,6.38-13.56C50,11.23,50.83,12.05,62,13.72c8,1.2,10.32,4.23,7.09,10.77-2,4.13-3.41,8,1,10.24,3.71,1.86,7.74.65,9-4.65.73-3.13,2.51-.76,3.81-.22.33.14.51.7.72,1.09,3,5.42,7.4,8,11.43,6.62s4.76-4.85,4.66-8.56c-.12-4.58,1.15-10.2-6.64-9.61-.52,0-1.14-1.13-1.71-1.75,8-1.15,8.25-1.42,13.5,4.18,3.2,3.42,6.88,2.31,9.83,1.54,7.09-1.85,9.79,2.08,11.21,7.48,2.26,8.63,4.44,10.45,14.44,10.28C143,41.42,145.42,41.9,145.18,45.42ZM114,41.27c3.55-1.31,7.49-1.8,6.82-6.83-.52-3.94-2.15-7-6.62-6.41-4,.57-6.25,3.44-5.62,7.54C109,38.55,110.17,41.57,114,41.27ZM70,56c4,.26,5.88-2.07,6-5.56.06-3.21-1.14-6.72-5.07-6.37s-6.23,3.09-6.14,7.28C64.8,54.72,67,55.85,70,56ZM89.24,67.45c-5.27-.35-5.37,3.8-6,7s1.83,4.87,4.59,5.09c4.29.33,6.3-2.43,6.56-6.37C94.63,69.65,93,67.42,89.24,67.45Zm8.11-12.54c-.82-5.46-2.16-8.4-5.88-8.25-4.6.18-5.22,4-5.22,7.58,0,3.25,2.16,4.68,5.22,4.11S97.71,57.11,97.35,54.91ZM69.09,65.42c-2.72,1.11-6,1.72-6.45,5.48S64,77,67.58,77.21s5.61-2.35,5.71-5.77A5.76,5.76,0,0,0,69.09,65.42Zm42.17,31.63c-.4-2.74-2.22-4-4.61-3.69-2.7.3-5.62,1.53-5.66,4.58s2.81,4.41,5.47,4.4C109.59,102.33,110.85,99.85,111.26,97.05Zm-46.05.22c3.24-.18,5.8-1.78,5.37-5.65A4.83,4.83,0,0,0,65,87.18c-3.54.5-5,3.36-4.9,6.8C60.21,97,62.58,97.14,65.21,97.27Zm22.15-7.41c-2.8,1-6.07,1.77-6.23,5.6-.11,2.54,1.81,4,4,4.36A5.52,5.52,0,0,0,91.34,96C92.19,93.29,89.86,91.22,87.36,89.86Zm-35-2.08c-.78-1.77-2-3.94-3.68-3.13-3.29,1.57-4.19,5.09-4.32,8.5,0,.77,2.07,2.48,2.5,2.28C50.11,93.94,52.54,91.66,52.37,87.78Zm12.2,21.38c-2.54.2-5.23.67-5.08,3.07.11,1.68,2.12,4,3.8,4.6,2.09.75,4.12-.94,4.31-3.43C67.78,111.16,67.15,109.12,64.57,109.16ZM31.34,64.69a4.46,4.46,0,0,0-4.49-2.47c-2.43.13-4.16,1.85-3.87,4.09.34,2.59,2,4.83,5.23,4.19C30.69,70,31.31,68,31.34,64.69Zm20.55,5c0-3.55-2-5-4.93-5.1-2.39-.08-4.25,1.23-4.22,3.9,0,3,1.35,5,4.81,4.7C50,73,51.73,72.17,51.89,69.68Z"/></g></g></svg>