<svg xmlns="http://www.w3.org/2000/svg" viewBox="0 0 171.53 152.38"><defs><style>.cls-1{fill:#e3e3f7;}</style></defs><g id="Layer_2" data-name="Layer 2"><g id="Layer_1-2" data-name="Layer 1"><path class="cls-1" d="M61.31,140.08c-1,.5-1.2,5.15-2.86,1.37C56.92,138,57.2,134,51.7,135.84a15,15,0,0,0-9.06-2.57v-.05a2.37,2.37,0,0,0-1.79-3.33c-4.74-5.44-7.16-14.18-17.13-12.19-1.69.33-3.46-.42-3.49-1.48-.17-6.28-5.48-10.86-5.7-16.87-.46-12.46-.24-12.47-12.69-27.2C-.83,69-.74,55.93,3.09,53c4.24-3.19,4.46-7.4,1.87-9.67C-2.72,36.65,2,31.91,6.32,26.7c2.74-5.28,6.74-9.54,10.9-13.68,5.39-1.66,8.4,1.13,11.87,5,7.86,8.75,11.46,8.84,17.73-.57,3.43-5.15,9.6-2.33,12-5.84,4.1-5.91,7-1.63,10.48-.06,2.6,1.18,5.23,2.53,7.54-.5-5,2.36-2.86,5.8-1.11,8.84.76,1.32,2.75.8,3.52-.33,2.15-3.2-1.09-4.91-2.3-7.18a4.71,4.71,0,0,1-.3-1.37c-2.81.12-4.63-1.52-4.72-4-.16-4.48,3.56-1,4.88-2C82.53.53,91.47,9.91,95.87.43,96,.15,97-.06,97.08,0c4.42,8.16,14,4,19.49,8.06C121.86,12,123.88,20,132.66,19.81c2.38,0,2.67,3.74,2.49,6-.34,4.3,2.09,5.83,5.56,6.75,4.77,2.91,7.85,7.76,7.62,12.69-.32,7-9.72,5.95-13.48,11.9,7.46,1.1,14,5,16.47,10.29,4.72,10.27,6.33.84,9.23-.43,2.27,6,11.33,8.14,9.07,16.86-.47,1.82,4.42,4.13.16,6.71-2.64,1.6-5.21,2.24-8.06.71-.84-.46-2.05-.61-2.52-1.29-6.71-9.7-9.44-5.47-11.54,3-.69,2.81-2.75,4.78-6.35,3.1-1.23-.58-3.51,1.16-2.72,1.82,6.88,5.75-2.78,11.38.44,18,3.76,7.68.48,10.77-8.86,10.22-3-.17-4.62.56-5.39,3.05-1.33,4.32-5.65,4.28-8.46,6.34-2.35-1.77-1.15-4.51-2-6.6s-1.16-5.12-4.42-3.91c-1.53.56-3.51,1.65-3.61,4s2,6.36.25,6.55c-6.95.74-3.61,8.2-7.74,10.45-3.72,2-7.33,4.28-11.06,6.48C82.39,135,80.88,134,64.25,137.53c-.21-1.38-1.18-2.47-2.33-1.82C60.24,136.67,60.44,138.46,61.31,140.08Z"/></g></g></svg>