<svg xmlns="http://www.w3.org/2000/svg" viewBox="0 0 144.97 140.15"><defs><style>.cls-1{fill:#efefd6;}</style></defs><g id="Layer_2" data-name="Layer 2"><g id="Layer_1-2" data-name="Layer 1"><path class="cls-1" d="M125.89,120.43l-11.8,5.76c-3.21-2.82.43-6-1.64-8.58-3.37,0-5.4,2-4.93,5.18.87,5.93-1.67,10.07-5.88,13.64-6.49,5.51-9.21,5-14.12-2.29A25.56,25.56,0,0,0,84.58,131c-.14-1.85-1.52-2.75-2.51-1.33a7.88,7.88,0,0,1-5.36,3.68c-1-1-2.71-3-2.79-3-5.77,4.65-13.71-1.05-19.46,4.32-4,3.68-8,2.54-10.55-2.19C38.72,123,30,119.13,20,117.58c-8.19-1.26-11.44-4.27-11.65-12.25-.06-2.22,1.64-5.91-1.09-5.9-12.95.09-5-5.4-2.59-9.09C6.89,86.89.29,82,6.59,79.45c1.32-4.31,6.67-3.2,8.74-6.51-.15-1.74-.3-3.48-.44-5.22,3.3-2.16,4.9-5.5,6.25-9,.47-1.86-.36-4.14,1.79-5.44,3.46-2.62,2.8-7,4.45-10.41l1-.62C40.85,29,41,26.48,30.64,10.06c-1.41-2.9-3.91-5.93-.23-8.8,4.7-3.67,5.35,1.62,7,3.71,1.88,2.44,3.69,1.45,6,1.46,3.56,0,7.58-.72,10.67,2.17a10.41,10.41,0,0,0,.37,2.7c.65,1.59,1.36,4.13,3.24,3.56s1.51-3.16,1-4.91a16.45,16.45,0,0,0-2.05-3.44c4.94-3.62,11.29-3.7,16.77-5.34,7.4-2.23,15,1.64,20.53,8.3,3.22,3.86-1.09,5.72-1.09,8.66,0,2.45-.68,4.84,2.15,5.76,3,1,4.09-1.71,5.12-3.72.59-1.15,1.07-3,.58-4-1.67-3.46-2.14-5.77,2.67-6.9,3.83-.9,6.82-2.13,9.89,2.1,6.4,8.85,18.13,13.85,19.12,26.62,7.33,2.89,4.92,11.39,9.57,16.41s4.43,12-2.42,16.83c-3.19,2.26-2.47,10.7-10.58,5,2.48,10.31,8.41,18.3,8.72,28,.22,7.18-2.61,10.73-10.16,9.21-.45-.14-1-.48-1.34-.37-3.27.85-7.5-5.77-9.49.07-1.9,5.55,3.8,4.68,7.16,5.43C124.55,118.84,125.18,119.82,125.89,120.43Z"/></g></g></svg>