<svg xmlns="http://www.w3.org/2000/svg" viewBox="0 0 79.36 150.49"><defs><style>.cls-1{fill:#e3e3f7;}</style></defs><g id="Layer_2" data-name="Layer 2"><g id="Layer_1-2" data-name="Layer 1"><path class="cls-1" d="M63.52.7c-.17-1.45-3.89.22-4.85.69C57.05,2.2,56,2.61,56,4.48s.51,2.87.71,4.46c.11.9,0,1.74.14,2.62a15.46,15.46,0,0,1,.63,2.11,13.44,13.44,0,0,0,5.25-.05c.55-.12,1.36-.52,2.07-.68,1.25-.29,1.26-1,1.54.82.64,4.3-2.6,4.9-5.18,6.89-1.2.92-1.52,2.38-3.09,1.76s-2.28-2.52-3.76-3.22c-2.26-1.06-3.33-.12-5.53.12-2,.22-2.63-1.39-3.95-2.61a41.34,41.34,0,0,0-4-2.93,7.68,7.68,0,0,0-2-1.4c-1.08-.3-2.42.33-3.51.06-.87-.21-1-1-2-.77-.67.13-1.07.79-1.53,1.26-1.15,1.17-1.88,2.18-1.56,3.61a4.46,4.46,0,0,0,2.68,2.83A8.62,8.62,0,0,0,35,20a7.9,7.9,0,0,1,2.29.84c.41.66-1,3.12-1.43,3.82a34.41,34.41,0,0,0-2.42,5c-1.35,3.36-3.15,6.74-1.57,10.32a4.89,4.89,0,0,1,.71,2.39c0,1-.16,2.11,0,3.11.23,1.6.46,1.36,2.08,1.36a4.58,4.58,0,0,0,2.61-.62c.32,1.09-.26,2.28.8,3.06.82.61,2.51.42,3.47.16s.86-.59,1.91-.4c.26,0,.77.49,1.17.58,1.77.39,1.76-.06,1.73,2,0,3.16-1.58,5.55-2.57,8.44-.34,1-.54,2.32-1.53,2.94s-2.32-.07-3.49.28c-2.31.69-2.38,4.2-1.88,6.07a25.17,25.17,0,0,1,1.08,2.39c.12,1-.73,2.27-1.37,3.27-.85,1.32-2,2-2.46,3.61s-.84,2.7-1.2,4.23c-.57,2.5-1.36,4.78-1.81,7.19-3,.73-6-1.11-8.69-2.13-1.07-.41-2.61-1.23-2.94-2.55-.38-1.56.32-2.26-1.63-2.81-1.26-.35-4,.88-4.59-.63-.39-1.09.58-.9.62-1.58,0-.89-.39-.86-.5-1.61-.18-1.21.22-2.71-1.4-3.08s-2.86,1.14-4.62.63c.81-1.14,3.5-4.51,1.2-5.46-2.89-1.2-3.75,4.8-4.16,6.29a10.32,10.32,0,0,0-.7,3.44c0,1.13,0,2.27,0,3.4,0,1.37-.2,2.46,1.36,2.8,1,.23,2.74-.61,3.42.32.46.63,0,3.33,0,4v3.5c0,1.15,0,2.3,0,3.45,0,1.63,0,1.68,1.71,1.72,1.26,0,2.27-.49,2.47,1a2.19,2.19,0,0,1-1.75,2.48,6.52,6.52,0,0,1-3.43-.78c-.67-.6-.41-2.2-.33-3.16a13.77,13.77,0,0,0-3.35,6,12.69,12.69,0,0,0-.14,3.43,20.72,20.72,0,0,1-.53,4.5c-.38,2-.35,3.89-.82,5.82-.56,2.28-.86,4.52-1.25,6.87-.59,3.62-1.89,8.84-.33,12.38.27.62,1.31,1.69,1.44,2.22.27,1.12-.33,1.56-.76,2.56-.69,1.61-1.22,6,0,7.43a25.25,25.25,0,0,0,3.67-4.69,6.56,6.56,0,0,1,3.27-3.11c2.17-.77,1.52,1.34,1.52,3a14.8,14.8,0,0,0,.14,4.21c1.57-.43,2.61-3.41,4-3.47.48,0,1.11.78,1.37,1.13.4.54.38,1.39.64,1.75,1.2,1.63,4.24-.87,5.46-2.13.34-.35.44-.92.91-1.2.72-.44,1.73,0,2.54-.28-.18-1.2-2.75-2.08-3.77-2.52-2.49-1.08-4.31-1.19-6-3.5s-1.56-4.45-.35-6.89a20,20,0,0,0,1.27-4.14c.54-2.1,1.49-4.25,2.17-6.37,1.21-3.79,2.37-7.68,3.27-11.54.37-1.58.92-3.24,1.22-4.83.19-1-.23-2.43.81-2.78,1.31-.45,1.43.86,2.24,1.3s2-.21,2.9.19,1.07,1.15,1.12,2.13a8.2,8.2,0,0,1-.38,2.66c-.23.91-.1,1.87-.3,2.72-.54,2.21-1.44,3.89-1.42,6.22,0,1.69-.36,6,2.79,5.54.65-.1,1.52-1.09,2-1.44a11.37,11.37,0,0,0,2.08-1.35c1.48-1.56.65-1.06,2.74-1.36a6,6,0,0,0,3.48-2.09c3.73-5.07-3-11.6,1.85-16,1.65-1.51,3.39-2.39,4.81-4.13a8.22,8.22,0,0,0,2.24-6c0-1.32.45-1.6.72-2.72.21-.89-.11-1.86.12-2.79.46-1.87,3.49-5,1.3-6.76-1-.77-3.26-.69-4.38-.33-2.22.72-3.25,2.78-4,5-.71,2-.31,5.2-1.84,6.89-.52.57-2.57,1.53-3.51.62-.49-.48-.18-2.64-.13-3.3a18.21,18.21,0,0,1,1.2-5.57c1.12-2.51,3.86-4,6.4-4.63,1.12-.27,2.34-.48,3.44-.7a4.12,4.12,0,0,1,2.78.55c1.15.62.76,1.19,1.48,1.93.51.51,1.47.6,2.08,1.29s2,2.44,2,3.66-1.43,3-2,4-1.4,1.87-2.1,2.91c-1,1.5-.74,2.83-2.15,4.12-1,1-2.42,1.28-2.87,2.7s.17,3.39.09,4.89a4.36,4.36,0,0,1-1.35,3.28c-1.18,1-2.76.5-3.36,2.19-.46,1.27.13,2.7-.09,4a8.17,8.17,0,0,1-1.23,2.92,13.85,13.85,0,0,1-3,2.72c-1.71,1.49-1,2.45-1.33,4.51-.39,2.65-3.12,2.82-3.48,5.12-.17,1.1.49,1.84.58,2.77.19,2.05-1.13,2.06-2.63,2.06-3.95,0-1-2.3-.64-4.66.21-1.46.08-2.22-1.43-2.25-1.35,0-1.25.77-2.2,1.27-2.14,1.14-4.31-1.2-5.57,1.65-.57,1.31-.15,2.61-.62,3.84-.38,1-1.71,2.09-2.35,3-.75,1-3.46,5.32-.29,5.54,1.06.07,2.48-1.27,3.5-1.68,1.36-.55,2.19-.51,3.37-1.33a9.79,9.79,0,0,0,2.79-2.32c.83-1.21,1.05-2.44,2.26-1,2.24,2.61-1,5.47-2.91,6.78-2.08,1.42-3.63,1.73-3.58,4.84,0,1.83.81,2.69,2.54,2.92,4.28.57,8.59,0,8.61-5.24,0-1.18-.39-2.75.44-3.78.7-.87,1.93-.82,2.92-1.43,3.54-2.18,2.84-5.23,2.79-8.84,0-1.55-.22-2.2,1-3.19s2.75-1.06,3.87-2.23c1.74-1.81.83-10,4.12-10.16,1.41-.06,1.55,1.76,2,2.67.79,1.54,1.84,3.37,3.37,4.2,1.9,1,4.62.26,6.37,1.11,1.41.68.89,1.91,1.28,3.15.7,2.31,3.41,2.7,5.52,3.22,1.92.48,5.5,1.41,6.78-1,.94-1.74,0-6.07.09-8s1.4-2.32,2.16-4.24-.09-3-2.12-2.82a15.1,15.1,0,0,0-6.4,3c-1,.83-3.5,3.47-5,2.61-1-.57-.89-2.56-.39-3.51.67-1.27,2.51-1.39,3.81-2,3.38-1.53,8.28-4.06,8.49-8.29.11-2-3.17-9.69-6.11-8.2-1.11.57-1.29,3.7-1.69,4.81a10.82,10.82,0,0,0-1.06,3.73c-.06,1.6,1,2.68.08,3.82a6.52,6.52,0,0,1-2.78,1.53c-1.65.69-1.84.91-2.1-.81-.19-1.24.18-2.57,0-3.81-.41-3.82-4.67-5-4.19-9.33.16-1.48,1-2.72,1.43-4.14A9.57,9.57,0,0,1,63,88a27.85,27.85,0,0,0,2.91-3.11,21.72,21.72,0,0,0,2.94-5.28,25.38,25.38,0,0,1,5-7.55c2.06-2.34,5.73-4.71,5.55-8.1-.27-4.91-9.75-8.94-13-4.47C64,62.62,66.59,70,62.13,71.47c-4,1.35-1.19-4.68-.48-6.14a12.65,12.65,0,0,1,1.59-3c.86-.95,1.57-1.17,2.17-2.45a7.29,7.29,0,0,0,.9-4.32,33.85,33.85,0,0,0-.83-4.64c-.51-1.71-2.48-3.28-4-4-.73-.33-3.18-1.58-3.82-1.43-2.9.67-4,9.5-3.45,11.61.39,1.41,1.33,2.72,1.63,4.17.41,2-.49,1.78-1.12,3.55-.76,2.15,1.11,5.11-1.65,5.88a4.29,4.29,0,0,1-2.95-.15c-1.81-.74-1.8-1.88-1.74-3.69.07-2.12,1.15-3.22,2-5.13A34.49,34.49,0,0,0,51.83,57a51.35,51.35,0,0,1,1.55-5.55,8,8,0,0,1,1.91-3c1-1.21,1.28-3.06,2-4.44.54-1,3.47-4.1,3.45-5.17a9.09,9.09,0,0,0-.67-2.39c-.57-1.13-.78-1.24-2.06-1.38a3.79,3.79,0,0,0-2.72.42c-.64.58-.82,2.28-1.22,3.06a4.3,4.3,0,0,1-2,2c-.65.26-3,.39-3.64-.07-1.29-.95.22-3,.44-4a7.61,7.61,0,0,0,0-4c-1.78-.18-3.5-1.26-4.91.52-1.54,1.94.51,3.88-2.69,4.74-2.54.68-4.23,0-3.85-2.77a43.24,43.24,0,0,1,.69-4.54,4.12,4.12,0,0,1,1.36-2.23c1.57-1.23,4.69-.75,5.94.7s.6,3.21,2.87,4c1.85.67,4,.05,6,.64C56,34,59.85,35.94,61.49,35c1.38-.79,2-4.23,2.54-5.56.79-2,.91-1.83,2.75-2.72a7.47,7.47,0,0,0,3-2.47c1.37-1.69,8.2-7.42,6-10.33-1.32-1.78-3.86.16-2.85-3.05.68-2.14,1.77-4.67.25-6.77s-3.91-1.68-6.1-2.16S63.15,0,61,0A7.61,7.61,0,0,1,63.52.7Z"/></g></g></svg>