<svg xmlns="http://www.w3.org/2000/svg" viewBox="0 0 112.77 152.99"><defs><style>.cls-1{fill:#e3e3f7;}</style></defs><g id="Layer_2" data-name="Layer 2"><g id="Layer_1-2" data-name="Layer 1"><path class="cls-1" d="M53.06,1.85H48c-.79,0-1.6,0-2.39,0a10.8,10.8,0,0,0-2.35.62c-.77.16-1.62-.13-2.4,0a22.81,22.81,0,0,0-2.21,1,10.44,10.44,0,0,0-3.74,1.62c-1.34,1-2.25,1.26-3.27,2.67a13.24,13.24,0,0,0-1.92,4.63c-.38,1.28-1.09,2.18-1.05,3.7A4.76,4.76,0,0,1,28.21,18a10.76,10.76,0,0,0-.13,2.84,20.57,20.57,0,0,0,1.79,9c.54,1.25,1.21,2.63,1.71,3.89.31.81.48,1.68.81,2.49.21.52.86,1.14,1,1.68.88,3.58-.77,7.14-1.71,10.39a14.7,14.7,0,0,1-1.8,3.53c-.89,1.32-2.23,2-3.59,2.83-2.46,1.58-3.79,4.41-5.34,6.69a34,34,0,0,1-3,3.8c-1,1.07-1.44,2.45-2.65,3.35A1.9,1.9,0,1,0,14.1,72a8,8,0,0,1,0,1.78c-.16,1.25-.76,3.4-.34,4.79.36,1.16,1.87,1.82,2.58,2.78,4,5.41-4,12.36-8.33,14.89a16.16,16.16,0,0,0-7,8.77,8.26,8.26,0,0,0-.29,2.38,14.55,14.55,0,0,1-.63,2.68c-.34,1.92.36,3.59.66,5.36.13.8-.1,1.56.1,2.37a21.85,21.85,0,0,0,.91,2.4c.55,1.4,1.4,1.93,2.36,3.07a29.23,29.23,0,0,0,9.7,7,20.89,20.89,0,0,0,12.25,1.72c1.14-.23,2.32-.57,3.45-.85.82-.19,1.59-.16,2.38-.34s1.1-.55,2.13-.54,1.71-.19,2.33.34c.43.36.56,1.55.64,2,.15.85.41,1.55.62,2.4.37,1.55.37,3.83,1.3,5.23a14.71,14.71,0,0,0,3.44,3,67.64,67.64,0,0,0,6.41,4.17c3.55,2,7.17,4.76,11.46,4.9,1.78.06,3.26.6,5,.58,2.4,0,4.9.26,7.21-.3s4.79-.41,7.11-1a6,6,0,0,1,2-.46c1,0,2,.06,3,0a19,19,0,0,0,2.38-.64c.75-.13,1.5.05,2.25-.1.21,0,.37-.42.7-.5s.83.13,1.22.07a16.82,16.82,0,0,0,3-1.07c1.08-.41,2.45-.73,3.13-1.78a5.55,5.55,0,0,0,.56-1.81,19.34,19.34,0,0,0,1.09-2.51c.26-1.6.25-2.91.54-4.49.13-.68.5-1.05.64-1.73a14.34,14.34,0,0,0,0-2.7c0-3.85.15-7.5,1.71-11a28.91,28.91,0,0,1,2.6-4.44c.45-.65,1.08-1.25,1.49-1.9.72-1.15,1-2.39,1.8-3.5,5.14-6.92,6-16.46,4.43-24.81-.79-4.3-3.62-7.92-6.92-10.61A57.89,57.89,0,0,0,100.66,74c-1.65-1.09-2.46-2.68-3.9-4C95,68.31,92.64,67,91.26,64.9c-1.14-1.74-1.51-4.06-2.34-6-.68-1.55-1.14-3.15-1.77-4.73-.43-1.07-1-2.14-1.5-3.15a25.4,25.4,0,0,0-2.84-3.55,26,26,0,0,0-5.36-4.93,4,4,0,0,1-1.56-3.25c-.06-.77.66-1.79.67-2.69s2.23-9.37,1.5-16.35a17.74,17.74,0,0,0-.59-3,18.1,18.1,0,0,0-.61-1.79c-.42-1.13-.38-1.86-.7-3C75.45,10,72.87,6.8,71,4.91A14.46,14.46,0,0,0,68.4,2.74a19.61,19.61,0,0,0-3.11-2C64.5.49,63.41.4,62.6.19a9.79,9.79,0,0,0-3-.14,35.3,35.3,0,0,0-3.82.61A12,12,0,0,0,53.06,1.85Z"/></g></g></svg>