<svg xmlns="http://www.w3.org/2000/svg" viewBox="0 0 71.93 134.44"><defs><style>.cls-1{fill:#e3e3f7;}</style></defs><g id="Layer_2" data-name="Layer 2"><g id="Layer_1-2" data-name="Layer 1"><path class="cls-1" d="M67.11,6.49c-3.6-1.78-7.62-2.41-11.36-3.32-1.6-.39-3.12-1-4.73-1.42S48,.56,46.43,0c0,1,1.12,1.57,1.64,2.33A15.09,15.09,0,0,1,49.24,5c1,2.44,2.41,5,2.76,7.61s0,5.46,0,8.05.48,5.92-.21,8.53C50.59,33.64,49.82,39.39,46.28,43a8.83,8.83,0,0,1-6.62,2.36,11.73,11.73,0,0,0-3.06.74c-1.51.32-3,0-4.54.19-1.25.14-1.68.75-2.77,1s-2.65-.24-3.86-.07c-1.38.18-2,.77-3.26,1-1.58.28-2.19.08-3.58.68-4.64,2-7.94,6.48-7.37,11.62.53,4.78,4.41,8.42,8.57,10.63,1.94,1,4.92,2.89,5.59,5s.17,6,.08,8.45c-.27,7.14-8.09,6.21-13.06,8.28a44.54,44.54,0,0,0-6.86,4.26C4,98.19.29,100,0,101.92c2,.25,3.71,1.59,5.51,2.13,2.67.8,4.67,1.21,7.06,2.82,1.86,1.24,3.9,2.44,5.7,3.79a16.93,16.93,0,0,1,2,2.36,25.28,25.28,0,0,0,4.19,3.08c5.27,3.58,9.79,8,15.2,11.36a27.16,27.16,0,0,1,5.16,4c1.17,1.21,3.06,2.94,4.83,2.95-1.22-1.71-1.5-4.62-1.51-6.74,0-2.29-.68-4-1-6.16-.62-4.36,0-9.31,0-13.73,0-4,.54-8.39,0-12.33-.23-1.77-1-2.79-1-4.72A13.55,13.55,0,0,0,45.55,87c-.26-1,0-1.94-.16-2.89-.29-1.32-1.48-2.92-2.06-4.18a45.57,45.57,0,0,1-2.52-5.45c-1-3.79,1.64-6.21,4.55-8.08,4.17-2.67,7.74-6.32,11.34-9.72,2-1.86,4.25-2.5,6.41-4,1.51-1,2.45-2.62,3.86-3.79a50.42,50.42,0,0,1-2.48-5.65c-.58-2.24-.73-4.18-1.11-6.42a4.62,4.62,0,0,0-.84-1.94.79.79,0,0,1,.53-1.11,23.59,23.59,0,0,1,1-2.63,38.37,38.37,0,0,1,3.33-7.36c1.8-3.34,5.06-6.54,4.5-10.65-.68-5-4.34-5.63-8.33-7.54C64.45,5.35,65.33,5,67.11,6.49Z"/></g></g></svg>