<svg xmlns="http://www.w3.org/2000/svg" viewBox="0 0 241.28 160.68"><defs><style>.cls-1{fill:#e3e3f7;}</style></defs><g id="Layer_2" data-name="Layer 2"><g id="Layer_1-2" data-name="Layer 1"><path class="cls-1" d="M160.1,17.77a30.9,30.9,0,0,1-3.32,8.77c-.63,1-1.56,2.29-.31,3.65.78.85.5,1.84.18,2.83-.61,1.92.07,3.71,1.2,5.42a4.86,4.86,0,0,1-3.39-.64c-4.43-2.51-4.39-2.5-8.15.49-.88.7-1.48,1.84-2.77,2l.14.07c0-1.65,3.53-3.35-.33-5.05-1.36-.6,1.36-2.84-.5-4.44-1.14-1-2.88-1.82-3-3.67-.05-.59.4-1.21.62-1.82s-1.08-1.48.08-2.17c4.52,2.3,9.35,1.16,14.07,1.22.68,0,1.5-.75,1.07-1.27-1.35-1.6,0-2.2.82-3.1.3-.31.31-.91.45-1.39C157.75,15.85,160.66,14.08,160.1,17.77Zm-104,65.15c.74-.1,1.67.08,1.73-1.08a.47.47,0,0,0-.25-.38c-1-.24-1.33.55-1.8,1.15-.22.19-.64.53-.63.54C55.6,83.77,55.84,83.34,56.08,82.92ZM99.47,48.69c.72-.18,1.66-.1,1.66-1.22a.88.88,0,0,0-.84-.93c-1-.1-1.34.57-1.4,1.44-.57.19-1.54.33-1.09,1.09S99,49.08,99.47,48.69ZM25.24,127c-.77.35-.79.72,0,1.12.13.32.27.65.4,1a1,1,0,0,0,1.1,1,6.74,6.74,0,0,0,.3,4.38c.85,1.59,1.84,1.69,3,.33.79-1,.2-2.82,2-3.06.12,2.13.13,4.28.4,6.4.23,1.82,1.46,2.69,3.22,2,2.16-.83,4.24-1.9,6.32-2.93,1.68-.83,1.42-2.55,1.42-3.94,0-1.2-1.22-1.35-2.25-1.52s-2.27-.55-3.4-.83c.18-1.73,1.45-3.21,1.11-5.06,2.76-.72,5.26.61,7.86,1.1,2,.38,3.1-.23,3.75-2.14.92-2.72,2.1-5.34,3-8.07,1-3.26-.63-5.6-4.05-5.87a6.53,6.53,0,0,0-5,1.94c-2.32,2.06-3,5.74-6.52,6.63-.54.14-.31,1.2-.45,1.83-.43,1.87.88,3.11,1.44,4.62-1.08,0-2.71-.35-2.81,1-.14,1.9-2.18,2.41-2.4,4.08-.47.53-.66,1.67-1.78.82a4.13,4.13,0,0,1-.39-1.27c.12-3,.14-3-2.87-2.64l-.08-3c0-.69.57-1.82-.9-1.61C25.5,123.61,25.79,125.6,25.24,127Zm61.48-24.79c.48-1.69,1.47-3.55-1.6-4.35.64,1.64.58,3.17,1.69,4.26,1.71,3.53,5.63,3.43,8.41,5.19,1.68,1.06,2.62.13,3.11-1.16s1.38-3.1-.62-3.9c-2.85-1.14-5.25-3.5-8.71-3.36-.27.7-.48,1.31-.74,1.91S87.94,102.53,86.72,102.21ZM53.94,97.77c-1.2-1.2,1.22-1.78.49-2.9-2.75-.81-3.69,1.76-5.35,2.95-.18.12,0,1,.19,1.34.41.67.93.13,1.07-.22.78-1.9,2.46-1,3.75-1.3-1.3,1.76-1.6,3.93-2.45,5.87-.29.65-.69,1.45,0,1.68,2.19.71,3.91,2.75,6.29,2.62,1.6-.09,1.29-2,1.87-3.14a9.93,9.93,0,0,1,1.6-1.86c1.32-1.5,1-5.22-.44-6.68-1.67-1.67-3.5-1.38-5.81.88A6.88,6.88,0,0,1,53.94,97.77Zm13.69-5.69c.8.63,2.54.53,1.85,2.33a1.59,1.59,0,0,0,1.11,2.34c2.79.23,5,2.45,7.94,2.13,2.35-.25,3.06-.9,2.11-2.81-1.17-2.36-2.44-4.66-3.69-7-1.72-3.19-2.48-3.35-4.5-.54-1.29,1.8-2.39,3.62-4.92,3.62a7.76,7.76,0,0,1,1.87-5.49c2-2.11,1.15-4.47-.13-6.34-1.51-2.21-2.11-.22-2.79,1-.16.29-.3-.14-.5-.46-1.4-2.19-2.83-1.08-4.24.07-2.64,2.17-3,5.42-4,8.37-.67,2,.73,4,2.33,3.11C62.68,91.05,65.11,92.2,67.63,92.08Zm41.26-69.35c-2.51-.7-4.17-4.43-7.52-2.09.44,3.75,1.83,7.56-.36,11.68-1.92-3.8,0-7.77-2.46-11-1.08,1.89-.52,4.59-3.36,5-2.13-1.44,1.32-2.57.14-4.05-1.5.39-1.6,1.76-1.7,2.9,0,.36,1.51,0,1.62,1.08.54,1.34,0,2.62-.36,3.84-1.4,5.52-.19,8,5.08,9.83.79.28,1.59.77,2.21-.08A1.47,1.47,0,0,0,102,38c-2.1-2.27.28-3.87,1.39-3.58,2.82.74,3.12-1,3.72-2.66a7,7,0,0,1,1.72-3c1.91-1.75,1.87-1.78,1-3.78-.34-.74-.61-1.52-.91-2.29.56.32,1.13.65,1.7,1s1.29.65,1.6-.13-.29-1.15-1-1.37C110.29,21.89,109.65,22.53,108.89,22.73ZM66.9,117a7.13,7.13,0,0,1,2,.2c3.13,1.25,5.52.81,6.93-2.58a6.31,6.31,0,0,1,1.57-1.94c1.79-1.72,1.25-3.22-.46-4.49-.63-.47-3.46.45-.5-1.6,1.79-1.25,1-2.86-1.24-3.75a31.57,31.57,0,0,1-5.52-2.24c-2.4-1.52-3.28-.31-4.08,1.65s-1.24,4.36-2.93,5.72c-2.4,2-2.23,3.6-.28,5.6a4.16,4.16,0,0,1,.59,1.35,9.17,9.17,0,0,1-1.12,1c-.82.53-2.05,1-1.5,2.17a1.8,1.8,0,0,0,3,.39A5.76,5.76,0,0,1,66.9,117Zm80.61-13.92-6-2.4-13.36-2.57a2,2,0,0,0-2.57.92,2.73,2.73,0,0,0,.56,3.24,16.4,16.4,0,0,0,6.62,5c1.14.39,1.28.57,1.68,1.61,2,5.21,4,5.72,8.29,2.51,2.34-1.75,3.6-4.34,5.25-6.62.22-.3-.34-1.17-.54-1.77.5,0,1,.08,1.5,0s1.44.18,1.47-.77-.78-1.15-1.36-1.23C147.54,100.83,147.75,102.15,147.51,103.05Zm-3.15-11.78c-.93-1.17,1.68-2.75-.46-3.81-.49.91-3.39,1.78,0,2.69.58.15.64.57.4,1.06a4.64,4.64,0,0,1-3.09,1.19,2.75,2.75,0,0,0-2.74,1.79c-.4,1.58,1.3,2.06,2.31,2.83,2,1.5,4.47,1.23,6.69,1.89,5,1.49,5.07,1.52,7.3-2.88.42-.83,1.25-1.11,1.58-1.79,1.1-2.23,2.76-4.49,2.89-6.81s-3.36-1.44-4.72-3a6.88,6.88,0,0,0-2.45-1.7c-3.85-1.6-6.31.14-6.52,4.43C145.48,88.63,146,90.31,144.36,91.27ZM67.91,64.5c3,1.44,3,1.44,6.56-2.68-.74-1.17-1.75.61-2.57-.27,1.26-1.41,2.92-2.46,3.78-4.26.2-.42.43-1.1,1.41-.47,1.7,1.12,2.93,1,3.8.07,1-1.09.5-3-1-3-1.32.08-2.6,1.17-1.88-1.3.52-1.78-.89-2.29-1.88-3.1-1.93-1.59-4.61-1.92-6.4-3.8a1.34,1.34,0,0,0-1.83-.19c-3.57,3.35-8.07,5.76-10.26,10.5-.67,1.45-.29,2.32.91,2.81,2.4,1,4.07,2.83,5.84,4.58C65.36,64.42,66.42,65.17,67.91,64.5ZM27.43,159.19c.13-3.06-.73-5.93-1.12-8.88-.2-1.5-.29-3.93-3.26-2.31-1,.53-2.38-.43-2.58-1.72-.15-1-.74-2.39.87-3,.68-.24,2,.19,1.74-1s-1.67-2.46-2.54-2c-3.78,2.24-1.79-1.92-2.86-2.71-1.36-1,.7-2.51,1.75-3.45.73-.65,1.05.07,1.18.8.09.54-.21,1.47.81,1.29a1.7,1.7,0,0,0,1-1.05c.77-2.33-.2-4.61-.12-7.64-4.43,2.12-8.84,3-13.15,4.23-1-3.91-1-4,2.27-4.51,2.39-.38,4.8-.22,7-1.74,2.72-1.87,2.9-4.83-.1-6.55-1.25-.71-1.26-2-.72-2.34,1.63-1,.86-4.62,4.24-3.72.63.17,1.12-1.47.67-2.06-.9-1.19-1.92.46-3,.22,0-.36,0-.72,0-1.08l.23-1.05a1,1,0,0,0,.76-1c2.09-1.69,4.47-.32,7.11-1.3a25.69,25.69,0,0,1-2.12,3.13c-1.65,1.73-1,3.35.06,5s2.41,2.79,4.52,1.55c.41-.23.85-.67,1.3-.15,2.8,3.23,4.4.16,6-1.32,2.37-2.16,4.38-4.71,6.66-7,1.06-1.06,2.59-1.87,1.85-3.65a4.13,4.13,0,0,0-3.94-2.5c-.72,0-1.68,1.19-2.06.06-1.22-3.56-3-1.38-4.61-.57s-3.08,1.77-4.66,2.7c-.54-1.67-1.74-2.83.34-4.31,1.83-1.29,3-3.49,4.55-5.37-1.18-1.9-1.94-4.27-4.84-4.34l-3.23-.17,0-1.88c.23-.65,0-1-.66-1.19-1.37-1.74-2.67-3.43.27-5,.92-.49.37-1.44.27-2.2a2.3,2.3,0,0,0-.47,0,2.76,2.76,0,0,0,2.67-.83l2.47-.5c1.06.36,3.73,4.2,3.35,4.85a1.69,1.69,0,0,1-2.19.67c-1.64-.57-1.88.8-2.59,1.81a8.76,8.76,0,0,0,5.06,1.76c3.09,0,3,.1,5.15,2.83.48.63,1.16-.31,1.79-.3.88,2.81-2.73,5.64,0,8.45-.11.08-.28.14-.33.25-.5,1.2-.31,2.27.49,2.29,1.52,0,3-.11,4.57-.19.2-2.56.23-5.06.66-7.49.17-1,1.11-2.51,1.76.08.3,1.21,1.67.86,2.54.43s1.89-1,1.47-2.23-1.42-1-2.4-.57c-.63.29-1-.18-.8-.65,1.36-2.7-.74-4-1.95-6.2-1.58,2.15-2.79,3.93-4.16,5.56-.4.49-1.13,1.39-2,.36-.09-1.13,1.56-1.8.9-3.1L41,86.22c2.19-5,3.92-10,1.29-15.24.37.35.74.66,1.08,1s1,.86,1.64.45a.91.91,0,0,0,.31-.75c-.12-.66-.55-1.28-1.21-1.27a5.59,5.59,0,0,0-1.77.67c-2.08-1.84-3.85-1.11-5.48.68-1.1-.34-2-1.28-3.23-1.17-.3-1.63-.44-3.11,1.54-3.94a3.8,3.8,0,0,0,2.58-4.22.37.37,0,0,0,0-.58l.92-.34,2.92,0c.5,1.81-.72,3.89,1,5.74,2.31-.7,3.36-2.58,3.9-4.62.43-1.59.62-3.16,2.15-4.13.42.17.92.16.88.89s-1.32,1.39,0,2c.72.34,1.17-.3,1.67-.74A2.13,2.13,0,0,0,51.94,59c-1-1.28-2.44,1.5-3.4-.36.15-2-1.33-2.65-2.74-3.37-.4-.62-.79-1.25-1.17-1.9,1.79.42,2.58-1.35,4-1.8,6.31,3.17,8.62,2.79,12.48-3a11.75,11.75,0,0,0,1.82-7.24l2-2c1.73-2,1.24-4.53,1.46-6.88,1.56.61,3-2,4.61-.2-.58,2.16-2.24,4-1.42,6.6,1.27,4,3.7,6.49,7.85,6.2,2.19-.16,4.42,1.24,6.34.16,2.15-1.21,1-4.08,2.1-5.92a1,1,0,0,0,.12-.49c0-1.88,2.82-3.28,1.79-4.9-1.75-2.74-3.26-5.93-6.39-7.49a16.23,16.23,0,0,1-4.92-4.13c2.73-.17,4.75-.71,6.45,1.24A8.93,8.93,0,0,0,85,24.7c5.62,3.37,6.48,3,7.94-3.34.11-.48-.1-1.08.11-1.49,1.78-3.39,1-5.94-2.41-7.69a10.48,10.48,0,0,1,3.73,1c1.4.43,2.18-.18,2-1.75.09-1.29.19-2.59.28-3.88-.46,1.06.27,1.6,1,1.51,1.49-.16.81-1.27.65-2.11a7.79,7.79,0,0,0-.16-4l0-2.92,1,0q.47,2.58,1,5.16c-.06,1,.57,1.38,1.4,1.52a1.87,1.87,0,0,1,1.59,2c-1.59,4.21-1.37,5.35,1.4,8A16.72,16.72,0,0,0,114.74,21c2.08.2,1.94,1.17,1.41,2.05-1.34,2.26-.06,3.72,1.16,5.29l-.94,1c-1.23.07-1.28,1-1.35,1.88-.27.46-.54.92-.8,1.38-5.5,1.47-7.84,4.49-7,9.51a43,43,0,0,0,2.12,7,2.61,2.61,0,0,0,2.58,2c1.63,0,2.17-1.25,2.79-2.48.79-1.58-.39-2-1.34-2.67-.6-.42-1.6-.67-1.14-1.93,1.23-.57,2.94.75,4-.77l.39.18c1.74,3.05,3.65-1.13,5.36-.07.78,1.78-1.67,2.8-.84,4.42,1.44,0,2.14-1.06,3.18-1.52a7.6,7.6,0,0,0,.69.7c-.65,2.61-2.65,4-4.69,5.47s-1.94,3.23.59,4c2,.59,2.12,2.63,3.79,3.37,3.31,1.46,4.77,1.29,5.66-2,.76-2.8,2.81-4.43,4.36-6.52.88-1.19,2.29-2.06,1.51-3.86a1.72,1.72,0,0,0,2-.68c.43-.66.17-1.12-.51-1.41-.78-.57-1.86-1.58-.13-1.75s3.26-1.18,5-1.11v-.15c-2.14,5.5-2,5.74,3.08,8.36,1.08.56,2.22.69,3.27,1.17,4,1.82,7.44,1.59,9.64-2.82.17,1.26,1.68.25,2,1.2a13.09,13.09,0,0,0-1.53,2.54c-1.71,5.09-1.73,4.94,2.84,7a63.19,63.19,0,0,0,6.39,2.64c4.94,1.58,5,1.51,8-2.38.13-.19,0-.56,0-.85-.91-.48-1.71.94-2.24.42-.89-.9,0-1.74.66-2.48.1-.1.08-.31.12-.47l.07,0c4.85,1.17,5.07,1.68,2.41,5.67-.47.69-.95,1.38-1.36,2.11-1.84,3.27-1.89,3.6,1.33,5.38,1.35.75,1.93,2.3,3.57,2.78,2.65-1.53,4.2-4.13,6.1-6.44,1.3-1.59,1.08-3,.09-4.51-.6-.92-1.25-1.8-1.87-2.68,1.4-1.42,3.11-2.11,4.44-.53,1.83,2.19,3.31,1.66,5.39.45,3-1.76,7-2.11,8.36-6.17.2-.6,1.35-.86,2-1.33a2.77,2.77,0,0,0,.52-.7c.35,0,.82-.68,1.13-.86a7.71,7.71,0,0,0,.92-.55,4.73,4.73,0,0,1,1.25-.82,2.8,2.8,0,0,1,.71,0,3.2,3.2,0,0,1,.66.15,3.58,3.58,0,0,1,1.49.38c1,.64.81,2,.81,3a4.57,4.57,0,0,1,0,.74c0,.16-.14.28-.17.44s.05.31,0,.45a2.41,2.41,0,0,0-.16.59.87.87,0,0,0,.37.75c1.85,1.56,2.58,3.83,4.65,5.22,2.93,2,2.92,2.16,5.25-.28s3.75-5.88,8-5a1,1,0,0,0,.85-.47c1.24-2.53,4.4-5.61,6.36-7.55,1.61-1.58,4.83-.36,2.09,2-3.6,2.46-3.81,2.15-2.7,5.48a2,2,0,0,0,.18.91l-.73.64c-1.57-.15-3.22-.87-4.6.57a24,24,0,0,1-3.24,1.28c-4,1.34-5.53,4.78-6.12,8.47-.32,2,1.69,3.44,3.2,4.75.72.63,1.94,1.32.9,2.34a1.87,1.87,0,0,1-3.05-.06c-.41-.52-1-.9-1.42-1.42-1-1.27-1.83-1.37-3.31-.38-2.92,1.94-6.12,3.46-9.14,5.26-2.77,1.65-3,3.15-.48,4.85,1.37.92,1.9,2.28,3,3.26,2.14,1.93,1.26,3.43-1,5.24-.65-2.78-2.78-4.27-4.46-6.15-1-1.15-2.27-1.65-3.56-1-2.85,1.49-6.25,3.45-6.48,6.47-.15,2-2.8,2.63-1.67,4.92.36.71-1.46,1.5-2.68,1.35s-1.94-.68-2-1.9c0-1.66,0-3.33,0-5,.48-.61,1.71.45,1.82-.76,0-.29-.64-.93-.95-.9-1.26.09-.06,1.35-.73,1.8-2.84-3.22-6.69-5.3-9.22-9-1.5-2.17-4.39-3.57-6.91-4.78-1.51-.72-2.67.65-3.12,2.31-.26,1,.3,2.18-1.44,2.63-3.15.83-3.92,3.61-3.74,6.35s3.2,3.85,5.19,4.71c1.3.57,4.06,2.29,5.73-.64.72-1.28,2.07-.33,2.29.45.91,3.24,2.07,6.23,4.75,8.49.73.62-.45,2,.55,2.82-.63.72-1.46.29-2.17.39-1.67.23-3.43.34-3.86,2.41-.35,1.72,1.38,2.49,2.28,2.8,2,.68.22,1.39.32,2s.37,1.76.63,1.78c4.34.31,1.38,3,.95,4-1.2,2.77-4.35,6.54-4.91,4.38-.87-4.28-3.6-6.89-4.92-10.51-2,4.92-2.2,5-6.19,2.44-1.12-.72-2.26-1.42-3.31-2.24a17.79,17.79,0,0,0-8.77-3.27,2.83,2.83,0,0,0-2.66.67c-3.1,2.78-6.42,5.33-9.33,8.29-1.12,1.14-3.17,2.66-1.46,4.9,1.19,1.43-4,5.5-4,.88.23-2.19-1-3.7-2.26-5.2-.35-1.14-2-1-2.22-2.27-1-1.53-1.77-3.19-3.38-4.18s-2,.25-2.27,1.43l-1.23.13,0,0c-.38-1.37-1.38-1.42-2.51-1.17.1-.57,1-1.08.25-1.71a1,1,0,0,0-1.62.32,27.44,27.44,0,0,1-2.26,5.46l-1.87.11c-1.28-.22-2.74-1.26-3.52.79l-4.23.08c-2.53-1.6-5.07.22-7.64,0-1.8-.13-1.64,2.57-2.69,3.8-.86,1-1.6,2.09-2.39,3.14-.28-.38-.57-.75-.85-1.12-.16-1.41.77-2.49,1.07-3.74.24-1,2-1.83.6-2.94-1-.8-2.34-1.32-3.56-.11l-1.15,0c.48-2.29-1.33-2.82-2.78-3.56s-3.4-2.21-4.62-1.31c-3.45,2.53-7.32,4.69-9.74,8.46-.86,1.34-.36,2.25.92,2.75,4.13,1.62,8,3.78,12.42,4.77.86,1.06,1.48,2.48,3.26,2.13-1.23,2.38-2,4.62,1.39,6a2.74,2.74,0,0,1,1.14.94,1.36,1.36,0,0,1-.17,1.81,1,1,0,0,1-1.34.1,10.06,10.06,0,0,1-2.9-2.66c-1-1.29-1.48-3.08-3.5-3.22l-1.85,0a2.29,2.29,0,0,0-1.07-2.57c-2.59-1.59-5.53-2.3-8.32-3.39-1.14-.45-1.77.58-2.68.86l-.48-1.69a10,10,0,0,0-1.43,1.13c-.27.31-.62.88-.16,1.22,1,.76,1.13-1.5,2.22-.78.53,2.63.23,4.93-2.58,6.16-.21.09-.55-.09-1-.17,0-.94.76-2,.25-2.52-1.63-1-2.4,1.72-3.91.22a12.14,12.14,0,0,0,2.05-7A19.86,19.86,0,0,0,59.78,120a3.37,3.37,0,0,0-3,1.46c-1.26,1.91-2.71,3.71-4,5.6-.88,1.27-1,2.37.7,3.25,2.5,1.31,4.89,2.6,7.86,2.84,3.79.31,3.77.54,5.07-3,.77,1.37,1.1,3.44,3.57,1.64-.28,2.42-1.14,4.16-.72,6.31.35,1.79-1.22,4.71-2.75,4.51a8.19,8.19,0,0,0-4.08.45c-2.83,1-3.09.68-3.79-3.08a2.36,2.36,0,0,0,3.14-1.5c.21-.52-.33-.85-.89-.87-1.78-.06-2.14,1.07-2.1,2.52-2.07.07-3.07-2.65-5.87-1.61-2.34.86-3.17,2.83-5,4.5.43-4.19-3.17-2.22-4.59-3.62-1.06-1.06-2.83.24-4.09,1-.6.37,0,1.42-.16,1.76-1.46,2.84,2.28,2.72,3,5-2.32-.34-4.57-1.69-5.23,1.68-.27,1.4-2-.77-3.18.13.13,3.83.53,7.9-2.73,10.79C29.9,160.64,27.33,161.51,27.43,159.19ZM170.74,66.51a1.45,1.45,0,0,0-1.36-1.65c-2.67-.08-4.95-1.39-7.4-2-6.85-1.79-7.17-.73-9.36,5.48-.26.74-1,1.42-.54,2.32a1.29,1.29,0,0,1-.37,1.71c-1,1-2.6,1.74-2.45,3.56.2,2.34,2.59,1.66,3.79,2.65a12.31,12.31,0,0,0,3.34,2.22c5.86,2.14,10.21,1.1,11.94-4.67a17.17,17.17,0,0,1,1-3.36c1.38-2.49,1.09-4.49-1.87-6C168.89,66,169.77,67.44,170.74,66.51Zm-16.09-7c-.81-1.78-2.37.12-3.13-.92-2.11-2.91-5.89-3.54-8.22-6.4s-3.52-2.31-5,.84a9.25,9.25,0,0,1-2,2.82c-1.87,1.8-2.69,4.13-3.6,6.49a4.31,4.31,0,0,0,1.85,5.63,46.67,46.67,0,0,0,5.51,3.3c3.71,1.56,4.4,1.1,7.19-1.59,1.93-1.87,1.6-5.6,5.41-6.07C153.51,63.48,154,60.82,154.65,59.48Zm56.06-3.4c-.32.45-.79,1.46-1,1.41-5-1-8.26,2.59-12.13,4.53-2,1-2.32,2.42-.58,3.88A19.75,19.75,0,0,1,202,72.56a3.63,3.63,0,0,0,4.19,2c3-.74,6.14-1.66,7.78-4.56.81-1.44.7-3.6,2.93-1.14.2.23,1.56-.48,1.95-1.29s-.41-1-.84-1.49A30.53,30.53,0,0,0,212.53,61c-1.16-.77-2.28-1.25.21-1.83C213.39,59,211.94,56.07,210.71,56.08ZM130.87,71.37c-.35.15-.82.2-.92.42-1.39,3-4.46,4.36-6.27,6.88-.57.8-.87,2.11.17,2.67,2.26,1.22,3,3.52,4.16,5.45,1.57,2.62,5.12,1.48,6.73,3.86A6,6,0,0,0,136,90a18.64,18.64,0,0,0,7-9.39c.47-1.27.52-2.29-.85-2.93-3.33-1.54-6-4.29-9.47-5.5A19,19,0,0,1,130.87,71.37Zm24.65,30.47c1.18,2,3.18,1.9,4.4,3,3,2.75,6.5,2.12,10,1.55a4.81,4.81,0,0,0,3.9-3.41c1.94-5.48,1.86-5.85-3.07-9.21a22.34,22.34,0,0,1-2.76-2.17,1.84,1.84,0,0,0-2.68-.06A47.12,47.12,0,0,0,155.52,101.84ZM53,83.05a29,29,0,0,1,7.78-6.55,3.56,3.56,0,0,0,2-3.73c-.7-3.94-1.39-7.78-5.33-10.23-1.5-.93-2.11-1.16-3.23.1-1.58,1.77-3.15,3.74-3.67,5.91a18.54,18.54,0,0,1-2.91,6.09,2.61,2.61,0,0,0,1.1,3.52C50.82,79.07,51,81.28,53,83.05Zm48.57,29.28c3.84-1.69,7.39-.54,11-1s5.33-1.27,6.21-5c.45-1.89.48-2.61-1.05-3.45a27.49,27.49,0,0,1-2.55-1.55c-3.65-2.56-7-1.4-10.57.44-3.42,1.75-3.49,4.44-3.17,7.52C101.49,110,101.49,110.64,101.58,112.33ZM202.26,76.75c-2.08-3.39-5-5.91-7.37-8.8-.86-1-2.21-1.7-3.45-.57a20.69,20.69,0,0,0-6.21,10c-.52,1.93,1,4,2.21,3.78,3.56-.8,4.73,2.38,7.22,3.72A47.47,47.47,0,0,1,202.26,76.75ZM108.4,86a30.8,30.8,0,0,0-2.59-4.3c-1-1.16-2.23-.11-3.19.3-2.54,1.08-4.71,2.93-7.47,3.58a1.74,1.74,0,0,0-1.23,1.94c0,.8.6,1,1.31,1.23,2.08.54,3.81,2,6.06,2.21,1.06.12,2.06,1.32,3.12,0C105.76,89.41,107.05,87.73,108.4,86ZM89.64,56.43c2.08-1.67.42-5,3.34-6,.81,2.06-1.11,3.83-.36,5.75,5.26-1.33.39-6.73,3.64-8.87.24-.15.18-1,0-1.41a2.18,2.18,0,0,0-1-1.11c-1.44-.72-2-2.63-3.69-3C85.79,49.83,85.58,51.27,89.64,56.43Zm15.82-3.31c-.12.37.09.06.06-.23-.44-4.14-.91-4.37-4.25-2-1,.66-1.87,1.36-2.82,2a4.57,4.57,0,0,0-1.7,4.42c.1,1.14.63,2.73,2.58,1.44,1.08-.72,2.51-1.72,3.56-1.51C106.78,58,105.88,55.89,105.46,53.12Zm8.41,42.72c2.8.46,5,.71,7.12,1.21a1.89,1.89,0,0,0,2.2-.49c2.24-2.63,1.93-5.8-1-7.47-1-.58-1.92-2-3.7-1.29C118.45,91,116.89,93.49,113.87,95.84Zm1.59-31.26a21.13,21.13,0,0,0,1.79,8c.69,1.85,2,1.9,3.36,1,1.67-1.12,2-2.74,1.65-4.76-.28-1.54-.69-2.66-2.38-2.55S117.51,64.53,115.46,64.58ZM98.22,98A2.62,2.62,0,0,0,98,96.89c-1.72-2.81-4.71-4.15-7.24-6-.9-.65-1.77.58-2.38,1.35A1.13,1.13,0,0,0,88.59,94c2.55,1.88,4.72,4.3,7.64,5.63C97.35,100.14,98.21,99.76,98.22,98Zm14.62-30.16c-2.17,4.06-1.48,6.36,2.73,10.48C118.1,73.86,112.69,71.56,112.84,67.79Zm-4.58-7.54c-.06-.74-.45-1.17-.93-1.11-1.5.18-3.56.75-3.06,2.34.55,1.76-2.34.65-1.16,1.85.88.9,2.25.39,3.2-.07A3.9,3.9,0,0,0,108.26,60.25ZM59.09,111.84c0-.44-.59-1.29-2.07-1.25s-1.58.82-1.27,2c.11.44.35,1,.19,1.33-.46,1-1.8,2.1-.18,2.79,1.21.51,1.89-.76,2.11-2C58,113.85,59.23,113.69,59.09,111.84Zm92.27-80.29c-3.36-.29-3.36-.29-5.82,4.46C148,34.21,150.32,33.94,151.36,31.55Zm-120,120.17c-.09-1.41,1.13-2.36,1.14-3.71,0-.89-.23-1.76-1.21-1.75s-1.33.86-1.4,1.72A5.47,5.47,0,0,0,31.33,151.72ZM175.09,93c-.21.11-.61.18-.73.4a.9.9,0,0,0,.25,1.27c1.12.62,2.41.83,3.39,1.81a1.13,1.13,0,0,0,2-.32,1.57,1.57,0,0,0-.64-2.13A34.28,34.28,0,0,0,175.09,93ZM84.82,50.66c0-.9-.66-1.46-1.27-1.41a2.09,2.09,0,0,0-2.07,2.33,1,1,0,0,0,1,1A2.19,2.19,0,0,0,84.82,50.66Zm65.52-22.29a2.26,2.26,0,0,0,1.94.85c.67,0,1.29-.3,1.17-1.14-.14-1-1-1.16-1.81-1.14S150.46,27.35,150.34,28.37ZM82.48,106.16c-1.34-.45-2.61-.53-3.31.9-.33.65.4,1.34.93,1.38C81.61,108.57,82,107.3,82.48,106.16ZM204.89,55.4c1.87-1.09,3.42-.34,4.05-2a.56.56,0,0,0-.31-.82C206.84,51.83,205.91,52.74,204.89,55.4ZM89.81,32.05c.76-2-.28-2.54-1.39-2.95-.25-.09-.83,0-.89.19-.49,1.28,1,1.33,1.4,2.15C89,31.69,89.44,31.8,89.81,32.05ZM66,67.53c-.32-1.15-1.25-1-2-1.19-.52-.11-1.05.15-.8.8S64,68.74,65,68.38C65.41,68.24,65.72,67.8,66,67.53ZM201.38,80.32c.32.11.63.32.9.28.83-.12,2-.8,1.35-1.4S202,79.48,201.38,80.32Zm-156,55.37c1-.25,1.15-1.09,1.26-1.92.06-.48-.13-1.12-.66-1.06-1,.1-1.28.95-1.3,1.84A1.06,1.06,0,0,0,45.41,135.69Zm64.58-42c.08-.8-.61-1-1.2-1-.41,0-1.1.3-1.17.58a1,1,0,0,0,.95,1.33A1.13,1.13,0,0,0,110,93.69ZM54.68,136.55c-2.17-.87-3.47-1.13-4.78.19C51.4,138.2,52.53,137.13,54.68,136.55Zm90.1-109.1c-.8-.06-1.43.2-1.22,1s.07,2.17,1.38,2.2a2.06,2.06,0,0,0,1.41-1.2C146.82,28.15,145.66,27.85,144.78,27.45ZM31.73,155c0-.56-.21-1.11-.78-1a1.68,1.68,0,0,0-1,1c-.18.53.22,1,.8.93S31.61,155.47,31.73,155Zm46.5-91.8c0-.55-.29-1-.8-1a1.16,1.16,0,0,0-1.22,1.16c-.07.54.34.85.83.93C77.9,64.43,78,63.75,78.23,63.19ZM162.75,89c-.23-.33-.42-.94-.76-1a1.12,1.12,0,0,0-1.41,1c-.14.66-.17,1.39.73,1.42C162.05,90.39,162.38,89.71,162.75,89Zm-24.22,28.43c1.49-.12,2.21-.8,1.52-2.28ZM34.83,97.88c1.41-.4,2.12-.72,2.54-1.44.06-.11-.23-.63-.35-.63C36,95.84,35.44,96.48,34.83,97.88Zm19-42.07c-.54.2-.81.69-.52,1.1s.8.4,1.24.5a1.3,1.3,0,0,0,.31-.78A.9.9,0,0,0,53.78,55.81Zm49.45,41.64c-.14-.49-.41-.8-1-.61s-.91.37-.82,1,.33.87.93.63C102.81,98.25,103.23,98,103.23,97.45ZM96.87,17.52c.68-.2,1.16-.6,1.07-1.35,0-.19-.44-.51-.6-.47-.63.17-1.24.48-1.09,1.29C96.29,17.2,96.66,17.34,96.87,17.52ZM17.28,108.85c1.43-2.36,3.5-4.16,2.77-7.73-.37-1.8,1.9-4.49,4.54-5.41-.33-.3-.65-.61-1-.92-3-.07-5.55,1.72-8.4,2.27-.38.41-.75.82-1.12,1.24-2.38,3-2.07,2.45-4.58.39-2-1.67-3.26-3-3.69-5.58-.18-1.06-2.73-.84-3.15.42A19.05,19.05,0,0,1,.8,96.94c-1.38,2.45-.67,4.49,1.89,6,.46.27.83.55.67,1.09s-.34.92-1,.92-1.25.08-2.38.15c1.56,1.41,3.32,2.46,2.28,4.6.08,2,1.52,2.08,3,2.14a5.52,5.52,0,0,0,2.17-2.48,20.43,20.43,0,0,1,6.09-6.79l3.54-2.17c.25-.55.46-1.48,1.26-.86.63.5.21,1.18-.45,1.56a2.41,2.41,0,0,1-2.56,1.76c1.17,1.81.75,4,1.44,5.94A.41.41,0,0,1,17.28,108.85ZM120.22,32.3a1.94,1.94,0,0,0,0,.72c0,2-2.5.82-2.91,2.3-.36,2.65-.71,5.31-1.07,8l.39.18c.92-.61.91-1.72,1.3-2.6.89-2.06,2.61-1.77,3.57-.71,1.17,1.29,1.06,3.92,4,2.59.43-.19-.93,2.29.94,2.68l-.06-.06c2.31-.14.88-3.59,3.72-3.9,1.45-.16.3-3.43,1.55-4.94-.27-.58-.55-1.15-.82-1.73-1.13,1.05-1.71,2.7-3.63,3.23,1.42-1.46-1.08-3.27,1.09-4.88,2.6-1.94,2.39-2.22-.14-5.89-1.48,1.76-2.91,3.37-4.24,5.05-.94,1.18-1.66.49-2.46-.1ZM132.14,31c-1.81.83-.17,2.77-1.24,3.84.27.58.55,1.15.82,1.73,1.93-1.29,2-3.24,1.87-5.25ZM15.21,97.06c-2.1-1.08-2.1-1.08-4,.53l2.86.71ZM142.65,42.51c1.32-.26.23-1.66,1-2.16l-.14-.07c-.06.79-1.34,1.07-.9,2.08Zm-16.14,2.92c-1.33-1.22-1.77-.23-2.16.87a7.6,7.6,0,0,0,.69.7l1.41-1.63ZM96.6,7.5c-.3,0-.6,0-.89.09,0,0-.07.15-.1.23l1-.32ZM94,126.71c-.52-.26-.62.23-.86.48ZM67.86,64.58c2.07-.14,3.65-.94,4.19-3.12C69.76,61.29,69,63.16,67.86,64.58Z"/></g></g></svg>