<svg xmlns="http://www.w3.org/2000/svg" viewBox="0 0 105.4 172.49"><defs><style>.cls-1{fill:#e3e3f7;}</style></defs><g id="Layer_2" data-name="Layer 2"><g id="Layer_1-2" data-name="Layer 1"><path class="cls-1" d="M6.7,27.19c0,.25-.35.55-.47.79s-.27.58-.41.83A8.38,8.38,0,0,1,4.14,31c-.33.28-.71.51-1,.78s-.4.48-.61.64c-.47.34-1.38,1.17-2,.84A1,1,0,0,1,0,32.42c0-.23.19-.41.24-.63s0-.43,0-.63c.09-.76.67-.91,1-1.5.16-.28.1-.74.24-1a8.88,8.88,0,0,1,.58-.83c.55-.8,1.4-1.21,1.88-2.1a12.59,12.59,0,0,1,1.26-1.88c.22-.27.41-.55.62-.83s.67-.62.94-1a3.6,3.6,0,0,1,1.46-1.41c.65-.33,1.41-.57,2.08-.84.82-.33,1.67-.54,2.46-.94s1.51-.71,2.3-1.05a15.81,15.81,0,0,1,2-.61,11,11,0,0,1,1.31-.38,9.74,9.74,0,0,1,1.62,0h4.85c.67,0,1.22.22,1.88.21,1.68,0,3.35,0,5,0a6.28,6.28,0,0,0,1.5-.17,3.17,3.17,0,0,1,1.52.16c.13.26.62,0,.94,0,.56,0,1.1-.16,1.66-.21A7.33,7.33,0,0,0,40.1,16,17.32,17.32,0,0,1,43,14.83c.92-.29,1.66-.9,2.61-1.2.56-.19,1.07-.46,1.62-.63a16.42,16.42,0,0,0,1.62-.57c.49-.22,1-.26,1.46-.48a11.72,11.72,0,0,1,1.14-.52,4.07,4.07,0,0,1,1.36-.31c.49,0,1,0,1.46,0,.89,0,1.79.42,2.6.42,1.08,0,2.17.06,3.24,0,.38,0,.69-.18,1.06-.22s.57,0,.86,0c1-.17,2-.48,3-.68.69-.14,1.41-.46,2.09-.53a4,4,0,0,0,.73-.1,2.8,2.8,0,0,1,.73-.1c1.18,0,2.2-.47,3.37-.41a.15.15,0,0,1-.11-.17,1.78,1.78,0,0,1,.61,0c.54,0,1.73-1,2.19-1.24s1-.89,1.56-1.26,1-.59,1.47-.94a3.16,3.16,0,0,1,.62-.47c.27-.15.73-.19.85-.46,0-.11-.05-.32,0-.44s.16-.18.2-.32.15-.45.24-.71,0-.38.36-.68a1.57,1.57,0,0,1,.57-.39,4.37,4.37,0,0,0,1.31-.86,2.91,2.91,0,0,1,.51-.54c.21-.12.53-.12.75-.23.1.28,0,.58.14.83s.66.1.74.32-.18.53-.21.71-.28.73-.18,1c.71.07,1.1-1.39,1.38-1.87A3,3,0,0,1,86,.32c.38-.24,1.2-.55,1.57-.06.21.28,0,.64.21,1s.65.35.83.72c.33.64-.11,1.26-.27,1.88a.89.89,0,0,0,0,.51c0,.14.21.17.21.33s-.3.51-.39.68c-.49,1-2,2-1.47,3.26a5.94,5.94,0,0,0,1.44-.94c0,.28-.3.55-.44.76a9.53,9.53,0,0,1-.57.89,9.34,9.34,0,0,0-1.3,1.51c-.18.32-.37.62-.53.94a4.11,4.11,0,0,0-.3.94,2.51,2.51,0,0,0-.22,1c0,.47.19.87.25,1.33a3.17,3.17,0,0,0,1.48-1.18,2.69,2.69,0,0,0,.36-1.61c0-.68.21-1.11.21-1.78,0-.43-.23-1.56.37-1.64a6.07,6.07,0,0,1,0,1.54,12.06,12.06,0,0,1-.21,1.25,9.68,9.68,0,0,1-.64,2.81c-.14.34-.21.76-.36,1.11a2,2,0,0,1-.2.42c-.08.14-.22.39-.31.52a15.17,15.17,0,0,0-1.15,1.76,2.82,2.82,0,0,0-.47,1.42,3.58,3.58,0,0,1-.2.73c0,.25,0,.48-.06.73a11.08,11.08,0,0,1-1.57,3.13c-.54.82-1,1.72-1.46,2.55s-.48,1.66-.89,2.46c-.81,1.59-1.06,3.9-1.83,5.48S76.78,38.37,76,40.09c-.36.75-.85,1.38-1.25,2.14a19.92,19.92,0,0,1-1.35,2.14,4,4,0,0,1-2.15,1.35A17,17,0,0,0,68.7,47c-.18,1-.44,2.12-.68,3.13a6.71,6.71,0,0,1-.63,1.46c-.14.29-.23.66-.39.92s-.34.29-.37.5c.45.13.78,0,1.08.4a.88.88,0,0,1,.16.47c0,.33-.12.44-.17.68a18.25,18.25,0,0,0,0,2.67,2.58,2.58,0,0,1-.17.62,6.06,6.06,0,0,0,0,.73,4.66,4.66,0,0,1-.37,1.2,2.3,2.3,0,0,1-1.7,1.25,1.37,1.37,0,0,1,0,1.26c-.22.52-.47.57-1,.81a7.75,7.75,0,0,1-1.48.28c-.35.1-1.23.1-1.34.48.36.14.67.07,1,.25s.56.17.63.63-.07.65-.27,1a3.08,3.08,0,0,0-.36,1v-.13c.4-.11.88.8,1,1a2,2,0,0,0,.41.46A2.83,2.83,0,0,1,65,69.73a11.89,11.89,0,0,1,.37,1.51,3.33,3.33,0,0,0,.1.84,6.88,6.88,0,0,0,.37.78,12.72,12.72,0,0,0,1,1.52A15.27,15.27,0,0,1,68,75.89a17.26,17.26,0,0,1,1.11,3.6,7,7,0,0,0,1.5,3,15.07,15.07,0,0,0,2.86,2,26.65,26.65,0,0,1,2.77,2.19c.56.48,1,1,1.63,1.45s1.23,1,1.87,1.48a13.31,13.31,0,0,0,1.88,1.15,9.14,9.14,0,0,0,1.78.54,17.15,17.15,0,0,1,1.67.44c.4.15,1,.34,1.15.82a1,1,0,0,1-.94,1.25,4.43,4.43,0,0,1-1.57-.61c-.48-.27-.91-.65-1.41-.89s-1.09-.55-1.72-.78a13.75,13.75,0,0,1-3.33-2.34c-1-.75-2-1.41-2.94-2.15-1.11-.85-2.19-1.72-3.34-2.5a17.64,17.64,0,0,1-2.39-2.19,18.56,18.56,0,0,1-1.37-1.46,6.23,6.23,0,0,1-.77-1.47,13,13,0,0,1-.69-1.88,1.27,1.27,0,0,0-.41-.78,3.18,3.18,0,0,1-.69-.63c-.34-.52-.72-1.12-1-1.66-.13-.21-.3-.42-.42-.63a2.94,2.94,0,0,1-.25-1A9.46,9.46,0,0,1,62.43,71c0-.45.15-.48.58-.37l.35.18c.12.13.1.34.28.39a2.1,2.1,0,0,0-.37-2c-.32-.35-1.14-.92-1.52-.58A4.91,4.91,0,0,0,61,70c-.27.52-.39,1-.66,1.54-.13.26-.13.56-.25.79s-.38.27-.71.35-.84.16-.7.56c.06.16.45.42.59.52.68.48,1.25.43,1.26,1.41V77.5l1.25.68a7.65,7.65,0,0,1,1,.68A9,9,0,0,1,65,81.2a15.46,15.46,0,0,0,1.49,2.26c.59.69,1.09,1.38,1.74,2s1.17,1.37,1.82,2c.43.38.72.83,1.15,1.21s1,.9,1.46,1.38c1,1,2,1.85,3,2.82.23.22.37.53.57.74s.4.28.59.48.63.62.88,1c.63.92,1.32,1.77,2,2.62.41.5.89,1,1.36,1.46s1,.9,1.52,1.36a9.87,9.87,0,0,1,.72,1,7.2,7.2,0,0,1,.81,1.42c.47,1,1.06,2,1.59,3,.65,1.24,1.22,2.49,1.78,3.77.21.5.49,1,.73,1.45a7.19,7.19,0,0,0,.39.73A7.7,7.7,0,0,1,89.1,113a53.22,53.22,0,0,0,2.66,6.23c.36.62.62,1.29,1,1.92.18.36.39.72.56,1.08.31.66.64,1.35.89,2a16,16,0,0,1,1,3.34,12.16,12.16,0,0,0,.37,1.67,7.46,7.46,0,0,1,0,1.77c0,1.1-.49,2.31-.18,3.41l.18,0c.62,1.26.47,3.25.88,4.6a10.59,10.59,0,0,1,.79,2.13c.07,1.05.21,2,.21,3.1v4.79c0,.35,0,.69,0,1a4.42,4.42,0,0,1,0,.63,3.83,3.83,0,0,1-.17.46,11.26,11.26,0,0,0,0,2.25v2.3c0,.42,0,.83,0,1.25a6.28,6.28,0,0,1-.22,1.25c-.07.4.11.87,0,1.27l-.18.25c0,.25.08.21.12.41a3.51,3.51,0,0,0,1,1.88,23,23,0,0,0,3.87,3.24,8.29,8.29,0,0,1,1.67,1.29c.59.61,1.58,1.33,1.62,2.2a11.52,11.52,0,0,0,0,2.2c.12.48.22.6,0,1s-.32.42-.84.42a4.66,4.66,0,0,1-2.33-.83c-.56-.3-.9-.73-1.42-1a5.74,5.74,0,0,1-1.25-1c-.64-.67-1.41-1.12-2.1-1.72a27.28,27.28,0,0,1-2.54-2.5,14.11,14.11,0,0,0-4.45-3.35,20,20,0,0,1-1.93-.89c-.86-.54-1.81-1-2.64-1.64-.45-.32-.76-.76-1.22-1.08a4.45,4.45,0,0,1-1.12-.95,6.4,6.4,0,0,0-.66-.72,3.56,3.56,0,0,1-.73-.72,4.17,4.17,0,0,1-.31-1.09,15.31,15.31,0,0,0-1.15-2.51c-.46-.92-1.09-1.64-1.61-2.51a26.68,26.68,0,0,0-1.93-2.3c-.59-.75-1.31-1.41-1.91-2.19-1.8-2.31-3.46-4.7-5.3-7-.77-1-1.65-1.91-2.36-2.92-.58-.83-1-1.8-1.66-2.59a6.64,6.64,0,0,1-1.21-2.2,17.31,17.31,0,0,0-.61-2.51c-.36-.8-.73-1.53-1.15-2.28a20.87,20.87,0,0,1-1.62-2.46c0,.51-.5,1.07-.78,1.46a6.27,6.27,0,0,0-.73,1.41,4.33,4.33,0,0,1-.83,1.25,3.41,3.41,0,0,0-.49.62c-.12.17-.57.42-.63.62-.15.47.75.71,1,1.05a4.74,4.74,0,0,1,.63,1.67,7.42,7.42,0,0,0,.3.83,3.67,3.67,0,0,1,.26,1.16c.07.44.19.91.27,1.36s.09,1.1.17,1.67a16.39,16.39,0,0,0,.78,3.14c.12.37.25.71.4,1.07s.52.93.69,1.41c.69,1.95,1.54,3.83,2.3,5.76a6.06,6.06,0,0,1,.36,1.19c.08.41,0,.8,0,1.2a11.45,11.45,0,0,1,.22,1.14c0,.49,0,1,0,1.45v2.22a3.7,3.7,0,0,0,.47,1.81A6.59,6.59,0,0,0,67,158.71a9.55,9.55,0,0,1,1.25,1.47c.25.44.49.85.7,1.32a1.3,1.3,0,0,1,.19.87c-.1.62-.42.29-.69.69a2.53,2.53,0,0,1-1-.86c-.12-.14-.25-.27-.36-.42s-.19-.35-.31-.52-.59-.53-.75-.88a3,3,0,0,0-.32-.74,5,5,0,0,1-.34-.51c-.21-.36-.24-.74-.42-1.13a8.88,8.88,0,0,0-.63-1.17c-.44-.69-.81-1.44-1.31-2.1A8.63,8.63,0,0,1,62,153a4.92,4.92,0,0,1-.45-1.14c-.09-.59-.26-1.08-.41-1.68a34,34,0,0,0-.83-3.38,11.24,11.24,0,0,1-.68-2.08,8.74,8.74,0,0,0-.41-1.41,15.51,15.51,0,0,1-.54-1.52c0-.19,0-.4,0-.59s-.28-.27-.23-.53c.07,0,.11.07.09.13h-.29a8.84,8.84,0,0,1,0,1.15c-.05.21-.18.31-.23.51s.07.58,0,.84a4.71,4.71,0,0,0-.22.84,14.24,14.24,0,0,1,0,1.46,4.63,4.63,0,0,1-.69,1.41c-.42.8-.89,1.62-1.36,2.4a6.79,6.79,0,0,1-1.5,2.14,7,7,0,0,1-2.3,1c-.57.15-.85,0-1.37-.39s-.74-.67-1.22-1a4.71,4.71,0,0,1-1.85-2c-.35-.75-.26-1.94-1-2.5-.41-.29-.88-.19-1-.77a6.71,6.71,0,0,1,0-1.79,2.54,2.54,0,0,1,1.62-1.83c.14.19.51.25.72.36a9.44,9.44,0,0,1,1.3.86,4.84,4.84,0,0,0,1.48.72c.48.15.9.33,1.35.52s1.14.24,1.27.72a2.35,2.35,0,0,1,0,.84c-.15.2-.47.11-.72.11a1.75,1.75,0,0,1-.73-.09c-.32-.14-.45-.36-.84-.33a6,6,0,0,0-1.41.48,1.94,1.94,0,0,1-.78.15,3.13,3.13,0,0,0-.92,0,13,13,0,0,0,1.91,3.25,1.87,1.87,0,0,0,1.2.68,4.69,4.69,0,0,1,.53,0c.14,0,.25.14.35.17a4.17,4.17,0,0,0,1,.05,2.19,2.19,0,0,1,1.25-2.19,2.65,2.65,0,0,0,1-.58c.32-.35.26-.61.26-1.09v-1.36a6,6,0,0,1,0-.73c0-.27.18-.47.23-.73s0-.38,0-.58a3.56,3.56,0,0,0,.16-.57A8.36,8.36,0,0,0,56,141.7a6.16,6.16,0,0,0,0-1.36c-.1-.41-.29-.75-.39-1.15-.21-.75-.48-1.91-1.24-2.36-.44-.27-.6-.11-.63-.77,0-.48,0-1,0-1.46v-1.25c0-.54.19-.94.21-1.46,0-1,0-2.09,0-3.14,0-.56.21-1,.2-1.56v-1.67c-.55-.1-.77-1.29-1.09-1.68a5.86,5.86,0,0,1-1.05-1.62c-.21-.56-.39-1.15-.62-1.71-.13-.31-.22-.62-.37-.92a6.08,6.08,0,0,1-.42-.74,18.59,18.59,0,0,0-1.82-4,4.67,4.67,0,0,1-.36-.67c-.13-.32-.25-.62-.37-.94-.24-.67-.58-1.29-.74-1.92a38.22,38.22,0,0,0-1.3-3.62,8.71,8.71,0,0,1-.42-3.86c0-.33.18-.49.22-.82s0-.71,0-1,.2-.69.22-1.09a6.1,6.1,0,0,1,0-1.21c.31-1.2.45-2.34.83-3.5A9.16,9.16,0,0,1,48,94.2c.28-.4.46-.84.72-1.25a10.57,10.57,0,0,1,1-1c.35-.42.75-.8,1.14-1.19.2-.21.43-.41.62-.62s.44-.79.79-.9c0-1.1.27-2.44.21-3.54A5,5,0,0,0,52,84.19a5,5,0,0,0-.2-.54c-.1-.22-.31-.56-.37-.76-.15-.53-.29-1.09-.42-1.63-.06-.25,0-.48-.06-.73a3.27,3.27,0,0,1-.19-.94V77.92a2.52,2.52,0,0,1,.1-.73c0-.22.24-.6.27-.78.06-.44-.44-.46-.74-.83a13,13,0,0,0-1.05-1,5.48,5.48,0,0,1-1.46-2.29A2.28,2.28,0,0,0,47.25,71a4.57,4.57,0,0,0-1.47-.61,12.19,12.19,0,0,1-1.29-.58c-.47-.23-1-.31-.69-.89s1.53-1.38,1.32-2.25a3.67,3.67,0,0,0-.27-.57,3,3,0,0,1-.18-.55c-.06-.23-.13-.37-.18-.64a7.54,7.54,0,0,1-.22-.94c0-.43.16-1.12-.09-1.48A3.2,3.2,0,0,0,43,61.84a3.3,3.3,0,0,1-.63-.25c-.23-.14-.49-.24-.74-.37-.44-.22-.72-.62-1.13-.83a4.85,4.85,0,0,1-1.37-.94,17.87,17.87,0,0,0-1.4-1.36c-.33-.26-.88-.59-.88-1,0-.23.23-.52.28-.73a4.92,4.92,0,0,0,0-.94c0-.53,0-.81.41-1.15a5.55,5.55,0,0,1,1.52-.68C40,53.19,40.5,52.38,41.3,52a11,11,0,0,1,1.5-.58A13.37,13.37,0,0,0,44.64,51a9.09,9.09,0,0,0,1.51-1.17,6,6,0,0,1,.62-.3c.3-.18.54-.37.83-.57.63-.45,1.34-.77,2-1.18.31-.19.59-.38.93-.55a3.18,3.18,0,0,0,.76-.58c.44-.35,1-.58,1.44-.93s1.08-1.08,1.56-.94a9.2,9.2,0,0,1,.37-1.67c.18-.48.29-1,.47-1.46.32-.87.77-1.67,1.09-2.5.15-.37.42-.75.53-1.1a5,5,0,0,1,.2-.62,6.11,6.11,0,0,0,.27-.58c.16-.47.48-.8.68-1.26A7.25,7.25,0,0,0,58.28,34c.09-.49.28-1,.38-1.46s-.06-1,0-1.46a4.64,4.64,0,0,0,.2-.73c0-.25,0-.49,0-.74V28.13a3.05,3.05,0,0,1,.18-1.47,2.45,2.45,0,0,1,1-.93,6.12,6.12,0,0,1,1.45-.52A4.05,4.05,0,0,1,63,24.9h-.14a10,10,0,0,1,.41-2.31c.2-.66.9-.53,1.34-.85s.3-.28.34-.7a5,5,0,0,1,.22-.83c0-.17,0-.36,0-.54s.14-.29.17-.46,0-.63.09-.95c.31-1,1.67-1.8,2.41-2.6.42-.45.93-.86,1.31-1.32a7.17,7.17,0,0,1,.52-.71c.17-.19.46-.38.52-.63-2.37,0-4.73.21-7.1.21a7.87,7.87,0,0,1-1.68,0c-.26-.06-.32-.19-.61-.23a7.37,7.37,0,0,0-.94,0H58.16a4.84,4.84,0,0,0-.85,0,5,5,0,0,1-.72.22,6,6,0,0,0-.85,0c-.24.06-.33.19-.61.22a4.28,4.28,0,0,0-1.68.47,24.69,24.69,0,0,0-2.29,1.82c-.82.59-1.62,1.14-2.39,1.79-.43.36-.82.81-1.28,1.14s-1.31.26-1.61.78c-.21.37,0,1.15-.34,1.32a6.67,6.67,0,0,1-1.89,0c-.28,0-.56,0-.84,0a1.65,1.65,0,0,0-.67.17c-.59.16-1.24-.07-1.83,0-1.12.2-2.17.65-3.24.95a6.32,6.32,0,0,1-1.67.31c-.33,0-.39.15-.64.19s-.67,0-1,.13-.56.23-.83.29-.56,0-.84,0a3.85,3.85,0,0,1-.83.19,4.79,4.79,0,0,0-.93.05,10.5,10.5,0,0,1-2.1.16h-.88c-.45,0-.78-.19-1.21-.22a15.94,15.94,0,0,1-3.85-.5A10.63,10.63,0,0,0,19.85,22a4.14,4.14,0,0,1-.79,0,2,2,0,0,0-.78-.16,8.29,8.29,0,0,0-3.66.41,8.39,8.39,0,0,0-1.46,1.15,3.32,3.32,0,0,0-.88,1.1c-.06.13-.13.06-.17.25s.1.37,0,.52-.68.12-.93.12a3.38,3.38,0,0,0-.9,0s-.15.15-.24.17-.44-.06-.65,0-.46.17-.7.24a7.13,7.13,0,0,0-.76.34C7.59,26.26,6.79,26.68,6.7,27.19ZM53.35,89.51a3.17,3.17,0,0,0-.18.62,1.63,1.63,0,0,1-.31.65A5.59,5.59,0,0,0,52.1,92c-.19.53-.38,1-.55,1.57s-.26,1-.39,1.56a1.86,1.86,0,0,1-.72,1.07,7.08,7.08,0,0,0-1.18,1.44c-.36.51-.68,1-1,1.54-.16.22-.38.41-.53.65a5.71,5.71,0,0,0-.58,1,6.45,6.45,0,0,0-.31,1c0,.29,0,.55-.1.83a6.23,6.23,0,0,0,.08,1.67,4.48,4.48,0,0,0,.19,1.51c.18.54.64.79,1,1.2a3.52,3.52,0,0,1,.63,1.52c.08.3.19.61.29.91s.16.83.29,1.24a20.18,20.18,0,0,0,.57,2,13,13,0,0,0,.94,2.25c.26.37.55.73.79,1.12a4.46,4.46,0,0,0,.49.57,11.68,11.68,0,0,1,1.17,1.53,20.21,20.21,0,0,1,1.12,2.41c.13.28.23.57.35.84a1.71,1.71,0,0,0,.31.58,7.69,7.69,0,0,0,.65-.76c.21-.33.3-.72.52-1,.57-.84,1.47-1.45,2-2.32.18-.32.33-.7.5-1a9.19,9.19,0,0,1,.57-1.13,3.51,3.51,0,0,0,.6-1.17.94.94,0,0,1,.08-.32c0-.09.11-.1.13-.2.09-.28-.17-.53-.31-.75a10.85,10.85,0,0,1-.92-1.43,2,2,0,0,0-.15-.33c-.07-.11-.22-.19-.27-.31s-.06-.2-.12-.31-.12-.17-.16-.26c-.14-.28-.22-.59-.34-.87-.32-.75-.57-1.53-.93-2.27a9.27,9.27,0,0,1-.56-1.81c-.11-.52-.36-1-.44-1.52a12.42,12.42,0,0,0-.4-1.48c-.07-.23-.07-.44-.12-.67s-.13-.34-.17-.51a4.28,4.28,0,0,1,0-.62,5,5,0,0,0-.12-.53,16.52,16.52,0,0,1,0-2,6.14,6.14,0,0,0,0-.86c-.06-.3-.14-.59-.19-.88a8.1,8.1,0,0,0-.24-1.21,5.94,5.94,0,0,0-.36-.91,6.23,6.23,0,0,1-.55-1.78,13.29,13.29,0,0,1,0-1.67,2.06,2.06,0,0,0-.12-.6A1.26,1.26,0,0,1,53.35,89.51ZM56.28,83c-.21.16-.11.64-.11.88s-.11.58-.1.89a8.81,8.81,0,0,1,0,.89c0,.15-.09.27-.11.42a4.51,4.51,0,0,1,0,.52,7.58,7.58,0,0,1-.21.82,2,2,0,0,0-.09.48,1.89,1.89,0,0,1-.11.36c0,.14,0,.29,0,.43a3.52,3.52,0,0,0-.11.49c0,.37,0,.75,0,1.12a8.42,8.42,0,0,0,0,1.88A17.54,17.54,0,0,1,55.54,94a6.29,6.29,0,0,0,.63,1.67,6.22,6.22,0,0,1,.53,1.46,17.66,17.66,0,0,0,.7,2.43,6.34,6.34,0,0,0,.68,1.22,4.63,4.63,0,0,0,.47.81,1.62,1.62,0,0,0,.1-.92,3.21,3.21,0,0,1-.08-.83,5.27,5.27,0,0,0-.09-.89c0-.12,0-.24,0-.36a3.25,3.25,0,0,0-.11-.42,4.45,4.45,0,0,1,0-.73,5.38,5.38,0,0,0-.12-1.06,14.63,14.63,0,0,1-.4-2.24,7,7,0,0,0-.11-.92c0-.17-.09-.31-.1-.48a2.81,2.81,0,0,0,0-.41c0-.14-.1-.24-.11-.37a2.16,2.16,0,0,1,0-.36,7.9,7.9,0,0,0-.11-.85,20.44,20.44,0,0,1-.31-2.08,5.54,5.54,0,0,0,0-.91c0-.17-.1-.28-.12-.44s0-.3,0-.44a3.53,3.53,0,0,0-.08-1c0-.19-.15-.35-.21-.54a4.44,4.44,0,0,0-.15-.52A2.3,2.3,0,0,1,56.28,83Zm4-2.4a1.43,1.43,0,0,0,.1.42,3,3,0,0,1,0,.52c0,.19.11.36.12.56a2.92,2.92,0,0,0,0,.59c0,.18.09.32.12.51.06.43.22.84.29,1.26.24,1.42.6,2.83.85,4.23a3.89,3.89,0,0,0,.2.78,4.77,4.77,0,0,1,.16.73,7.25,7.25,0,0,1,0,1.62c0,.2.09.37.11.57a4.43,4.43,0,0,0,0,.52,2.43,2.43,0,0,1,.08.61,2.06,2.06,0,0,0,0,.43,4.56,4.56,0,0,0,.13.53,3.08,3.08,0,0,1,.08.53,1.38,1.38,0,0,0,.1.4,2.59,2.59,0,0,1,.1.53,6.74,6.74,0,0,0,.82,2,11.88,11.88,0,0,0,.75,1.23c.12.16.3.28.4.44s0,.7.13.73a.16.16,0,0,1,.19-.09,6.67,6.67,0,0,0-.17.93,4.09,4.09,0,0,0,0,1,4.52,4.52,0,0,0,.18,1.09c.15.7.31,1.4.46,2.09.07.32.21.6.27.92a4,4,0,0,0,.12.58,4.48,4.48,0,0,1,.32,1,4.07,4.07,0,0,0,.13.5c.06.18.06.36.1.53a6.52,6.52,0,0,1,.19,1,7.13,7.13,0,0,0,.21.94,9.25,9.25,0,0,0,.55,1.86,3.35,3.35,0,0,1,.18.89c0,.14.09.27.11.41a1.47,1.47,0,0,0,0,.42,3.93,3.93,0,0,1,.05,1c0,.42.1.8.1,1.22V119c0,.2,0,.4,0,.6s.09.34.11.53a7.69,7.69,0,0,1,0,1c0,.39.07.74.1,1.12s.31.73.31,1v1c0,.52-.1,1-.1,1.5v1.69a6.77,6.77,0,0,0,.19,1.33,5.54,5.54,0,0,0,.07.57,3.61,3.61,0,0,0,.16.42,5.29,5.29,0,0,0,.41.91,6.77,6.77,0,0,0,1,1.21c.39.33.73.74,1.16,1a2.81,2.81,0,0,0,.68.49c.26.1.52.21.78.34.49.24,1,.47,1.46.73a7.06,7.06,0,0,1,.67.35,3.55,3.55,0,0,1,.4.38c.37.36.3.92.52,1.36.11.22.22.47.34.7a7.27,7.27,0,0,0,.55.78c.29.41.63.79.94,1.18.08.09.09.18.21.28l.28.27a7.17,7.17,0,0,1,.76.57,1.7,1.7,0,0,0,.34.31c.12.08.25.13.36.21s.24.21.37.29a4.52,4.52,0,0,0,.5.23,6.76,6.76,0,0,1,.7.49c.14.1.3.14.45.24a2.89,2.89,0,0,1,.44.42A17.59,17.59,0,0,0,83.83,144a3.74,3.74,0,0,0,.79.58c.26.11.52.21.78.34a3.38,3.38,0,0,1,1,1c.19.2.28.47.45.68s.3.43.47.67a21.12,21.12,0,0,1,1,2.33c.38.67.74,1.3,1.18,1.93l.77,1.12c.19.27.72.55.77.89a6.86,6.86,0,0,0,0-1.11,5,5,0,0,1-.1-1.1c0-.48-.09-.93-.1-1.41,0-.24-.09-.43-.11-.66s0-.32,0-.48a4.63,4.63,0,0,1-.09-1.66,4.37,4.37,0,0,1,.39-.78c.13-.25.17-.53.29-.79s.28-.41.35-.63a5.69,5.69,0,0,0,.12-.72c.06-.25.14-.49.19-.74a2.36,2.36,0,0,0,0-.46,2.24,2.24,0,0,1,.1-.37,2.24,2.24,0,0,0,0-.73,2.12,2.12,0,0,1-.1-.36,1.17,1.17,0,0,0,0-.32,6.16,6.16,0,0,1-.29-1.48,11.36,11.36,0,0,0,0-1.65,3.09,3.09,0,0,1-.1-.62,2.47,2.47,0,0,0,0-.72h-.19a.11.11,0,0,1,.06-.11,1.84,1.84,0,0,1-.17-.62,3.61,3.61,0,0,0-.13-.67c-.12-.36-.08-.76-.18-1.12a8.14,8.14,0,0,0-.31-.87,24.93,24.93,0,0,0-1.1-2.72c-.34-.65-.51-1.39-.86-2-.48-.88-1-1.74-1.37-2.65a8.57,8.57,0,0,1-.53-1.2c-.13-.42-.26-.84-.42-1.25-.31-.79-.44-1.63-.68-2.44-.11-.34-.2-.68-.29-1s-.09-.61-.18-.92a21.19,21.19,0,0,0-.73-2.59c-.48-1.08-.84-2.23-1.25-3.32s-.79-1.86-1.18-2.79-.83-1.65-1.12-2.53a17.22,17.22,0,0,0-.91-2.46c-.38-.77-.86-1.52-1.24-2.29-.21-.42-.45-.76-.69-1.15s-.34-.46-.5-.7a4.93,4.93,0,0,0-.42-.66c-.2-.24-.43-.45-.63-.71s-.33-.49-.51-.72c-.36-.47-.76-.9-1.11-1.39a7.64,7.64,0,0,0-.57-.83c-.14-.16-.18-.34-.3-.5s-.19-.14-.26-.24l-.17-.31a2.31,2.31,0,0,0-.28-.33c-.32-.38-.57-.83-.86-1.23s-.73-1-1-1.54a5.67,5.67,0,0,0-.52-.76,3.63,3.63,0,0,1-.27-.28c-.06-.1-.08-.22-.14-.32-.31-.45-.73-.78-1-1.25-.17-.26-.38-.5-.56-.76s-.26-.43-.41-.65-.48-.67-.71-1-.31-.31-.44-.51a3.54,3.54,0,0,0-.42-.52c-.36-.41-.57-.94-.93-1.34s-.78-.85-1.15-1.27c-.16-.17-.26-.38-.42-.54s-.36-.25-.52-.41c-.32-.29-.59-.66-.94-.92s-.6-.6-.94-.86-.69-.52-1.05-.75c-.15-.09-.25-.24-.41-.32s-.28-.1-.42-.18A1,1,0,0,1,60.24,80.64Z"/></g></g></svg>