<svg xmlns="http://www.w3.org/2000/svg" viewBox="0 0 203.12 145.58"><defs><style>.cls-1{fill:#e3e3f7;}</style></defs><g id="Layer_2" data-name="Layer 2"><g id="Layer_1-2" data-name="Layer 1"><path class="cls-1" d="M2.82,137.45a23,23,0,0,1-2.16,1c-1.37-1.36-.19-2.78-.1-4.3S.19,131,.51,129.6c.13-.52.48-.81.62-1.35a17.11,17.11,0,0,0,0-2.26,13.49,13.49,0,0,1,1.85-4.8c2-4,5.38-7.53,8.57-10.69s6.33-6.61,9.59-9.87c1.27-1.27,2.2-2.64,3.36-3.94s1.85-2.65,2.9-3.89a57.08,57.08,0,0,0,4.7-6.5A61.35,61.35,0,0,1,38,78.11c1.17-1.32,2.11-2.69,3.39-3.94a25,25,0,0,0,2-2.42,21.8,21.8,0,0,1,2.14-1.93,23.06,23.06,0,0,0,5.61-8.89c.9-2.89.71-5.72.71-8.77V44a21.5,21.5,0,0,0,0-2.27c-.07-.6-.32-.78-.45-1.24-.35-1.16-.66-2.27-1.11-3.37a5.49,5.49,0,0,0-2.38-3.1c-1.06-.68-2.1-1.4-3.11-2.13-1.2-.85-2.23-1.88-3.39-2.77A9.44,9.44,0,0,1,38.82,26c-2.4-4.16-.93-9.36,1.42-13.21,1.31-2.14,2.27-4.83,4.23-6.53a20.47,20.47,0,0,1,6-3.28A26.92,26.92,0,0,1,57.7,1.26,52.5,52.5,0,0,0,65.24.31a15.81,15.81,0,0,1,7,.22A54.72,54.72,0,0,1,85.69,5.27c1.91.92,3.76,2.18,5.69,3S112.13,19,115.56,21.51c3.84,2.87,7.89,5.38,11.61,8.43,4.64,3.81,8.91,8.06,13.17,12.28,2,2,3.79,4,5.71,6,1.66,1.73,3.57,3.16,5.14,5,3.93,4.57,9.49,7.66,13.54,12.12,2.55,2.81,5.56,5.22,8.39,7.77a181.41,181.41,0,0,0,14,11.86c4.58,3.35,9.3,6.3,13.57,10.07,1.51,1.33,4,2.6,1.09,3.58a44.7,44.7,0,0,0-4.73,1.61c-1.75.79-3.41,1.84-5.18,2.55a27.06,27.06,0,0,0-4,1.66,19.42,19.42,0,0,1-2.36,1.58c-2.2.89-4.32,1.84-6.5,2.8-4.19,1.84-7.91,4.36-12,6.32a45.36,45.36,0,0,0-4.79,3.25,53.16,53.16,0,0,0-4.5,3.69c-2.69,2.2-5.88,3.62-8.56,5.8-3.05,2.48-7.14,4-9.9,6.83a16.89,16.89,0,0,1-4.19,3.4c-1.48.81-3.13,1.47-4.53,2.38-5.11,3.32-10.67,4.2-16.57,5-2.77.35-5.81,0-8.61,0-3.19,0-6.29-.53-9.45-.58a49.2,49.2,0,0,1-15.45-2.65c-2.25-.78-3.94-2.43-6.09-3.4-2.36-1.08-4-3-6.35-4.1s-4.77-2.42-7.44-2.8c-3.06-.44-6.11-.9-9.2-1.24-2.6-.28-5.22-.73-7.82-.95-1.94-.16-3.75,0-5.68-.33a20.14,20.14,0,0,0-7,.16c-1.91.34-3.71.07-5.63.69a12.9,12.9,0,0,1-4.47.56c-1.94,0-3.61.81-5.41,1.42a31.85,31.85,0,0,0-4.73,1.54c-1.83.92-3.65,1.69-5.49,2.55C4.4,136.63,3.61,137.05,2.82,137.45Z"/></g></g></svg>