<svg xmlns="http://www.w3.org/2000/svg" viewBox="0 0 204.71 144.93"><defs><style>.cls-1{fill:#e3e3f7;}</style></defs><g id="Layer_2" data-name="Layer 2"><g id="Layer_1-2" data-name="Layer 1"><path class="cls-1" d="M38.94,28.22C35.23,27,32.19,23.66,28.12,23.5c-1.83-.07-4.9-.53-6.64,0-1.44.42-1.19.33-1.38,1.91a10.91,10.91,0,0,0,.23,3.78c1.15,4.68,5.81,5.15,9.63,6.71,4.49,1.83,9.24,2.91,13.68,4.85,3.83,1.66,7.41,2.71,11.3,4.68a135.46,135.46,0,0,0,13.18,5.41c2.06.79,4,.88,6.12,1.41,2.33.6,4.7,1.59,7.05,2.15,2.08.49,3.56,1.24,5.64,1.85,2.74.81,5.36.66,8,1.26,4.83,1.09,9.82,1.29,14.59,2.53,2,.53,4.48.21,6.59.21,2.27,0,4.85.33,7.06-.08a17.65,17.65,0,0,0,9.65-5.8A11.72,11.72,0,0,0,135,49.92c.24-1-.21-2.3-.09-3.35.15-1.33.78-2.45,1-3.77.33-1.9.69-3.22.89-5.19.18-1.71,1.34-5.17,3.84-4.77,1.82.28,2.16,2.53,3,3.64,1.32,1.77,2,2.43,1.69,4.94-.39,3.28-3,6.68-4.23,9.85-.92,2.31-2.51,3.58-3.44,5.65-1,2.32-1.67,4.81-2.7,7.12a38.59,38.59,0,0,1-2.12,4.63,20.79,20.79,0,0,1-3.53,4.26c-3.52,3.44-8.56,2.36-13.2,2.35-1.4,0-2.82.1-4.21,0-1.56-.08-2.72-.78-4.21-1s-2.9.25-4.29.08A25.78,25.78,0,0,1,98.8,72.9C93.12,71.14,87.65,68.6,82,66.58c-5.13-1.82-10.2-3.85-15.34-5.89a15.35,15.35,0,0,1-5.33-3.06,20.61,20.61,0,0,0-5.41-3.31c-2-.85-4.13-1.26-6.12-2.07a42.57,42.57,0,0,0-6.06-2.43c-1.11-.25-2.21-.13-3.35-.42s-2.17-.42-3.29-.68c-2.33-.55-4.46-2.29-7-1.59-1.4.39-3.34,1.58-3.45,3.19-.17,2.4,2.93,3.45,4.78,4,4.41,1.35,8.33,1.89,12.72,3,2.07.51,2.85.7,4.12,2.55s2.43,4.93,4.79,5.87c1.31.52,2.89,0,4.25.22s3,.53,4.26.83a51.78,51.78,0,0,1,7,2.35c2.82,1.15,5.9,2.51,8.59,3.91a50.48,50.48,0,0,0,9,3.16c6.51,1.91,13,4.07,19.81,5.49,5.67,1.19,11.31,1.12,17.22,1.12a40.72,40.72,0,0,0,6.63-.08c1.4-.24,2.82-.61,4.2-.86a19.56,19.56,0,0,0,2.73-1c4.19-1.25,8.37-2.8,10.41-7a17,17,0,0,0,1.88-6.6A48.07,48.07,0,0,1,150,60.2c.76-4.25,1.78-9.44,3.75-13.63,1.17-2.49,2.37-2.79,5.11-2.27.55.11,1.81.66,2.41.84a7.81,7.81,0,0,1,3.1,1.67c2.05,1.72,1.66,3.35,1.62,5.93a10.8,10.8,0,0,1-.2,2.78,35.2,35.2,0,0,0-.7,4.27c-.24,1.62-1.3,3.48-1.92,5.14-.91,2.46-1.42,5.18-3.05,7.34-2,2.65-5.8,3.47-8.47,4.67-2.29,1-1.91,2-.94,4.22.58,1.31.24,1.35,1.6,1.7a16.23,16.23,0,0,0,3.81,0,15.07,15.07,0,0,0,5.17-1.38c2.17-.93,3-3.46,4.76-4.86-.27,1,.53,1.08.68,1.74.2.88-.05,1.82.16,2.66.15.64.94.89.95,1.44,0,1-.46,1.33-.7,2.28a14,14,0,0,1-1.85,4.91A21.34,21.34,0,0,1,162,93.87a18,18,0,0,0-2.85,2.8c-.37.61-.48,1.61-.84,2.14-.73,1.08-1.61,1.26-2.46,2.1-1.35,1.32-2.42,3.17-3.76,4.54a24.79,24.79,0,0,1-5.13,3.67c-3.85,2.35-7.11,5.23-11.11,7.34-3.44,1.82-7.5,4.62-11.26,5.7-3.1.89-7,1.72-10.36,1.17a10.9,10.9,0,0,1-4.52-2.16c-1.47-1.29-1.13-2.67-1.13-4.47,0-3.24.39-8.23,4-9.2a8,8,0,0,1,9.22,3.34c1,1.48,1,1.84,2.78,2.11,2.41.35,2.89-.09,2.86-2.37s-1.07-2.31-1.71-4.22c-.35-1,.09-1.9-.13-2.89-.18-.79-.86-1-1-1.78-.42-1.85.32-3.62-1.57-5-1.24-.92-2.32-.77-3.81-.45-3.22.68-5.6,2.9-8.48,4.73-3.05,1.94-6.48,1.91-10.09,2.71a61.71,61.71,0,0,0-10.09,3.41c-3.94,1.56-8.32,3.53-12.24,4.73-3.45,1.06-8.4,2.12-12,1-2-.63-3-3.47-2.85-5.47.19-2.41,1.54-2,3.81-1.89,1.74.11,3.29,1.66,4.51-.12s-.21-5.35-.65-7.18c1.28-.72,2.6-2.3,3.88-2.84A11.07,11.07,0,0,1,79.44,95c2.77.3,2.19,2.65,4.45,4.17a3.43,3.43,0,0,0,4.27-.11c5.61-5.33-4.83-12.41-9.74-12.53-1.79,0-3.92-.31-5.64.21-2.07.62-3,2.32-4.45,3.64a3.57,3.57,0,0,1-4,.78c-1.76-.84-1.79-3.76-3.37-4.58-4.19-2.18-7.54,3-10.33,4.71-2.28,1.37-8.11,1.57-10.64.77-.19-1.74,0-2.15-1.5-3.17a22,22,0,0,0-4.64-1.86c-2.19-.84-4.07-2-6.35-2.6-3.42-.87-6.84-1.71-10.25-2.59-3.76-1-8.59-1.68-8.52,3.84.06,4.63,7.77,3.2,10.93,3.62,3,.4,4.65,3.68,2,5.74-1.38,1.05-3.58,1.17-5.25,1-2.35-.28-5-.73-7.34-1.19-2.09-.4-6.65-2-8.28.17-1,1.32-1.13,7.73.07,8.94s4.21.58,5.58.43c2.62-.29,5.42-.6,8-1.07,4.36-.78,8-1.65,12.5-1.67,2.52,0,6.34-.1,8.3,1.81,1.77,1.72,1.28,6.2-1,7.44s-7.11.16-9.5.16a44.65,44.65,0,0,1-6.12,0c-1.67-.23-2.91-.92-4.66-1-2.42-.09-6.24.06-4.11,3.82,1,1.72,5.35,1.9,6.76,2.09a89.22,89.22,0,0,0,12.11.68,95.77,95.77,0,0,0,11.17-1c1.57-.19,3.13.34,4.52-.85,1.76-1.51,1-3.56,1.06-5.69.06-3.92.7-6.73,5.19-5.61,4.85,1.22,7.75,5.11,6.6,9.85a13.33,13.33,0,0,0-.52,5.58c.36,1.59,1.27,2.2,2.85,3.12,3.35,2,8.42,2.64,12.19,3.11,2.93.36,5.94-.94,8.86-1.06,1.6-.07,4.66-.57,6.12.24,2.1,1.16,2.58,5.26,2.09,7.33-.89,3.81-6.5,3.82-9.62,3.82A69,69,0,0,1,60.83,133c-3.63-1.06-7-2.62-10.68-3.53-4-1-7.75-3.29-11.69-4.19-1.41-.32-2.8.09-4.23-.28a12.12,12.12,0,0,0-3.92-.73c-3.71,0-7.43,0-11.14,0-1.79,0-5.85-.79-6.65.87-1.17,2.44,1.92,4.59,3.77,4.8a100.87,100.87,0,0,0,11.4.92c5.95,0,10,.52,15.32,3.21,5.09,2.56,11.16,4.17,15.79,7.39,1.29.9,2.07,2,3.67,2.46a29.58,29.58,0,0,0,3.69.34,70.9,70.9,0,0,0,10.89.71c4.85,0,9.14-1.87,13.91-1.9a38.62,38.62,0,0,0,5.94-.84c2.58-.39,5.38,0,8-.06,2.17,0,3.83-.9,6-1a20.72,20.72,0,0,0,3.86,0c1.9-.45,1.89-1,2.57-2.52.26-.58.59-.28.77-1.12s-.39-1.61,0-2.34c1.25-2.44,8.07-2.72,10.37-3.15a34.51,34.51,0,0,1,6.51-.22,35.11,35.11,0,0,0,7.51-1c2.19-.42,4.39,0,6.66-.61a15.81,15.81,0,0,0,6.32-3.05c4.51-3.55,6.76-8.52,10.86-12.3,3.6-3.33,6.12-7.52,9.15-11.36s5.21-8.54,8-12.55c2.31-3.3,4.11-6.67,6.14-10.15,2.5-4.28,2.37-9.38,3.53-13.93.31-1.2.18-2.37.42-3.55a11.39,11.39,0,0,0,.73-3c0-2.6.69-5.88-.88-7.72-1.34-1.55-2.83-2.29-1.15-4.58s4.64-1.46,6.75-2.33c3.93-1.62,7.59-5.12,4.73-9.41a15.75,15.75,0,0,0-6.6-4.95c-3.07-1.07-6.47,1.17-9,2.66-1.25.74-2.57,1.65-4.26.82-1.89-.92-2.07-3.72-4.43-4.48-1.91-.62-4.1,0-5.87.73a12.71,12.71,0,0,0-3.63,2.18c-1.09,1-1.56,2.7-3,3.41-.66.33-3.9,1.38-4.37,1-1.67-1.28,1.42-5.29,2-6.44,2.79-5.17,3.81-11,1.91-16.59-.74-2.17-1.32-5.32-3.81-6-1.63-.49-4.56-.11-6.1.17-2.47.44-5.41.78-6.52,3.34A18.16,18.16,0,0,0,149,16.93c-.15,1.95-.2,5.18-2.77,5.71-4,.81-4.55-7.88-4.71-10.37-.23-3.4-1.41-9.07-4.73-10.71A26.71,26.71,0,0,0,133.49,0c-1.88-.22-4.82.81-6.8,1.1-1,.15-4.4.8-5.32,1.76-.59.62-.75,1.54-1.44,2.28-1.32,1.41-3,1.3-4.71,1.62-4.83.89-7.45,3.45-11,6.94-3.3,3.21-4.36,5.54-6,9.74-1.19,3.13-5.48,12.1-.73,14,2.54,1,7.24-1.49,8.8-3.51,1.85-2.41.63-4.56,1.3-7.12.45-1.73,2.2-2.48,4-3.32,2.9-1.33,3.4-.76,4.44-3.7a11.83,11.83,0,0,1,3.4-5.28c2.19-1.76,6.7-3.67,8.43-.45s.41,9.43.43,13a23.37,23.37,0,0,1-.68,6c-.64,2.7-.62,5.73-1.38,8.33a21.37,21.37,0,0,1-5.51,8.31c-3.52,3.13-8.42,2-12.62,1.31C101.86,50,95.61,49,89.39,47.54c-4.37-1-8.56-3.88-12.84-4.27a20.29,20.29,0,0,1-4.74-.88c-.84-.45-1-1.26-1.53-2.14-2.16-3.85-6.93-4-10.64-5.46-2.53-1-4.67-.89-7.33-.9s-3-.53-4.92-1.93a35.34,35.34,0,0,0-4.45-2.85A8.13,8.13,0,0,0,38.94,28.22Z"/></g></g></svg>