<svg xmlns="http://www.w3.org/2000/svg" viewBox="0 0 131.48 141.24"><defs><style>.cls-1{fill:#648fe7;}</style></defs><g id="Layer_2" data-name="Layer 2"><g id="Layer_1-2" data-name="Layer 1"><path class="cls-1" d="M61.51,4a11.37,11.37,0,0,0-3.76-2c-.64-.17-1.19-.46-1.78-.63-.35-.11-.8-.19-1.17-.29s-.72-.27-1-.33-.63,0-1,0S52.11.42,51.7.35a13.48,13.48,0,0,0-2.29,0A38.34,38.34,0,0,0,45,.35a20.11,20.11,0,0,0-4.42,1.24A10,10,0,0,0,37,4c-1,1-1.55,2.43-2.6,3.44a18.52,18.52,0,0,1-3.61,2.45,10.07,10.07,0,0,1-3.59,1.32,10.33,10.33,0,0,0-3.77,1.3c-1.31.68-2.42,1.55-3.69,2.37a37.38,37.38,0,0,0-3.66,2.85,11.3,11.3,0,0,0-3.25,4.43,17.86,17.86,0,0,0-.43,2.13c-.19.74-.48,1.52-.6,2.29a13.72,13.72,0,0,0-.31,2.12c0,.83-.32,1.49-.33,2.29s0,1.18-.64,1.65a7.83,7.83,0,0,0-1.32,1,21.39,21.39,0,0,0-2.46,2.77,15,15,0,0,0-1.87,4.19,2.51,2.51,0,0,0-.25,1.06v3.6c0,.8.41,4.65,1.63,4.25-.09,0,.48.69.39.71A13.93,13.93,0,0,1,5.56,53c-.31.83-.58,1.77-1,2.64-.89,2,0,4.57-.49,6.69A5.26,5.26,0,0,0,3.93,64c0,.62.27.88.34,1.46a12.46,12.46,0,0,0,.25,1.64A16.28,16.28,0,0,0,5,68.9a10.19,10.19,0,0,0,1.35,3,11,11,0,0,1,1.5,1.94,4.89,4.89,0,0,1-.52.5c-.3.2-.4.13-.73.23a9,9,0,0,1-1,.35c-.42.08-.81-.06-1.24.06-.21.06-.46.19-.72.25a3.13,3.13,0,0,0-.73.24,4.06,4.06,0,0,0-1.4,1.06c-.67.84-1.54,1.85-1.48,3s1.23,2.09,2.05,2.86A19.54,19.54,0,0,0,9,86.73a13.23,13.23,0,0,0,4.1.66h2.13a5.47,5.47,0,0,0,1,0c.25-.05.6-.38.81-.37.58,0,.91,1.06,1.23,1.43a6.36,6.36,0,0,0,1.4,1.14c1,.69,2.46,1.84,3.8,1.33l-.21-.27c-1.09,0-1.86,1-2.95,1a14.26,14.26,0,0,0-3.27.07,8.69,8.69,0,0,0-2.93,1A14.68,14.68,0,0,0,12,94.5a29.89,29.89,0,0,1-4.3,3.68c-.74.51-1.56,1-2.25,1.56a1.9,1.9,0,0,0-.64,1c-.29.71-.31.72.56.57.41-.06.9-.35,1.22-.42s.64,0,.93-.05.28-.25.38-.27a14,14,0,0,0,2.38-1.06,16.33,16.33,0,0,1,2.78-.64c1.16-.28,2.3-.75,3.44-1s2-.8,3.11-1a17.25,17.25,0,0,1,3.11-.31h4.74a3.84,3.84,0,0,0,.83,0c.32-.08.48-.28.79-.36a17.44,17.44,0,0,1,3.61,0h3.6c1.2,0,2.4,0,3.6,0a4.1,4.1,0,0,0,1.62-.34c.2-.06.46,0,.68,0,.37-.12.57-.47.91-.56a6.2,6.2,0,0,1-.85,4.63c-.75,1.28-1.9,2.39-2.69,3.69s-2.13,2.53-2.58,4c-.25.78-.42,1.6-.61,2.43-.09.38,0,.78-.06,1.15a6.64,6.64,0,0,0-.35,1.12,14.84,14.84,0,0,0-.32,2c0,.42,0,.88,0,1.3a9.75,9.75,0,0,1-.36,1.31c-.29,1.65.26,3.32.34,4.91a13.12,13.12,0,0,0,.5,2.29c.18.71.34,1.4.52,2.12s.5,1.31.64,2a4.94,4.94,0,0,1-.3,2.64c-.36.84-.62,1.63-1,2.44a28.68,28.68,0,0,1-1.31,2.75,35.12,35.12,0,0,1-4.61,5.3c.55-.44,1-1.09,1.57-1.58A10.1,10.1,0,0,1,34,138a11,11,0,0,0,3.6-3.2,17,17,0,0,1,1.38-1.55c.67-.65,1.36-.85,1.89-1.71a7.32,7.32,0,0,0,.76-2.09,9,9,0,0,0,.62-2.49c0-2,1-3.86,1-5.89a12.38,12.38,0,0,1,0-2.79,4.81,4.81,0,0,0,.3-1.31,8.72,8.72,0,0,1,.24-2.44c.36-1.26.46-2.5.74-3.78a13.84,13.84,0,0,1,1.23-3.09,15.29,15.29,0,0,1,1.85-2.45c.7-.94,1.43-1.85,2.15-2.78s1.83-1.79,2.56-3A23.87,23.87,0,0,0,53.63,97a12,12,0,0,1,.6-1.45c.26-.43.55-.68.78-1.1.33-.59.34-1.6,1-2,0,.47,0,1,0,1.42-.13-.82.72-1.68,1.31-2.21a5,5,0,0,1,2.45-1.12,3.21,3.21,0,0,1,2.38.24A11.65,11.65,0,0,1,64.78,93,38.62,38.62,0,0,0,70,96.47a12.11,12.11,0,0,1,1.18,1.07c.32.28.71.41,1,.73A8.93,8.93,0,0,1,73.91,101c.84,1.81.39,4.5,0,6.37-.57,2.47-3.36,3.62-4.84,5.56-.34.44-.64.88-1,1.31s-.83.81-1.23,1.3a21.1,21.1,0,0,1-3.34,3,68.85,68.85,0,0,1-6.06,3.92,16.13,16.13,0,0,1-4.08,1.72c-1.09.33-2.18.9-3.28,1.16a11.79,11.79,0,0,0-5.61,2.55,4.75,4.75,0,0,1,2.34-.51,21.43,21.43,0,0,1,2.46-.34c2,0,4.1-.82,6.06-1.3,2.34-.57,4.81-.9,7.16-1.64a22.85,22.85,0,0,0,5.68-3.27c1.82-1.27,3-3,4.69-4.42a28.51,28.51,0,0,0,2.25-2.28c.87-.91,1.25-2.17,2.13-3.12a9.48,9.48,0,0,0,2.63-4.74,17.52,17.52,0,0,0,0-2.29,8.42,8.42,0,0,0-.06-2.46,9.78,9.78,0,0,0-1.92-2.61A10.06,10.06,0,0,1,76.3,96.3a22.26,22.26,0,0,0-1.25-3.48,13.91,13.91,0,0,1-1.37-2.45c.2-.06.29,0,.27.29a13.26,13.26,0,0,0,3.08,0,7.32,7.32,0,0,0,1.19-.54c.58-.32.5-.63.66-1.2.72-2.44,2.69-1.18,4.23-.36a11.42,11.42,0,0,0,5.56,1.15,14.44,14.44,0,0,0,2.87-.07,4.34,4.34,0,0,1,1.22-.26c.6,0,1.2,0,1.8,0,4.21,0,8.19,1.93,12.1,3.35a33.88,33.88,0,0,1,5.73,2.74c1.59,1,3.25,1.66,4.88,2.45.78.37,1.62.64,2.39,1,.59.3,1.13.68,1.71,1,1.36.72,2.63,1.34,3.94,2.13s2.34,1.43,3.54,2.12c.55.32,2,1.82,2.63,1.49-.54-1.33-1.67-1.79-2.65-2.8s-2.34-1.7-3.33-2.88-1.77-2.6-2.72-3.83A21.14,21.14,0,0,0,119.1,93a17.2,17.2,0,0,0-4.4-2.67c-1.6-.65-3.08-1.67-4.69-2.33a25.29,25.29,0,0,1-4.31-2.62,9.59,9.59,0,0,0-2.06-1.15c-.31-.1-.72-.26-1-.33-.46-.12-.91,0-1.37-.1s-.61-.31-1.17-.3a4.77,4.77,0,0,1-1.31-.07,10.68,10.68,0,0,0-3-.25c-1.71,0-3.59-.87-5.23,0,1.35-.68,2.63-.69,3.86-1.73a12.57,12.57,0,0,0,1.29-1.64c.4-.46.88-.87,1.31-1.3a11.55,11.55,0,0,0,2.29-3.59,20.74,20.74,0,0,0,.67-2.29,2.73,2.73,0,0,1,.31-1,5.68,5.68,0,0,1,.74-.73c1-1,2.12-1.78,3.11-2.78A17.18,17.18,0,0,1,105.6,67a7.78,7.78,0,0,1,1.87-1.26A18.66,18.66,0,0,0,111.89,63a8.15,8.15,0,0,0,2.59-3.31,5.76,5.76,0,0,0,0-1.44c0-.6-.18-.69-.3-1.17s.08-1,0-1.44-.49-.76-.64-1.18a5.62,5.62,0,0,0-.36-1.12c-.21-.36-.44-.73-.65-1.11s-.41-.61-.56-.92c-.49-.95-.51-.94-1.73-.91a16.14,16.14,0,0,1,.64-2.62,13.22,13.22,0,0,0,.35-1.31,8,8,0,0,1,0-1,9.36,9.36,0,0,0,.36-1.31c0-.32,0-.66,0-1a7.86,7.86,0,0,0-.26-2.29c-.11-.45,0-.89,0-1.32s-.3-.34-.36-.62.13-.93,0-1.35-.3-.34-.36-.62-.08-.8-.15-1.16-.14-.77-.23-1.14a7.63,7.63,0,0,0-1-2.22c-.77-1.19-1.68-2.23-2.53-3.35a35.82,35.82,0,0,0-3-2.87c-2-2.07-4.67-2-7.44-2,.09-.51-.57-.84-.67-1.31s.14-.91,0-1.33-.29-.5-.35-.95a14.58,14.58,0,0,0,0-1.48,5.8,5.8,0,0,1-.3-1.31c0-.44,0-.88,0-1.31a11.14,11.14,0,0,0-.07-2.71,10.28,10.28,0,0,0-2-3.93c-.66-.73-1.64-1.26-2.32-2-.45-.46-.94-.91-1.38-1.38a26.09,26.09,0,0,0-2.85-3.19,9.44,9.44,0,0,0-3.85-1.72c-.46-.08-.86-.26-1.32-.34s-.86.06-1.31-.06C78.92,1,78,1.1,77.05.86s-1.75,0-2.61-.2a6.48,6.48,0,0,0-1.15-.3c-.56,0-1.14,0-1.71,0a9.64,9.64,0,0,1-1.7,0c-.42-.09-.59-.43-1.17-.32a7.16,7.16,0,0,1-1.47.35,5.45,5.45,0,0,0-1.47.25A24.27,24.27,0,0,0,63.37,2C62.87,2.22,61.21,4,61.51,4Z"/></g></g></svg>