<svg xmlns="http://www.w3.org/2000/svg" viewBox="0 0 125.81 145.92"><defs><style>.cls-1{fill:#e3e3f7;}</style></defs><g id="Layer_2" data-name="Layer 2"><g id="Layer_1-2" data-name="Layer 1"><path class="cls-1" d="M93.18,0H88.4C87.61,0,86.8,0,86,0s-1.59.45-2.5.5c-4.05.2-7.79,1.93-11.59,3.38a30.35,30.35,0,0,1-11,1.86c-4.1,0-8.35-2-12.2-3.23a43.67,43.67,0,0,0-4.3-1.09c-1.83-.39-4.22,0-6.1,0a17.08,17.08,0,0,0-2.26,0c-.76.11-1.39.41-2.15.5s-1.53.45-2.39.49a7.4,7.4,0,0,0-2.38.45C26.1,4,22.92,5.31,20,6.13c-.77.22-1.48.21-2.28.47s-1.42.38-2.11.66a32.76,32.76,0,0,0-4.1,1.85A20.63,20.63,0,0,0,7.83,11.2a21.8,21.8,0,0,1-2.11,1.37,20.47,20.47,0,0,0-2.89,1.77A26,26,0,0,0,1,16.78,5.41,5.41,0,0,0,.1,18.67c-.53,2,1.19,2.68,2.77,2.85.76.08,1.13.39,1.89.5a24.53,24.53,0,0,0,3,0c1.37,0,2.64.45,4,.51a30.73,30.73,0,0,1,3.46-.05,13.62,13.62,0,0,0,2.48.5,13.26,13.26,0,0,1,3.26.37,8.89,8.89,0,0,1,4.78,2.48,2.5,2.5,0,0,1,.47,2.31c-.05.18-.32.54-.39.8s0,.8-.08,1.21a19.38,19.38,0,0,1-2.41,4.28A45.24,45.24,0,0,1,19,40.21a16.63,16.63,0,0,1-2.76,2.39c-.84.6-1.55,1.27-2.36,1.9-1.78,1.38-3.78,2.39-5.15,4.27A24.23,24.23,0,0,0,6,54.31a18.68,18.68,0,0,0-.2,11c.69,2.26,3.61,4.34,5.7,5a49.31,49.31,0,0,0,8,1.9c3,.49,6.1.81,9.1,1.53,2.11.5,3.89,1.06,4.84,3,.66,1.36,1,3.23,0,4.52a6.69,6.69,0,0,1-5.06,2.41c-2.23,0-4.46,0-6.69,0-1,0-2-.07-3,0s-1.8.46-2.79.56c-.2,1.45-.84,2.68-.58,4.23a5.71,5.71,0,0,0,1.91,3.22c1.32,1.14,3,1.33,4.58,1.8,2.3.65,4.54,1.71,6.91,2.1a11.76,11.76,0,0,1,3.81,1.08,10.59,10.59,0,0,1,1.93,2c.38.39,1.11.81,1.33,1.34,1.14,2.65-6.26,5.58-7.93,6.24a10.21,10.21,0,0,0-3.92,2.91c-1.34,1.67-1.4,3.49-1.43,5.58,0,3,3,4.72,5.48,5.71a37.89,37.89,0,0,0,5.9,1.8c2.17.48,4.27.67,5.87,2.41a4.11,4.11,0,0,1,1.4,3.43A41,41,0,0,1,40,133.84a35.38,35.38,0,0,0-.84,6.49,11.69,11.69,0,0,0,.44,2.85c.12.58.12,1.86.56,2.35.9,1,2.89-.13,3.79-.7,1.62-1.05,3.12-1.74,4.31-3.35,2.34-3.16,2-7.58,4.76-10.51.42-.44.87-1.28,1.41-1.47a9.05,9.05,0,0,1,2.2,0,11.76,11.76,0,0,1,3.6.36c1.07.3,2.12.73,3.22,1,2,.45,3.58,1.76,5.44,2.73,2.57,1.32,4.91,3,7.79,3.54,6.81,1.3,13.63.69,20.55,1,1,0,1.79.32,2.74.42a18,18,0,0,0,3.65-.35c2-.17,4.05.1,6.07-.08a39.46,39.46,0,0,0,8.71-2,19.47,19.47,0,0,0,4-1.76c2.25-1.39,2.52-2.89,3-5.28a12.38,12.38,0,0,0,.15-5.28c-.56-1.87-2.58-3.08-4.18-3.91-2.09-1.08-3.89-.85-6.24-.85h-8.1a58.13,58.13,0,0,1-9-.41,42.34,42.34,0,0,1-10.59-3.28,12.47,12.47,0,0,1-3.93-2.4,20.31,20.31,0,0,1-3.23-4.14,5.47,5.47,0,0,1-.49-3.65c.5-1.66,2.65-1.41,4-1.41H99.88a27.74,27.74,0,0,0,6.57-.35c2.07-.49,4.91-1.66,6.34-3.18,1.9-2,1.73-5.39,1.44-8-.22-2.07-1.35-3.85-2.31-5.62-1-2-2.09-3.92-3.34-5.78-1-1.46-1.77-2.71-3.45-3.52a7.38,7.38,0,0,0-4.78,0c-2.27,1-3.78,2.75-5.74,4.13-.7.5-1.16,1.24-1.88,1.7a17.28,17.28,0,0,1-4.26,2,5.34,5.34,0,0,1-2.18.06c-1-.5-.63-1.88-.74-2.75a8,8,0,0,0-8.38-6.82c-1,.13-1.64.86-2.5,1.46a32.24,32.24,0,0,0-3.5,2.9c-1.64,1.51-3.56,2.9-5.35,4.25-1.16.88-2,2.18-3.23,2.93a4.37,4.37,0,0,1-2.67.44c-1.54,0-3.38-.47-4-1.91a6.21,6.21,0,0,1-.1-4.41,6,6,0,0,1,1.29-3.07,10.5,10.5,0,0,1,2.66-2.35,18.06,18.06,0,0,1,5.84-2.13c4.27-1,10.36-2.19,11.61-7.12a18.5,18.5,0,0,0,.18-7.07c-.41-1.88-2.1-3.48-3.2-5-1.27-1.7-2.5-2.29-4.29-3.3a28.75,28.75,0,0,0-3.75-1.91c-1.39-.53-2.89-.85-4.25-1.42-2.45-1-5.1-1.63-6.36-4.2a11.14,11.14,0,0,1-1-5.85,23.22,23.22,0,0,1,1.27-3.59,9.78,9.78,0,0,1,2.12-3.93,14.79,14.79,0,0,1,3.2-2.54c1.77-1,3.63-.81,5.56-1a59.27,59.27,0,0,1,11.61-.33,56.5,56.5,0,0,1,6.1,1.17c1.94.37,3.86,1.16,5.85,1.23,3.1.09,6.45.33,9.17-1.34,2.24-1.38,4.55-2.3,6.46-4.19s2.37-4.12,2.64-6.59c.37-3.31,0-7.06-2.16-9.65-.76-.9-1.17-2.33-2.11-3a24.37,24.37,0,0,0-3.55-1.64A24.56,24.56,0,0,0,93.18,0Z"/></g></g></svg>