<svg xmlns="http://www.w3.org/2000/svg" viewBox="0 0 135.47 147.85"><defs><style>.cls-1{fill:#e3e3f7;}</style></defs><g id="Layer_2" data-name="Layer 2"><g id="Layer_1-2" data-name="Layer 1"><path class="cls-1" d="M30.48,16a1.64,1.64,0,0,0,.63-.11C31.13,15.81,30.83,15.91,30.48,16Z"/><path class="cls-1" d="M134.77,61.27c-.21-1.14.08-2.3-.1-3.45a14.69,14.69,0,0,0-1.29-3.36c-.44-1-.38-2.05-.76-3a16.34,16.34,0,0,0-1.87-2.86c-1-1.51-2.24-3-3.3-4.44s-2.32-3.49-3.64-5A73.67,73.67,0,0,0,114,29.57a35.64,35.64,0,0,0-4.45-3.24c-2.07-1.16-4.31-1.11-6.53-1.64-1.42-.34-2.85-.45-4.28-.81s-2.81-.06-4.17-.4c-1.18-3.85-1.83-7-4.75-10.06-2.49-2.65-4.32-5.53-7.43-7.62a58.88,58.88,0,0,0-5.8-3.65A14.53,14.53,0,0,0,74,1.39c-.49-.16-.91-.58-1.4-.67-.65-.12-1.37.17-2,.07S69.56.3,69,.17a15.42,15.42,0,0,0-4.55,0C62.74.44,61,1,59.36,1.25c-1.38.23-2.64,0-3.94.58-1.46.69-2.49,2-3.81,2.9a18.68,18.68,0,0,1-3.1,1.73A65.47,65.47,0,0,0,38.91,11c-1.8,1.15-3.41,2.54-5.32,3.53a18.3,18.3,0,0,1-2.48,1.35c0,.07-.19.25-.79.68-1.71.62-3.64,2.69-5.14,3.8a33.65,33.65,0,0,0-4.28,3.77,20.84,20.84,0,0,0-5,7.63c-.41,1.33-1.08,2.51-1.5,3.82a30.86,30.86,0,0,0-.7,3.47c-.5,2.44-3.49,4.24-2.54,6.91.43,1.19,2,2.35,2.93,3.22,1.49,1.42,2.87,2.93,4.3,4.38a38.29,38.29,0,0,0,2.91,2.93,15.25,15.25,0,0,1,2.37,2.24c1.65,2.22,2.65,4.57,4.62,6.61,1.43,1.47,5.39,4.23,4.51,6.33-1.17,2.8-4.68,4.56-7.15,6.18-2.67,1.76-5.61,3.36-8.08,5.23-2.27,1.72-4.19,3.09-5.8,5.43C10,91.13,9.28,94.29,7.17,96.68c-.74.83-1.29,1.65-2,2.52-1,1.25-2.51,2-3.59,3.25-2.71,3.08-1.43,6.57-.37,10.14a33.17,33.17,0,0,0,3.08,7.86c2,3.27,4.92,5.49,7.35,8.3a73.34,73.34,0,0,0,14.05,11.86c2.66,1.82,5.37,3.62,8.22,5.19a12.93,12.93,0,0,0,5,1.95,28.52,28.52,0,0,0,4.89,0,61.9,61.9,0,0,0,19.85-4.46,28.47,28.47,0,0,0,5.77-3c1.77-1.27,4.14-1.55,5.63-3.44a34,34,0,0,0,1.8-3c.85-1.35,2.07-2.51,3-3.83,1.61-2.29,3.24-4.48,4.79-6.81,1.22-1.83,2.86-3.42,4.15-5.19a46.31,46.31,0,0,0,3.29-5.72c1-1.95,1.54-3.66,2.9-5.45.57-.76,1.11-1.66,1.72-2.47,1-1.33,1-2.17,1-3.8.05-2.07.55-1.21,2.26-1.63a10.61,10.61,0,0,0,1.3-.66c.62-.28,1.14-.32,1.75-.54,2.52-.92,5.39-1.51,8.06-2.38,1.76-.58,3.21-1.5,4.86-2.13a23.94,23.94,0,0,0,4.37-2.3c1.54-1,3.14-1.74,4.68-2.68,2.16-1.32,4-3.67,5.59-5.54,1.43-1.61,1.84-3.49,3-5.24a10.82,10.82,0,0,0,1.85-5.21A46.44,46.44,0,0,0,134.77,61.27ZM29.11,50.78a26.28,26.28,0,0,1-1.44-3.18A4.29,4.29,0,0,1,27,45.09a17.54,17.54,0,0,1,.13-4.41,24.11,24.11,0,0,1,1.69-3.83A31.16,31.16,0,0,1,33,30.39c3.72-4.44,7.61-8.48,13.21-10.81,2.35-1,4.89-1.48,7.27-2.36s4.76-.63,7.27-.63a32.56,32.56,0,0,1,7.93.49c1.13.29,2.25.14,3.3.45A14.65,14.65,0,0,1,74.75,19c2.32,1.3,3.11,2.61,4,5.21a24,24,0,0,1,1.16,7.6c.22,2.08-3.29,5-4.24,6s-2.43,1.9-3.54,3c-1,.93-1.84,1.92-2.79,2.87C68,45,66.06,45.68,64.82,47s-2.57,3.12-4,4.54a14.9,14.9,0,0,0-2.26,2.43c-1.36,2.1-1.66,4.41-3.28,6.33-1.16,1.39-1.67,1.89-3.5,1.94a19.16,19.16,0,0,1-3.63,0c-4.63-.78-11.36-2.8-14.57-6.36A46.63,46.63,0,0,1,29.11,50.78Zm39.8,61.15c-.63.81-1.5,1.51-2.09,2.35-.88,1.27-1.79,2.42-2.64,3.68-1.82,2.69-4.15,4.93-6,7.6s-4.56,5.1-8.09,5.05c-1.76,0-3.53,0-5.29,0-1.59,0-2.53-.51-3.94-.65a25.72,25.72,0,0,1-17-9.62,34.13,34.13,0,0,1-5.32-10.14c-.94-3.06-.08-6.63,1.34-9.36a22.27,22.27,0,0,1,5.6-7.13c1.39-1.12,2.71-2.11,4.18-3.16.52-.37,4-2.31,5.22-3.15C37.37,85.65,39.38,84,42.19,83c.62-.24,1.22-.43,1.85-.64a11.71,11.71,0,0,1,2.14-.44c1.08-.16,3.42-2.21,4.52-1.2.42.39.09,1.92.1,2.43a7,7,0,0,1-.51,2.05,18.57,18.57,0,0,0-.15,4.29v4.43c0,.85,0,1.69,0,2.53a6.9,6.9,0,0,0,.51,2A9.69,9.69,0,0,0,52,102.26c.33.53.39,1.29.8,1.76.57.66.51.22,1.19.76A17.66,17.66,0,0,0,56.89,107a27.65,27.65,0,0,0,4.33,1.6,23.33,23.33,0,0,0,9.17,1.06C69.64,110.25,69.48,111.21,68.91,111.93Zm5-29.49c-.26,1,.17,2.14-.11,3.2-1.2,4.42.52,9.44-.61,13.87a31.13,31.13,0,0,1-8-3,8.71,8.71,0,0,1-2.49-1.4,12,12,0,0,1-1.86-1.91c-1-1.45-.86-3.09-.8-4.75a7.74,7.74,0,0,1,1.48-4c.32-.49.82-.94,1.18-1.42L63.52,82l1-.25a11.39,11.39,0,0,1,2.77-1.78,16.83,16.83,0,0,1,2-.65,5.43,5.43,0,0,1,1.4,0h0s3.47-.21,3.82.12C75.45,80.3,74.08,81.69,73.89,82.44Zm41-14.22a5.8,5.8,0,0,1-.52,1.72c-.85,2.83.58,5.14-2.26,7.3-1.8,1.37-2.3.16-3.18-1.36A7.57,7.57,0,0,1,107.62,72c0-1.48,0-3,0-4.44a19.76,19.76,0,0,0-.67-4.43c-.49-2.41-1.26-6.51-4.6-6.68-3.5-.18-4.9,3.67-7.78,4.37-1.73-2-3.28-3.8-6.11-3.7-2.48.08-4.63.49-6.11,2.51a27.27,27.27,0,0,0-1.64,2.69,5.91,5.91,0,0,1-2.86,2.87c-1.07.63-2.06,2-3.54,1.38a12.32,12.32,0,0,1-2.64-2.17,8.23,8.23,0,0,1-2.4-7.32c.51-2.17,2.48-4,4.16-5.51C75.64,49.63,78,48,80.2,46s4.57-3.72,6.94-5.37c1.91-.61,4.63-1.91,5.62-1.9,1.59,0,3.54-.29,4.95.3a20.48,20.48,0,0,1,8.91,7.33c1.56,2.28,3.42,4.33,5,6.63a23.31,23.31,0,0,1,3.32,8.55,26.24,26.24,0,0,1,0,4.43C114.89,66.74,114.94,67.49,114.9,68.22Z"/></g></g></svg>