<svg xmlns="http://www.w3.org/2000/svg" viewBox="0 0 223.43 153.05"><defs><style>.cls-1{fill:#e3e3f7;}</style></defs><g id="Layer_2" data-name="Layer 2"><g id="Layer_1-2" data-name="Layer 1"><path class="cls-1" d="M218.1,116.56a28.35,28.35,0,0,1-6.17,1.15,26,26,0,0,0-2.79.56c-.91.12-1.91-.2-2.81,0-2,.35-4.77,1.34-6.76.18s-.51-3.35-.53-5.2c0-1.7.66-5.13-.11-6.61-.93-1.78-3.3-1.23-4.93-1.23-2.14,0-4.65-.4-6.73,0a27,27,0,0,1-2.79.57c-1.52.13-2.81.59-4.37.58-2.22,0-4.08.56-6.29.56-3.31,0-10.55,1-9.56-4.48a14.53,14.53,0,0,1,2.41-5.49,23,23,0,0,1,2.54-3,14.73,14.73,0,0,0,1.93-2.77,28.36,28.36,0,0,0,3.24-6.61,18.45,18.45,0,0,0,.54-3.2,23.76,23.76,0,0,0,.58-3.65c0-3,1.36-10.16-2.79-10.66a19.67,19.67,0,0,0-6.18.14,56.39,56.39,0,0,0-6.44,2.41c-2.23.87-4.64,2.13-7,2.54-.54.09-1.13-.15-1.67-.06s-1.06.51-1.68.62a11.82,11.82,0,0,1-3.36,0c-2.43-.47-2.69-2.57-1.84-4.51.53-1.21,1.39-2.1,2-3.26.51-1,1.38-1.66,1.94-2.6a12.84,12.84,0,0,0,1.81-6.47c0-2.57,0-4-2.38-5.48a13.85,13.85,0,0,0-2-.83,17.5,17.5,0,0,0-2.35-1A10.85,10.85,0,0,0,136.83,50c-2.26,1.42-4.61,2.81-6.85,4.22-.82.51-1.71,1-2.55,1.41a13.22,13.22,0,0,1-2.65,1.48c-2.84.76-3.18-1.28-3.09-3.6s2.51-4.9,4.49-6.32c2.14-1.53,4.19-3.54,4.48-6.29a26.82,26.82,0,0,0,.56-3.64,32.1,32.1,0,0,0-2.18-6.4c-1.12-1.52-2.69-3.77-4.42-4.69-2.12-1.13-5.2,0-7.38.59a7.14,7.14,0,0,0-2.29.65,5.94,5.94,0,0,1-1.21,1.19,6.12,6.12,0,0,1-1.74.66c-1.49.87-2.91,2.1-4.33,3.11-.55.39-1.21.77-1.81,1.11-.78.45-1.34,1-2.07,1.43a3.31,3.31,0,0,1-2.83.4c-2.19-.86-2.11-4.38-1.29-6.16.55-1.2,3-9.82,3-11.51a8.34,8.34,0,0,0-1.12-4.76c-1.18-1.93-3.29-3.55-5-5-2.56-2.14-4.79-4.15-7.88-5.5a17,17,0,0,0-3.9-1.28c-.36-.06-.8.14-1.16.06S83.16.76,82.9.68C82,.44,81.12.67,80.22.44A18.32,18.32,0,0,0,75.46,0a7.77,7.77,0,0,0-2.53.44c-.9.23-1.79,0-2.67.25a10.38,10.38,0,0,0-6.45,4.79,21,21,0,0,1-2.08,2.69c-.92,1.23-1.28,2.38-2.39,3.46a42.81,42.81,0,0,0-5,5.73,34.75,34.75,0,0,0-3.64,7.42c-1,2.66-2.25,6.43-5.18,7.6s-6.18,1.14-9,2.63a12.86,12.86,0,0,0-5.6,6.5,13.7,13.7,0,0,0-.51,8.6,12.5,12.5,0,0,0,1.77,3.54c.92,1.32,2.53,2.85-.13,3a20.29,20.29,0,0,1-5.89-.29,6.32,6.32,0,0,0-4.56.21A16.74,16.74,0,0,0,13,73.3c.49,4.37,2.16,8.76,6.18,10.62,1.21.56,2.31,1.37,3.5,2a16.31,16.31,0,0,1,3.11,1.68c1.25,1.08.82,3.6.11,4.93-.93,1.75-11.28,5.3-12.34,6a31.43,31.43,0,0,0-2.9,2.23,32,32,0,0,0-5.5,6,56.91,56.91,0,0,0-3.91,6.42C0,115.65-.09,118.87.06,121.62c.14,2.57,1.48,4.9,2.82,7,.75,1.22,1.14,2.74,2,3.88A40.13,40.13,0,0,0,8,136.21a44.66,44.66,0,0,0,14.17,9.51,26.8,26.8,0,0,0,3.93,1.18,19.14,19.14,0,0,0,4.2,1c1.35.05,2.47.58,3.89.57,1.69,0,3.39,0,5.08,0a24.45,24.45,0,0,0,3.92,0c.69-.12,1.28-.47,2-.6.27,0,.59.11.86,0,.44-.1.48-.46.86-.54,1.25-.28,2.59-.28,3.83-.66s2.37-.85,3.56-1.19c2.34-.67,4.91-1.78,7.42-2.68,2.66-1,4.91-2.41,7.56-3.29s5.27-2.23,7.87-3.37c2.06-.91,5-2.9,7.11-1.9.82.39,2.19,1.33,2.17,2.39,0,3.65-3.7,6.73-3.37,10.37.58,6.62,10.31,2.88,13.92,1a31.86,31.86,0,0,0,4.65-2.4,42.14,42.14,0,0,1,5.16-2.8,63,63,0,0,0,8.46-5.61,22.6,22.6,0,0,0,3.6-3.36,10,10,0,0,1,2-1.45c.92-.68,1.15-1.62,1.93-2.35.59-.55,1.37-.89,2-1.52a8.47,8.47,0,0,1,2-1.56,13.77,13.77,0,0,1,3.58-1.58c.54-.15.78-.45,1.44-.52a10.8,10.8,0,0,0,1.7-.27c1.44-.39,2.44,0,3.93.29,1,.18,1.11,2.2,1.11,2.8a8.55,8.55,0,0,1-1,3.92c-2.56,5.93-5,12.61.41,18,1.54,1.53,5.11,3.64,7.3,3.35a23.65,23.65,0,0,0,4.44-1.26,47.63,47.63,0,0,0,7.25-2.94,19,19,0,0,0,4.83-3.39,29.8,29.8,0,0,0,3.21-3c1.49-2,2.86-4.16,4.92-5.64,1.86-1.34,5.06-2.44,6.66-.21.8,1.11.34,2.07.6,3.32a8.51,8.51,0,0,0,1.42,3.64c2,2.17,4.26,2.2,7,2.22a10.35,10.35,0,0,0,3.31-.53c2.62-.75,5.3-1.45,7.94-2.21,6.47-1.86,12.54-4.26,18-8.31a22.92,22.92,0,0,0,5.34-5.89c1.06-1.67,2.58-3.85,3-5.74C223.35,122.09,224.82,114.9,218.1,116.56Z"/></g></g></svg>