<svg xmlns="http://www.w3.org/2000/svg" viewBox="0 0 153.26 157.23"><defs><style>.cls-1{fill:#e3e3f7;}</style></defs><g id="Layer_2" data-name="Layer 2"><g id="Layer_1-2" data-name="Layer 1"><path class="cls-1" d="M153.26,154.57a2,2,0,0,1-1.28,2c-.44.16-1.27.13-1.72.24a5.39,5.39,0,0,1-1.69.28h-3.38a37.33,37.33,0,0,1-5.07,0,36.32,36.32,0,0,0-5.36-.59c-4.26,0-8.56.12-12.82,0-1.5,0-2.88-.51-4.36-.61-1.28-.09-2.62,0-3.9,0-2.27,0-4.55.06-6.81,0a18.81,18.81,0,0,1-5.92-1.21c-1.89-.66-3.79-.94-5.71-1.45-2.1-.56-4.09-1.51-6.17-2.17s-4.29-1.14-6.37-1.89c-2.42-.88-4.39-2.54-6.69-3.64-1.4-.68-2.91-1.08-4.3-1.78-2.74-1.38-5.42-2.9-8.15-4.29s-5.87-2.81-8.84-4a23.41,23.41,0,0,1-3.26-2.13,20.41,20.41,0,0,0-4-1.53,37.1,37.1,0,0,1-5.69-2.36c-1.79-1-3.76-1.58-5.51-2.62a31.89,31.89,0,0,1-8.75-7,42.14,42.14,0,0,1-4.19-6.71c-1.11-2-2.85-3.53-4-5.63-1.95-3.72-4.09-7.32-5.22-11.4C13,92.27,12,88.44,10.75,84.6s-3-8-4-12.12c-.64-2.8-1.48-6.14-3-8.55-1.23-2-3-4.4-3.35-6.76-.14-.82,0-1.48-.27-2.32a3.54,3.54,0,0,1,0-2.23c.31-1.3.66-2.71.87-4.07C1.4,46.19,2.86,43,5,41.67a12.1,12.1,0,0,1,3.34-1,8.41,8.41,0,0,1,4.54.32c2.62.7,5.08-.46,7.61-.44a19.06,19.06,0,0,0,7.27-1.2A45.17,45.17,0,0,1,35,36.6a27.29,27.29,0,0,1,5.39-.55c2.46-.07,4.81-.59,7.32-.58,4.47,0,8.28-1.07,12.53-2.39A85.69,85.69,0,0,0,81.84,22.73c2.29-1.51,4.88-2.56,7.25-3.93,2.64-1.53,5.2-2.44,7.62-4.4,2-1.64,4.73-3.54,5.82-6a55,55,0,0,1,2.92-4.75C105.86,3,107-.24,108.13,0s.46,3.47.46,4.32V39.5c0,6.36,0,12.72,0,19.08A97.27,97.27,0,0,0,111,78.52c.83,4,1.76,8,2.81,12,.37,1.41,1.11,2.6,1.58,4s.85,2.84,1.4,4.24c1,2.51,1.86,5.09,2.82,7.63a45.34,45.34,0,0,0,3.61,7.29c.59,1,1.48,1.69,2,2.71a20.18,20.18,0,0,0,2,3,36.62,36.62,0,0,1,3.49,5.14,36.37,36.37,0,0,0,3.25,4.76,135.37,135.37,0,0,0,9.74,11.72c2.74,2.75,6.33,5.57,8.32,9A10,10,0,0,1,153.26,154.57Z"/></g></g></svg>