<svg xmlns="http://www.w3.org/2000/svg" viewBox="0 0 292.58 160.14"><defs><style>.cls-1{fill:#af2222;}</style></defs><g id="Layer_2" data-name="Layer 2"><g id="Layer_1-2" data-name="Layer 1"><path class="cls-1" d="M7.93,160.14c-.83-1.61.4-1.54,1.42-2,3.63-1.81,6.8-4.09,6.93-8.76.06-1.87-.49-2.56-2.56-2.65-2.39-.1-1.3,1.05-1.62,2.24-.48,1.81-.25,4.37-3.31,5-2.19.42-1.51-.22-1.72-1.63-.12-.83-2.55-2.09-3.66-1.85C.78,151,.58,149.32,0,147.56c1.63,1.37,3.63.26,5.48,1.24,1.34.71,4,2,3.8-2.39-.1-2.06,4.11-2.66,6.69-3,1-.14,4.46-1.87,5-3.07,2.25-4.87,2.25-4.87,1.8-9l-.16.15c5,1,4.18-1.14,2.43-4.24-.53-1-.37-3.32.3-3.74,4.24-2.73,5.53-7.42,8.17-11.2,1.66-2.37,4.88-1.23,7.25-1.43a86.06,86.06,0,0,1,15.13.42c4.68.45,7.27-1.67,10.21-5.12s3.79-7.92,7.18-10.85C77,92.09,81.66,90,86,90.44c8.22.78,13.43-5.11,20.2-7.34.66-.22,1.55-1.16,1.54-1.76-.09-8.1,7.3-7.52,11.82-10,2.93-1.64,6.32-2.24,9.64-.14,2.23,1.41,4.24.87,5.51-1.6,1.55-3,4.9-1.75,6.94-2,6.67-.84,12.62-3.72,19-5.23,3.72-.89,7.25-2.91,6.81-6.31s-5.25-3-8.23-3.66c-2.2-.47-4.57-.27-6.46-1.73-2.58-2-2.26-3.84.46-5.48a13.87,13.87,0,0,1,7.88-1.94,116.18,116.18,0,0,0,25.93-2.06c2.06-.4,4.83-.31,5.23-3.72.1-.88,1.65-2.76,3-2.1,4.25,2.12,8.27-1.07,12.45-.19,1.21.25,3.19,1,3.95-.77.84-1.92-.35-3.41-1.85-4.67-.88-.74-1.51-1.81-2.92-1.39l-.8-.71c-.51-2.65-2.63-1.44-3.68-1.08s-3,.51-3.2,2.32c-.26,3-1.7,4.28-4.19,4.11-3.82-.25-7.18-3-11.55-.95-2.77,1.28-6.48-3.92-5.94-7.12,1.45-8.49,6.82-12.8,14.81-14.5,1.49-.32,3.07-.41,4.12.8,4.71,5.4,10.95,6.26,17.59,6.45,1.74.05.29,1.28,0,2l-5.23,1.46c2.91-.09,4.63,1,6-.75.64,2.31.61,2-1.53,2.26a3.56,3.56,0,0,0-3.11,1.92c3.53,1.68,3.46,5,3.52,8.15.12,5.94-5.64,5.68-9.12,8.41,1.16.75.76,4,3.92,1.52.73-.56,3.67,1.07,5.46.59,1.23-.32.31,3.43,1.72.75.69-1.33,4.21-1.07,2-4.15-1.59-2.28-2.5-4.94,1.89-6.08,1.55-.4,2.37-.08,2.82.8,2.5,4.85,5.25,2.26,8,.45.9-.59,1.35-2,3.07-1.51.82,3.33-5.05,2.6-3.92,6.31.45,1.5-2.05,3.71-.53,4.94,1.78,1.43,4.86,1.18,6.66.29a16.21,16.21,0,0,0,6.38-5.56c.71-1.08.75-1.88-.27-2.44-1.4-.78-1.7-.13-1.6,1.34.11,1.72-1.38.77-2.11.86a2,2,0,0,1-2.33-2c.19-3.06-2.37-6.25.55-9.21,1-1.06-.25-3,1.14-4.15l.91-1.35c-.83-.38-1.46-.27-1.76.69l-5.34,2.05a1.48,1.48,0,0,1,.78-2.62c3.6.12,7-4.39,9.6-2.27,2.19,1.79-1.72,5.33-2,8.38-.19,1.89-1.58,3.63-.58,5.91,2.3-2,5.21-.76,7.85-1.07s.13,2.75,1.06,4.35c3.25-2.07,7.38-.54,9.46.71,5.21,3.13,7.3-2,10.88-2.65a1.6,1.6,0,0,0,.88-2.73c-.47-.59-1-1.57.26-1.48.55,0,2.52.21,2.11,1.46-1.82,5.59,3.6,4.25,5.7,5.94.83.67,2.2.83,2.32,2.12.16,1.77-1.27.83-2.05,1a1.08,1.08,0,0,0-.81,1.52c.81,2.08,3.1,3.91.9,6.41,1.4.8,1.6,1.24-.12,2.14-1.14.59-3.8,1.29-1,3.8,1,.86-1.65,2.37-2.87,2.49-2.48.24-1.83-1.87-1.84-3.34,1-.29,1.07-.93.71-1.75l-1.34.88c-.81.79-2.59,1.93-2.06,2.47,2.35,2.44,2.87,3.89-1.11,4.81-.58.14-.52,1.87.34,2.57,1.26,1,3.73,2.75,4,2.15,1.39-2.67,2.7-.48,3.53-.06a7.88,7.88,0,0,0,6.62.44c4.39-1.66,7.84.38,9.58,3.68,1.37,2.58-.9,5.8-3.47,7.16-6.92,3.63-11.77,10.67-20,12.12-1.45.25-3.07.74-4.37.35-6.83-2.06-11.77,1.17-16.43,5.44-3.11,2.85-5.6,6.38-9.8,8-1.33.52-2.32,1.68-1.73,4.24.94,4.07-.89,8.26-3.49,11.62a92.27,92.27,0,0,1-8.87,9.87,14.75,14.75,0,0,0-4.31,7.69c6.08-.39,8.71,3.38,11.73,7.85,2.17,3.19,1.63,7.48,5.11,10.11.91.69-1.8,3.37-2.77,5.18H64.9c-.68-2.31-2.74-2.48-4.29-1.89-2.73,1-5.23.34-7.82-.11,0-1.25.49-2.53-.31-3.73-1.58,1.79-1.53,1.74-3.06.08a2.31,2.31,0,0,0-1.74-.32c-1.93.28-4.78-1.35-5.09,2.52-.05.63-1.21.58-1.63-.5-1-2.51-1.52-2.75-3.46-1a8.36,8.36,0,0,1-4.7,2.09c-4.71.76-7.32-3-11-4.43-.25-1.07,1.07-2.74-1.62-2.77-3.43,0-1.67,2.46-3.22,4.09l4.95-1.38c-3.38,1.35-.65,6-4,7.37ZM247.87,62.28,254,62c-4.73-2.35-4.73-2.35-7.19.36l.35.72Zm4.88,7.87c-.62,3.73,1.13,4.49,4,4.07a7.71,7.71,0,0,1,5.61,1.19c-3.23,4,1.49,2.22,2.4,3.14.73.73,1.84,3,2.87.88s3.27-3.87,2.46-6.25-2.44,0-3.72,0c-3.57,0-7.6.26-10-2.35-1.93-2.09,3-2.87,2.65-5.64-3.39.16-5.41,3.21-8.5,4.09a5,5,0,0,0-3.54,4.31c0,.5,1.15,1.46,1.76,1.45C251.51,75,250.11,71.72,252.75,70.15Zm7.17-27.45c-2.68,1.45-5.72,4.13-4.83,4.73,3.18,2.17.78,3-.3,4.28-.52.61-1.44,1.27-.77,2a3.89,3.89,0,0,0,2.55,1.1c.38,0,1.24-1.3,1.14-1.88C257.11,49.51,258.86,46.53,259.92,42.7Zm-42.54,4.61c-3,.4-4.3-3.81-6.93-1a3.6,3.6,0,0,0,.07,2.91C212.6,49.76,214.71,49.59,217.38,47.31Zm45.58,16c-1.36.14-2.16-.6-3,.35-.11.13,0,.68.08.71C261,64.67,261.72,64.26,263,63.31ZM238.13,36.19c-.15-.35-.18-.73-.35-.8-.56-.25-.85.14-.89.62,0,.26.22.53.34.79Zm8.08,24.44-.73-1.21c-.21.22-.62.48-.58.64a4.33,4.33,0,0,0,.59,1.15ZM16.45,154.16c-.1.1-.3.21-.28.29a3.22,3.22,0,0,0,.25.62c.1-.1.3-.22.28-.3A2.45,2.45,0,0,0,16.45,154.16Z"/><path class="cls-1" d="M253.86,19.14a4.14,4.14,0,0,1,3.88,3.17c.93,2.79,2.35,5.44,4,6.6-2.67.62-4.55.3-6-2.33-1.71-3.11-7.93-3.16-9.94-.4A23.78,23.78,0,0,1,241.12,31c.47-4.11,2.13-7.5,5.66-9.81,1.81-1.19,3.07.3,4.62.78,1,.31,2.15,2.44,3.23.56.67-1.16-1.11-1.8-1.62-2.78Z"/><path class="cls-1" d="M124.79,64.27a5.79,5.79,0,0,0,.66,2.76c-3.32-1.81-5.14-4.39-4.46-8.33,1-.37,1.68,1.15,1.94.93,4.28-3.6,4,3.2,6.72,2.91-.38,1.05,1.78,1.64.45,2.92-1.77,1.7-1.94,0-2.66-1-.43-.59-1.3-.85-2-1.27-.23-.67-.86-1.14-1.32-.64S123.82,64,124.79,64.27Z"/><path class="cls-1" d="M252.52,7.27c.91,4.57-7.34,5.08-4.67,8.82.11-.77-7.36-3.16.73-5.26C250.22,10.4,249.68,7.27,252.52,7.27Z"/><path class="cls-1" d="M265.86,28.14c.89-1.52,3.24,0,4-2.07.56-1.49,1.82-1,2.84-.37a2.88,2.88,0,0,1,1,3.58c-.7,2.17-1.72.18-2.61,0-2-.47-4.29,2.72-6.08-.48Z"/><path class="cls-1" d="M220.16,12.29c-2.82-3.2.76-5.93.11-8.92,0,0,.8-.22,1.23-.34-.26,1.47,2.19,2.56.89,3.93C220.92,8.49,220.62,10.29,220.16,12.29Z"/><path class="cls-1" d="M226.66,10.56c-1,1.46-2.08,3-3.75,3.55-1.06.37-1.29-.88-1-1.6.56-1.6.86-3.61,2.72-4.17C226.23,7.85,225.52,10.13,226.66,10.56Z"/><path class="cls-1" d="M25.89,120.34c-.47,1-1.27,2.27-2.38,1.62-.83-.49-2.68-.35-2.46-1.79a3.23,3.23,0,0,1,2.86-2.79C24.56,117.38,25.2,119.25,25.89,120.34Z"/><path class="cls-1" d="M22.79,131.28c-2.3-1-3.34,1.51-5.14,1.93-1.29-4.85,3.52-3.24,5.21-4.91.66-.65,1.16.2-.22,3.13Z"/><path class="cls-1" d="M206.89,28.3c-1.55.86-3,3.45-4.87.37,1.23-1,3,.18,4.07-1.08Z"/><path class="cls-1" d="M253,19.79c-1.59,0-3.17,0-4.14-1.74,1.61.74,3.61-.66,5,1.09Z"/><path class="cls-1" d="M223.2,0c.26.71.62,1.23.48,1.45a3,3,0,0,1-1.31,1.13.61.61,0,0,1-.49-1C222.22,1.13,222.63.69,223.2,0Z"/><path class="cls-1" d="M265,28.78l-.88-1.35c.82-.36,1.46-.25,1.75.71Z"/><path class="cls-1" d="M52.94,158.05c.68.58.67,1.14,0,1.69C52.68,159.17,51.23,158.58,52.94,158.05Z"/></g></g></svg>