<svg xmlns="http://www.w3.org/2000/svg" viewBox="0 0 111.76 155.05"><defs><style>.cls-1{fill:#e3e3f7;}</style></defs><g id="Layer_2" data-name="Layer 2"><g id="Layer_1-2" data-name="Layer 1"><path class="cls-1" d="M107.15,102.1a4.78,4.78,0,0,1-1.45,4.05c-3.59.78-5.81,2.48-4.44,6.59,2.73,11.77-7.86,13.62-13.12,20-6.06,7.37-6.7,17.23-18.88,7.71-2.77-2.17-7.1-.71-7.35,4.42-.31,6.21-3.14,11.81-9.58,9.7-6.95-2.28-13.64-7.91-11.53-16.66,2.25-9.29,6.47-18.09,9.69-27.16,3.68-10.36,16.11-6.16,20.9-12.29,2.68-3.44-10.82-14.74,6.36-15.19,2.66-.06,5-9.14-4.5-10.28-9.76-1.16-24.4,1.71-27.51-8.28C41.12,49.91,30.05,59,24,57.41c-10-2.57-3.54-18-18.7-16-11.63,1.51,5-13.31-3.4-19.8-3.22-2.49-2.45-9.43,4-9.93,3.48-.27,8.9-9.06,11.69,2.37,1.44,5.9,9.11,6,13.38.74,4-4.92,6.74-12.65,7.65,1.25.11,1.72,4.73-.55,5.84-3.07C46.58,8,47,1.91,53.33,0c8.28,5,6.4,14.58,9.64,22.14,8.1-2.91,3.31-14.41,13.31-16.9C84.63,21,104.67,27,111.76,45.13l-.48,13.92c-4.15,1.7-5.52,6.5-10.41,8-9.49,2.94-3.46,7.55-.26,11.52C105.54,85.65,112,92.3,107.15,102.1Z"/></g></g></svg>