<svg xmlns="http://www.w3.org/2000/svg" viewBox="0 0 212.57 162.1"><defs><style>.cls-1{fill:#e3e3f7;}</style></defs><g id="Layer_2" data-name="Layer 2"><g id="Layer_1-2" data-name="Layer 1"><path class="cls-1" d="M134.46,89.35c7.95-4.39,16.08-8.5,23.77-13.3,3.16-2,5.69-5.94,9.29-1.76a8,8,0,0,1,.18,10.49c-4.83,5.47-8.94,11.63-17.16,13.58-12.06,2.87-11.45,10.1-3.85,17.54,7.92,7.76,12.05,18.88,29.34,10,18.24-9.39,25.4,12.36,36.54,23.32-24.62-16.72-43.44,1.71-63.85,8.51-2.31.77-6.06,2.87-6.7,2.16-15.32-17.11-38.61-1.87-55.81-14.27-8.29-6-19.59-9.06-25.71,8.43-4.38,12.54-20.7,7.5-29.82,4.35-9.45-3.26-4.16-11.32,1.41-17.77,6.91-8,0-21.05,9.2-29.53,1-.91-4.24-14.91-14.88-8.34-2.6,1.61-5,4.67-8,1.22-2.77-3.2-2.93-7.69-.33-10.42,20.16-21.22,2.24-17.71-11-17.3C6.48,72,3.83,69.68,0,68.38c.09-1.3.19-2.6.28-3.89,5.09-2.77,13.81,2.6,15.82-7.06,2-2.31,1.87-4.83.74-7.44,2.2-2.8,2.38-5.57-.16-8.28C18.37,35.47,18.34,29.9,11,27.14q.9-5.4,1.81-10.8C22.86,11.91,27-3.19,41.52.61l3.11,15.08C50.17,33.17,58.88,49.06,69,64.23c.22,4.13,2.6,6.56,6.51,6.68,3.42.11,5-2.32,5-5.74A2.76,2.76,0,0,0,82.8,63c10.54-1.31,22.58,6.31,31.4-5.25l-.8-.64.77.69c3.24-.2,5.29-2.09,6.75-4.79l26.57.17q-.53,5.4-1,10.8c-8.4,5.7-15.7,12.5-21.15,21.15l-1.48.69c-13-1.14-20.88,13.11-34.26,11.29-5.32-.72-10,1.21-11,7.34-.64,3.72-.3,7.62,3,10.12,4.43,3.3,9.2,3.14,13.79.19,10.18-6.54,19.92-13.76,33.47-9.87,3.34,1,4.74-2.94,3.24-6.48C132.87,95.38,133.66,92.37,134.46,89.35Zm-.43,35c-.62-7.16-5.29-9.37-11.58-9s-11.83,4.7-11.21,9.88c.74,6.26,7.11,9.5,14.12,9C131.49,133.75,134,130.13,134,124.3Z"/></g></g></svg>