<svg xmlns="http://www.w3.org/2000/svg" viewBox="0 0 164.8 136.7"><defs><style>.cls-1{fill:#e3e3f7;}</style></defs><g id="Layer_2" data-name="Layer 2"><g id="Layer_1-2" data-name="Layer 1"><path class="cls-1" d="M127,3.25c-6.59,2.06-14.43,2-17.61,10.11,6.2,6,12.22-.18,18.24.05l8.47,3.51c-6,2-13.25,1.51-18.43,11.34,17-2.51,31.83.22,47.17,3-3.82,5.39-8.82,5.19-13.27,5C127.07,35.2,112,46.64,105.67,69.65c15.9,15.76,35.15,18.87,57.25,17.11l-26.24,13.51c-6.17,1.7-10.38,5.89-14,10.92-2.06,3.76-4.68,7.33-6,11.33-1.55,4.6,2.42,3.65,5,3.75q9.79,4.33,1,10.43c-19.1-11.06-41.43-12.54-61.52-20.66-11-4.44-23.11-7-30.94-16.69,1.66-7.61,8.26-9.06,12.69-12.74s11.81-5.43,9.21-13.31c-2.48-7.48-7.46-13.42-15.91-13.88-7.34-.39-15.19-2.78-22,2-4.23,3-8.39,2.41-14.24.79C13.8,41.62,30.57,25.3,52.76,15c4-1.85,8.85-3.64,13-3.07C82.34,14.19,96.28,7.81,110,0,115.44,2.12,122.22-2.61,127,3.25Z"/></g></g></svg>