<svg xmlns="http://www.w3.org/2000/svg" viewBox="0 0 146.94 83.6"><defs><style>.cls-1{fill:#e3e3f7;}</style></defs><g id="Layer_2" data-name="Layer 2"><g id="Layer_1-2" data-name="Layer 1"><path class="cls-1" d="M0,68.45c.71-2.09,2.88-3.16,4.27-4.76,1.09-1.25,2.7-2.78,3.22-4.33A16.83,16.83,0,0,1,10.16,54c1.88-2.55,2.52-1,5-.7,4.35.54,8,1.82,12.33,1.87a19.43,19.43,0,0,0,5.69-1.13,10.25,10.25,0,0,0,5.49-4.76c1-2.3,1.33-11.09,4.87-11,.9,0,3.92,2.84,5,3.41A21.59,21.59,0,0,0,53.77,44a8.65,8.65,0,0,0,3,.73c1,0,1.89,0,2.84,0,2,0,4.71-.5,6.68-.05,4,.92,4.87,6.49,8.24,7.53,2.28-3.45,6-7,5.91-11.27a34.62,34.62,0,0,0,0-3.81c-.17-1.31-.74-1.62-1-2.77a13.15,13.15,0,0,1,0-3.86c.29-2,.06-1.2,1.68-2.1s3.56-1.49,4.73-2.8a15.85,15.85,0,0,0,1.94-2.86c.43-1.23-.15-2.42.14-3.63s.82-1.5,1-2.77c.23-1.5-.53-2-.75-3.07-.51-2.39.26-5-.16-7.37-.21-1.16-2.82-7.06.95-5.77,2.08.72,1.59,4.91,2.05,6.72a28.3,28.3,0,0,1,.73,7.57,11.63,11.63,0,0,0,1.61,6.86,9.63,9.63,0,0,0,5,3.61,6,6,0,0,0,5.95-1.68,13.83,13.83,0,0,0,3.81-5.73c.54-1.3,1.57-3.64,2.63-4.61-.32,2.09,1.75,5.33,2.55,7.24A10.36,10.36,0,0,0,118.81,26c2.61,1.13,5,1.67,7.61,2.61,1.39.5,2.83,1.23,4.26.89,1.69-.39,2.9-2.71,4.57-2.57-.12,1.73,1.07,1.72,2.09,2.72.77.76,1.34,1.81,2.1,2.63,1.05,1.14,2.21,2.22,3.32,3.31,3.33,3.28,3.65,8,3,12.52a39.67,39.67,0,0,0-.89,4.34c-.06,1.55,0,3.13,0,4.67,0,3.62-.17,7.29,0,10.91.12,2.46.82,4.57.94,7.1.07,1.47.71,2.34,1,3.74s-.07,3.12-.05,4.52c0-2.09-13.3.26-16.1.26-2.52,0-10.72-1.89-13.24-1.89-5.27,0-10.28.71-15.5,1-11.73.64-23.68,0-35.44,0-5.12,0-10.25,0-15.37,0-3.38,0-6.39-.67-9.67-.94a62.92,62.92,0,0,1-11.94-1.9,16.53,16.53,0,0,0-3.95-1,12.66,12.66,0,0,1-3.06-.71,83.53,83.53,0,0,1-8.31-2.31c-2.76-1-4.81-3-7.57-3.81S.9,69.77,0,68.45Z"/></g></g></svg>