<svg xmlns="http://www.w3.org/2000/svg" viewBox="0 0 127.24 155.46"><defs><style>.cls-1{fill:#e3e3f7;}</style></defs><g id="Layer_2" data-name="Layer 2"><g id="Layer_1-2" data-name="Layer 1"><path class="cls-1" d="M89,4.52A.94.94,0,0,1,88,4.11c1.19-2.3,5.9-2.62,8-3a26.25,26.25,0,0,1,4.49-.58h4.22c2.3,0,5.9.47,7.48,2.23a17.73,17.73,0,0,1,2,3.39c.67,1.26,1.33,2.32,1.89,3.61.82,1.89,2.15,3.42,3,5.37s1.75,4.06,2.6,6.11a27.26,27.26,0,0,1,2.27,7c.32,2.61.92,5.18,1.16,7.83.57,6.25,2.19,12.35,2.2,18.63,0,2.21,0,4.41,0,6.62a15.61,15.61,0,0,1-.87,5.62c-1.62,3.67-5,6.74-8.17,9.2-2.41,1.89-5,3.58-7,6-3,3.62-5.87,7.32-8.73,11C101.18,94.89,99.9,96,99.07,98a11.72,11.72,0,0,0-.56,4.91,24.65,24.65,0,0,0,1.28,6.49c.35,1.14,1.09,2,1.45,3.1.22.67.16,1.39.35,2.07.51,1.82,1.67,3.32,2.28,5.07.72,2.07,1.59,3.93,2.41,5.94a25.07,25.07,0,0,1,1.82,11,15.44,15.44,0,0,1-.85,4.21,4.39,4.39,0,0,1-2,2.66c-2.44,1.42-5.12,1.95-7.89,2.89a85.55,85.55,0,0,0-9,3.59c-3.82,1.8-7.65,3.44-11.84,3.82-1.93.17-3.72.91-5.63,1.14-1,.11-2-.07-2.94,0a18.9,18.9,0,0,0-2.93.52c-1.53.28-2.66-.26-4-.57-1.82-.4-3.45-.72-5.25-1.21-2.32-.63-4.67-.74-6.82-1.7s-4.29-1.58-6.38-2.37a129.79,129.79,0,0,1-12.83-6.25A37.27,37.27,0,0,1,26,141.37c-1.3-.86-2.94-1.35-4.15-2.25a17.88,17.88,0,0,0-2.2-1.86,22.78,22.78,0,0,1-2.25-1.4,42.3,42.3,0,0,0-4.22-2.68A21.12,21.12,0,0,1,6.57,128a51.19,51.19,0,0,1-4.92-6.9,11.84,11.84,0,0,1-1.06-2L0,117.35c0-.58.43-.73.57-1.31.17-.74-.16-1.51.08-2.28.83-2.74,2.87-4.84,4.23-7.32A83.42,83.42,0,0,1,11.5,97.1a57.19,57.19,0,0,0,4.71-6.66,45.87,45.87,0,0,0,3.47-6.52c.57-1.62,1.77-2.83,2.25-4.48.57-2,1.54-3.47,2.24-5.38.44-1.23,1.34-2,1.86-3.22.34-.76.63-1.64.91-2.42.51-1.4.71-2.78,1.19-4.19.79-2.31,1-4.59,2.24-6.8S33,52.9,34.3,50.7c2.24-3.71,5-7,7.22-10.71,1.79-3,3.42-6,5.19-9a67.17,67.17,0,0,1,3.94-6.09c1.17-1.54,2.55-2.69,3.59-4.34,1.69-2.65,3.5-5.14,5.44-7.61,1.69-2.16,3.44-4.22,5.05-6.46,2-2.77,4.88-4.2,7.89-5.51A12.77,12.77,0,0,1,81.34.57c2.56.69,5.36,1,7.61,2.26"/></g></g></svg>