<svg xmlns="http://www.w3.org/2000/svg" viewBox="0 0 114.15 129.42"><defs><style>.cls-1{fill:#ffd4b3;}</style></defs><g id="Layer_2" data-name="Layer 2"><g id="Layer_1-2" data-name="Layer 1"><path class="cls-1" d="M2.22,129.42c-2.89-5.16-3.64-10.08,2-14,3-2.11,7.63-4.49,5.47-8.19C4.29,98,8.27,91.61,13.93,84.93c1.68-2-1.73-17.52.44-23.73,4.65-13.34-3.92-24.77-2.3-37.4C13.27,14.43,17.66,7.25,22.29,0,29,1.68,26.24,5.8,26.15,9.06c-.6,23.21,9.43,46.77,30.28,56,7.75,3.43,14.6,4.18,19.12-3.8,6.67-11.76,19.74-14,29.4-21.18,3.67-2.73,5.74-.15,7.62,1.94,2.35,2.6,2.2,4.88-1.26,7.33C97.07,59.49,87.75,73.44,79.42,88.69c-6.29,11.52-18,18.16-30.17,22.93C33.69,117.71,18,123.47,2.22,129.42Z"/></g></g></svg>