<svg xmlns="http://www.w3.org/2000/svg" viewBox="0 0 287.05 137.81"><defs><style>.cls-1{fill:#e3e3f7;}</style></defs><g id="Layer_2" data-name="Layer 2"><g id="Layer_1-2" data-name="Layer 1"><path class="cls-1" d="M285.66,56.11a36.47,36.47,0,0,0-2.22,4.36c-.63,1.2-1.48,2.31-2.13,3.52s-1.68,2-2.28,3.21a20.88,20.88,0,0,1-1.22,2.85c-.57.84-1.36,1.6-2,2.39-2.94,3.57-5.68,7.31-8.62,10.87-3.57,4.31-7.68,8.16-11.4,12.4-2,2.31-4.42,4.36-6.53,6.62s-4.78,4.36-7.11,6.6c-3.61,3.48-7.68,6.28-11.14,10-1.84,2-3.88,3.77-5.65,5.8a33.27,33.27,0,0,1-4.47,4.49c-1,.81-2.19,1.54-3.23,2.37a7.45,7.45,0,0,0-1.56,1.46c-.4.52-.51,1.37-.94,1.82-1.66,1.75-5,2.08-7.18,2.63a23.23,23.23,0,0,1-5.72.29c-5.51-.05-11.07-1.2-16.51-1.69-2.63-.23-5.22-.87-7.87-1.12-3.82-.37-7.8-.93-11.56-1.68-9.33-1.85-18.58-4.37-27.95-6-3.59-.61-7.23-1.39-10.85-1.84-4.06-.51-8.24-.68-12.32-1.11-4.39-.48-8.9-.22-13.33-.54-4.65-.34-9.35-.61-14-.77-4.25-.14-8.39-.67-12.59-1.21-3.64-.47-7.17-.48-10.79-1.23a87.33,87.33,0,0,1-9.72-2c-2.59-.84-5.13-1.83-7.67-2.82-3.1-1.21-6.21-2.38-9.3-3.6-6.94-2.74-13.87-5.79-20.69-8.8C14,102,10.78,101.09,7.6,99.91a33.79,33.79,0,0,0-3.67-1.13c-1.1-.28-2-1-3.13-1.09C.56,97.05.44,96,.28,95.4a6,6,0,0,1-.16-2.74c.43-.85.88-.3,1.73-.61s1.87-1.18,2.69-1.59c5.07-2.59,10.22-4.8,15.34-7.32,2.44-1.21,5-2.65,7.32-4.07,2.62-1.62,5.33-3,8-4.54,3.46-1.91,6.86-4.49,10.39-6A29,29,0,0,0,48,71a10.91,10.91,0,0,1,2.37,2.53c.78,1,1.92,1.62,2.73,2.67.4.51.73,1.14,1.09,1.7a31.21,31.21,0,0,0,3.37,4,80.87,80.87,0,0,0,10,9.07,12.94,12.94,0,0,0,3.59,2.37c1.75.64,3.58.39,5.41.41s2.54-.52,4-1.53c1.92-1.32,4.2-2.4,6.25-3.53,3.08-1.71,5-5.56,6.76-8.5a24.34,24.34,0,0,1,2.08-2.79,4.53,4.53,0,0,1,3-1.11,16.52,16.52,0,0,1,6.76,1.14,17.6,17.6,0,0,1,5.38,3.37c1.2,1.14,3.32,2.76,3.67,4.51a10.84,10.84,0,0,1,0,3.41A21.76,21.76,0,0,1,113.19,91c-.52,1.16-.25,2.19-.54,3.4a19.62,19.62,0,0,0-.44,4.51,19.31,19.31,0,0,0,.56,3.63,7.65,7.65,0,0,0,1.35,3.42c1.31,1.73,3.49,1.77,5.26.69a15.77,15.77,0,0,0,4-3.29c.69-.87,1-1.9,1.65-2.83a35,35,0,0,1,3.5-4.46,7.61,7.61,0,0,1,5.65-2.82,25.81,25.81,0,0,1,2.78,0c.81.11,1.52.49,2.32.63.33,0,.76-.15,1.09-.07,2,.49,4.06.61,5.87,1.72,1.63,1,3.23,3.15,5,3.83a5.05,5.05,0,0,0,5.08-.87,4.86,4.86,0,0,0,1.55-4.08,18.53,18.53,0,0,0,0-3.41c-.14-.62-.86-1.2-1-1.79a22.24,22.24,0,0,1-.69-6.06c0-2.2-.3-4.31,1-6.23,1-1.41,2.36-2,3.81-2.72,2.27-1.12,3.57,0,5.92-.07,1.68,0,4.37.52,5.76-.4,3.18-2.11,1.18-7.54.29-10.17-.12-.35-.58-.86-.73-1.24s-.15-.87-.26-1.15a15,15,0,0,1-.7-2.24c-.46-2-2.09-3.44-3.48-4.78-1.23-1.19-3.48-3.26-5.17-3.62-2-.42-4.68-.05-6.74-.05-2.23,0-4.83.42-7,0a58.33,58.33,0,0,1-6.21-1.59,26.55,26.55,0,0,0-6.85-1.24c-2.88,0-5.73-1.08-8.63-1.15a24.74,24.74,0,0,1-6.5-1.11c-2.15-.64-4.42-.58-6.58-1.13a54.77,54.77,0,0,0-7.93-1.77,20.39,20.39,0,0,0-1-2.73,18.66,18.66,0,0,0-.68-2.26,51.72,51.72,0,0,1-2.27-5.63c-1.35-4.33-4.43-7.36-6.57-11.21a4.45,4.45,0,0,1-.22-4.43,21.35,21.35,0,0,1,3.15-4.66,31.16,31.16,0,0,1,8-6.73,22.84,22.84,0,0,1,9.29-3.4c3.16-.42,6.66.07,9.85,0a16.58,16.58,0,0,1,5.07,1c1.52.49,3,.71,4.5,1.27s3.06,1.17,4.5,1.81,3.29,1.16,4.8,1.89c3.35,1.65,6.49,3.61,9.86,5.18a42.24,42.24,0,0,1,7.85,4.76c4,3,8.28,5.46,12.4,8.29a50.88,50.88,0,0,0,5.22,3.41c1.6.84,3.07,1.68,4.77,2.39a50.61,50.61,0,0,1,8.07,3.83,32.84,32.84,0,0,0,6.74,3.35c1.52.52,2.4,1.41,3.8,2.14a19.91,19.91,0,0,0,2.65.94,57.15,57.15,0,0,1,8.36,3.14c2,1.09,4.44,1.36,6.56,2.21a22.42,22.42,0,0,0,3,1.16,23.84,23.84,0,0,1,3.67,1.11c2.39,1,4.84,1.55,7.28,2.39,2.22.77,4.5.81,6.64,1.62a41.64,41.64,0,0,0,5.07,1.11c1.65.4,3.24.77,4.91,1.06,4.2.72,8,2.26,12.27,2.27H276c3.54,0,7.6.56,11-.35.51,1-2.88,5.32-3.51,6.31q-1.89,3-3.93,5.89c-2.83,4-5.87,7.9-9.08,11.63a203,203,0,0,1-19,19.1c-12.76,11.35-26.55,21.49-39,33.13-2.82,2.62-8.61,4.39-12.23,3.46C134.85,120.07,64.81,127.1,2,97.81c-.82-.38-.8-2.57-1.81-6.26l45-24.36c4.8,5.24,9.49,10.58,14.42,15.69,14.28,14.85,21.79,13.42,38-7.06,8.32-2.5,12.7,3.67,17.86,8.13-.61,5.58-3,11.78-1.34,16.57,1.78,5.14,7.54,10.2,9.52-1.08,3.51-10.27,12.07-7.93,17.88-5,10.79,5.49,19.63,12.32,13.6-8.51-.85-2.91,3.4-7.23,5.12-11,3.16-6.91,18.51,6.16,14.08-6.36-1.84-5.19-3.91-21.81-22.54-18.59-14.28,2.46-30.48-6.18-45.83-9.88l-9.65-19.7C101.4-1.43,118.2-2.06,134.66,1.85,144,4.07,154.83,8.71,161.88,14c36,26.71,74.4,45.35,124.33,43.6"/></g></g></svg>