<svg xmlns="http://www.w3.org/2000/svg" viewBox="0 0 100.53 159.92"><defs><style>.cls-1{fill:#e3e3f7;}</style></defs><g id="Layer_2" data-name="Layer 2"><g id="Layer_1-2" data-name="Layer 1"><path class="cls-1" d="M95.21,9.31l-.42-.09c-.46-1.42.45-2.28.45-3.53,0-1.63-1.61-1.14-2.61-.51A3.44,3.44,0,0,0,90.81,7.5c-.21.71-.14,1.32-.29,2s-.49,1-.48,1.85a18.91,18.91,0,0,0,0,3.84c.11.48.42.73.48,1.32a14.62,14.62,0,0,0,.25,2.08,16.35,16.35,0,0,0,3.1,5.67c1.38,1.87,2.88,3.93,2.84,6.23,0,2.65.42,5.72-.61,8.16a26.82,26.82,0,0,1-1.91,3,20.54,20.54,0,0,1-2,2.88c-1.82,2.1-3.33,4.4-5.31,6.37s-4.44,3-6.47,4.91c-1.65,1.51-3,3.52-5.43,3.63-3,.14-4.85-1-4.66-4.15.16-2.69,1.9-5.12,3.74-7.1a30.41,30.41,0,0,0,4.55-6.55c1.19-2.26,2.79-4.35,1.81-7a15,15,0,0,0-1.69-2.6A11.14,11.14,0,0,0,76,29.11a20.64,20.64,0,0,0-4-2.62,11.67,11.67,0,0,0-1.33-.58c-.71-.18-1.44,0-2.16-.16a4.36,4.36,0,0,0-1.67-.4H65c-.69,0-1.39,0-2.08,0s-1.08.39-1.77.55-1.24-.13-1.84,0a12.31,12.31,0,0,0-2.07,1,8.28,8.28,0,0,1-4.14.52,2.1,2.1,0,0,1-2.21-1.67,8,8,0,0,1-.1-2c0-.85-.45-1.49-.55-2.32a18.73,18.73,0,0,1,0-3.89A2.72,2.72,0,0,1,50.73,16c.5-.58.68-.53,1.56-.51s3,.38,3.77-.37c.93-1,.21-2.69-.15-3.74-.55-1.61-.51-3.16-1.34-4.68a11.65,11.65,0,0,0-3.32-4.27C50,1.62,49.37.67,47.89.26,46.18-.22,45.1-.2,45,1.81a7.12,7.12,0,0,0,.54,3.35c.27.65.14.9.61,1.54a20.35,20.35,0,0,0,2,1.88c.66.68,2,2.21,1.44,3.22s-2.49.61-3.51.62a7,7,0,0,1-1.95-.12c-.59-.17-.89-.63-1.7-.43a7.84,7.84,0,0,0-1.26.54c-.8.38-1.12.43-1.32,1.56a19.36,19.36,0,0,0,0,3.88c.07,1.37.79,2.15,1.43,3.34A8.8,8.8,0,0,0,43.75,24c1,.86,1.61,2.36,2.63,3.09s2.77-.33,3.75.38a13.83,13.83,0,0,1,.63,1.44,2.27,2.27,0,0,1-.47,1.9c-.51.75-.26.47-1.1.84a19.11,19.11,0,0,1-2.07.78,7.42,7.42,0,0,0-3.65,2.2,14.46,14.46,0,0,0-3.6,9.45c0,1.53-.94,3.33-.54,4.79.37,1.29,1.89,1.66,1.6,3.34-.52,3-5,2.1-7.26,2.07a20,20,0,0,0-3.62.49,20.31,20.31,0,0,1-2.07.55c-1,.07-1.09-.3-1.85-.48-3.23-.77-6.3.84-8.51,3.05a10.92,10.92,0,0,0-3,4.79,22.28,22.28,0,0,1-1.27,4.53c-1.17,2.47-3,3.37-5.08,5.06A20.35,20.35,0,0,0,4.06,77c-.83,1.26-2.12,2.25-3,3.48C0,81.92.05,83.37.05,85.1v7.38c0,1.06-.1,2.19,0,3.24a24.14,24.14,0,0,0,.59,2.59,12.8,12.8,0,0,0,5.11,8.24v6.72c0,2.14-.38,3.91,1.16,5.56.95,1,2.73,1.49,3.4,2.69.9,1.59-.35,4.13-.44,5.71-.1,2,.11,3.8-.39,5.69a11.78,11.78,0,0,0-.11,2.85,17.58,17.58,0,0,1-.54,3.36,34.88,34.88,0,0,0,0,5.69c0,1.88-.11,3.81,0,5.69.06,1.05.39,2,.52,3.11a8.91,8.91,0,0,0,.53,2.06c.24.7,1.63,6,3,3.65.33-.54.08-2,.08-2.62a13.68,13.68,0,0,0,0-2.86,7.38,7.38,0,0,1-.54-2.31c0-1,0-2.07,0-3.1v-5.69c0-.86,0-1.72,0-2.59,0-1.31.54-2.3.52-3.62,0-.85-.06-1.73,0-2.58,0-1,.49-1.81.53-2.85a13.46,13.46,0,0,1,.11-2.84c.24-.92.58-1.89.81-2.7a16.73,16.73,0,0,1,.63-2.73,4.68,4.68,0,0,0,.54-2.87c-.35-1.5-1.9-2.71-3-3.73a5.9,5.9,0,0,1-2.19-5,16.68,16.68,0,0,1,.53-2.57c.12-1.16.48-1.89.57-3a12.32,12.32,0,0,1,4.61-.11,9.54,9.54,0,0,0,1.78.55,4.49,4.49,0,0,1,2.22.63,4.58,4.58,0,0,1,1,1,14.94,14.94,0,0,1,.58,1.75c.2,1.21.23,2.87,1.07,3.85.27.32,1.36,1.09,2,.43.31-.33.08-1.56.08-2a10.37,10.37,0,0,0-.64-4.66A17.81,17.81,0,0,0,22,103.94a10.36,10.36,0,0,0-2.7-2.19,24.43,24.43,0,0,0-3.12-1.54,11,11,0,0,0-1.68-.65c-.68-.16-1.38-.64-2-.8s-1.46.22-2.12,0-.91-.51-1.78-.55-1.4.22-2-.35a4.88,4.88,0,0,1-.77-1.82,24.53,24.53,0,0,1-.11-4.54,11.56,11.56,0,0,1,0-2.35,11.61,11.61,0,0,0,.54-2,25.29,25.29,0,0,1,1-3.6c.1-.42-.14-.91,0-1.34.06-.25.4-.45.43-.6a5.19,5.19,0,0,1,.77-2.37c1.56-2,3.91-3.37,5.43-5.38,1-1.39,1.7-2.65,2.85-3.92a3.67,3.67,0,0,1,1.38-1.17c1.21-.4,2.34.28,3.56-.45a5.79,5.79,0,0,1-.36,3.89A2.6,2.6,0,0,1,18.41,74a10.44,10.44,0,0,0-2,.05c-.3,0-.31.37-.61.43s-.91-.09-1.28,0c-1.36.4-1.8,2.5-2.16,3.65-.69,2.16-.19,6.76,3.24,5.59a7.6,7.6,0,0,0,1.51-1.06,14.55,14.55,0,0,1,2.12-.91,5.41,5.41,0,0,1,4.11-.11A6.56,6.56,0,0,1,26.41,83a20.78,20.78,0,0,1,2.8,3.15,51.43,51.43,0,0,1,3.4,4.33,17.39,17.39,0,0,0,3.24,4c.88.71,2.4.54,3.14,1.53s.37,3,.37,4.28a7.87,7.87,0,0,1-.53,3.6c-.51,1.14-.67,2.5-1.11,3.73a13.9,13.9,0,0,1-2.11,3.26c-1,1.32-1.68,2.76-2.61,4.12-.53.78-1.09,1.4-1.67,2.14-.93,1.18-1.21,2.82-2,4.11a35.67,35.67,0,0,0-5.84,14.36,36.82,36.82,0,0,0-.12,5.56c0,1.52-.15,3.29.62,4.66a3.49,3.49,0,0,0,3.51,1.41c2.23-.54,3.44-1,4.67-3,2.6-4.17,4-8.82,5.69-13.43a23.53,23.53,0,0,1,1.27-3.59c.67-1.24,1.56-2.33,2.23-3.56.86-1.59,2.16-2.76,3.09-4.27a37.63,37.63,0,0,0,2.08-3.61c.8-1.65.35-3.24.75-5a26.48,26.48,0,0,0,.39-5.43,18.58,18.58,0,0,1,.55-2.71,20,20,0,0,0,0-2.68,56.3,56.3,0,0,1,2.07-13.35c.42-1.75,1-3.49,1.42-5.15.76-2.83,2.26-4.93,3.78-7.41a4,4,0,0,1,2-2,19.48,19.48,0,0,0,2.33-1.92,19.54,19.54,0,0,1,4.91-2.48c1.89-.69,3.86-1.49,5.7-2.33,1.13-.51,3.78-2.75,5.11-2.12-.09.7-1.46,1.75-2,2.24-.86.75-1.68,1.28-2.57,2.06-1.3,1.15-2.75,2.24-4.15,3.26-.74.53-1.35,1.1-2.07,1.69s-1.64.72-2.28,1.3c-.37.34-.44.85-.76,1.25A9.21,9.21,0,0,1,60,76.13a13.05,13.05,0,0,0-2.6,3c-.33.46-.88.91-1.16,1.37a8.75,8.75,0,0,0-.77,2.21c-.73,3-1,6.18-1.77,9.27a20.64,20.64,0,0,0-1,3.26,25.93,25.93,0,0,1-.09,3.53,42.41,42.41,0,0,0-.89,5.78c-.12,1.27-1,2.83.46,3.8s3.15-1.64,3.92-2.64.87-2.37,1.28-3.56c.33-1,.74-1.9,1-2.87A16,16,0,0,0,59,94.16c0-6.09,3.79-9.23,8.43-12.45,1.17-.81,2.18-1.76,3.34-2.59a31.43,31.43,0,0,0,3-1.78c2.26-2,4.93-3.57,7.37-5.45a37.17,37.17,0,0,0,3.75-3.1c.83-.83,1.26-1.85,2-2.73.32-.37.77-.67,1.07-1a10.44,10.44,0,0,0,1-1.81A14.12,14.12,0,0,1,91.59,60c.15-1.38,2.63-3.32,3-4.66.33-1.18.45-2.41.73-3.62.43-1.86,1.75-3.85,2.6-5.56.94-1.88,2.2-4.25,2.47-6.32a60.71,60.71,0,0,0,0-7.51c0-2.51,0-4.45-1.43-6.48-1.07-1.54-2.8-2.58-3.87-4.11a4.5,4.5,0,0,1-.91-3.12c0-1.35.53-2.19.52-3.62a16.3,16.3,0,0,1,.11-3.5.75.75,0,0,0,.43-.61c0-.36,0-.72,0-1.07C95.33,8.79,94.35,10,95.21,9.31Z"/></g></g></svg>