<svg xmlns="http://www.w3.org/2000/svg" viewBox="0 0 139.91 142.53"><defs><style>.cls-1{fill:#ac2222;}</style></defs><g id="Layer_2" data-name="Layer 2"><g id="Layer_1-2" data-name="Layer 1"><path class="cls-1" d="M10.5,40.25C23.64,57,42.77,60.5,62.12,63.73c9.53,1.59,16.73-3,23.37-8.41,15.75-12.76,31-26.12,41.6-43.8,2.4-4,5.49-7.53,8.43-11.52,8.22,11.1,2.37,22.65,2.44,33.54.21,35.95-14.14,66.47-36.39,94.2-10.84,13.51-24.95,14.15-39.83,14.78-5,.22-8.8-2.94-9-6.59-1-24.37-21.09-35-35.72-48.93A85.11,85.11,0,0,1,2.51,69c1.28-7.59,9.21-7.36,15.43-10.89C12.56,55.42,8.75,54,5.41,51.77,2.74,50-.92,48,.21,44,1.75,38.56,7.08,41.63,10.5,40.25ZM78,132.71a6.89,6.89,0,0,0,6.06-4.48c8-21,23.62-36.85,36.76-54.39,2.37-3.17,4.81-6.82,5.46-10.55a11.87,11.87,0,0,0-3-9.15c-2.8-2.71-5.88-.15-8.59,2.17-4.57,3.9-9.75,7.1-14.26,11.06-16.64,14.61-13,39.31-27.2,55.32-1.37,1.54-.35,5.26,1.8,7.35C76,131,77.07,131.84,78,132.71Z"/></g></g></svg>