<svg xmlns="http://www.w3.org/2000/svg" viewBox="0 0 213.95 177.37"><defs><style>.cls-1{fill:#e3e3f7;}</style></defs><g id="Layer_2" data-name="Layer 2"><g id="Layer_1-2" data-name="Layer 1"><path class="cls-1" d="M60.12,137c1.5.94,2.49,1.49,3.83,1.23l.44-.11a44.26,44.26,0,0,1-4.86-1.48Z"/><path class="cls-1" d="M55.24,109.82a4,4,0,0,1,2.14,1.31,2.16,2.16,0,0,0,.92.67,4.53,4.53,0,0,0,1.67-.11,10.41,10.41,0,0,1,1.73-.19,4.37,4.37,0,0,1,.72.06,34.37,34.37,0,0,1,5.69,1.62c.93.32,1.82.63,2.63.87-.18-2.15-.5-4.27-.83-6.48-.09-.63-.18-1.26-.28-1.89a31.47,31.47,0,0,0-2.89-3.33l-.45-.46c-1.4-1.44-2.73-2.8-4.52-3.37A5.89,5.89,0,0,0,60,98.39a7.53,7.53,0,0,1-2.4-.2,5.4,5.4,0,0,1-2.08-1.28,2.25,2.25,0,0,0-.88-.6c-5.72-1-10.86.39-17,2.37A29.67,29.67,0,0,1,32,99.77c-3.5.42-5.68.68-6.94,4a21.46,21.46,0,0,0,4.23-.62c.54-.14,1.12-.3,1.73-.48,4.42-1.26,10.47-3,14.38.66a17.56,17.56,0,0,1,4.16,6.29A22.85,22.85,0,0,1,55.24,109.82Z"/><path class="cls-1" d="M50.68,132.71a8.71,8.71,0,0,0,.74,1c.33.14.66.27,1,.39a17,17,0,0,0,2.36.66l.5.12c-1.25-.56-2.55-1.17-3.91-1.85Z"/><path class="cls-1" d="M70.77,120c.07-1,.14-2,.13-2.9V117l-.45-.13c-1-.28-2.1-.65-3.24-1A33.8,33.8,0,0,0,62,114.3a5.66,5.66,0,0,0-1.56.14,6.72,6.72,0,0,1-2.8.06,4.68,4.68,0,0,1-2.22-1.4,2,2,0,0,0-.7-.55,18.92,18.92,0,0,0-4.22-.23,30.21,30.21,0,0,1,1,8.15,9.49,9.49,0,0,1,1.14-.3,13.63,13.63,0,0,1,2.77-.27c6.2,0,13.92,3.55,15.72,8.88a9.46,9.46,0,0,1-.38,6.66,24.11,24.11,0,0,0,1.72-3.9c-.9-2.56-1.67-6-1.68-6.08A23.53,23.53,0,0,1,70.77,120Z"/><path class="cls-1" d="M53.23,122.89a6.73,6.73,0,0,0-1.87.66,26,26,0,0,1-1.25,5.75l2.5,1.27c6.63,3.31,11.39,4.8,14.8,5.25a5.72,5.72,0,0,0,.37-.58,7,7,0,0,0,.75-5.56C66.93,125,58.42,121.81,53.23,122.89Z"/><path class="cls-1" d="M28.28,107a32.8,32.8,0,0,1,5.72.53,26.81,26.81,0,0,1,3.57,1.1,18.84,18.84,0,0,0,3.74,1.09,24.2,24.2,0,0,0,5.33.08,14.31,14.31,0,0,0-3.11-4.46c-2.77-2.57-7.73-1.15-11.72,0-.64.18-1.24.35-1.8.49a25.44,25.44,0,0,1-5.87.75l-.05.15A41.87,41.87,0,0,0,28.28,107Z"/><path class="cls-1" d="M18.15,103.65h0c1.31.06,2.64.12,4,.14l.13-.39C24,97.93,27.92,97.46,31.69,97a26.67,26.67,0,0,0,5.11-1c6.49-2.09,12-3.61,18.31-2.46a4.62,4.62,0,0,1,2.22,1.25,3.2,3.2,0,0,0,1.05.71,5.58,5.58,0,0,0,1.54.08,8,8,0,0,1,2.7.26c2.45.79,4.08,2.46,5.66,4.08l.44.44.33.34c-.11-1.31-.18-2.66-.18-4,0-.78,0-1.57,0-2.35-1.23-5.38-.62-12.09.4-17.44.09-1.72.21-3.46.35-5.19-14-.75-29.77-.85-40.3,6.43-2.21,1.53-3,3-4.26,5.56l-.27.53a16.58,16.58,0,0,1-3,4.11,16.78,16.78,0,0,0-1.94,2.31c-2.22,3.3-4.1,8-2.69,11.22A9,9,0,0,0,18.15,103.65Z"/><path class="cls-1" d="M40.88,112.46a22,22,0,0,1-4.26-1.22,22.38,22.38,0,0,0-3.2-1,29.39,29.39,0,0,0-5.23-.47,42.14,42.14,0,0,1-4.86-.36c-.74,3.24-.19,5.34,3.74,7.4,3.72,1.94,7.45,4,11,6,2.72,1.51,5.5,3,8.3,4.55A7,7,0,0,1,48.71,122a27.73,27.73,0,0,0-1.05-9.52A30.15,30.15,0,0,1,40.88,112.46Z"/><path class="cls-1" d="M74.19,134.82a3.3,3.3,0,0,0,.3-.22l-.16-.1A3.09,3.09,0,0,1,74.19,134.82Z"/><path class="cls-1" d="M25.79,119.27c-5.58-2.91-6.07-6.47-5.15-10.52a9.7,9.7,0,0,1-3.83-2.38c-1.52-.07-3-.11-4.39-.08-.69,0-1.29,0-1.82,0a5.78,5.78,0,0,0-1.61.06,3.73,3.73,0,0,0-.21,1.55c0,1.42,1.93,4.53,3.32,5.65a7.17,7.17,0,0,0,2.08.88A9.78,9.78,0,0,1,17.47,116a8.49,8.49,0,0,1,1.67,2.13,6,6,0,0,0,1.18,1.57,19.72,19.72,0,0,0,5.25,2.51c1.14.42,2.22.83,3.17,1.29,2.06,1,4.11,1.82,6.09,2.6,1.54.61,3.13,1.24,4.71,2s3.45,1.66,5.12,2.51l1.47.75c.14-.22.27-.46.4-.71-3.3-1.75-6.57-3.56-9.76-5.33C33.18,123.25,29.47,121.2,25.79,119.27Z"/><path class="cls-1" d="M184.12,137.64c-.21-1-.41-2-.61-3.06a43.88,43.88,0,0,0-10,2.9l-1.83.68a42.41,42.41,0,0,0-13.33,8.39c-2.8,2.53-2.8,2.53-2,5.16,1.42,4.8,9.64,3.1,12.13,2.46,3.85-1,9.07-3.12,16.82-10.24l-.45-2.45C184.62,140.23,184.39,138.93,184.12,137.64Z"/><path class="cls-1" d="M73.67,118c0,.72-.07,1.46-.12,2.18a21.76,21.76,0,0,0,0,4.78c0,.29.23,1,.46,1.88l0-.05c1-3.13.52-5.72-.12-8.66Z"/><path class="cls-1" d="M188.33,145c1.13,5.26,2.85,9.43,8.41,12.1,2.57,1.23,8.16,2.35,11.08,1.31a2.25,2.25,0,0,0,1.41-1.1c1.75-3.73-1-6.45-5-9.88a29.15,29.15,0,0,1-3.18-3,46.78,46.78,0,0,0-6.19-6.25C192.81,140.43,190.63,142.75,188.33,145Z"/><path class="cls-1" d="M188.72,134.85a13,13,0,0,0-2.4-.36c.18.87.35,1.73.53,2.59.27,1.32.51,2.64.73,3.91l.12.65q2.3-2.26,4.88-5.11A13.37,13.37,0,0,0,188.72,134.85Z"/><path class="cls-1" d="M206.48,111.41a40.93,40.93,0,0,1,2.05-5.11,28.67,28.67,0,0,0,2.34-6.44,32.21,32.21,0,0,0,.21-7.1C211,91.52,211,90.25,211,89c.07-5.49-1.26-11.12-2.54-16.57q-.51-2.18-1-4.32C205,57,200.9,43.35,190.38,37.14c-3.8-2.24-7.41-4.77-10.91-7.22-1.44-1-2.89-2-4.37-3a76.59,76.59,0,0,0-10.67-5.73c-2.09-1-4.24-2-6.33-3.1a78.12,78.12,0,0,0-9-3.88c-4.35-1.67-8.85-3.39-12.73-6.13A26.34,26.34,0,0,0,121,2.78c-7.71,0-18.22,4.87-31.24,14.48-9.2,6.79-11.71,20.53-13.92,32.65-.43,2.32-.83,4.51-1.26,6.59-.65,3.07-1.15,6.15-1.54,9.21C75.52,62,79.3,60,85.26,59c6.63-1,16.92-1.57,23.84-.24,6.61,1.27,13.14,7,18.39,11.53.82.71,1.61,1.4,2.36,2a55.47,55.47,0,0,1,10,11.06,7.55,7.55,0,0,0,1.22-.17,6.37,6.37,0,0,1,2.79-.07c4.52,1.2,9.65,5.07,14.18,8.49,1.95,1.47,3.78,2.85,5.4,3.9a51.78,51.78,0,0,1,16.73,17.85c3,5.56,4.38,12,5.64,18.28a16.1,16.1,0,0,1,3.62.46,16.57,16.57,0,0,1,5.07,2.28,81,81,0,0,0,6.66-8.42c2.43-3.63,3.22-6.64,4.22-10.45C205.68,114.25,206,112.89,206.48,111.41Z"/><path class="cls-1" d="M76.68,127.68l-.46,1.46c-.24.77-.49,1.57-.77,2.39a3.39,3.39,0,0,0,.23.52,3.94,3.94,0,0,0,.48.31,12.36,12.36,0,0,0,.83-5.09c0-.21,0-.42,0-.62C76.9,127,76.8,127.33,76.68,127.68Z"/><path class="cls-1" d="M72.05,77.19c-.31,5.67-.36,11.29-.39,16.83.08.29.15.57.24.84,1.4,4.62,5.31,8.64,9.09,12.53a66.12,66.12,0,0,1,5.68,6.35c1,1.37,2.23,2.75,3.4,4.08A59.49,59.49,0,0,1,94,122.55c3-2.71,5.93-5.78,7.1-8.48,1.33-3.08,1.23-12.63.41-16-1.11-4.62-2.57-9.87-5-13.8a22.41,22.41,0,0,0-10.55-9.07,11.94,11.94,0,0,0-4.75-1,27.31,27.31,0,0,1-3-.3,19.92,19.92,0,0,1-3.83-1.12l-1.14-.41C72.76,73.87,72.38,75.49,72.05,77.19Z"/><path class="cls-1" d="M84.44,115.4A64.71,64.71,0,0,0,79,109.33a60.14,60.14,0,0,1-7.13-8.26c.11,1.19.26,2.37.42,3.53a17.9,17.9,0,0,1,3.47,8.23c.15,1.28.39,2.48.64,3.65,3.26,2.37,3.31,5.75,3.37,10.76a16.18,16.18,0,0,1-.79,5.57c3.73-.44,8.07-4.09,9.62-5.5.66-.6,1.4-1.25,2.2-2l1.08-.94a56.11,56.11,0,0,0-3.9-4.76C86.77,118.28,85.52,116.86,84.44,115.4Z"/><path class="cls-1" d="M138,85.73a6.78,6.78,0,0,1-1.29-1l-.39-.34-.69-.16a15,15,0,0,0-3.29-.54,3.41,3.41,0,0,0-1.43.27c-6.22,3-8,18.66-6.23,24.81,1.37,4.69,4,7.81,7.18,8.35,2.72.47,5.55-1.1,8-4.42,4.21-5.84,4.75-12.73,1.6-20.47A39.18,39.18,0,0,0,138,85.73Z"/><path class="cls-1" d="M208,116.26c.33-1.28.68-2.61,1.12-4.05a38.76,38.76,0,0,1,1.91-4.76,30.8,30.8,0,0,0,2.54-7.08,34,34,0,0,0,.26-7.73c-.06-1.25-.11-2.43-.09-3.6.07-5.83-1.29-11.63-2.61-17.25-.33-1.43-.67-2.86-1-4.27-2.55-11.71-6.94-26-18.39-32.77-3.71-2.19-7.27-4.69-10.72-7.11-1.46-1-2.92-2-4.4-3.05a78.85,78.85,0,0,0-11.06-5.94c-2.05-1-4.18-2-6.2-3a82.75,82.75,0,0,0-9.33-4C145.7,9.9,141.56,8.32,138,5.78A29,29,0,0,0,121,0c-8.32,0-19.38,5.06-32.9,15C78,22.46,75.31,37.41,73.12,49.41c-.42,2.3-.82,4.47-1.25,6.51a124.05,124.05,0,0,0-2,13c-14.52-.78-30.86-.88-42.14,6.91C25,77.79,24,79.75,22.59,82.45l-.26.52a14,14,0,0,1-2.6,3.47,20.65,20.65,0,0,0-2.22,2.67c-1.28,1.9-5.27,8.5-2.93,13.88.08.18.17.36.25.53-.84,0-1.67,0-2.48,0-.61,0-1.17,0-1.67,0-1.42,0-2.65-.09-3.59.81A4.89,4.89,0,0,0,6,107.85c0,2.58,2.6,6.44,4.36,7.85a8.83,8.83,0,0,0,3,1.37,7.45,7.45,0,0,1,2.37,1.05,6.11,6.11,0,0,1,1.07,1.44,8.34,8.34,0,0,0,1.81,2.28,21.9,21.9,0,0,0,6,3c1.08.4,2.09.77,2.92,1.18,2.16,1,4.26,1.88,6.29,2.69,1.58.62,3.07,1.21,4.58,1.89s3.36,1.62,5,2.46l.82.41c-1.72,1.22-4,1.38-7.23.67a12.19,12.19,0,0,1-2.66-1A14.54,14.54,0,0,0,31,131.91a20,20,0,0,0-5.38-.08c-.76.06-1.48.11-2.11.12a18.59,18.59,0,0,1-4.4-.79c-3.09-.78-6.28-1.58-8.71-.11A5.9,5.9,0,0,0,7.86,135c-1.21,5.06,3.63,10.39,6.69,12.74a22.54,22.54,0,0,0,7.58,3.39,28.84,28.84,0,0,1,4.77,1.73c5.28,2.66,8.49,5.53,13,9.87-2.71,5.66-13.9,4.82-23.83,4.08-6-.44-11.67-.87-15.1.23a1.4,1.4,0,0,0-.91,1.74c1,3.28,6.67,4.67,11.2,5.79,1.15.28,2.14.53,2.81.75,5.31,1.76,9.54,2.1,15.44,2.1h.15a1.39,1.39,0,0,0,0-2.78h-.15c-5.61,0-9.61-.32-14.56-2-.78-.26-1.82-.51-3-.81-2.08-.51-5.84-1.44-7.86-2.61a73.37,73.37,0,0,1,11.81.33c11.38.84,24.29,1.8,27-6.81a1.37,1.37,0,0,0-.36-1.41c-4.37-4.22-8.15-7.87-14.34-11a32.07,32.07,0,0,0-5.21-1.92,20.07,20.07,0,0,1-6.7-2.92c-2.73-2.1-6.49-6.47-5.68-9.89a3.25,3.25,0,0,1,1.32-2.17c1.44-.87,4.06-.21,6.59.43a20.65,20.65,0,0,0,5.12.87c.71,0,1.47-.07,2.27-.12a18.45,18.45,0,0,1,4.6,0,11.86,11.86,0,0,1,2.68,1,14.36,14.36,0,0,0,3.26,1.19c4.7,1,8.05.41,10.51-2,.94.46,1.9.9,2.85,1.3a14.36,14.36,0,0,0,5.8,3.68c.72.26,1.46.56,2.17.85,4,1.62,8.58,3.46,13.06-.66A10.07,10.07,0,0,0,72,138.58a9.54,9.54,0,0,0,3.47-1.29,8,8,0,0,0,1.93-1.69c4.93.49,10.51-3.93,13-6.23.65-.59,1.38-1.23,2.16-1.91l.71-.62c.35.65.67,1.31,1,2,1.28,2.61,2.61,5.31,5.52,7.66a1.39,1.39,0,0,0,1.74-2.17c-2.43-2-3.51-4.16-4.77-6.72-.42-.86-.85-1.74-1.35-2.63,3.34-3,6.71-6.45,8.14-9.77,1.61-3.71,1.52-13.78.57-17.76-1.17-4.83-2.71-10.35-5.32-14.61a25.11,25.11,0,0,0-11.8-10.16,14.8,14.8,0,0,0-5.7-1.2,26.63,26.63,0,0,1-2.75-.26,17.35,17.35,0,0,1-3.31-1l-1.22-.44c2-4.8,5.21-7,11.61-8,6.6-1,16.58-1.47,22.89-.26,5.87,1.13,12.09,6.54,17.08,10.89.83.73,1.63,1.42,2.39,2.07a52.81,52.81,0,0,1,6.57,6.64,7.87,7.87,0,0,0-4.89.3c-7.91,3.78-9.78,20.94-7.7,28.09,1.67,5.74,5.18,9.59,9.38,10.32,3.82.66,7.61-1.3,10.67-5.53,4.75-6.57,5.42-14.58,1.93-23.15A39.85,39.85,0,0,0,141.44,86l.09,0a4.35,4.35,0,0,1,1.58-.12c4,1.06,8.89,4.76,13.22,8,2,1.5,3.86,2.91,5.55,4a48.88,48.88,0,0,1,15.79,16.82c2.72,5.11,4.09,11.16,5.3,17.14a47.5,47.5,0,0,0-10.43,3l-1.8.68a45,45,0,0,0-14.24,8.94c-3.57,3.21-3.94,4.26-2.83,8,1.46,4.92,7.11,6.51,15.49,4.37,6.17-1.58,11.77-5.3,16.82-9.76,1.29,5.07,3.54,9.56,9.56,12.45,3,1.43,9.43,2.77,13.21,1.42a4.94,4.94,0,0,0,3-2.54c2.79-5.94-2.12-10.13-5.71-13.18a28.64,28.64,0,0,1-2.86-2.66,49.75,49.75,0,0,0-6.47-6.53,81.75,81.75,0,0,0,6.73-8.51C206.12,123.54,207,120.17,208,116.26ZM19.82,90.66a16.78,16.78,0,0,1,1.94-2.31,16.58,16.58,0,0,0,3-4.11l.27-.53c1.28-2.51,2.05-4,4.26-5.56C39.86,70.87,55.6,71,69.63,71.72c-.14,1.73-.26,3.47-.35,5.19-1,5.35-1.63,12.06-.4,17.44,0,.78,0,1.57,0,2.35,0,1.37.07,2.72.18,4l-.33-.34-.44-.44c-1.58-1.62-3.21-3.29-5.66-4.08a8,8,0,0,0-2.7-.26,5.58,5.58,0,0,1-1.54-.08,3.2,3.2,0,0,1-1.05-.71,4.62,4.62,0,0,0-2.22-1.25c-6.35-1.15-11.82.37-18.31,2.46a26.67,26.67,0,0,1-5.11,1c-3.77.45-7.67.92-9.44,6.39l-.13.39c-1.32,0-2.65-.08-4-.14h0a9,9,0,0,1-1-1.77C15.72,98.64,17.6,94,19.82,90.66ZM30,105.81c.56-.14,1.16-.31,1.8-.49,4-1.14,9-2.56,11.72,0a14.31,14.31,0,0,1,3.11,4.46,24.2,24.2,0,0,1-5.33-.08,18.84,18.84,0,0,1-3.74-1.09,26.81,26.81,0,0,0-3.57-1.1,32.8,32.8,0,0,0-5.72-.53,41.87,41.87,0,0,1-4.19-.28l.05-.15A25.44,25.44,0,0,0,30,105.81Zm16.12,25.47-1.47-.75c-1.67-.85-3.4-1.73-5.12-2.51s-3.17-1.34-4.71-2c-2-.78-4-1.59-6.09-2.6-.95-.46-2-.87-3.17-1.29a19.72,19.72,0,0,1-5.25-2.51,6,6,0,0,1-1.18-1.57A8.49,8.49,0,0,0,17.47,116a9.78,9.78,0,0,0-3.29-1.55,7.17,7.17,0,0,1-2.08-.88c-1.39-1.12-3.34-4.23-3.32-5.65A3.73,3.73,0,0,1,9,106.34a5.78,5.78,0,0,1,1.61-.06c.53,0,1.13,0,1.82,0,1.42,0,2.87,0,4.39.08a9.7,9.7,0,0,0,3.83,2.38c-.92,4-.43,7.61,5.15,10.52,3.68,1.93,7.39,4,11,6,3.19,1.77,6.46,3.58,9.76,5.33C46.4,130.82,46.27,131.06,46.13,131.28ZM48.71,122a7,7,0,0,0-2.29,5.34c-2.8-1.5-5.58-3-8.3-4.55-3.6-2-7.33-4.06-11-6-3.93-2.06-4.48-4.16-3.74-7.4a42.14,42.14,0,0,0,4.86.36,29.39,29.39,0,0,1,5.23.47,22.38,22.38,0,0,1,3.2,1,22,22,0,0,0,4.26,1.22,30.15,30.15,0,0,0,6.78,0A27.73,27.73,0,0,1,48.71,122Zm.87-12.43a17.56,17.56,0,0,0-4.16-6.29c-3.91-3.65-10-1.92-14.38-.66-.61.18-1.19.34-1.73.48a21.46,21.46,0,0,1-4.23.62c1.26-3.29,3.44-3.55,6.94-4a29.67,29.67,0,0,0,5.63-1.09c6.11-2,11.25-3.41,17-2.37a2.25,2.25,0,0,1,.88.6,5.4,5.4,0,0,0,2.08,1.28,7.53,7.53,0,0,0,2.4.2,5.89,5.89,0,0,1,1.79.13c1.79.57,3.12,1.93,4.52,3.37l.45.46a31.47,31.47,0,0,1,2.89,3.33c.1.63.19,1.26.28,1.89.33,2.21.65,4.33.83,6.48-.81-.24-1.7-.55-2.63-.87a34.37,34.37,0,0,0-5.69-1.62,4.37,4.37,0,0,0-.72-.06,10.41,10.41,0,0,0-1.73.19,4.53,4.53,0,0,1-1.67.11,2.16,2.16,0,0,1-.92-.67,4,4,0,0,0-2.14-1.31A22.85,22.85,0,0,0,49.58,109.59Zm5.2,25.2a17,17,0,0,1-2.36-.66c-.34-.12-.67-.25-1-.39a8.71,8.71,0,0,1-.74-1l.69.35c1.36.68,2.66,1.29,3.91,1.85ZM64,138.22c-1.34.26-2.33-.29-3.83-1.23l-.59-.36a44.26,44.26,0,0,0,4.86,1.48Zm3.83-3a5.72,5.72,0,0,1-.37.58c-3.41-.45-8.17-1.94-14.8-5.25l-2.5-1.27a26,26,0,0,0,1.25-5.75,6.73,6.73,0,0,1,1.87-.66c5.19-1.08,13.7,2.08,15.3,6.79A7,7,0,0,1,67.78,135.24Zm3,.2a9.46,9.46,0,0,0,.38-6.66c-1.8-5.33-9.52-8.88-15.72-8.88a13.63,13.63,0,0,0-2.77.27,9.49,9.49,0,0,0-1.14.3,30.21,30.21,0,0,0-1-8.15,18.92,18.92,0,0,1,4.22.23,2,2,0,0,1,.7.55,4.68,4.68,0,0,0,2.22,1.4,6.72,6.72,0,0,0,2.8-.06A5.66,5.66,0,0,1,62,114.3a33.8,33.8,0,0,1,5.21,1.51c1.14.4,2.22.77,3.24,1l.45.13v.13c0,.9-.06,1.87-.13,2.9a23.53,23.53,0,0,0,0,5.44c0,.05.78,3.52,1.68,6.08A24.11,24.11,0,0,1,70.78,135.44Zm3.41-.62a3.09,3.09,0,0,0,.14-.32l.16.1A3.3,3.3,0,0,1,74.19,134.82Zm-.15-8,0,.05c-.23-.87-.41-1.59-.46-1.88a21.76,21.76,0,0,1,0-4.78c0-.72.1-1.46.12-2.18l.25.13C74.56,121.1,75.06,123.69,74,126.82Zm2.12,5.54a3.94,3.94,0,0,1-.48-.31,3.39,3.39,0,0,1-.23-.52c.28-.82.53-1.62.77-2.39l.46-1.46c.12-.35.22-.69.3-1,0,.2,0,.41,0,.62A12.36,12.36,0,0,1,76.16,132.36Zm14.64-7c-.8.7-1.54,1.35-2.2,2-1.55,1.41-5.89,5.06-9.62,5.5a16.18,16.18,0,0,0,.79-5.57c-.06-5-.11-8.39-3.37-10.76-.25-1.17-.49-2.37-.64-3.65a17.9,17.9,0,0,0-3.47-8.23c-.16-1.16-.31-2.34-.42-3.53A60.14,60.14,0,0,0,79,109.33a64.71,64.71,0,0,1,5.44,6.07c1.08,1.46,2.33,2.88,3.54,4.26a56.11,56.11,0,0,1,3.9,4.76ZM74.33,72.8a19.92,19.92,0,0,0,3.83,1.12,27.31,27.31,0,0,0,3,.3,11.94,11.94,0,0,1,4.75,1,22.41,22.41,0,0,1,10.55,9.07c2.41,3.93,3.87,9.18,5,13.8.82,3.38.92,12.93-.41,16-1.17,2.7-4.15,5.77-7.1,8.48a59.49,59.49,0,0,0-3.89-4.73c-1.17-1.33-2.38-2.71-3.4-4.08A66.12,66.12,0,0,0,81,107.39c-3.78-3.89-7.69-7.91-9.09-12.53-.09-.27-.16-.55-.24-.84,0-5.54.08-11.16.39-16.83.33-1.7.71-3.32,1.14-4.8Zm65.5,39.87c-2.4,3.32-5.23,4.89-8,4.42-3.13-.54-5.81-3.66-7.18-8.35-1.79-6.15,0-21.84,6.23-24.81a3.41,3.41,0,0,1,1.43-.27,15,15,0,0,1,3.29.54l.69.16.39.34a6.78,6.78,0,0,0,1.29,1,39.18,39.18,0,0,1,3.41,6.47C144.58,99.94,144,106.83,139.83,112.67Zm28.64,41.5c-2.49.64-10.71,2.34-12.13-2.46-.78-2.63-.78-2.63,2-5.16a42.41,42.41,0,0,1,13.33-8.39l1.83-.68a43.88,43.88,0,0,1,10-2.9c.2,1,.4,2,.61,3.06.27,1.29.5,2.59.72,3.84l.45,2.45C177.54,151.05,172.32,153.19,168.47,154.17ZM187.58,141c-.22-1.27-.46-2.59-.73-3.91-.18-.86-.35-1.72-.53-2.59a13,13,0,0,1,2.4.36,13.37,13.37,0,0,1,3.86,1.68q-2.58,2.85-4.88,5.11Zm13.48,3.41a29.15,29.15,0,0,0,3.18,3c4,3.43,6.74,6.15,5,9.88a2.25,2.25,0,0,1-1.41,1.1c-2.92,1-8.51-.08-11.08-1.31-5.56-2.67-7.28-6.84-8.41-12.1,2.3-2.2,4.48-4.52,6.54-6.8A46.78,46.78,0,0,1,201.06,144.4Zm-6.6-10a16.57,16.57,0,0,0-5.07-2.28,16.1,16.1,0,0,0-3.62-.46c-1.26-6.31-2.69-12.72-5.64-18.28A51.78,51.78,0,0,0,163.4,95.56c-1.62-1-3.45-2.43-5.4-3.9-4.53-3.42-9.66-7.29-14.18-8.49a6.37,6.37,0,0,0-2.79.07,7.55,7.55,0,0,1-1.22.17,55.47,55.47,0,0,0-10-11.06c-.75-.63-1.54-1.32-2.36-2-5.25-4.57-11.78-10.26-18.39-11.53-6.92-1.33-17.21-.8-23.84.24-6,.95-9.74,2.94-12.2,6.68.39-3.06.89-6.14,1.54-9.21.43-2.08.83-4.27,1.26-6.59,2.21-12.12,4.72-25.86,13.92-32.65C102.8,7.65,113.31,2.78,121,2.78a26.34,26.34,0,0,1,15.34,5.27c3.88,2.74,8.38,4.46,12.73,6.13a78.12,78.12,0,0,1,9,3.88c2.09,1.11,4.24,2.12,6.33,3.1a76.59,76.59,0,0,1,10.67,5.73c1.48,1,2.93,2,4.37,3,3.5,2.45,7.11,5,10.91,7.22C200.9,43.35,205,57,207.46,68.11q.48,2.15,1,4.32c1.28,5.45,2.61,11.08,2.54,16.57,0,1.25,0,2.52.09,3.76a32.21,32.21,0,0,1-.21,7.1,28.67,28.67,0,0,1-2.34,6.44,40.93,40.93,0,0,0-2.05,5.11c-.45,1.48-.8,2.84-1.14,4.15-1,3.81-1.79,6.82-4.22,10.45A81,81,0,0,1,194.46,134.43Z"/></g></g></svg>