<svg xmlns="http://www.w3.org/2000/svg" viewBox="0 0 187.26 171.71"><defs><style>.cls-1{fill:#b5830b;}</style></defs><g id="Layer_2" data-name="Layer 2"><g id="Layer_1-2" data-name="Layer 1"><path class="cls-1" d="M187.26,92.85c-9,3-18.71,9.82-27.07,14.6-5.05,2.89-9.24,5.34-14.88,6.66-5.22,1.22-9.4,4.86-14.19,5.93-7.93,1.76-13.27-4.19-19.19-8-3.58-2.29-8.72-4-11.6-7.22-2.18-2.48-3.79-6.1-5.84-8.82a100.36,100.36,0,0,1-12.3-23c-1.41-3.67-3.6-7.71-4.73-11.44C76.39,58.13,77,53.89,77,50.21c0-9.31-2.16-18.21-4-27-1.43-7-.48-16-.08-23.16-2.37,2.28-2.93,4.89-4.66,7.59-2,3-5.07,5.21-6.95,8.33-3,5-7.27,9.36-10.4,14.56-6.19,10.3-13.65,20.25-20.72,30.13-3.75,5.24-7.86,9.93-11.91,15A120.09,120.09,0,0,0,4.78,97a21.43,21.43,0,0,0-2.6,8.32C1.79,109,.27,112,.05,115.72c-.43,7.12,2,14.26,4.27,20.85,1.64,4.7,3.34,9.3,7.69,12.94,5.54,4.63,10.35,6.69,17.2,8.27,2.93.67,5.76,2.37,8.32,3.69,2.14,1.11,4.32,1.18,6.3,2,5.44,2.32,12.36,5.27,18.61,6.41,4.38.79,8.21.41,12.57,1.5,4,1,5.56-.67,9.31-1.43,3.08-.63,6.37.51,9.42-.08,3.52-.68,8.11-3.06,11.48-4.25a90.64,90.64,0,0,0,14.46-6.25c5.16-2.84,8.1-6.57,12.45-10.4s9-7.28,13.43-10.86a130.6,130.6,0,0,0,10.05-8.43c2.3-2.25,3.22-4.84,5.13-7.33,1.58-2.06,4-3.66,5.73-5.59,2.53-2.79,4.36-6.11,6.8-9,1.57-1.83,3.51-3.35,5.16-5.1C180.53,100.48,182.48,95.48,187.26,92.85Z"/></g></g></svg>