<svg xmlns="http://www.w3.org/2000/svg" viewBox="0 0 134.1 170.79"><defs><style>.cls-1{fill:#ffd7b6;}</style></defs><g id="Layer_2" data-name="Layer 2"><g id="Layer_1-2" data-name="Layer 1"><path class="cls-1" d="M41.26,154c-.28-.38-1-.48-1.2-.1-1.38,2.36-4.78,2.07-6,4.64-3.81.63-7.06,4.12-7.21,7.36-.08,1.72.81,5-.7,4.87-2.41-.19-.91-3.18-1-4.9-.2-2.85-1-3.1-3.39-1.72s-4.57,2.81-7.5,2.35c-2.85-.8-3-3.47,1.48-3.08s8.1-2.29,11.53-4.9a4.15,4.15,0,0,0,1.35-.22c4.31-2.42,8.61-4.85,12.86-7.36.72-.43,2-1.26,1.22-2.12-2.88-3.34-1.18-7.2-1.24-10.75-.05-2.75,4.15-4.83,1.93-8.44-.08-.13,1.29-2.16,1.55-3.51,1.76-.44,1.65-1.86,1.67-3.2l2.72-2.08,1.56.45c1.41,1.28,2.73,2.48,3.34-.66.2-1,1-1.31,1.89-.44.47,1.53,1.68,1.4,2.88,1.28.72.63,1.57,1.26,1.81-.26a2.54,2.54,0,0,1,1.6-2.2c-.45,2.94.94,3.65,3.72,3.73A15.89,15.89,0,0,0,73,121c.62,1.43-1.41,2.18-.36,3.08s2.5.58,3.65.24c1.47-.43.42-1.36.11-2.16s.51-1.06,1.08-1.39c2.2-1.23,4.31-2.06,6.59,0,1,.87,2.17.51,3.06-.46.51-.57,1.56-.91,1.28-1.86-.41-1.4-1.66-.82-2.63-.89-.44,0-1.15,0-1.27-.26-1.22-2.57-2.67-.87-4.32-.55-2.63.51-5.44,3.7-8.18-.15-.68-1-2-.65-1.88,1s-1,2.19-1.73,1.42c-2.26-2.4-4.09-.56-6.08.17.41-1.63.12-2.78-1.89-2.53s-2.95-.67-2.89-2.67l.75-1.29c2.62,1.19,5.56,1.52,8.06,3,.7.42,1.64.82,2.2.12.72-.89-.33-1.29-.88-1.83-2.28-2.27-4.53-4.6-6.79-6.9a4.93,4.93,0,0,1,3-.47c2.46,4,7.35,5.18,10.14,8.8a1.1,1.1,0,0,0,1.54.27c.73-.51.52-1.26.07-1.8-.81-1-1.77-1.8-2.59-2.75s-2.43-1.37-2-2.53c.56-1.48,2.29-.69,3.41-.57a9.88,9.88,0,0,0,7.7-2.85c4.6-4.16,9-8.48,11.63-14.4.63-1.43.87-3.35,2.41-4.4.53-.36.84-1.28,1.67-.77a1.38,1.38,0,0,1,.29,2.12c-1.89,2.6-2.24,5.91-4,8.52-.93,1.37-.6,2,.85,2.42a13.31,13.31,0,0,1,7.07,4.23c2.17,2.59,3.42,1.09,4.09-.89.47-1.42,1.46-2.25,2.17-3.38,2.67-4.25,6.23-8.7,4.22-13.84-1.35-3.45-2.88-7-4.25-10.45-1.87-6.11,2.85-8.07,3-4.63-.89,6.1,2.42,11.28,4.12,16.73.54,1.76.43,3.79,1.72,5.65,2.18,3.12,2.83,7.14,4.13,10.78,1.23,3.43,2.11,7,4.08,10.26,1.71,2.79,2.64,6,3.92,9.09-.68.8-.46,1.52.38,1.88s1.26-.13,1.35-1c1.58-.79,2.88-1,3,1.38.11,1.78,0,3.26-2.44,3-1.23-.14-2.52.2-3.7-.39,0-.76-.42-1.22-1.16-1.17a.92.92,0,0,0-.89,1.08c-2.56.12-1.65-2.44-2.57-3.6-.62-.77,1.34-.51,1.59-1,.83-1.53,3.36-3,2-4.67a34.39,34.39,0,0,1-3.42-5.05c-.93,1.74-1.12,3.48-3.31,3.76-1.09.13-.85,1.73,0,2.56,1.52,1.58,1.39,3.24.44,5l-1.93-1.42c-.91-.93-.74-2.11-.78-3.25,0-.89-.45-1.62-1.44-1.58-2,.09-2.7,2-4,3a1.05,1.05,0,0,0-.33,1.49c.1.17.41.39.54.34,2.29-.88,3.64,1.58,5.67,1.57l2.07,1.71c1.13,1.29.68,2.84.63,4.28-.06,2.06,1.34,2.73,2.55,1.81,2.23-1.69,4.59-1,6.91-1.19.51,0,1.31-.05,1.5.24a1.3,1.3,0,0,1-.59,1.77c-2.27,1.41-2,3.63-2,5.81s0,4.13,0,6.19c0,.79.14,1.87-.92,1.92s-1-1-1-1.82c0-2.41,0-4.82,0-7.23,0-3.48-1.85-4.7-5.23-3.51-1.39.49-1.27,1.4-.87,2.46.25.68,1.61.73,1,1.94-1.54.46-1.6-1.28-2.49-1.8s-1.38-1.24-2.28-.18a11.42,11.42,0,0,1-8.2,4c-1.56.12-1.84,1.46-1.06,2.54a4.94,4.94,0,0,0,3.91,2.35c4,.24,7.8.95,9,5.76a3,3,0,0,0,2,1.74c1.92.45,3,1.91,4.43,3-.35.37-.66.75-.44,1.31-1.19-.18-1.08.7-1.28,1.44-.28,1.09-.78,2-2.21,1.46l.09.06c.53-2.85-1.74-7.43-4.45-8.26-1-.31-1.72-2.13-2.9-1.1-1.59,1.39-2.68,1.09-4.1-.2a2.81,2.81,0,0,0-3.26-.23c-3.71,3.17-7.16-.18-10.26-.85C94,148.5,89.61,145.28,85,143c.13-1.16,2.43-.77,1.83-1.94s-1.74-2.33-3.26-2.13a4.23,4.23,0,0,1-4.5-2.44c-1.07-1.94-2-1.4-3.16-.33-1.33,1.26-2.52,2.66-3.9,3.87a1.68,1.68,0,0,1-2.69-.21c-.67-1.14-.4-2.39,1.19-2.51,1.36-.09,2-1,2.75-1.85S76,134,74.81,132.66C74,131.73,72,132,71,133c-1.5,1.61-3.44,2.47-5.21,3.62-1.42.22-1.74,1.65-2.66,2.41l-1.44.11c-.13-.62-.25-1.24-.38-1.86,2-2.87,5.94-3.28,8-6.13,1.29-.25,2.87,0,3.08-2,0-.44.25-1.13-.26-1.11-.8,0-1.91-.26-2.25,1-1.61-.28-2.1,1.56-3.49,1.79-3.71.62-7.55.93-10.32,4-.3.34-.79.62-1.2.25-1.62-1.52-2.41,0-3.32.9-2.13,2.12-4.74,4-3.75,7.72.14.52,0,1.26-.8,1.19a1.06,1.06,0,0,1-.85-1.29c.23-1.71-.74-3.66,1.26-5a1.54,1.54,0,0,0,.12-2.42c-.63-.54-1.25.05-1.61.72-.55,0-1.15-.07-1.44.59-.39.18-1.11.36-1.11.56-.11,3.18-.19,6.36-.12,9.54a1.11,1.11,0,0,0,1.8.8c1.29-1.26,3.18-1,4.48-2,.06.51.13,1,.19,1.54,0,2.32-.85,4.77,1.47,6.63.47.38.28,1.43-.38,1.82a.85.85,0,0,1-1.34-.89c.25-1.83-1.7-2.51-1.93-4.23-.19-1.42-1.79-1.25-2.61-.11S43,154.24,41.26,154ZM2.33,2.5c-.43,4.16,1.83,7.91,1.7,12,0,.23.71.48,1.09.72.68,1.83-1.65,4.82,2.12,5.44-.6,3.19,1,6.11,2.26,8.54,3.92,7.92,6.58,16.44,11.12,24,1.14,1.91-.05,4.6,2.43,5.69.17.56.34,1.1,1.05.48-.33,3.6,2.38,5.91,3.56,8.81C30,73.93,33.81,78.68,37.4,83.33,42.33,89.74,48.82,95,54.64,100.69l-.51,1.5A14.56,14.56,0,0,1,49,98.48c-1.69-1.87-3.53-3.61-5.34-5.37-.51-.51-.93-1.58-1.92-.9-2.53,1.72-3.8,4.47-5,7.09-1.06,2.34,1.63,1.79,2.61,2.58a1.71,1.71,0,0,1,.35.57c1.21,2.07,5.7,5.12,8.19,5.43,1.62.21,1.77.79.71,1.92-.46.5-.91,1-1.36,1.53-3.12.76-6.37,1.37-7.38,5.11-.26,1-1,1.18-1.72,1.42-.26-.47-1.4-.77-.95-1.15,2.35-2,3.72-4.79,6-6.8.46-.42,1.41-.5,1.32-1.29-.12-1.1-1.16-.9-1.91-.93-.91,0-1.91-.15-2.58.62-1.49,1.72-2.77,1.19-3.94-.32-1.91-2.48-3.93-2.21-6.18-.45a19.07,19.07,0,0,0-4.27,3.84c-.65.94-2.54,1.39-1.54,3a4.12,4.12,0,0,0,3.79,1.94c1.3,0,2.86-.54,3.79.9,1.53,2.35,3.94,2.44,6.33,2.61.95,1.68,2.57,1.09,4,1.13s2.82-.08,2.86,1.93a.7.7,0,0,0-.43,1c-1.68.6-3.9,1-5,.12-2.44-1.92-4,.12-5.67.79-1.37.54-2.26,2.21-3.44,3.29-1.77,1.62-3,3.24-.31,5.1-1.22,1-1.88-1.34-2.9-.07a1.37,1.37,0,0,0-.13,1.6c.65,1.11,1.8.77,2.79.9.75.1,1.25-.4,1.86-.69,1-.51,2.4-.86,3.15.15s-.4,1.8-1,2.61-1.64,1.29-1.82,2.42c-.12.74.06,1.89-1.14,1.64-.92-.19-1.35-.9-.8-2.05a1.57,1.57,0,0,0-.62-2.11,2.28,2.28,0,0,0-2.51.5c-3.36,2.56-3.79,6.78-2.25,10.91.87,2.32,2.48,4.59,2.26,7.3a14.1,14.1,0,0,1-4.73-9c-.34-2.58.07-5.25.1-7.88,0-.85-.05-2.47-1.17-1.81-2.95,1.73-3.07-1-4.19-2.22a.87.87,0,0,0,.11-.61c1.14-1.07,2.88,2.53,3.78-.47,2.76.17,4.7-1,5.39-3.72.62-2.47,2.34-4.14,4.14-5.63,2.38-2,1.64-3.73-.4-4.83-1.71-.93-3.37-2.37-5.49-2.3s-2.76-.92-2.43-2.71c.52-2.84-1.1-4.44-3.11-5.89.05-.47.09-.93.13-1.4,2.12.48,3.19-.19,2.91-2.54a24.83,24.83,0,0,1,0-3c.13-.29.47-.73.38-.86-1.46-2-2.18-3.94-.18-6.1.42-.46-.31-1-.6-1.74-1.14-2.86.37-3.36,1.84-.87.7,4.2,2.91,8.84.39,13.34-.3.53-.08,1.36-.06,2,0,1.22.77,1.55,1.85,1.42,1.27-.15,1.18-1.06,1.33-2s-2.05-1.13-.66-2.66c.86,1.15,2.1,2.22,3.31,1.15,1.48-1.31,3.06-2.52,4-4.52,1.12-2.36-.1-5.41,3-7.3,2.82-1.73,2.08-4.57.92-7.5s-4.4-3.72-5.3-6.68c-.47-1.56-1.84-2.84-2.57-4.24C27.11,71.21,22.92,68,21.3,63.05c-.64-1.92-1.32-4.38-4.17-4.51.45-2.24,2.84-4.92-1.4-6.09-.92-1.59.75-4.13-1.86-5.11.65-1.74-1.17-2.65-1.39-4-1-5.79-4.87-10.37-6.37-15.9-.79-2.94-3.25-5.18-3.49-8.26C2.31,15.09.15,11.28.85,7,1.17,5-.58,2.69.2.94S2.33,0,2.33,2.5Zm56,121.79c-1.94,0-3.87,0-5.81,0a6.72,6.72,0,0,0-6.24,7.88c.34,1.69,1.38,2.17,2.71,1.43a27.9,27.9,0,0,1,8.69-2.89,2.26,2.26,0,0,0,1.11-.63c.11-.12-.09-.82-.22-.84-4.75-.91-.63-2.22-.16-3.36.65.43,1.93-.05,2.07.86.67,4.16,3.85,2.27,5.92,2.29,1.5,0,2.74-1.75,2.79-3.28.06-2-1.8-1.68-3.1-1.62C63.54,124.27,60.94,123.62,58.37,124.29Zm63.09-14.92c-1.44-5.11-4.49-9.65-5.32-15a.8.8,0,0,0-1-.65c-1.34.18-1.63,1.44-2.39,2.22-1,1,0,1.52.5,1.9,1.42,1,1.35,2.38,1.45,3.9.16,2.38-.91,5,1.52,7a1.33,1.33,0,0,1-.47,2,.74.74,0,0,1-1.08-.51c-.53-2.67-2.43-4.7-3.29-7.21-.33-1,.86-2.74-.75-2.86-1.33-.09-2.17,1.45-2.48,2.9-.09.43-.22,1-.53,1.21-4.57,2.87-1.79,5.7,0,8.54,0,.87,1.14,2-.48,2.52-.8-.45-.33-1.39-.7-1.83-1.24-1.49-2.4-3.95-4.33-3.65s-2.72,2.54-2.34,4.74a2.75,2.75,0,0,0,1,1.69,1.48,1.48,0,0,1,.36,2.13c-.5.76-2,1.38-.69,2.43,1,.81,2.08.1,3-.76a9,9,0,0,1,3.87-1.81c2.71-.66,2.79-2.25,2.67-4.3-.07-1.13-.43-2.43,1.47-2.29.48.89,1.78,1.56.75,2.85-1,.27-1,1-.32,1.38.85.52,1.9.75,2.39-.62l6.8-3.53a1.83,1.83,0,0,0,1.54-1.81C122.67,109.41,122.06,109.26,121.46,109.37Zm-25.19-.2c-1.76.79-2.42-.65-3.48-1.17-.89-.44-2.53-.73-2.22.8.38,1.9,2.23,3.21,3.91,4s2.46-.43,2.54-2.11c0-.71.62-.8,1.2-1,2-.54,3.65-1.63,3.5-3.92-.11-1.76-4.5-5-6.24-4.51-2.45.72-4.75,2-7.45.24C89.75,105.57,95,104.9,96.27,109.17Zm-15,5.29c1.4-1.29-1.12-2.3.41-2.95a3,3,0,0,1,3.25.51c1.68,1.56,3.29,3.19,4.89,4.82.61.62,1.2,1.22,2,.44.63-.61,2-1.21,1.52-2.06-.92-1.64-2.17-3.36-4.1-3.79s-2-.19-.89-2.24c.48-.86.9-1.82.1-2.51-1-.89-1.54.28-2.21.84s-1.1,2.11-2.43,1c-2.61-2.08-4,.23-4.91,1.76C77.48,112.68,80.18,113.13,81.26,114.46ZM53.58,148.64c1.2,1.18,2.38,2.8,3.84,3.2,3,.83,2.16,1.87.84,3.52-.65.83-2.9,1.37-1.52,2.75,1.24,1.23,2.43-.38,3.39-1.32a13.64,13.64,0,0,0,2.15-2.22c.7-1.1.67-2.35-.9-2.67-3-.63-4.81-2.53-6.31-5.06-.84-1.4-1-2,.72-2.79,2-.92,4-1.94,5.34-3.89a2.47,2.47,0,0,0-2.88-1c-1.73.66-2.17,3.49-4.7,2.77l-1.29.32c.24,2.11-2.21,2.5-2.65,4.18.56,0,1,.1,1.08.76C52,146.94,52.75,147.82,53.58,148.64Zm60.89,14.07c1.83-1.63,2.32-4.05,3.5-6.06.13-.22-.21-.88-.51-1.15s-.84-.08-1.19.25c-1.7,1.59-2.17,3.9-3.35,5.79a1,1,0,0,0,.93,1.45A2.34,2.34,0,0,0,114.47,162.71Zm-6.29,2.16c-1.06,0-1.74.41-1.76,1.55a1.47,1.47,0,0,0,1.62,1.69c1.07,0,1.7-.43,1.79-1.78A1.48,1.48,0,0,0,108.18,164.87Zm15.61-4.72.09.06c-1.13-.25-1.15,1-1.79,1.36l1.12.37C123.61,161.41,124.87,161.16,123.79,160.15ZM60,106.74c.24-.6.47-1.21.7-1.82-1.11-.57-1.77-1.84-3.11-2.06-.43.42-1.15.64-1.05,1.45,2.17,2.41-1.16,2.27-1.61,3.46.34,4-2.4,3.77-5,3.71-.3.51-.63,1-1.29,1l-.48.73,1.23,2.08c.82,1.07,0,2.19.09,3.28l1.89.1C52.8,117,52.94,114,56,113.8c.09-1.12,1.2-1.29,1.8-1.92C57.29,109.63,57.74,107.8,60,106.74ZM10.69,7.13c-1-.06-1.77.32-1.84,1.45a1.45,1.45,0,0,0,1.53,1.76c1,0,1.75-.31,1.86-1.45A1.48,1.48,0,0,0,10.69,7.13ZM57.31,86.77c-.61,0-1.27.36-1,1a3.11,3.11,0,0,0,2.15,2c.9.15,1-.7,1-1.41C59.32,87.07,58.47,86.69,57.31,86.77ZM14,16.75c-.73,0-1.49,0-1.59.88-.06.63.49.95,1.15,1s1.38,0,1.62-.88A1.11,1.11,0,0,0,14,16.75Zm17.8,78.06c0-.64-.54-1.45-.86-1.2-1.2,1-3.33.65-3.77,2.27-.25.94,1.17.68,1.91.78C30.39,96.62,31.73,96.62,31.81,94.81Zm5.42,31.4a3.77,3.77,0,0,0-2.39,2.68c-.15.69.1,1.7.87,1.49a4,4,0,0,0,2.65-2.87C38.22,126.83,38.07,125.87,37.23,126.21Zm-6.32,24.3c-.89-.17-1,.71-1,1.4.07,1.31.94,1.68,2.09,1.63a1,1,0,0,0,1-1.12A3.45,3.45,0,0,0,30.91,150.51ZM37,136.32c-.14.62.57.88,1.19.88,1.14,0,1.62-.69,1.69-1.73a1.06,1.06,0,0,0-1-1.26A3,3,0,0,0,37,136.32Zm-16.92-8.51-4.53,0c-.79,1.76.6,2.72,1.41,3.9l1.86-.05C19.63,130.52,21,129.54,20.08,127.81Z"/></g></g></svg>