<svg xmlns="http://www.w3.org/2000/svg" viewBox="0 0 120.28 131.12"><defs><style>.cls-1{fill:#d2691e;}</style></defs><g id="Layer_2" data-name="Layer 2"><g id="Layer_1-2" data-name="Layer 1"><path class="cls-1" d="M120.28,50.16c-2.06-1.59-4.23-3-6.17-4.73-1.76-1.54-2.85-2.8-5-3.65a53.2,53.2,0,0,1-5.21,5.3c-2.89,2.54-6.52,1.36-10,2.35a9,9,0,0,0-2.82,1.92c-1.28,1.07-1.47,2.14-2.34,3.34-1.91,2.63-4.09,5.59-6.18,8a21,21,0,0,1-6.3,5.43c-3.17,1.59-5.27.77-8.09-1.17-3.57-2.43-7.14-4.48-10.52-7.17-2.85-2.28-6.2-4.89-8.24-8C45.66,46,45.4,39.06,44.05,32.64c-1.41-6.68-.37-14.38-.47-21.3,0-1.89.58-2.6,1-4.23a18.18,18.18,0,0,0,0-5.26C44.23-.46,43.74-.3,41.68.66a50.58,50.58,0,0,1-6.63,2.92,47.36,47.36,0,0,1-4.73,1.18c-1.52.26-3-.47-3.73,1.45s1.17,2.42,1,4.21c-.11.87-.86,1-1.07,1.81a14.73,14.73,0,0,0,.05,2.89c.11,6.05-4.89,10.2-7.81,15.13C17.14,32.9,15.14,35,14,37.83c-1.43,3.56-1.79,7.14-2.7,10.91a86,86,0,0,1-3,9c-.63,1.74-2,3.12-2.66,4.71-.59,1.38-.66,3-1.13,4.55a38.51,38.51,0,0,1-1.89,4.73c-.52,1-2.1,2.2-2.44,3.26-.55,1.73.06,2.88,1,4.32A35.3,35.3,0,0,1,3.8,84.2,26.44,26.44,0,0,1,5,88.73c.5,1.85,1.41,4,1.74,5.94.63,3.81,1,7.57,1.89,11.37.51,2.1.47,4.43,1.13,6.64a27.4,27.4,0,0,0,1.9,4.72c1.65,3.21,2.45,6.71,4.23,9.73.88,1.49,4.31,5.51,6.73,3.38.73-.64,1-3.69,1.32-4.61a20.18,20.18,0,0,1,2.87-4.45c2.22-2.87,4.08-3,7.34-3.84,2.13-.55,4.45-.74,6.65-1.21,1.83-.4,3.82-.53,5.68-.9a65.49,65.49,0,0,0,12.34-3.79c3.43-1.5,6.4-4,9.89-5.68,3.88-1.91,6.91-4.86,10.41-7.31A26.32,26.32,0,0,0,87.84,89c1.89-3.77,2.55-7.87,3.91-11.84a28.45,28.45,0,0,1,6.54-10.94c3.58-3.62,8.64-6.57,12.7-9.39,1.83-1.27,3.82-2.36,5.71-3.58S119.79,51.06,120.28,50.16Z"/></g></g></svg>