<svg xmlns="http://www.w3.org/2000/svg" viewBox="0 0 144.12 160.4"><defs><style>.cls-1{fill:#e3e3f7;}</style></defs><g id="Layer_2" data-name="Layer 2"><g id="Layer_1-2" data-name="Layer 1"><path class="cls-1" d="M29.66,16.53c5,3.49,9.41,3.65,14.05-1.24,2.26-2.38,5.4-4.86,9.43-4.32,4.63.63,4.1-1,3.77-5.09S61.4-.79,65.41.21c2.36.59,4.39,3.25,3.3,7.53-1.48,5.77.61,11.14,8,11.12,3.87,0,7.34-.38,7.32,4.84,0,1.46.36,3.29,1.48,3.17,9.58-1.08,5.65,6.22,6.75,10.45a18.18,18.18,0,0,0,1.85,3.53c5.3-2.2,8.67-6.34,12.4-10-2.5-2.48-4.53-5.18-5.08-8.67,1.39-1,3.28-.88,3.77,0,3.59,6.55,8.37,8.66,16.27,8.53,8.33-.13,16.17,4.42,22.62,10.31l-3.75,1.75c-5.1-2.42-10-6-15.35-6.92C119.44,34.9,113.63,37.9,108,39c-4.58.87-9.73,4.52-12.48,9.53-1.6,2.92-1.23,5.46,2.62,5.43s7.29.55,10-4.26c3.77-6.64,10.59-7.85,17.18-5.07a2.81,2.81,0,0,1,2,3,3.4,3.4,0,0,1-1.47,2.18,10.52,10.52,0,0,1-3.51,1.45c-18.13,3.9-22.1,11-19.79,29.12.87,6.87,9.14,7.1,8.55,13.38-.49,5.08-7.49,9.16-4.85,13.91s-2.54,11.72,4.92,14.85c2.51,1,.51,3.91-.35,5.83-2.54,5.64-10.38,3.45-13.29,9-.54,1-3.65-.31-3.86-2.32a9.58,9.58,0,0,0-3.93-6.74c-2.93-2.24-5.91-2.48-5.52,2.59.59,7.61-2.86,11.89-9.52,15.5-5.14,2.78-8.84,5-14.18.69-4.41-3.53-10-1.36-15-1.61-.73,2.49,1.9,3.52,1.77,5.07-.23,2.73,5.16,3.91,2.15,6.66s-7.57,4.53-10.63,2.22c-2.9-2.18-7.06-3.64-8.25-8.12-1.52-5.78-3.61-10.7-9.67-14.34-7-4.23-.1-9,2.71-13.21-2.48-3.69-7.26-1.1-9.45-4.47-1.92-3-.71-6.24-1.83-9.07-4-10.11-3.86-21.46-10.11-31C.13,76-2.37,70.2,4.55,67.49c1.54-.6,4-3,3.8-3.3-3.61-6.38,6.43-8.91,3.84-15.51-3.36-8.53-1.77-17.85-1.69-26.87,2.76-.15,5.3-.71,6.6-3.56l.22-.07C21.74,19.92,25.51,16.81,29.66,16.53Zm28.42,99.93c1.27,2.61,3.85,3.89,6.23,4.5,3.66.94,7.52,3.14,11.39.58.58-.38,1.21-1.74,1-2.13C73.93,115,69.4,115.22,65,115.29a29,29,0,0,0-3.91.58c0-2.46,1.74-2.66,3.52-2.59,3.14.13,5.6-1.53,5.87-4.25.31-3.08-2-5.64-4.1-8-2.34-2.62-4.91-.59-7.38-.5-4.52.16-8.51,1.25-11.55,5.12-2,2.56-9.39.63-6.55,7.5ZM25.54,41.73c-4.16,3.14-9.7,2.38-10.81,8.25-1,5.23,3.17,5.53,6.26,6.8,6.72,2.78,11.63,6.36,13.84,14.37,2,7.11,10,8.5,16.67,9.35,4.7.6,5.86-2.67,5.18-7.75-1.33-9.94-9.31-14.9-14.42-22.09C37.45,43.88,28.15,50.67,25.54,41.73ZM81.23,108c4.56-3,.18-7.25,1.54-10.67-1.25-.07-2.93-.68-3.67-.1-4.06,3.15-1.15,6.3.41,9.34C79.83,107.22,80.66,107.57,81.23,108Zm10.4-49.37c-.11-2-1.26-3-2.58-2.67A4.5,4.5,0,0,0,86,60c-.16,1.65,2.08,2.59,2.62,2.24C89.94,61.38,90.78,59.75,91.63,58.66ZM77.73,84.24A43.2,43.2,0,0,0,77,89.45c0,2,.45,5.31,3,3.59C83.2,90.89,80.54,88,77.73,84.24ZM46,90.2c-1.26-.33-1.86,1.67-1.75,3.3s.79,4.06,1.93,4.58c1.37.61,3.46-.61,4.07-2.55C51,92.9,49.77,91.35,46,90.2Z"/></g></g></svg>