<svg xmlns="http://www.w3.org/2000/svg" viewBox="0 0 146.07 178.68"><defs><style>.cls-1{fill:#e3e3f7;}</style></defs><g id="Layer_2" data-name="Layer 2"><g id="Layer_1-2" data-name="Layer 1"><path class="cls-1" d="M130.71,27.62l-5.58,10.89c.66,2.79,2.58,1.9,3.81,2.47,20.2,9.57,21.19,12.88,10,33.09C135.05,81,127.83,88,116.74,95.51c.41,1,.55,2.45,1.27,2.82,16.29,8.49,19.87,23.35,20.29,39.88.21,8.78-7.66,15-11.92,9.41-8.29-10.83-21-9.17-30.81-14.93-1.27-.75-2.46-2.27-5.08-.37-2.86,6,1.49,15.8-7.76,20.25-1.5.72-.6,2.8.18,4.15,3.23,5.62,0,10.32-2.51,14.78C75,181,72,181,65.3,172.08c-8.61-11.41-8.78-14-11.25-28.15-.67-3.87,1-11.62-6.9-12.57-1-2-2.48-3.13-4.35-1.27-.33.32,1,2.33,1.61,3.56-7.21,11.84-17.9,16-29.56,11.58-7.91-3-10.34-17.15-3.15-22.93,8.08-6.5,15.76-13,20-22.73.87-2,3.18-2.72,5.53-2.52,2.11.18,2.7-1.19,2.73-3,.06-3.3-2.29-1.7-3.86-2.33-6.68-2.7-13.11-5.16-20.49-6.22C8.78,84.58,5,77.08.84,72-2.42,68,4.27,60.64,13,61.26S28.28,57.25,36,56c5.22-.81,8.36-3.62,7.24-8.59C40,33.16,50.45,21.22,49.57,7.35c-.3-4.7,4.36-5,7.8-6.64,6.22-2.88,9.4,3.9,14.57,3.7-1.32,9.62,10,11.77,11.71,19.83,8.12-5.09,11.58-15.12,20.63-19C112.69,5.06,119,9,124.12,15.31l.21.22c.15,3.31,2.91,4.51,5.19,5.54C133.53,22.87,131.06,25.33,130.71,27.62Z"/></g></g></svg>