<?xml version="1.0" encoding="utf-8"?>
<!-- Generator: Adobe Illustrator 25.2.0, SVG Export Plug-In . SVG Version: 6.00 Build 0)  -->
<svg version="1.1" id="Layer_1" xmlns="http://www.w3.org/2000/svg" xmlns:xlink="http://www.w3.org/1999/xlink" x="0px" y="0px"
	 viewBox="0 0 79.3 150.55" style="enable-background:new 0 0 79.3 150.55;" xml:space="preserve">
<style type="text/css">
	.st0{fill:#FF6347;}
</style>
<path class="st0" d="M63.51,0.74c-0.18-1.46-3.89,0.22-4.85,0.69c-1.62,0.8-2.65,1.21-2.72,3.09c-0.07,1.82,0.51,2.87,0.71,4.46
	c0.11,0.89-0.03,1.73,0.14,2.61c0.12,0.6,0.57,1.3,0.64,2.12c1.5,0.37,3.76,0.27,5.25-0.05c0.55-0.12,1.36-0.52,2.06-0.68
	c1.25-0.29,1.27-1.01,1.54,0.82c0.64,4.3-2.59,4.9-5.18,6.88c-1.2,0.92-1.51,2.38-3.09,1.77c-1.45-0.57-2.28-2.52-3.76-3.22
	c-2.26-1.07-3.33-0.12-5.53,0.11c-2.04,0.22-2.64-1.38-3.96-2.61c-1.19-1.11-2.62-1.96-3.95-2.92c-0.6-0.43-1.31-1.22-2.03-1.41
	c-1.08-0.29-2.42,0.33-3.51,0.07c-0.87-0.21-0.96-0.99-2.05-0.77c-0.67,0.13-1.07,0.79-1.53,1.25c-1.15,1.17-1.88,2.18-1.56,3.61
	c0.31,1.4,1.5,2.24,2.68,2.83c0.9,0.45,1.18,0.32,2.17,0.59c0.34,0.09,2.09,0.54,2.28,0.84c0.42,0.66-1.01,3.12-1.42,3.82
	c-0.98,1.65-1.7,3.2-2.43,5c-1.34,3.35-3.14,6.74-1.57,10.32c0.44,1,0.66,1.17,0.71,2.38c0.04,1.01-0.16,2.12-0.02,3.12
	c0.23,1.6,0.46,1.36,2.08,1.36c1.2,0,1.65-0.12,2.61-0.61c0.32,1.09-0.26,2.28,0.8,3.06c0.82,0.6,2.51,0.42,3.47,0.16
	c1.06-0.28,0.87-0.59,1.91-0.4c0.26,0.05,0.77,0.48,1.16,0.57c1.77,0.4,1.77-0.06,1.74,2.05c-0.04,3.16-1.59,5.54-2.58,8.44
	c-0.34,0.99-0.54,2.32-1.52,2.94c-1.11,0.7-2.32-0.07-3.5,0.28c-2.3,0.69-2.38,4.2-1.88,6.07c0.16,0.6,1.02,1.79,1.09,2.39
	c0.12,1.05-0.73,2.28-1.37,3.27c-0.85,1.32-2,2-2.46,3.61c-0.42,1.49-0.84,2.7-1.2,4.24c-0.57,2.5-1.37,4.78-1.81,7.19
	c-3,0.73-5.98-1.1-8.69-2.13c-1.07-0.41-2.61-1.23-2.94-2.54c-0.39-1.56,0.32-2.27-1.63-2.81c-1.26-0.35-4.04,0.88-4.59-0.63
	c-0.39-1.09,0.58-0.9,0.62-1.58c0.04-0.89-0.38-0.86-0.49-1.61c-0.18-1.21,0.21-2.71-1.4-3.09c-1.57-0.37-2.87,1.14-4.62,0.64
	c0.81-1.15,3.5-4.51,1.2-5.46c-2.89-1.2-3.75,4.8-4.16,6.29c-0.34,1.24-0.72,1.97-0.71,3.44c0.01,1.13,0.02,2.27,0,3.4
	c-0.02,1.37-0.19,2.46,1.36,2.8c1.06,0.23,2.74-0.61,3.43,0.32c0.46,0.63,0.03,3.32,0.03,4.04c0,1.17,0,2.33,0,3.5
	c0,1.15-0.03,2.3-0.01,3.45c0.04,1.63,0.03,1.69,1.72,1.72c1.26,0.03,2.26-0.49,2.47,0.99c0.18,1.28-0.7,2.27-1.75,2.48
	c-0.71,0.14-2.9-0.3-3.44-0.78c-0.67-0.6-0.41-2.2-0.32-3.16c-1.61,1.62-2.74,3.78-3.35,5.98c-0.3,1.08-0.15,2.31-0.14,3.43
	c0.02,1.67-0.22,2.86-0.53,4.5c-0.38,1.98-0.35,3.89-0.82,5.81c-0.56,2.28-0.86,4.53-1.24,6.88c-0.59,3.62-1.89,8.84-0.34,12.38
	c0.27,0.62,1.31,1.69,1.44,2.22c0.27,1.11-0.32,1.56-0.76,2.56c-0.69,1.61-1.23,6-0.01,7.43c1.37-1.47,2.74-3.02,3.67-4.69
	c0.7-1.26,1.78-2.58,3.27-3.11c2.17-0.77,1.52,1.34,1.51,3.01c0,1.33-0.24,2.95,0.14,4.21c1.57-0.42,2.62-3.41,4-3.47
	c0.48-0.02,1.11,0.78,1.37,1.12c0.41,0.54,0.39,1.4,0.65,1.76c1.19,1.63,4.23-0.87,5.45-2.13c0.34-0.35,0.45-0.92,0.91-1.2
	c0.73-0.44,1.73-0.03,2.54-0.28c-0.18-1.2-2.75-2.09-3.77-2.53c-2.49-1.08-4.31-1.18-5.96-3.49c-1.63-2.29-1.56-4.45-0.35-6.89
	c0.69-1.38,0.88-2.66,1.26-4.14c0.54-2.1,1.5-4.25,2.18-6.37c1.21-3.79,2.37-7.69,3.27-11.54c0.37-1.58,0.93-3.24,1.22-4.83
	c0.18-0.99-0.23-2.42,0.81-2.78c1.31-0.45,1.43,0.86,2.23,1.3c0.89,0.49,2.01-0.21,2.91,0.19c1,0.44,1.07,1.15,1.12,2.13
	c0.05,0.98-0.14,1.74-0.38,2.66c-0.24,0.91-0.1,1.87-0.31,2.72c-0.54,2.21-1.43,3.89-1.41,6.21c0.02,1.69-0.37,6.04,2.78,5.55
	c0.65-0.1,1.52-1.1,2.03-1.44c0.65-0.43,1.5-0.75,2.08-1.36c1.48-1.55,0.65-1.05,2.73-1.36c1.23-0.18,2.76-1.09,3.49-2.08
	c3.73-5.07-3.01-11.6,1.84-16.03c1.66-1.51,3.39-2.39,4.81-4.13c1.57-1.92,2.29-3.47,2.24-6c-0.03-1.32,0.46-1.59,0.72-2.72
	c0.21-0.89-0.11-1.86,0.12-2.79c0.46-1.87,3.49-5,1.3-6.76c-0.97-0.78-3.26-0.7-4.38-0.34c-2.22,0.72-3.25,2.79-4.01,4.98
	c-0.71,2.05-0.31,5.2-1.84,6.89c-0.52,0.57-2.57,1.53-3.5,0.62c-0.49-0.48-0.18-2.64-0.14-3.3c0.11-1.67,0.51-4,1.21-5.57
	c1.12-2.51,3.86-4.01,6.4-4.63c1.13-0.27,2.34-0.48,3.44-0.71c0.96-0.19,1.9,0.08,2.78,0.55c1.15,0.62,0.76,1.19,1.48,1.93
	c0.51,0.52,1.47,0.6,2.08,1.29c0.71,0.81,1.97,2.44,1.98,3.66c0,1.21-1.43,3.01-1.96,3.98c-0.6,1.1-1.4,1.86-2.1,2.9
	c-1,1.5-0.74,2.84-2.15,4.13c-1.05,0.97-2.42,1.28-2.87,2.7c-0.43,1.37,0.16,3.38,0.08,4.88c-0.07,1.19-0.35,2.47-1.34,3.29
	c-1.18,0.97-2.76,0.5-3.37,2.18c-0.45,1.27,0.13,2.7-0.09,3.99c-0.18,1.01-0.66,2.05-1.22,2.92c-0.78,1.2-1.91,1.81-2.95,2.72
	c-1.71,1.49-1.04,2.45-1.34,4.51c-0.38,2.65-3.11,2.82-3.48,5.12c-0.17,1.1,0.49,1.84,0.58,2.77c0.19,2.06-1.13,2.06-2.63,2.06
	c-3.95,0-0.98-2.3-0.64-4.66c0.21-1.46,0.08-2.22-1.43-2.25c-1.35-0.03-1.25,0.76-2.2,1.27c-2.15,1.14-4.31-1.2-5.57,1.65
	c-0.58,1.31-0.16,2.61-0.63,3.83c-0.38,1-1.71,2.09-2.35,2.97c-0.75,1.03-3.46,5.32-0.29,5.54c1.07,0.07,2.48-1.27,3.5-1.68
	c1.36-0.55,2.18-0.5,3.37-1.33c1.07-0.74,2.09-1.3,2.79-2.32c0.83-1.22,1.05-2.44,2.27-1.03c2.23,2.6-1.01,5.47-2.92,6.77
	c-2.08,1.42-3.62,1.73-3.57,4.84c0.03,1.83,0.8,2.69,2.54,2.92c4.27,0.57,8.59-0.01,8.6-5.24c0-1.18-0.39-2.75,0.45-3.78
	c0.7-0.87,1.92-0.82,2.92-1.43c3.54-2.18,2.84-5.23,2.79-8.84c-0.02-1.55-0.22-2.2,0.97-3.19c1.22-1.01,2.74-1.06,3.87-2.23
	c1.73-1.81,0.83-10.01,4.11-10.16c1.41-0.07,1.55,1.76,2.01,2.67c0.79,1.55,1.84,3.37,3.37,4.2c1.9,1.03,4.62,0.26,6.37,1.11
	c1.41,0.68,0.89,1.91,1.27,3.15c0.71,2.3,3.42,2.7,5.53,3.22c1.91,0.47,5.49,1.4,6.78-0.96c0.95-1.74,0.01-6.07,0.09-8.02
	c0.09-2.08,1.4-2.32,2.16-4.24c0.75-1.91-0.09-3.03-2.12-2.82c-1.95,0.2-4.96,1.77-6.4,2.96c-1.01,0.83-3.5,3.47-4.96,2.61
	c-0.98-0.57-0.89-2.56-0.39-3.52c0.67-1.27,2.51-1.39,3.81-1.98c3.37-1.53,8.28-4.06,8.49-8.29c0.1-2.05-3.17-9.69-6.11-8.2
	c-1.11,0.56-1.29,3.7-1.69,4.81c-0.51,1.42-1.02,2.22-1.06,3.73c-0.05,1.6,1.03,2.68,0.08,3.82c-0.72,0.87-1.83,1.13-2.78,1.53
	c-1.65,0.69-1.84,0.91-2.1-0.81c-0.19-1.24,0.18-2.57,0.04-3.81c-0.42-3.82-4.67-5-4.2-9.32c0.16-1.49,0.96-2.72,1.43-4.15
	c0.53-1.58,0.99-2.91,2.2-4.13c1.07-1.08,1.96-1.84,2.91-3.11c1.29-1.73,2.15-3.29,2.93-5.28c1.16-2.94,2.89-5.2,4.97-7.55
	c2.06-2.34,5.73-4.71,5.55-8.1c-0.27-4.91-9.75-8.95-13.05-4.47c-2.28,3.1,0.28,10.45-4.18,11.94c-4.04,1.35-1.19-4.67-0.48-6.13
	c0.47-0.97,0.88-2.23,1.59-3c0.86-0.95,1.57-1.17,2.17-2.45c0.67-1.42,1.12-2.69,0.9-4.31c-0.2-1.45-0.41-3.26-0.83-4.64
	c-0.51-1.71-2.48-3.28-4.02-3.99c-0.72-0.33-3.18-1.58-3.82-1.43c-2.91,0.67-4.05,9.5-3.46,11.61c0.39,1.41,1.33,2.72,1.63,4.16
	c0.41,2-0.49,1.79-1.12,3.56c-0.76,2.14,1.11,5.11-1.65,5.88c-1.02,0.28-1.94,0.26-2.95-0.15c-1.81-0.74-1.8-1.88-1.74-3.69
	c0.07-2.12,1.14-3.22,1.96-5.13c0.64-1.5,1.11-3.18,1.51-4.74c0.49-1.93,0.86-3.67,1.55-5.55c0.59-1.59,0.94-1.77,1.91-2.98
	c0.97-1.21,1.29-3.06,2.03-4.44c0.55-1.01,3.47-4.1,3.45-5.17c-0.01-0.5-0.43-1.91-0.67-2.39c-0.57-1.13-0.79-1.24-2.07-1.37
	c-0.94-0.1-2.12-0.12-2.71,0.41c-0.65,0.58-0.82,2.29-1.22,3.06c-0.4,0.78-1.13,1.66-1.96,1.99c-0.65,0.26-3.01,0.39-3.64-0.07
	c-1.29-0.95,0.22-2.95,0.45-4.04c0.23-1.12,0.49-2.94,0.03-3.99c-1.79-0.18-3.5-1.26-4.91,0.52c-1.54,1.94,0.51,3.89-2.69,4.74
	c-2.55,0.68-4.24-0.03-3.85-2.77c0.19-1.37,0.34-3.2,0.69-4.54c0.23-0.86,0.65-1.68,1.36-2.23c1.57-1.23,4.69-0.76,5.95,0.7
	c1.31,1.52,0.59,3.2,2.86,4.02c1.86,0.67,4.03,0.05,6,0.64c1.63,0.49,5.47,2.4,7.11,1.46c1.38-0.79,2.01-4.23,2.54-5.56
	c0.79-1.99,0.92-1.83,2.75-2.72c1.39-0.67,1.99-1.26,2.97-2.47c1.38-1.7,8.2-7.42,6.05-10.33c-1.32-1.79-3.86,0.15-2.85-3.05
	c0.67-2.14,1.77-4.67,0.25-6.77c-1.55-2.14-3.91-1.69-6.1-2.17C64.95,1.47,63.08-0.02,60.89,0C61.34,0.07,61.74,0.07,63.51,0.74z"/>
</svg>
