<?xml version="1.0" encoding="utf-8"?>
<!-- Generator: Adobe Illustrator 25.2.0, SVG Export Plug-In . SVG Version: 6.00 Build 0)  -->
<svg version="1.1" id="Layer_1" xmlns="http://www.w3.org/2000/svg" xmlns:xlink="http://www.w3.org/1999/xlink" x="0px" y="0px"
	 viewBox="0 0 159.28 174.56" style="enable-background:new 0 0 159.28 174.56;" xml:space="preserve">
<style type="text/css">
	.st0{fill:#2E8857;}
</style>
<g>
	<g>
		<path class="st0" d="M32.09,171.3c-1.43-0.2-1.86,1.03-2.6,1.82c-0.85,0.35-2.17-0.16-2.43,1.3l-0.03,0.03
			c-2.07,0.56-3.56-1.19-5.44-1.35c-1.96-1.98-3.92-3.95-5.88-5.93c-0.04-0.62-0.5-0.81-0.98-0.99c-0.04-0.31-0.08-0.62-0.12-0.93
			c-0.37-1.1-0.64-2.25-1.61-3.03l0.01,0.01c-0.89-1.29,0.33-3.47-1.78-4.25c0.04-1.12,0.26-2.25-0.06-3.37
			c-0.84-2.59-1.61-5.18-0.11-7.8c0.58-0.78,0.09-1.66,0.23-2.48c0.41-0.14,0.76-0.32,0.81-0.82c0.69-1.3,0.53-2.95,1.68-4.06
			l0.07-0.06c0.59-0.01,0.9-0.3,0.91-0.9l0.06-0.07c1.76-1.52,1.62-3.81,2.31-5.76l0.09-0.11c0.56,0.01,0.9-0.23,0.9-0.83
			c0.2-0.18,0.4-0.37,0.6-0.55c1.51-2.56,2.81-5.28,5.13-7.28c0.05-0.04-0.07-0.28-0.11-0.42c0.05-0.31,0.1-0.62,0.16-0.93
			c1.75-1.36,1.81-3.82,0.12-5.14l-0.06-0.07c-0.04-0.86,0.21-1.73-0.19-2.56c0-0.27-0.01-0.55-0.01-0.82
			c0.23-0.68,0.05-0.98-0.7-0.78c-0.53-0.23-1.06-0.45-1.59-0.68c-1.65-1.6-2.93-0.8-4.11,0.63c-0.63,0.03-1.27,0.05-1.9,0.08
			c-0.7-0.22-0.82,0.24-0.89,0.76l-0.08,0.07c-1.73-0.37-2.74,1.45-4.42,1.41c-1.1-0.03-2.38-0.81-3.27-0.05
			c-1.55,1.32-2.36,0.42-3.32-0.66c-0.47-0.52-1.08-0.91-1.63-1.35l0,0c-2.47-4.02-2.47-8.05,0-12.07l0,0
			c1.06-0.56,1.86-1.37,2.42-2.43l0,0c0.51-0.13,0.88-0.41,0.98-0.96l0,0c1.08-0.8,2.37-1.43,2.55-3c0.09-0.35,0.17-0.71,0.26-1.06
			c0.55-0.02,0.91-0.24,0.91-0.84c0.51-0.52,1.02-1.05,1.53-1.57c0.6,0.01,0.88-0.29,0.88-0.88l0.06-0.07
			c0.53-0.05,0.92-0.25,0.92-0.87c0.19-0.19,0.37-0.39,0.56-0.58c0.6,0,0.85-0.34,0.87-0.9l0.07-0.07c0.59,0,0.9-0.3,0.91-0.89
			l0.06-0.07c0.52-0.06,0.91-0.26,0.93-0.87c0.18-0.2,0.37-0.4,0.55-0.6c0.6,0,0.85-0.33,0.87-0.89l0.07-0.07
			c2.12,0.23,2.95-1.39,3.97-2.75l-0.01,0.01c0.64-0.8,2.02-0.28,2.5-1.39l-0.1-0.08l0.09,0.08c0.51-0.13,0.89-0.4,0.98-0.96
			c0.46-0.06,0.69-0.38,0.83-0.79c0.31-0.04,0.62-0.08,0.93-0.13c0.72,0.3,0.85-0.17,0.92-0.71l0.06-0.06
			c0.55-0.04,0.93-0.26,0.92-0.88c0.19-0.19,0.37-0.37,0.56-0.56c1.1-0.15,0.8-1.03,0.81-1.67c0.07-2.48-1.4-4.62-1.61-7.05
			l-0.13,0.11l0.13-0.11c-0.05-0.5-0.4-0.68-0.83-0.8c-0.01-1.96-0.01-3.93-0.02-5.89c0.42-0.13,0.77-0.32,0.83-0.82
			c0.66-1.29,1.23-2.56-0.67-3.32c-0.09-1.97-0.17-3.93-0.26-5.9c-1.08-1.94-1.38-3.88-0.06-5.84c0.11-0.88,0.21-1.75,0.32-2.63
			c1.08-0.08,1.29-0.87,1.15-1.68c-0.29-1.59,0.26-2.85,1.19-4.05l0.08-0.08c0.56-0.03,0.98-0.17,0.76-0.88
			c0.01-0.64,0.02-1.28,0.02-1.92c0.97-0.88,2.12-1.59,2.61-2.9l0.03-0.03c0.61-0.04,1.02-0.23,0.76-0.96
			c0.03-0.31,0.07-0.62,0.1-0.93c0.46-0.2,0.93-0.38,0.96-0.99c2.77-2.8,5.54-5.59,8.31-8.39c2.37,0.03,4.74-0.11,7.09-0.2
			c2.22-0.08,4.02,1.06,6.1,1.18c0.25,0.26,0.5,0.52,0.75,0.78c0.49,0.74,1.47,0.37,2.05,0.91l-0.01-0.01
			c0.24,0.74,0.73,1.21,1.46,1.47l-0.01-0.01c0.12,0.53,0.43,0.87,0.97,0.98l-0.01-0.01c0.09,0.56,0.48,0.83,0.99,0.96l-0.01-0.01
			c0.85,0.71,0.45,2.15,1.55,2.72c0.54,0.51,1.09,1.02,1.63,1.53c-0.25,2.63,0.9,4.77,2.37,6.81c0.18,1.3-0.39,2.65,0.28,3.92
			c0.2,0.34,0.61,0.71,0.56,1.01c-0.42,2.29,1.24,4.14,1.27,6.33c0.01,0.71,0.33,1.24,1.15,1.25c0.51,1.63-0.25,3.36,0.37,4.98
			c0.97,1.11,0.91,2.22-0.01,3.32c-0.46,1.47-0.14,2.97-0.11,4.45c-1.96,1.64-1.78,4.18-2.61,6.29l-0.05,0.05
			c-0.62-0.01-0.91,0.31-0.94,0.91l-0.04,0.04c-1.69,0.23-0.84,1.97-1.63,2.74c-0.26,0.27-0.52,0.54-0.77,0.81
			c-0.51,0.02-0.93,0.11-0.73,0.79c-0.04,0.31-0.07,0.62-0.11,0.93c-0.24,0.3-0.48,0.6-0.72,0.91l0.01-0.01
			c-1.07,0.99-1.02,2-0.03,3.01l-0.01-0.01c0.11,0.54,0.46,0.85,0.98,0.97l-0.01-0.01c0.08,0.58,0.49,0.82,0.99,0.96l-0.01-0.01
			c0.31,1.17,1.34,0.6,2.03,0.85l0.03,0.03c0.07,0.57,0.23,1.03,0.96,0.73c2.86,0.21,5.72,0.22,8.57,0
			c0.73,0.29,0.87-0.18,0.94-0.73l0.04-0.04c0.56-0.04,0.93-0.28,0.94-0.9c0.18-0.18,0.36-0.36,0.54-0.54c0.62,0,0.84-0.39,0.9-0.94
			l0.05-0.04c0.61,0,0.91-0.32,0.93-0.92l0.04-0.04c0.81-0.13,1.21-0.67,1.42-1.41l0.04-0.03c0.62-0.01,0.88-0.37,0.92-0.94
			l0.04-0.04c0.59-0.02,0.92-0.32,0.93-0.92l0.04-0.04c0.8-0.14,1.23-0.66,1.41-1.41l0.04-0.03c0.66,0.02,0.93-0.24,0.61-0.89
			c0.02-0.25,0.04-0.5,0.06-0.75c0.43-0.26,0.9-0.49,0.97-1.07c0.78-0.8,1.57-1.59,2.35-2.39c0.52-0.15,0.94-0.4,1.03-1
			c0.79-0.79,1.58-1.58,2.37-2.37c0.8-0.72,2.45-0.04,2.71-1.65l0.05-0.04c0.61-0.01,0.91-0.32,0.93-0.92l0.04-0.04
			c0.56-0.05,0.93-0.28,0.94-0.9c0.18-0.18,0.36-0.37,0.54-0.55c0.62,0.01,0.85-0.37,0.9-0.92c0.52-0.14,1.04-0.28,1.56-0.41
			c0.72-0.7,1.98-0.42,2.57-1.37c0.16-0.04,0.25-0.15,0.26-0.32c2.69-0.15,5.46-0.84,7.86,1.11l0.03,0.03
			c0.26,0.77,1.21,1.45,0.32,2.38l0.09,0.08l-0.08-0.09c-0.55,0.1-0.89,0.43-1.02,0.97c-0.46,0.47-0.93,0.95-1.39,1.42
			c-0.5,0.16-0.94,0.37-1.01,0.97c-0.84,1.94-0.49,3.91-0.17,5.89c-0.01,0.34-0.02,0.69-0.04,1.03c-0.36,0.19-0.67,0.42-0.71,0.87
			l0.01-0.01c-1.19,0.47-0.59,1.49-0.64,2.26c-0.11,1.76,0.28,3.58-0.89,5.15c-0.01,0.27-0.02,0.55-0.03,0.82
			c-0.21,0.37-0.2,0.74,0,1.11c-0.09,0.18-0.17,0.36-0.26,0.54c-1.99,1.43-2.32,3.53-2.33,5.76l-0.07,0.07
			c-0.62-0.03-0.9,0.29-0.93,0.89l-0.05,0.05c-1.68,0.23-0.85,1.95-1.61,2.73c-0.15,0.15-0.3,0.29-0.45,0.44
			c-0.51,0.14-0.93,0.38-1,0.97c-0.55,0.2-1.04,0.47-1.14,1.13c-0.41,0.43-0.83,0.86-1.24,1.28c-1.36,0.68-2.92,1.06-3.68,2.59
			l-0.06,0.06c-0.54,0.06-1.02,0.17-0.81,0.9c-0.03,0.31-0.06,0.62-0.09,0.93c-0.19,0.22-0.38,0.44-0.58,0.66
			c-0.83,0.06-1.7-0.29-2.47,0.26c-1.88,0.97-4.24,0.76-5.84,2.41l0.01-0.01c-0.54,0.11-0.86,0.43-0.98,0.97l0.01-0.01
			c-1.86,1.02-4.22,0.83-5.83,2.44c-0.08,0.24-0.15,0.47-0.23,0.71c-0.41,1.34-2.28,1.64-2.28,3.27c0,0.27,0,0.55,0,0.82
			c-0.39,0.83-0.15,1.7-0.21,2.55l-0.05,0.06c-0.15,0.03-0.38,0-0.45,0.09c-2.66,3.39-2.73,10.21,0.71,13.54
			c0.03,0.26,0.07,0.52,0.1,0.79c0.71,1.39,1.15,2.91,2.18,4.13c0.09,0.23,0.18,0.46,0.27,0.69c1.18,1.28,0.24,2.98,0.87,4.37
			c0.01,0.31,0.03,0.62,0.04,0.93c0.32,1.03,1.2,1.86,0.91,3.14c-0.13,0.57-0.43,1.43,0.47,1.85l0.12-0.11l-0.11,0.12
			c0.06,0.46,0.38,0.66,0.78,0.79c0.03,1.12,0.06,2.23,0.1,3.35c-0.18,0.71,0.25,0.83,0.81,0.83l0.09,0.11
			c-0.26,1.69,1.05,2.72,1.67,4.05l-0.01-0.01c0.04,0.48,0.38,0.68,0.76,0.85c0.04,0.31,0.07,0.62,0.11,0.93
			c-0.25,0.71,0.18,0.85,0.74,0.89l0.07,0.07c0.02,0.56,0.26,0.91,0.87,0.91c0.19,0.19,0.38,0.39,0.56,0.58
			c0,0.61,0.38,0.82,0.92,0.85c0.08,0.83,0.17,1.67,0.25,2.5c0.6,1.12,1.38,2.24,0.09,3.42l0.01-0.01
			c-0.52,0.13-0.87,0.43-0.98,0.97l0.01-0.01c-0.57,0.1-0.83,0.49-0.96,1.01c-0.15,0.15-0.31,0.31-0.46,0.46
			c-0.52,0.13-0.91,0.4-0.99,0.98l0.01-0.01c-0.51,0.13-0.88,0.42-0.98,0.97l0.01-0.01c-0.85,0.1-1.92,1.92-2.47-0.28
			c-0.17-0.67-0.28-1.42-1.16-1c-0.67,0.32-0.72,1.14-0.3,1.67c0.51,0.64,1.07,1.15,0.45,2.01c-1.42,1.36-3.18,0.6-4.79,0.77
			c-0.95,0.1-1.91,0.06-2.87,0.09c-0.82-2.02-2.94-0.95-4.26-1.78l0.01,0.01c-0.23-0.75-0.71-1.25-1.47-1.47
			c-1.03-0.48-2.1-0.24-3.16-0.15c-0.39-0.27-0.79-0.54-1.18-0.81l0.01,0.01c-0.77-0.98-1.74-1.64-3.01-1.8l-0.04-0.04
			c-0.03-0.59-0.31-0.92-0.92-0.92l-0.05-0.04c-0.51-0.76-1.01-1.52-1.52-2.28c-0.08-0.24-0.17-0.47-0.25-0.71
			c-0.72-1.55-2.16-2.83-1.8-4.78c0.46-2.54-0.8-4.38-2.42-6.08c0.04-0.13-0.01-0.22-0.14-0.27c-0.71-1.06-1.94-1.18-2.98-1.63
			c-1.78,0.11-3.78-1.01-5.23,0.95c-0.76-0.05-1.65-0.45-1.9,0.76l-0.04,0.05c-1.78,0.36-0.98,2.4-2.09,3.19l0.01-0.01
			c-0.5,0.14-0.91,0.38-0.99,0.96c-1.09,2.08-2.01,4.21-1.6,6.64c0.18,1.04-0.37,1.8-0.78,2.63c-0.64,1.62,0.1,3.35-0.37,4.99
			c-0.7,0.21-1.71-0.34-2.02,0.83l0.01-0.01c-0.5,0.14-0.91,0.38-0.99,0.96l0.01-0.01C32.86,170.73,32.47,171.02,32.09,171.3z"/>
		<path class="st0" d="M7.53,105.95c-0.7,0.18-1.88-0.37-1.87,0.82c0.01,1.16,1.17,0.75,1.88,0.77c0.76,0.03,1.99,0.21,2.02-0.67
			C9.61,105.64,8.29,106.14,7.53,105.95z"/>
		<path class="st0" d="M82.96,165.67c0.95,0.01,1.49-0.44,1.53-1.41c0.02-0.51-0.17-1.1-0.71-1.01c-0.89,0.14-1.54,0.81-1.76,1.67
			C81.87,165.51,82.45,165.65,82.96,165.67z"/>
		<path class="st0" d="M76.58,30.05c0.75-0.15,0.95,0.61,1.47,0.77c0.67,0.21,1.33,0.21,1.61-0.56c0.25-0.68,0.08-1.5-0.68-1.52
			c-1.37-0.03-1.26-1.08-1.77-1.83c-0.73-1.08-1.55-2.63-3.39-0.99c-1.13,1.01-2.21,0.58-2.09-1.13c0.12-1.7-0.92-3.82,1.96-4.67
			c0.51-0.15,0.99-2.73,1.42-4.2c0.67-2.26,2.23-4.04,2.83-6.41c0.42-1.68,3.02-2.41,4.64-3.37c1.49-0.88,2.64-1.98,3.86-3.07
			c2.88-2.55,5.86-4.32,9.73-1.98c0.29,0.18,0.91,0.21,1.13,0.03c1.98-1.69,2.44-0.03,2.84,1.33c0.34,1.16,0.68,1,1.44,0.38
			c3.2-2.59,4.68-2.07,5.41,1.89c0.17,0.91,0.45,0.97,1.28,0.57c2.49-1.18,3.31-0.83,4.47,1.88c0.32,0.76,0.74,0.92,1.44,0.95
			c0.86,0.04,0.81-0.5,0.85-1.09c0.11-1.71,1.48-1.15,2.39-1.18c0.81-0.02,1.26-1.62,1.98-0.69c0.67,0.87,0.61,2.74,0.08,3.19
			c-2.29,2-1.95,5.42-4.46,7.32c-2.03,1.53-1.83,1.8-2.72-0.49c-2.23,1.52-2.65,2.88-1.04,5.14c1.43,2.02,2.05,3.67,0.46,5.98
			c-0.62,0.9-1.03,1.2-1.95,1.2c-1.53-0.01-3.06,0-4.6,0c-0.76,0-1.51,0.04-1.58,1.05c-0.06,0.8,0.4,1.1,1.15,1.24
			c1.6,0.29,1.59,1.22,0.64,2.19c-0.59,0.61-0.38,1.38-0.66,1.94c-0.89,1.78-0.54,2.86,0.89,4.33c1.18,1.22,0.2,2.95-1.23,3.84
			c-1.35,0.84-2.4-0.41-2.69-1.25c-0.54-1.57-2.12-2.89-1.42-4.86c0.17-0.47,0.2-1.23-0.56-1.36C99,34.5,99.11,35.17,99,35.61
			c-0.34,1.43-1.19,0.79-1.38,0.12c-0.84-2.89-3.89-2.31-5.56-3.75c-1.9-1.64-4.57-0.32-6.39-2.11c-0.5-0.5-1.4,0.05-1.43,1.02
			c-0.03,1.05-0.86,1.76-1.53,2.01c-1.39,0.51-3.21,0.11-3.48,2.36c-0.04,0.32-1.31,0.43-1.46-0.07
			C77.31,33.53,75.31,32.13,76.58,30.05z M115.9,8.86c0.25-0.24-0.03-0.43-0.16-0.53c-0.1-0.08-0.45-0.27-0.51,0.1
			c-0.03,0.18,0.02,0.45,0.14,0.56C115.46,9.07,115.79,9.24,115.9,8.86z"/>
		<path class="st0" d="M108.35,55.73c0.38-1.13,1.93-2.21,0.11-3.45c-0.33-0.22-0.61-0.69-0.99-0.47c-2.72,1.56-4.29-0.43-5.98-1.94
			c-0.53-0.47-1.03-0.82-1.7-0.6c-0.78,0.25-0.7,0.95-0.71,1.61c-0.05,2.12-1.3,3.07-3.27,2.84c-2.24-0.26-3.86,0.5-5.2,2.23
			c-0.34,0.44-0.68,1.37-1.45,0.93c-0.66-0.37-1.4-0.93-1.46-1.81c-0.07-1.04-0.29-2.24,0.12-3.1c0.76-1.58,1.07-3.11,1.06-4.84
			c-0.01-1.53,0.97-1.77,2.08-0.89c0.88,0.69,1.63,1.55,2.4,2.37c0.74,0.79,1.78,0.9,2.35,0.24c0.79-0.9-0.07-1.67-0.92-1.99
			c-2.34-0.88-3.56-3.46-6.55-3.68c-1.38-0.1-2.72-2.32-3.84-3.77c-0.46-0.6-0.51-1.83,0.23-2.46c0.7-0.59,1.81-0.57,2.5-0.07
			c0.85,0.62,1.27,0.65,2.2,0.03c1.82-1.2,3.78,0.28,4.72,1.21c3.36,3.33,7.43,5.66,11.06,8.58c1.29,1.04,2.27,2.16,2.02,4.05
			c-0.16,1.21,0.42,1.69,1.54,0.75c1.15-0.96,1.86-1.99,1.89-3.66c0.04-1.91-0.69-3.89,0.59-5.86c0.3-0.46-0.29-2.82-1.13-3.98
			c-0.66-0.92-1.25-1.87-1.75-2.86c-0.3-0.6-1.73-0.88-0.72-1.89c0.53-0.53,1.03-1.4,1.99-1.14c1.06,0.29,2.05,1.07,2.06,2.08
			c0.03,2.81,0.96,5.27,2.26,7.67c0.07,0.13,0.15,0.4,0.09,0.45c-2.2,1.95-0.28,4.98-1.89,7.1c-0.67,0.88-0.89,2.12-0.03,2.86
			c0.77,0.67,2,0.66,2.88-0.13c0.84-0.76,1.74-1.21,2.35-0.02c0.54,1.05-0.64,1.17-1.22,1.74c-1.64,1.63-3.96,0.3-5.52,1.67
			C109.81,55.81,109.09,55.84,108.35,55.73z"/>
		<path class="st0" d="M136.75,22.44c-0.46,3.96-1.11,7.84-4.1,10.84c-0.5,0.5-1.02,0.89-1.74,1.17c-1.09,0.42-2.95,0.8-1.21,2.73
			c0.7,0.78-0.08,1.42-0.66,2.02c-0.61,0.62-1.43,1.33-2.04,0.68c-1.81-1.92-3.35-0.63-4.62,0.4c-1.88,1.53-3.28,1.17-4.73-0.44
			c-0.43-0.48-0.94-0.89-1.35-1.37c-0.59-0.69-1.8-1.21-1.13-2.37c0.56-0.96,1.38-1.76,2.71-1.67c0.72,0.05,1.46-0.02,2.08-0.47
			c0.47-0.34,0.9-0.77,0.6-1.41c-0.31-0.66-0.98-0.61-1.45-0.36c-0.95,0.5-1.64,1.47-2.96,0.45c-1.27-0.98-1.46-2.35-1.03-3.43
			c0.85-2.17,0.77-4.76,2.88-6.45c0.9-0.72,1.34-0.95,2.07,0.03c0.7,0.94,1.8,1.52,1.96,2.91c0.08,0.73,0.81,1.57,1.62,1.51
			c0.77-0.06,1.26-0.87,1.62-1.61c1.21-2.47,2.71-4.43,5.73-5.08c1.38-0.3,3.01-0.59,4.18-1.35c1.54-0.99,1.59-0.45,1.57,0.86
			C136.74,20.83,136.75,21.64,136.75,22.44z M131.23,24.28c0.83-0.3,1.74-0.83,2.02-1.9c0.14-0.56-0.49-0.81-0.99-0.69
			c-1.11,0.27-2.16,0.78-2.34,2.02C129.83,24.25,130.54,24.31,131.23,24.28z"/>
		<path class="st0" d="M125.68,52.61c-1.04,0-2.09,0.02-3.13-0.01c-0.69-0.01-1.55,0.2-1.76-0.8c-0.27-1.26-0.02-2.33,1.08-3.2
			c0.74-0.58,1.36-0.79,2.12-0.18c1.81,1.45,2.12,0.86,2.58-1.26c0.42-1.91,0.91-4.38,3.68-4.92c0.68-0.13,1.29-0.92,1.8-1.52
			c1.88-2.23,4.63-2.31,7.15-2.91c0.68-0.16,1.76-0.39,2.02,0.72c0.19,0.83,0.46,1.93-0.35,2.49c-2.51,1.72-3.5,4.91-6.31,6.33
			c-1.09,0.55-1.07,1.88-1.66,2.78C131.52,52.25,130.29,52.61,125.68,52.61z"/>
		<path class="st0" d="M127.64,58.32c1,0.08,1.88,0.94,1.95,1.54c0.18,1.6,1.35,2.96,1.32,4.38c-0.04,1.8,0.82,3.13,1.28,4.67
			c0.26,0.87,1.77,1.35,1,2.44c-0.82,1.15-1.72,2.46-3.11,2.85c-1.94,0.54-1.76,1.3-0.62,2.46c0.6,0.61,0.67,1.32,0.09,1.93
			c-0.42,0.44-0.75,1.27-1.44,1.12c-0.78-0.17-1.63-0.96-1.55-1.63c0.31-2.51-0.82-4.23-2.52-5.82c-0.42-0.39-0.51-1.02,0.28-1.33
			c1.4-0.56,1.26-1.3,0.44-2.4c-1.23-1.65-0.77-6.01,0.66-7.5c0.49-0.52,1.08-0.94,1.08-1.78C126.5,58.57,126.97,58.29,127.64,58.32
			z"/>
		<path class="st0" d="M76.32,51.95c-0.37-4.14,1.48-6.63,4.83-8.22c0.65-0.31,1.28-0.38,1.77,0.13c1.06,1.12,2.03,2.3,3.84,1.92
			c0.16-0.03,0.43,0.17,0.57,0.33c0.17,0.19-1.47,4.19-1.75,4.19c-1.25,0.04-1.48,0.8-1.3,1.8c0.19,1.07-0.59,1.56-1.14,2.23
			c-1.3,1.55-3.65,1.99-4.3,4.27c-0.18,0.62-1.5,1.22-1.35,0.02C77.81,56.08,75.29,54.18,76.32,51.95z"/>
		<path class="st0" d="M145.25,63.14c2.11,0.69,1.85,2.52,1.68,4.15c-0.15,1.34,0.95,2.97-1.54,3.9c-1.14,0.43-1.82,2.34-3.79,1.98
			c-1.82-0.33-2.36-1.13-1.66-2.83c0.44-1.07,0.63-2.61,0.05-3.24c-1.35-1.45-0.44-3.67-2.03-4.91c-0.22-0.17-0.26-0.84-0.11-1.15
			c0.76-1.59,0.93-2.83-0.75-4.16c-0.76-0.6,0.67-1.41,1.3-1.83c0.61-0.4,1.58-0.34,1.65,0.66c0.08,1.24,0.94,1.88,1.71,2.48
			c1.56,1.22,2.1,2.69,1.79,4.61c-0.11,0.64-0.5,1.67,0.37,1.91C145.18,65.08,144.32,63.35,145.25,63.14z"/>
		<path class="st0" d="M147.08,51.51c1.96-0.76,3.33,0.74,4.93,1.25c0.71,0.23,1.23,1.07,2.05,0.19c0.24-0.26,0.8-0.13,0.79,0.14
			c-0.09,2.03,2.6,3.16,1.68,5.47c-0.42,1.07,0.56,0.83,1.13,0.88c0.59,0.04,1.47-0.39,1.61,0.5c0.12,0.79-0.75,1.22-1.32,1.55
			c-0.77,0.46-2.14,0.57-2.48,0.02c-1.04-1.69-3.22-1.78-4.28-3.72c-0.76-1.4-3.16-2.15-5.28-1.78c-1.89,0.33-2.39-0.46-2.45-2.38
			C143.36,50.32,145.72,51.85,147.08,51.51z"/>
		<path class="st0" d="M80.92,121.08c2.25-2.77,0.01-7.28,2.89-10.6c0.93-1.08,0.81-3.06,1.6-4.51c0.52-0.95,1.11-1.75,2.18-2.02
			c0.49-0.13,1.04,0.03,1.15,0.6c0.22,1.11,0.38,2.22-0.74,3.05c-1.94,1.44-1.58,3.92-2.54,5.83c-0.85,1.68-1.12,3.64-1.84,5.39
			c-0.61,1.49-0.86,2.89,0.02,4.3c0.26,0.42,0.73,0.78,0.24,1.2c-0.36,0.31-0.99,0.3-1.36-0.02
			C81.69,123.59,80.58,123.02,80.92,121.08z"/>
	</g>
</g>
</svg>
