<?xml version="1.0" encoding="utf-8"?>
<!-- Generator: Adobe Illustrator 25.2.0, SVG Export Plug-In . SVG Version: 6.00 Build 0)  -->
<svg version="1.1" id="Layer_1" xmlns="http://www.w3.org/2000/svg" xmlns:xlink="http://www.w3.org/1999/xlink" x="0px" y="0px"
	 viewBox="0 0 292.61 160.15" style="enable-background:new 0 0 292.61 160.15;" xml:space="preserve">
<style type="text/css">
	.st0{fill:#AF2222;}
</style>
<g>
	<g>
		<path class="st0" d="M7.94,160.15c-0.83-1.61,0.4-1.54,1.41-2.05c3.64-1.81,6.8-4.09,6.94-8.76c0.05-1.86-0.49-2.56-2.56-2.64
			c-2.4-0.1-1.31,1.05-1.62,2.24c-0.48,1.8-0.25,4.37-3.32,4.96c-2.18,0.42-1.5-0.22-1.72-1.63c-0.12-0.83-2.55-2.09-3.66-1.84
			c-2.64,0.58-2.84-1.09-3.41-2.86c1.63,1.37,3.63,0.26,5.48,1.24c1.35,0.71,4.02,1.99,3.81-2.39c-0.1-2.06,4.11-2.65,6.68-3.01
			c1.04-0.15,4.47-1.87,5.02-3.07c2.25-4.87,2.25-4.87,1.8-9.05l-0.16,0.16c5.04,0.98,4.18-1.15,2.43-4.25
			c-0.53-0.95-0.38-3.31,0.29-3.74c4.24-2.72,5.53-7.42,8.18-11.2c1.66-2.37,4.87-1.23,7.25-1.42c5-0.41,10.11-0.07,15.13,0.42
			c4.68,0.45,7.27-1.67,10.21-5.12c2.89-3.4,3.79-7.92,7.18-10.85c3.68-3.18,8.36-5.24,12.73-4.83c8.22,0.78,13.43-5.12,20.2-7.35
			c0.66-0.22,1.55-1.16,1.54-1.76c-0.09-8.1,7.29-7.52,11.82-10.04c2.93-1.64,6.32-2.24,9.64-0.14c2.23,1.41,4.24,0.87,5.52-1.6
			c1.55-2.99,4.89-1.75,6.93-2.01c6.67-0.84,12.63-3.72,19-5.23c3.72-0.88,7.25-2.9,6.81-6.31c-0.46-3.54-5.25-3.01-8.23-3.66
			c-2.2-0.47-4.57-0.27-6.46-1.73c-2.58-1.99-2.26-3.84,0.46-5.48c2.44-1.47,5.05-2.04,7.88-1.94c8.72,0.29,17.37-0.41,25.92-2.06
			c2.06-0.4,4.83-0.31,5.23-3.72c0.1-0.88,1.65-2.76,2.97-2.1c4.25,2.12,8.27-1.06,12.45-0.19c1.21,0.25,3.19,0.97,3.95-0.76
			c0.84-1.92-0.35-3.41-1.85-4.67c-0.88-0.74-1.52-1.81-2.92-1.39c-0.27-0.24-0.54-0.47-0.81-0.71c-0.51-2.65-2.63-1.44-3.68-1.08
			c-1.12,0.39-3.04,0.51-3.2,2.32c-0.26,2.95-1.7,4.28-4.19,4.11c-3.82-0.25-7.17-2.98-11.55-0.95c-2.77,1.28-6.48-3.92-5.94-7.13
			c1.45-8.49,6.82-12.79,14.81-14.5c1.49-0.32,3.07-0.41,4.12,0.8c4.71,5.4,10.95,6.26,17.59,6.45c1.74,0.05,0.29,1.28,0.03,1.97
			c-1.32,0.37-2.65,0.74-5.24,1.46c2.92-0.08,4.64,1.04,6.04-0.75c0.64,2.31,0.61,2.03-1.53,2.26c-1,0.11-2.56,0.51-3.11,1.92
			c3.53,1.69,3.46,5.05,3.52,8.15c0.12,5.94-5.63,5.68-9.12,8.41c1.16,0.75,0.76,3.95,3.92,1.52c0.72-0.56,3.67,1.07,5.46,0.6
			c1.22-0.32,0.31,3.43,1.72,0.74c0.69-1.32,4.21-1.06,2.04-4.15c-1.6-2.28-2.51-4.94,1.89-6.08c1.54-0.4,2.36-0.08,2.82,0.8
			c2.5,4.84,5.25,2.26,8.04,0.45c0.9-0.58,1.35-2.01,3.07-1.51c0.82,3.33-5.05,2.6-3.92,6.31c0.45,1.5-2.05,3.71-0.53,4.93
			c1.78,1.44,4.86,1.18,6.67,0.29c2.42-1.19,4.76-3.07,6.38-5.56c0.71-1.08,0.75-1.88-0.27-2.45c-1.4-0.77-1.7-0.13-1.6,1.34
			c0.11,1.72-1.38,0.78-2.11,0.87c-1.37,0.17-2.39-0.83-2.32-2c0.18-3.06-2.37-6.26,0.54-9.22c1.04-1.06-0.25-3.02,1.14-4.14
			c0.3-0.45,0.61-0.9,0.91-1.36c-0.83-0.38-1.46-0.27-1.76,0.7c-1.78,0.68-3.55,1.36-5.33,2.04c-1.32-1.4,0.05-2.63,0.78-2.61
			c3.59,0.11,7.02-4.39,9.6-2.28c2.19,1.79-1.72,5.33-2.03,8.38c-0.19,1.89-1.58,3.64-0.58,5.91c2.3-2.01,5.21-0.76,7.85-1.07
			c2.65-0.31,0.13,2.74,1.06,4.35c3.25-2.07,7.38-0.54,9.46,0.71c5.21,3.13,7.3-1.97,10.88-2.65c0.9-0.17,2.04-1.33,0.89-2.74
			c-0.48-0.58-1.04-1.57,0.25-1.48c0.55,0.04,2.53,0.21,2.12,1.46c-1.82,5.59,3.6,4.25,5.7,5.94c0.83,0.67,2.2,0.84,2.32,2.13
			c0.16,1.77-1.27,0.83-2.05,1.02c-0.79,0.19-1.06,0.88-0.81,1.52c0.81,2.08,3.1,3.91,0.91,6.41c1.39,0.8,1.59,1.24-0.12,2.14
			c-1.14,0.6-3.8,1.29-1.03,3.8c0.96,0.86-1.65,2.37-2.87,2.49c-2.48,0.24-1.83-1.86-1.83-3.34c0.96-0.29,1.06-0.93,0.71-1.75
			c-0.45,0.29-0.9,0.59-1.34,0.88c-0.81,0.79-2.58,1.93-2.06,2.47c2.35,2.44,2.87,3.89-1.11,4.81c-0.58,0.13-0.52,1.87,0.34,2.57
			c1.26,1.02,3.73,2.75,4.04,2.15c1.38-2.67,2.7-0.48,3.53-0.06c2.23,1.14,4.45,1.26,6.62,0.44c4.39-1.66,7.84,0.38,9.58,3.68
			c1.36,2.58-0.9,5.81-3.47,7.16c-6.92,3.64-11.77,10.67-19.97,12.12c-1.44,0.26-3.06,0.75-4.37,0.35
			c-6.83-2.06-11.77,1.17-16.43,5.44c-3.11,2.85-5.6,6.39-9.8,8.04c-1.33,0.52-2.31,1.69-1.73,4.25c0.93,4.06-0.9,8.26-3.5,11.61
			c-2.7,3.49-5.68,6.81-8.87,9.87c-2.21,2.13-3.55,4.49-4.31,7.69c6.09-0.39,8.71,3.38,11.73,7.84c2.17,3.2,1.63,7.48,5.11,10.11
			c0.91,0.69-1.8,3.37-2.77,5.19c-56.3,0-112.6,0-168.9,0c-0.68-2.32-2.74-2.48-4.29-1.9c-2.73,1.03-5.23,0.34-7.82-0.11
			c0.04-1.25,0.49-2.53-0.3-3.73c-1.59,1.79-1.54,1.75-3.07,0.08c-0.32-0.35-1.17-0.4-1.73-0.31c-1.93,0.28-4.78-1.35-5.09,2.52
			c-0.05,0.62-1.21,0.58-1.63-0.5c-0.98-2.51-1.52-2.75-3.46-1.02c-1.42,1.27-2.8,1.77-4.7,2.08c-4.71,0.77-7.32-3-10.98-4.43
			c-0.25-1.07,1.08-2.74-1.62-2.77c-3.43-0.04-1.66,2.46-3.22,4.09c2.29-0.64,3.62-1.01,4.95-1.38c-3.38,1.35-0.65,6.01-4,7.37
			C14.61,160.15,11.27,160.15,7.94,160.15z M247.88,62.28c1.81-0.09,3.61-0.19,6.07-0.32c-4.72-2.35-4.72-2.35-7.19,0.35
			c0.12,0.24,0.23,0.48,0.35,0.72C247.37,62.79,247.63,62.54,247.88,62.28z M252.76,70.15c-0.62,3.73,1.14,4.49,3.99,4.07
			c1.98-0.29,3.9,0.04,5.61,1.19c-3.23,4.04,1.49,2.22,2.4,3.14c0.73,0.73,1.83,2.97,2.87,0.88c0.98-1.98,3.27-3.87,2.45-6.25
			c-0.78-2.27-2.44,0.01-3.71,0.03c-3.58,0.04-7.61,0.26-10.02-2.35c-1.93-2.09,3.01-2.87,2.64-5.64c-3.39,0.15-5.41,3.21-8.5,4.09
			c-1.47,0.42-3.5,2.06-3.53,4.31c-0.01,0.5,1.15,1.46,1.75,1.45C251.51,75.01,250.11,71.72,252.76,70.15z M259.93,42.7
			c-2.68,1.46-5.71,4.13-4.83,4.74c3.18,2.17,0.78,2.99-0.3,4.27c-0.52,0.61-1.44,1.27-0.77,2.01c0.59,0.64,1.67,1.08,2.54,1.1
			c0.39,0.01,1.24-1.3,1.14-1.88C257.12,49.51,258.87,46.53,259.93,42.7z M217.39,47.31c-2.99,0.4-4.3-3.81-6.93-1.03
			c-0.5,0.53-0.23,2.83,0.07,2.91C212.61,49.76,214.72,49.59,217.39,47.31z M262.97,63.32c-1.36,0.14-2.16-0.6-2.96,0.34
			c-0.11,0.13-0.02,0.68,0.08,0.72C260.99,64.67,261.73,64.27,262.97,63.32z M238.14,36.19c-0.15-0.35-0.18-0.72-0.35-0.8
			c-0.56-0.25-0.85,0.15-0.89,0.63c-0.02,0.25,0.22,0.53,0.34,0.79C237.54,36.6,237.85,36.39,238.14,36.19z M246.22,60.63
			c-0.25-0.41-0.49-0.81-0.73-1.21c-0.21,0.22-0.62,0.48-0.59,0.64c0.09,0.41,0.38,0.77,0.6,1.14
			C245.72,61.03,245.94,60.86,246.22,60.63z M16.45,154.16c-0.1,0.1-0.29,0.21-0.28,0.29c0.04,0.21,0.17,0.41,0.26,0.62
			c0.1-0.1,0.29-0.21,0.28-0.29C16.67,154.56,16.55,154.36,16.45,154.16z"/>
		<path class="st0" d="M253.87,19.15c2.09,0.07,3.28,1.41,3.87,3.17c0.94,2.79,2.35,5.44,3.97,6.6c-2.67,0.62-4.55,0.31-5.99-2.32
			c-1.7-3.12-7.93-3.17-9.94-0.4c-1.31,1.79-2.82,3.44-4.66,4.86c0.47-4.11,2.13-7.49,5.66-9.81c1.82-1.19,3.08,0.3,4.62,0.78
			c0.99,0.31,2.15,2.44,3.24,0.56c0.67-1.16-1.12-1.8-1.63-2.78C253.3,19.58,253.59,19.36,253.87,19.15z"/>
		<path class="st0" d="M124.8,64.28c0.03,0.95,0.16,1.87,0.66,2.75c-3.32-1.81-5.14-4.38-4.46-8.33c1.04-0.37,1.68,1.16,1.94,0.94
			c4.28-3.6,3.97,3.2,6.73,2.91c-0.38,1.04,1.77,1.64,0.44,2.92c-1.76,1.7-1.94-0.01-2.66-1.01c-0.43-0.59-1.3-0.86-1.97-1.27
			c-0.23-0.68-0.86-1.14-1.32-0.65C123.56,63.19,123.83,63.97,124.8,64.28z"/>
		<path class="st0" d="M252.53,7.28c0.91,4.57-7.34,5.08-4.67,8.82c0.11-0.77-7.35-3.16,0.73-5.26
			C250.23,10.41,249.69,7.27,252.53,7.28z"/>
		<path class="st0" d="M265.87,28.14c0.89-1.52,3.24-0.04,4.01-2.07c0.56-1.49,1.82-1.01,2.85-0.36c1.39,0.87,1.35,2.39,0.97,3.58
			c-0.7,2.17-1.72,0.18-2.61-0.02c-2-0.47-4.29,2.73-6.08-0.48C265.29,28.57,265.58,28.36,265.87,28.14z"/>
		<path class="st0" d="M220.17,12.3c-2.82-3.2,0.76-5.94,0.11-8.93c0-0.02,0.8-0.22,1.23-0.33c-0.26,1.46,2.19,2.56,0.89,3.92
			C220.93,8.5,220.62,10.29,220.17,12.3z"/>
		<path class="st0" d="M226.67,10.57c-1.03,1.46-2.08,2.98-3.75,3.55c-1.06,0.36-1.29-0.88-1.04-1.6c0.55-1.6,0.85-3.61,2.72-4.17
			C226.24,7.85,225.53,10.14,226.67,10.57z"/>
		<path class="st0" d="M25.9,120.35c-0.47,0.99-1.27,2.27-2.38,1.62c-0.83-0.49-2.68-0.35-2.46-1.79c0.22-1.41,1.45-2.81,2.85-2.79
			C24.57,117.39,25.21,119.25,25.9,120.35z"/>
		<path class="st0" d="M22.8,131.28c-2.3-1.02-3.34,1.52-5.13,1.94c-1.3-4.85,3.51-3.24,5.2-4.91c0.66-0.65,1.16,0.19-0.22,3.12
			C22.64,131.44,22.8,131.28,22.8,131.28z"/>
		<path class="st0" d="M206.9,28.3c-1.55,0.86-2.98,3.45-4.88,0.37c1.23-1.01,2.97,0.19,4.07-1.08
			C206.36,27.83,206.63,28.07,206.9,28.3z"/>
		<path class="st0" d="M253.02,19.8c-1.59-0.01-3.16-0.04-4.14-1.74c1.61,0.74,3.61-0.67,5,1.09
			C253.59,19.36,253.3,19.58,253.02,19.8z"/>
		<path class="st0" d="M223.21,0c0.25,0.71,0.61,1.23,0.48,1.45c-0.29,0.48-0.8,0.9-1.31,1.13c-0.18,0.08-0.89-0.37-0.49-0.96
			C222.23,1.13,222.64,0.7,223.21,0z"/>
		<path class="st0" d="M265,28.78c-0.29-0.45-0.59-0.9-0.88-1.34c0.82-0.36,1.46-0.25,1.75,0.71
			C265.58,28.36,265.29,28.57,265,28.78z"/>
		<path class="st0" d="M52.95,158.06c0.69,0.58,0.67,1.14-0.03,1.69C52.69,159.18,51.24,158.59,52.95,158.06z"/>
	</g>
</g>
</svg>
