<?xml version="1.0" encoding="utf-8"?>
<!-- Generator: Adobe Illustrator 25.2.0, SVG Export Plug-In . SVG Version: 6.00 Build 0)  -->
<svg version="1.1" id="Layer_1" xmlns="http://www.w3.org/2000/svg" xmlns:xlink="http://www.w3.org/1999/xlink" x="0px" y="0px"
	 viewBox="0 0 110.86 77.88" style="enable-background:new 0 0 110.86 77.88;" xml:space="preserve">
<style type="text/css">
	.st0{fill:#6492EA;}
</style>
<g>
	<path class="st0" d="M61.7,25.81c0.44-0.65,0.91-1.28,1.39-1.89C68.44,18.8,77.8,9.82,83.62,4c5.99-5.99,0.95-4.75-4.21,0.41
		c-1.93,1.93-9.05,8.11-12.77,11.28c-3.01,2.57-6.73,5.83-9.96,8.65c-0.62,0.21-1.23,0.44-1.83,0.7c-0.87,0.39-1.7,0.57-2.6,0.04
		c-0.44-0.26-0.96-0.29-1.48-0.12c-0.77,0.26-1.54,0.04-2.3-0.07c-0.46-0.07-0.89-0.34-1.12-0.83c-0.12-0.26-0.31-0.5-0.49-0.73
		c-0.17-0.21-0.39-0.28-0.65-0.15c-0.92,0.45-1.83,0.92-2.15,2.02c-0.05,0.18-0.15,0.34-0.25,0.5c-0.24,0.39-0.48,0.49-0.87,0.27
		c-0.3-0.17-0.55-0.42-0.81-0.65c-0.61-0.53-1.31-0.9-2.12-0.8c-0.81,0.1-1.62,0.31-2.42,0.5c-0.56,0.14-1.1,0.15-1.65-0.08
		c-0.89-0.38-1.73-0.86-2.44-1.53c-0.32-0.31-0.66-0.58-1.02-0.81c-4.17-4.2-8.88-9.12-11.63-11.81c-8.02-7.82-7.74-4.08-2.17,1.9
		c2.57,2.76,8.69,9.24,13.04,14.26c0.26,0.3,0.51,0.62,0.75,0.94c0.07,0.21,0.14,0.43,0.22,0.64c0.27,0.77,0.62,1.4,1.34,1.82
		c0.01,0,0.01,0.01,0.01,0.01c0.34,0.66,0.62,1.34,0.86,2.03c-0.02,0.06-0.04,0.12-0.06,0.19c-0.04,0.1-0.03,0.22-0.09,0.31
		c-0.38,0.54-0.67,1.21-1.19,1.57c-0.76,0.52-1.12,1.18-1.3,2.02c-0.09,0.39-0.17,0.8-0.36,1.14c-0.37,0.64-0.38,1.26-0.1,1.92
		c0.47,1.15,0.85,2.32,0.5,3.59c-0.09,0.32,0.07,0.57,0.34,0.75c0.18,0.12,0.37,0.22,0.55,0.33c0.05,0.03,0.07,0.06,0.12,0.08
		c-0.78,1.21-1.74,2.41-2.96,3.59C20.98,56.98,12.93,63.77,4.4,72.2s-2.78,5.94,1.49,2.31c5.43-4.62,9.24-8.02,17.8-15.35
		c3.77-3.23,8.43-7.51,12.86-10.49c0.15,0.14,0.23,0.37,0.23,0.69c0,0.16-0.02,0.32,0,0.48c0.11,0.89,0.75,1.36,1.63,1.2
		c0.34-0.06,0.67-0.18,1.02-0.22c0.53-0.07,1.07-0.18,1.59-0.12c0.78,0.1,1.61,0.1,2.3,0.6c0.14,0.1,0.35,0.14,0.53,0.16
		c1.64,0.17,3.25,0.05,4.83-0.47c0.48-0.16,1.03-0.43,1.46-0.32c0.92,0.25,1.8,0.13,2.7,0.04c0.77-0.08,1.5,0.05,2.04,0.69
		c0.48,0.56,1.12,0.79,1.83,0.88c0.64,0.08,1.29,0.19,1.78,0.65c0.59,0.55,1.24,1.01,1.93,1.41c1.8,1.59,4.09,3.64,9.18,8.34
		c5.7,5.27,6.38,3.09,1.9-1.66c-3.92-4.16-5.33-5.58-9.22-9.47c-0.03-0.03-0.06-0.07-0.09-0.1c-0.72-0.71-1.38-1.49-2.09-2.22
		c-0.39-0.4-0.78-0.8-1.23-1.14c-0.16-0.12-0.28-0.26-0.42-0.39c-0.26-0.26-0.5-0.52-0.75-0.78c-0.2-0.26-0.41-0.51-0.58-0.8
		c-0.52-0.9-0.45-1.57,0.23-2.35c0.26-0.3,0.45-0.6,0.41-1.01c-0.1-1.15,0.31-2.14,0.91-3.1c0.33-0.53,0.48-1.13,0.23-1.76
		c-0.07-0.19-0.11-0.42-0.08-0.62c0.16-0.95,0.34-1.89,0.55-2.83c0.05-0.22,0.19-0.45,0.34-0.63c0.36-0.44,0.51-0.93,0.47-1.49
		c-0.02-0.32-0.04-0.65,0-0.96c0.05-0.42,0.19-0.82,0.26-1.23c0.1-0.62,0.19-1.25,0.27-1.88c0.04-0.29-0.04-0.61,0.07-0.86
		C61.07,26.86,61.36,26.32,61.7,25.81z"/>
	<path class="st0" d="M90.84,24.02c-0.63-0.38-1.3-0.75-2-0.96c-1.26-0.38-2.44,0.04-3.53,0.65c-1.23,0.68-1.72,2.42-0.95,3.56
		c0.47,0.69,1.13,1.27,1.79,1.8c0.35,0.28,0.87,0.34,1.32,0.49c0.69-0.09,0.98-0.19,1.84-0.66c1.35-0.74,2.11-1.83,2.16-3.41
		C91.48,24.89,91.36,24.33,90.84,24.02z"/>
	<path class="st0" d="M13.91,20.08c0.3,0.16,0.62,0.31,0.95,0.43c1.42,0.49,2.6-0.34,2.62-1.82c0-0.11,0-0.21,0-0.47
		c-0.01-0.14-0.01-0.43-0.05-0.73c-0.2-1.6-1.67-2.27-3.02-1.38c-0.75,0.5-1.19,1.22-1.38,2.08C12.86,18.95,13.22,19.71,13.91,20.08
		z"/>
	<path class="st0" d="M110.5,1.85c-0.58-0.7-1.33-0.84-2.11-0.7c-0.38,0.02-0.71,0-1.02,0.05c-0.63,0.1-1.21,0.35-1.39,1.04
		c-0.23,0.92-0.2,1.86,0.04,2.77c0.16,0.62,0.59,0.84,1.23,0.77c0.59-0.07,1.06-0.34,1.45-0.78c0.51-0.58,1.03-1.13,1.69-1.57
		C111,3.02,110.98,2.44,110.5,1.85z"/>
</g>
</svg>
