<?xml version="1.0" encoding="utf-8"?>
<!-- Generator: Adobe Illustrator 25.2.0, SVG Export Plug-In . SVG Version: 6.00 Build 0)  -->
<svg version="1.1" id="Layer_1" xmlns="http://www.w3.org/2000/svg" xmlns:xlink="http://www.w3.org/1999/xlink" x="0px" y="0px"
	 viewBox="0 0 100.49 159.93" style="enable-background:new 0 0 100.49 159.93;" xml:space="preserve">
<style type="text/css">
	.st0{fill:#F2F2D9;}
</style>
<path class="st0" d="M95.21,9.34c-0.14-0.03-0.29-0.06-0.43-0.09c-0.46-1.42,0.46-2.29,0.45-3.53c-0.01-1.63-1.61-1.14-2.61-0.52
	c-1.02,0.64-1.47,1.12-1.82,2.32c-0.21,0.72-0.14,1.33-0.3,2.03s-0.48,0.97-0.47,1.86c0.02,1.21-0.23,2.67,0.04,3.83
	c0.11,0.48,0.42,0.74,0.48,1.33c0.09,0.79,0.07,1.38,0.25,2.08c0.53,2.12,1.76,3.86,3.1,5.67c1.38,1.87,2.88,3.93,2.84,6.23
	c-0.04,2.65,0.41,5.72-0.62,8.16c-0.41,0.98-1.34,2.1-1.91,3.02c-0.63,1.02-1.17,1.95-1.98,2.88c-1.82,2.09-3.34,4.39-5.31,6.36
	c-1.97,1.96-4.44,3.04-6.47,4.91c-1.65,1.52-2.99,3.52-5.43,3.63c-2.96,0.14-4.86-1.02-4.67-4.15c0.16-2.69,1.9-5.13,3.75-7.1
	c1.79-1.91,3.29-4.19,4.55-6.56c1.19-2.26,2.79-4.34,1.81-7.04c-0.35-0.95-1.13-1.72-1.69-2.6c-0.76-1.18-1.71-2.12-2.83-2.95
	c-1.35-1-2.47-1.92-4.03-2.61c-0.38-0.17-0.96-0.5-1.33-0.59c-0.72-0.18-1.45,0.04-2.17-0.16c-0.63-0.18-0.86-0.41-1.67-0.4
	c-0.6,0.01-1.21,0-1.81,0c-0.69,0-1.39-0.03-2.07-0.01c-0.82,0.03-1.08,0.38-1.78,0.55c-0.59,0.14-1.24-0.13-1.84,0.01
	c-0.71,0.17-1.4,0.69-2.07,1c-1.33,0.63-2.67,0.59-4.14,0.52c-1.18-0.05-1.87-0.5-2.21-1.67c-0.19-0.66-0.07-1.27-0.1-1.95
	c-0.04-0.85-0.45-1.5-0.55-2.33c-0.14-1.17-0.12-2.73,0.01-3.89c0.06-0.54,0.15-1.12,0.52-1.55c0.5-0.58,0.68-0.52,1.56-0.51
	c1,0.02,3.04,0.38,3.77-0.37c0.93-0.96,0.21-2.69-0.15-3.75c-0.55-1.61-0.5-3.16-1.34-4.68c-0.86-1.56-1.85-3.31-3.32-4.26
	c-1.29-0.84-1.89-1.79-3.36-2.2c-1.71-0.48-2.79-0.45-2.85,1.56c-0.04,1.36,0.05,2.2,0.54,3.35c0.27,0.65,0.14,0.9,0.61,1.54
	c0.57,0.79,1.33,1.22,1.97,1.88c0.65,0.68,2.01,2.21,1.44,3.22c-0.61,1.07-2.49,0.61-3.51,0.62c-0.67,0-1.31,0.07-1.95-0.12
	c-0.58-0.17-0.89-0.63-1.7-0.43c-0.36,0.09-0.94,0.38-1.26,0.54c-0.79,0.38-1.12,0.43-1.32,1.56c-0.2,1.16-0.04,2.7,0.02,3.88
	c0.07,1.37,0.79,2.15,1.43,3.34c0.75,1.39,1.3,1.8,2.46,2.84c0.95,0.85,1.6,2.36,2.63,3.08c1.06,0.75,2.77-0.32,3.75,0.39
	c0.06,0.04,0.6,1.31,0.63,1.43c0.18,0.76-0.09,1.34-0.47,1.91c-0.5,0.75-0.26,0.47-1.09,0.83c-0.66,0.29-1.39,0.57-2.08,0.78
	c-1.41,0.43-2.64,1.05-3.65,2.2c-2.25,2.56-3.65,6.1-3.59,9.45c0.03,1.53-0.95,3.33-0.54,4.79c0.36,1.29,1.89,1.67,1.6,3.34
	c-0.52,3.03-5.02,2.1-7.26,2.07c-1.22-0.02-2.44,0.29-3.62,0.49c-0.75,0.12-1.28,0.5-2.07,0.56c-0.98,0.07-1.09-0.3-1.85-0.48
	c-3.23-0.77-6.3,0.84-8.51,3.05c-1.28,1.28-2.54,3.01-2.97,4.8c-0.38,1.57-0.59,3.1-1.27,4.52c-1.17,2.47-2.99,3.37-5.08,5.06
	c-1.66,1.34-3.08,2.9-4.24,4.66c-0.83,1.26-2.12,2.25-3,3.47c-1.07,1.49-1.01,2.95-1.01,4.68c0,2.46,0,4.92,0,7.38
	c0,1.06-0.1,2.19-0.01,3.24c0.08,0.9,0.42,1.69,0.59,2.59c0.65,3.42,2.37,6.24,5.11,8.23c0,1.9,0,4.83,0,6.72
	c0,2.14-0.38,3.91,1.16,5.56c0.95,1.02,2.73,1.49,3.4,2.69c0.9,1.6-0.35,4.13-0.44,5.71c-0.11,2,0.1,3.79-0.39,5.69
	c-0.24,0.91-0.12,1.9-0.12,2.84c0.01,1.31-0.33,2.14-0.54,3.36c-0.31,1.76,0.03,3.9,0.03,5.69c0,1.89-0.11,3.81-0.01,5.69
	c0.06,1.06,0.39,2.05,0.52,3.12c0.08,0.74,0.3,1.38,0.53,2.06c0.24,0.71,1.63,5.97,3.03,3.66c0.33-0.54,0.08-2,0.08-2.62
	c0-0.86,0.22-2.04,0.02-2.86c-0.22-0.89-0.55-1.28-0.53-2.31c0.01-1.03,0-2.07,0-3.1c0-1.9,0-3.79,0-5.69c0-0.86,0.01-1.72,0-2.59
	c-0.02-1.31,0.53-2.31,0.51-3.62c-0.01-0.85-0.06-1.74-0.01-2.59c0.06-1.02,0.49-1.81,0.53-2.84c0.04-0.96-0.13-1.92,0.11-2.84
	c0.24-0.91,0.58-1.89,0.8-2.7c0.27-0.99,0.22-1.83,0.63-2.73c0.36-0.81,0.78-1.87,0.54-2.87c-0.35-1.49-1.9-2.71-3-3.72
	c-1.65-1.53-2.18-2.76-2.2-5.04c-0.01-1.1,0.43-1.57,0.53-2.57c0.12-1.16,0.48-1.89,0.58-3.04c1.02-0.32,3.56-0.36,4.61-0.1
	c0.7,0.17,0.96,0.46,1.78,0.54c0.74,0.07,1.57,0.17,2.21,0.63c0.29,0.21,0.89,0.71,1.05,1.02c0.11,0.2,0.54,1.52,0.58,1.75
	c0.2,1.21,0.23,2.87,1.07,3.85c0.27,0.32,1.36,1.09,2,0.43c0.32-0.33,0.08-1.56,0.08-1.99c-0.01-1.72,0.08-3.13-0.63-4.65
	c-0.47-1.01-1.51-2.26-2.21-3.12c-0.74-0.91-1.77-1.63-2.7-2.19c-0.99-0.6-2.04-1.07-3.12-1.54c-0.54-0.23-1.1-0.51-1.68-0.65
	c-0.68-0.16-1.38-0.65-2.04-0.8c-0.66-0.16-1.46,0.21-2.12,0.05c-0.72-0.17-0.9-0.51-1.78-0.55c-0.75-0.03-1.4,0.22-1.97-0.36
	c-0.37-0.37-0.69-1.41-0.77-1.82c-0.29-1.43-0.12-3.05-0.12-4.54c0-0.71-0.18-1.68-0.02-2.35c0.2-0.82,0.45-1.14,0.54-2.05
	c0.13-1.33,0.76-2.35,1.05-3.6c0.1-0.42-0.15-0.91-0.05-1.34c0.06-0.25,0.39-0.45,0.43-0.61c0.21-0.87,0.16-1.61,0.76-2.37
	c1.56-1.97,3.91-3.37,5.43-5.38c1.05-1.39,1.7-2.65,2.86-3.92c0.4-0.44,0.82-0.99,1.37-1.17c1.22-0.39,2.35,0.28,3.56-0.44
	c0.34,1.28,0.19,2.8-0.36,3.89c-0.71,1.4-1.29,1.76-2.91,1.75c-0.66-0.01-1.39-0.07-2.02,0.05c-0.3,0.06-0.31,0.38-0.6,0.43
	c-0.39,0.07-0.91-0.09-1.28,0.02c-1.37,0.4-1.8,2.49-2.17,3.65c-0.68,2.16-0.18,6.76,3.24,5.59c0.61-0.21,0.99-0.73,1.51-1.06
	c0.66-0.42,1.43-0.59,2.12-0.9c1.52-0.68,2.5-0.51,4.11-0.12c1.33,0.33,2.01,0.53,3.09,1.4c1.11,0.89,1.93,2.1,2.8,3.15
	c1.15,1.39,2.39,2.8,3.4,4.33c0.91,1.38,1.94,3.01,3.25,4.05c0.88,0.7,2.4,0.53,3.14,1.53c0.76,1.02,0.37,3,0.37,4.28
	c0,1.46,0.01,2.37-0.53,3.61c-0.5,1.14-0.67,2.49-1.11,3.73c-0.42,1.18-1.37,2.27-2.11,3.26c-0.99,1.33-1.68,2.77-2.61,4.12
	c-0.53,0.78-1.09,1.39-1.67,2.14c-0.92,1.18-1.21,2.82-2.05,4.11c-2.96,4.54-5,9-5.84,14.36c-0.28,1.81-0.12,3.73-0.12,5.56
	c0,1.52-0.16,3.29,0.62,4.65c0.64,1.13,2.35,1.69,3.51,1.41c2.23-0.54,3.44-1.03,4.67-2.99c2.61-4.16,4.05-8.82,5.69-13.43
	c0.43-1.21,0.65-2.46,1.27-3.59c0.67-1.23,1.56-2.32,2.23-3.56c0.86-1.58,2.16-2.75,3.09-4.27c0.73-1.19,1.47-2.32,2.08-3.6
	c0.79-1.66,0.35-3.24,0.75-5.03c0.41-1.84,0.35-3.52,0.39-5.43c0.02-1.05,0.4-1.72,0.55-2.72c0.12-0.84-0.02-1.83-0.02-2.68
	c-0.01-4.62,1.04-9.09,2.07-13.35c0.42-1.75,0.98-3.49,1.42-5.15c0.76-2.83,2.26-4.94,3.77-7.41c0.71-1.15,0.83-1.41,2.04-2.05
	c0.96-0.5,1.47-1.29,2.33-1.91c1.48-1.09,3.21-1.86,4.91-2.48c1.89-0.69,3.86-1.49,5.7-2.33c1.13-0.51,3.77-2.75,5.1-2.12
	c-0.09,0.7-1.45,1.75-2.02,2.24c-0.86,0.75-1.68,1.28-2.57,2.06c-1.3,1.15-2.75,2.24-4.16,3.25c-0.74,0.54-1.35,1.11-2.07,1.69
	c-0.69,0.56-1.64,0.72-2.28,1.31c-0.36,0.33-0.43,0.85-0.75,1.24c-0.35,0.42-1.26,0.88-1.62,1.15c-1.1,0.82-1.82,1.94-2.61,3.04
	c-0.33,0.46-0.88,0.91-1.15,1.37c-0.37,0.62-0.6,1.46-0.78,2.21c-0.73,2.97-0.95,6.17-1.77,9.27c-0.29,1.1-0.84,2.1-0.96,3.26
	c-0.12,1.19,0.2,2.35-0.09,3.53c-0.45,1.87-0.7,3.82-0.89,5.78c-0.12,1.27-1.01,2.83,0.46,3.8c1.51,0.99,3.14-1.64,3.92-2.64
	c0.78-1.01,0.88-2.37,1.28-3.56c0.33-0.96,0.74-1.9,1.03-2.87c0.53-1.76,0.54-3.34,0.52-5.16c-0.05-6.08,3.78-9.23,8.43-12.45
	c1.17-0.81,2.18-1.76,3.34-2.59c0.95-0.68,2.14-1.02,2.99-1.78c2.26-2.02,4.94-3.57,7.37-5.45c1.26-0.98,2.64-1.97,3.76-3.1
	c0.83-0.83,1.26-1.85,2.03-2.73c0.32-0.37,0.77-0.67,1.07-1.02c0.49-0.56,0.59-1.15,0.98-1.81c0.61-1.03,1.69-2.47,2.61-3.23
	c0.14-1.38,2.63-3.32,3-4.65c0.33-1.19,0.46-2.42,0.73-3.62c0.43-1.87,1.75-3.86,2.6-5.56c0.94-1.88,2.2-4.26,2.47-6.32
	c0.31-2.41-0.01-5.08-0.01-7.51c0-2.5,0-4.45-1.42-6.48c-1.07-1.54-2.8-2.58-3.88-4.11c-0.79-1.13-0.9-1.77-0.9-3.11
	c-0.01-1.36,0.52-2.2,0.52-3.62c-0.01-1.15-0.12-2.4,0.12-3.51c0.25-0.12,0.4-0.32,0.43-0.61c0-0.36-0.02-0.72-0.04-1.07
	C95.32,8.82,94.35,9.99,95.21,9.34z"/>
</svg>
