<?xml version="1.0" encoding="utf-8"?>
<!-- Generator: Adobe Illustrator 25.2.0, SVG Export Plug-In . SVG Version: 6.00 Build 0)  -->
<svg version="1.1" id="Layer_1" xmlns="http://www.w3.org/2000/svg" xmlns:xlink="http://www.w3.org/1999/xlink" x="0px" y="0px"
	 viewBox="0 0 191.81 146.58" style="enable-background:new 0 0 191.81 146.58;" xml:space="preserve">
<style type="text/css">
	.st0{fill:#808000;}
</style>
<g>
	<path class="st0" d="M176.49,42.65c-0.57,0-1.15,0.04-1.73,0.1c7-7.89,11.95-15.95,11.38-23.67C185.19,6.24,177.6,0,162.94,0
		c-2.57,0-5.47,0.18-8.63,0.55c-28.37,3.27-53.36,22.3-65.54,39.69c-2.27,3.25-4.7,6.55-7.24,9.87c-6.11-3.09-12.86-4.7-19.8-4.7
		c-5.52,0-10.98,1.04-16.08,3.04c-2.59-3.51-6.78-5.89-11.97-6.55c-0.56-0.07-1.13-0.11-1.7-0.11c-4,0-7.88,1.83-10.66,5.02
		c-2.54,2.91-3.99,6.79-3.99,10.63c0,4.14,2.13,8.21,5.61,11.2c-0.5,0.93-0.96,1.89-1.4,2.85c-1.83-0.75-3.83-1.15-5.88-1.15
		c-4.65,0-9.2,2.01-12.16,5.38c-2.7,3.06-3.9,6.96-3.39,10.98c1.06,8.28,8.31,14.77,16.51,14.77c0.94,0,1.85-0.08,2.74-0.24
		c0.01,0.03,0.01,0.05,0.02,0.08c-3.06,0.71-5.77,2.37-7.72,4.79c-2.83,3.51-3.8,8.19-2.72,13.17c1.71,7.92,7.85,12.83,16.01,12.83
		c2.39,0,4.65-0.54,6.68-1.5c0.07,8.51,5.97,15.19,14.08,15.91c0.52,0.05,1.05,0.07,1.56,0.07c7.96,0,14.51-5.49,16-13.21
		c0.4-0.01,0.8-0.03,1.2-0.06c1.65,7.62,7.37,12.73,14.67,12.73c1.12,0,2.27-0.12,3.41-0.36c8.27-1.75,13.61-7.93,13.61-15.73
		c0-0.22-0.02-0.44-0.03-0.66c3.29,3.79,8.07,6.08,12.6,6.5c0.45,0.04,0.91,0.06,1.36,0.06c8.04,0,13.88-6.82,13.88-16.23
		c0-8.46-6.46-15.25-15.02-15.79c-0.36-0.02-0.72-0.03-1.08-0.03c-1.65,0-3.27,0.25-4.81,0.7c1.75-4.78,2.68-9.88,2.68-15.1
		c0-0.57-0.01-1.14-0.03-1.71c1.89-0.4,3.78-0.77,5.66-1.12c18.93-3.45,34.84-16.62,40.8-22.12c1.41-1.3,2.92-2.67,4.49-4.09
		c1-0.91,2.02-1.83,3.03-2.76c-0.04,0.5-0.06,1.01-0.06,1.53c0,8.78,8.7,14.94,16.77,15.61c0.43,0.04,0.87,0.05,1.3,0.05
		c8.31,0,14.11-6.96,14.11-16.94C191.79,50.39,186.07,42.65,176.49,42.65z"/>
	<path class="st0" d="M83.57,32.21c8.3,0,15.36-6.71,16.08-15.28c0.35-4.24-0.86-8-3.52-10.89c-2.94-3.19-7.52-5.03-12.55-5.03
		c-4.59,0-8.72,1.68-11.63,4.73c-2.76,2.89-4.16,6.85-3.96,11.15C68.38,25.48,75.23,32.21,83.57,32.21z"/>
</g>
</svg>
