<?xml version="1.0" encoding="utf-8"?>
<!-- Generator: Adobe Illustrator 25.2.0, SVG Export Plug-In . SVG Version: 6.00 Build 0)  -->
<svg version="1.1" id="Layer_1" xmlns="http://www.w3.org/2000/svg" xmlns:xlink="http://www.w3.org/1999/xlink" x="0px" y="0px"
	 viewBox="0 0 105.24 172.04" style="enable-background:new 0 0 105.24 172.04;" xml:space="preserve">
<style type="text/css">
	.st0{fill:#E6E6FA;}
</style>
<path class="st0" d="M6.69,27.2c-0.04,0.25-0.35,0.54-0.47,0.78c-0.13,0.26-0.26,0.58-0.41,0.84c-0.45,0.77-0.99,1.56-1.67,2.14
	c-0.33,0.28-0.71,0.51-1.05,0.78c-0.22,0.18-0.4,0.47-0.62,0.63c-0.46,0.35-1.37,1.17-2,0.84c-0.26-0.14-0.49-0.5-0.47-0.79
	c0.02-0.23,0.19-0.41,0.24-0.63c0.04-0.2-0.04-0.43-0.02-0.63c0.09-0.76,0.67-0.9,1.01-1.5c0.16-0.28,0.1-0.73,0.24-1.01
	c0.15-0.28,0.39-0.56,0.58-0.84c0.55-0.8,1.39-1.21,1.88-2.09c0.34-0.63,0.79-1.3,1.26-1.88c0.22-0.27,0.41-0.55,0.62-0.83
	c0.27-0.37,0.68-0.62,0.94-1.03c0.39-0.61,0.82-1.1,1.46-1.42c0.65-0.32,1.41-0.57,2.08-0.84c0.82-0.33,1.67-0.54,2.46-0.94
	c0.77-0.39,1.51-0.71,2.3-1.05c0.68-0.3,1.32-0.41,2.03-0.61c0.41-0.12,0.87-0.3,1.31-0.38c0.49-0.09,1.12,0.01,1.62,0.01
	c1.13,0,2.26,0,3.39,0c0.49,0,0.98,0,1.47,0c0.66,0,1.22,0.22,1.88,0.21c1.67-0.02,3.34,0,5.01,0c0.56,0,0.97-0.04,1.5-0.16
	c0.56-0.13,1.08,0.05,1.52,0.16c0.13,0.26,0.63,0.01,0.94,0.01c0.57,0,1.11-0.15,1.67-0.2c0.92-0.08,1.87-0.36,2.71-0.79
	c0.97-0.5,1.9-0.84,2.92-1.15c0.92-0.28,1.66-0.89,2.61-1.2c0.56-0.18,1.07-0.45,1.62-0.63c0.53-0.17,1.11-0.34,1.62-0.57
	c0.5-0.22,0.97-0.26,1.47-0.48c0.39-0.17,0.73-0.39,1.14-0.52c0.48-0.15,0.86-0.32,1.36-0.31c0.49,0.01,0.97,0.01,1.46,0
	c0.88-0.01,1.78,0.42,2.6,0.42c1.07,0,2.17,0.06,3.24,0c0.37-0.02,0.69-0.18,1.06-0.22c0.29-0.03,0.57,0.01,0.86-0.04
	c1.01-0.18,1.98-0.49,2.99-0.68c0.69-0.14,1.41-0.46,2.09-0.53c0.28-0.03,0.49-0.03,0.73-0.1c0.25-0.07,0.44-0.11,0.73-0.1
	c1.18,0.01,2.2-0.47,3.36-0.41c-0.08-0.03-0.11-0.09-0.1-0.17c0.21-0.07,0.38-0.05,0.6-0.05C73,9.25,74.2,8.28,74.65,7.99
	c0.55-0.35,1.05-0.88,1.57-1.26c0.45-0.33,1.02-0.58,1.47-0.94c0.22-0.17,0.36-0.33,0.61-0.47c0.28-0.15,0.74-0.19,0.86-0.45
	c0.05-0.11-0.05-0.32-0.03-0.45c0.04-0.17,0.16-0.18,0.2-0.32c0.08-0.27,0.14-0.45,0.23-0.7c0.13-0.36,0.05-0.38,0.36-0.68
	c0.2-0.2,0.32-0.27,0.57-0.39C81,2.09,81.4,1.87,81.8,1.47c0.14-0.14,0.34-0.44,0.51-0.53c0.21-0.12,0.53-0.13,0.75-0.23
	c0.1,0.28-0.05,0.58,0.14,0.82c0.18,0.24,0.67,0.11,0.74,0.32c0.05,0.16-0.18,0.53-0.21,0.71c-0.06,0.31-0.28,0.73-0.18,1.03
	c0.71,0.07,1.11-1.39,1.38-1.87c0.33-0.59,0.49-1.03,1.1-1.4c0.38-0.23,1.2-0.55,1.57-0.06c0.21,0.28,0.01,0.64,0.21,0.96
	c0.21,0.33,0.65,0.35,0.84,0.72c0.32,0.64-0.11,1.26-0.27,1.88c-0.06,0.22-0.07,0.3-0.03,0.5c0.02,0.14,0.21,0.17,0.21,0.33
	c0,0.18-0.31,0.51-0.39,0.68c-0.5,1.02-1.95,1.96-1.47,3.27c0.52-0.24,0.96-0.55,1.44-0.94c0.02,0.28-0.3,0.55-0.44,0.76
	c-0.19,0.28-0.34,0.62-0.57,0.89c-0.45,0.53-0.96,0.89-1.3,1.51c-0.18,0.33-0.36,0.62-0.52,0.94c-0.18,0.36-0.2,0.57-0.31,0.95
	c-0.11,0.39-0.24,0.57-0.22,1.04c0.03,0.47,0.19,0.87,0.25,1.34c0.49-0.16,1.21-0.72,1.48-1.18c0.33-0.56,0.36-0.94,0.36-1.61
	c0-0.68,0.21-1.1,0.21-1.77c0-0.43-0.23-1.56,0.38-1.65c0.14,0.46,0.04,1.06,0.04,1.54c0.01,0.5-0.16,0.78-0.21,1.25
	c-0.08,0.9-0.28,2.02-0.63,2.81c-0.15,0.33-0.22,0.76-0.36,1.1c-0.07,0.18-0.11,0.27-0.2,0.42c-0.09,0.14-0.22,0.39-0.31,0.52
	c-0.41,0.57-0.82,1.15-1.15,1.76c-0.29,0.54-0.44,0.81-0.47,1.41c-0.01,0.29-0.15,0.46-0.2,0.73c-0.05,0.25,0,0.48-0.06,0.73
	c-0.26,1.07-0.97,2.21-1.57,3.13c-0.54,0.83-1,1.73-1.46,2.56s-0.48,1.66-0.89,2.46c-0.81,1.59-1.06,3.9-1.83,5.48
	c-0.83,1.7-1.37,3.61-2.19,5.33c-0.36,0.75-0.85,1.39-1.25,2.14c-0.39,0.73-0.89,1.5-1.35,2.14c-0.52,0.71-1.34,1.11-2.14,1.35
	c-0.94,0.29-1.66,0.88-2.51,1.3c-0.18,1.05-0.44,2.12-0.67,3.13c-0.11,0.48-0.41,1.02-0.63,1.46c-0.15,0.29-0.23,0.66-0.39,0.92
	c-0.11,0.18-0.34,0.29-0.37,0.5c0.45,0.14,0.78-0.05,1.08,0.4c0.13,0.2,0.12,0.24,0.16,0.47c0.05,0.33-0.12,0.44-0.17,0.68
	c-0.18,0.84,0.01,1.8-0.04,2.67c-0.02,0.29-0.1,0.35-0.17,0.63c-0.07,0.26,0,0.48-0.04,0.73c-0.06,0.42-0.23,0.84-0.37,1.2
	c-0.25,0.59-1.03,1.2-1.7,1.25c0.2,0.47,0.23,0.77,0.03,1.26c-0.22,0.52-0.47,0.58-0.97,0.81c-0.47,0.22-0.97,0.15-1.49,0.29
	c-0.35,0.09-1.22,0.09-1.34,0.47c0.36,0.15,0.67,0.07,1.03,0.26c0.4,0.21,0.56,0.16,0.63,0.62c0.08,0.51-0.08,0.65-0.27,1.04
	c-0.1,0.19-0.4,0.78-0.36,0.98c0-0.04,0-0.09,0-0.13c0.4-0.11,0.88,0.81,1.04,1.04c0.13,0.19,0.23,0.3,0.41,0.46
	c0.54,0.48,0.71,0.93,0.89,1.58c0.12,0.46,0.32,1.01,0.38,1.5c0.04,0.32-0.01,0.54,0.1,0.84c0.09,0.25,0.24,0.53,0.37,0.78
	c0.26,0.52,0.66,1.02,0.99,1.52c0.37,0.56,0.91,0.92,1.2,1.51c0.55,1.12,0.82,2.4,1.12,3.6c0.25,1.03,0.74,2.17,1.49,2.97
	c0.77,0.83,1.92,1.37,2.86,1.98c0.99,0.64,1.87,1.43,2.77,2.19c0.56,0.48,1.05,1.04,1.63,1.45c0.63,0.45,1.24,1,1.87,1.47
	c0.55,0.41,1.26,0.86,1.88,1.15c0.59,0.28,1.15,0.39,1.78,0.54c0.55,0.14,1.12,0.23,1.68,0.44c0.4,0.15,0.99,0.34,1.15,0.82
	c0.2,0.63-0.33,1.33-0.95,1.25c-0.54-0.08-1.1-0.35-1.57-0.61c-0.48-0.27-0.91-0.65-1.41-0.89c-0.58-0.28-1.09-0.56-1.72-0.78
	c-1.24-0.45-2.27-1.53-3.33-2.34c-0.97-0.75-1.99-1.41-2.94-2.15c-1.1-0.86-2.19-1.72-3.33-2.5c-0.89-0.61-1.63-1.42-2.39-2.19
	c-0.47-0.48-0.97-0.97-1.37-1.47c-0.35-0.44-0.54-0.93-0.77-1.46c-0.29-0.67-0.51-1.23-0.68-1.88c-0.1-0.35-0.13-0.51-0.42-0.79
	c-0.23-0.22-0.51-0.34-0.69-0.62c-0.34-0.53-0.72-1.13-1.04-1.66c-0.13-0.21-0.3-0.42-0.42-0.63c-0.17-0.3-0.19-0.64-0.26-1
	c-0.12-0.6-0.53-1.18-0.53-1.77c0-0.46,0.16-0.48,0.59-0.37c0,0,0.33,0.17,0.34,0.18c0.12,0.13,0.1,0.34,0.28,0.38
	c0.21-0.65,0.08-1.47-0.37-1.97c-0.32-0.35-1.14-0.92-1.52-0.58c-0.3,0.27-0.54,1-0.72,1.37c-0.26,0.51-0.39,1.02-0.65,1.54
	c-0.13,0.26-0.14,0.56-0.25,0.79c-0.18,0.35-0.38,0.27-0.71,0.35c-0.34,0.08-0.84,0.15-0.7,0.56c0.06,0.16,0.45,0.42,0.58,0.51
	c0.68,0.48,1.25,0.43,1.26,1.41c0,0.77,0,1.53,0,2.3c0.41,0.2,0.83,0.44,1.26,0.68c0.38,0.21,0.7,0.41,1.03,0.68
	c0.84,0.67,1.62,1.45,2.15,2.34c0.46,0.77,0.88,1.54,1.49,2.26c0.59,0.69,1.09,1.38,1.74,2.03c0.63,0.63,1.17,1.37,1.82,1.95
	c0.44,0.39,0.72,0.83,1.15,1.21c0.5,0.43,0.98,0.91,1.46,1.38c0.99,0.99,2.04,1.85,3.03,2.82c0.23,0.22,0.36,0.53,0.57,0.74
	c0.18,0.2,0.41,0.28,0.59,0.49c0.29,0.32,0.64,0.61,0.88,0.96c0.63,0.91,1.33,1.77,2.03,2.61c0.42,0.5,0.89,0.99,1.36,1.46
	c0.49,0.49,1.04,0.9,1.52,1.36c0.28,0.27,0.48,0.68,0.72,0.99c0.34,0.43,0.58,0.93,0.8,1.41c0.47,1,1.07,2.03,1.59,3.02
	c0.65,1.24,1.22,2.49,1.78,3.77c0.22,0.49,0.49,0.97,0.73,1.45c0.12,0.25,0.25,0.49,0.39,0.73c0.24,0.41,0.26,0.72,0.44,1.16
	c0.83,2.04,1.53,4.22,2.67,6.22c0.36,0.63,0.62,1.3,0.95,1.93c0.19,0.35,0.4,0.71,0.57,1.07c0.31,0.66,0.63,1.35,0.88,2.04
	c0.39,1.08,0.92,2.2,1.04,3.34c0.06,0.56,0.23,1.13,0.37,1.67c0.14,0.55,0.05,1.21,0.05,1.77c0,1.1-0.48,2.31-0.17,3.41
	c0.06,0.01,0.12,0.02,0.17,0.04c0.63,1.25,0.47,3.25,0.89,4.59c0.22,0.7,0.74,1.43,0.79,2.13c0.07,1.06,0.2,2.01,0.2,3.1
	c0,1.6,0,3.19,0,4.79c0,0.35,0,0.7,0,1.04c0,0.2,0.03,0.43,0,0.63s-0.14,0.32-0.17,0.46c-0.15,0.7-0.05,1.53-0.05,2.25
	c0,0.77,0,1.53,0,2.3c0,0.42,0,0.84,0,1.25c0,0.51-0.14,0.78-0.22,1.25c-0.07,0.4,0.12,0.87,0.02,1.26
	c-0.01,0.02-0.18,0.24-0.18,0.25c-0.01,0.25,0.08,0.22,0.12,0.41c0.15,0.71,0.47,1.37,1.03,1.88c1.23,1.13,2.41,2.4,3.87,3.24
	c0.6,0.34,1.17,0.78,1.67,1.29c0.6,0.61,1.58,1.33,1.63,2.2c0.03,0.71-0.13,1.51,0.04,2.19c0.13,0.49,0.22,0.6-0.05,1.04
	c-0.26,0.42-0.32,0.42-0.84,0.42c-0.9-0.01-1.55-0.39-2.34-0.82c-0.55-0.31-0.9-0.73-1.42-1.05c-0.48-0.3-0.85-0.58-1.24-0.99
	c-0.64-0.66-1.41-1.12-2.11-1.72c-0.87-0.76-1.79-1.64-2.54-2.5c-1.26-1.45-2.76-2.5-4.44-3.35c-0.65-0.32-1.34-0.51-1.94-0.89
	c-0.86-0.54-1.81-1.04-2.64-1.64c-0.45-0.32-0.76-0.76-1.21-1.08c-0.45-0.31-0.78-0.53-1.12-0.96c-0.22-0.27-0.4-0.48-0.66-0.71
	c-0.25-0.22-0.56-0.44-0.73-0.73c-0.2-0.32-0.19-0.71-0.3-1.09c-0.26-0.88-0.73-1.68-1.15-2.51c-0.46-0.92-1.09-1.64-1.62-2.51
	c-0.52-0.85-1.32-1.53-1.93-2.31c-0.59-0.75-1.3-1.41-1.91-2.18c-1.8-2.31-3.46-4.71-5.3-7c-0.77-0.96-1.65-1.91-2.35-2.92
	c-0.58-0.84-0.99-1.81-1.67-2.59c-0.47-0.55-1-1.48-1.21-2.21c-0.23-0.8-0.25-1.71-0.61-2.51c-0.36-0.81-0.74-1.53-1.15-2.29
	c-0.49-0.88-1.25-1.51-1.62-2.45c0.05,0.51-0.5,1.07-0.78,1.46c-0.33,0.46-0.51,0.87-0.73,1.41c-0.16,0.4-0.53,0.94-0.83,1.25
	c-0.24,0.24-0.32,0.38-0.49,0.63c-0.12,0.17-0.56,0.42-0.63,0.62c-0.15,0.47,0.75,0.71,1.01,1.04c0.39,0.49,0.44,1.08,0.62,1.68
	c0.09,0.28,0.2,0.56,0.31,0.83c0.19,0.46,0.19,0.69,0.26,1.16c0.06,0.44,0.18,0.91,0.27,1.36c0.1,0.57,0.09,1.1,0.17,1.67
	c0.16,1.09,0.41,2.09,0.77,3.14c0.13,0.37,0.25,0.71,0.41,1.07c0.21,0.48,0.52,0.93,0.69,1.41c0.69,1.95,1.54,3.83,2.3,5.75
	c0.15,0.39,0.29,0.78,0.36,1.19c0.07,0.41-0.01,0.8,0.04,1.2c0.05,0.41,0.21,0.73,0.22,1.14c0.01,0.48,0,0.97,0,1.45
	c0,0.74,0.01,1.47,0,2.21c0,0.7,0.17,1.19,0.47,1.82c0.36,0.74,0.82,1.15,1.36,1.73c0.43,0.46,0.94,0.95,1.25,1.47
	c0.26,0.44,0.49,0.86,0.71,1.33c0.14,0.3,0.25,0.49,0.19,0.86c-0.1,0.63-0.43,0.29-0.69,0.69c-0.49-0.21-0.62-0.44-0.99-0.86
	c-0.12-0.14-0.24-0.27-0.36-0.41c-0.14-0.17-0.19-0.36-0.31-0.52c-0.22-0.3-0.6-0.53-0.75-0.88c-0.12-0.29-0.14-0.47-0.33-0.74
	c-0.13-0.18-0.23-0.33-0.34-0.51c-0.21-0.36-0.24-0.74-0.42-1.13c-0.17-0.39-0.39-0.79-0.63-1.17c-0.44-0.69-0.81-1.44-1.31-2.1
	c-0.44-0.59-0.66-1.11-0.96-1.77c-0.16-0.34-0.39-0.76-0.45-1.14c-0.09-0.59-0.26-1.08-0.41-1.68c-0.29-1.12-0.41-2.27-0.83-3.38
	c-0.27-0.72-0.55-1.33-0.67-2.08c-0.08-0.47-0.26-0.96-0.42-1.41c-0.17-0.49-0.44-1.06-0.53-1.51c-0.04-0.19,0.01-0.41-0.03-0.59
	c-0.05-0.22-0.27-0.28-0.23-0.53c0.07,0.02,0.1,0.07,0.09,0.13c-0.1,0-0.2,0-0.29-0.01c0,0.23,0.06,0.94,0.01,1.16
	c-0.05,0.21-0.18,0.31-0.23,0.5c-0.06,0.26,0.07,0.58,0.02,0.85c-0.06,0.3-0.21,0.52-0.22,0.84c-0.03,0.47,0.09,1,0.02,1.46
	c-0.09,0.55-0.44,0.94-0.69,1.41c-0.42,0.79-0.88,1.61-1.36,2.39c-0.42,0.69-0.8,1.64-1.5,2.15c-0.69,0.5-1.52,0.83-2.3,1.04
	c-0.57,0.15-0.85-0.02-1.36-0.39c-0.45-0.33-0.74-0.67-1.22-0.96c-0.8-0.49-1.46-1.18-1.86-2.05c-0.35-0.75-0.26-1.95-1.03-2.5
	c-0.41-0.29-0.88-0.18-1-0.77c-0.1-0.48-0.06-1.3,0-1.79c0.1-0.81,0.88-1.56,1.62-1.84c0.14,0.2,0.51,0.26,0.72,0.37
	c0.47,0.24,0.88,0.55,1.3,0.86c0.47,0.34,0.93,0.55,1.48,0.72c0.48,0.15,0.9,0.33,1.34,0.52c0.46,0.2,1.15,0.24,1.27,0.72
	c0.03,0.12,0.05,0.74-0.02,0.84c-0.15,0.2-0.47,0.11-0.72,0.11c-0.29,0-0.48,0.01-0.73-0.1c-0.32-0.14-0.45-0.36-0.84-0.33
	c-0.45,0.03-0.96,0.32-1.41,0.48c-0.28,0.1-0.43,0.16-0.78,0.16c-0.3,0-0.64-0.05-0.92,0.04c0.48,1.05,1.11,2.38,1.91,3.25
	c0.35,0.38,0.7,0.62,1.2,0.68c0.16,0.02,0.37-0.05,0.53-0.01c0.14,0.03,0.25,0.14,0.35,0.17c0.32,0.09,0.66,0.04,1,0.05
	c0-0.91,0.33-1.81,1.25-2.19c0.37-0.15,0.7-0.26,0.99-0.57c0.32-0.35,0.26-0.62,0.26-1.1c0-0.45,0-0.9,0-1.36
	c0-0.24-0.03-0.5-0.01-0.73c0.03-0.27,0.18-0.47,0.23-0.73c0.03-0.2-0.01-0.38,0.03-0.58c0.04-0.19,0.14-0.32,0.16-0.57
	c0.05-0.47,0.21-0.75,0.21-1.25c0-0.45,0.06-0.92-0.05-1.36c-0.1-0.41-0.28-0.75-0.39-1.15c-0.2-0.76-0.48-1.92-1.23-2.37
	c-0.45-0.27-0.6-0.11-0.63-0.76c-0.02-0.49,0-0.98,0-1.46c0-0.42,0-0.84,0-1.25c-0.01-0.54,0.2-0.94,0.21-1.46
	c0.03-1.04,0.01-2.09,0-3.13c-0.01-0.56,0.21-1.01,0.21-1.57c-0.01-0.56,0-1.11,0-1.67c-0.56-0.1-0.78-1.28-1.1-1.68
	c-0.43-0.54-0.78-0.94-1.04-1.61c-0.22-0.56-0.4-1.15-0.63-1.71c-0.13-0.31-0.22-0.62-0.37-0.93c-0.12-0.24-0.35-0.47-0.42-0.74
	c-0.39-1.35-1.11-2.83-1.81-4.03c-0.14-0.24-0.25-0.38-0.37-0.67c-0.13-0.32-0.25-0.62-0.37-0.94c-0.24-0.67-0.59-1.29-0.74-1.92
	c-0.3-1.2-0.88-2.43-1.3-3.62c-0.41-1.13-0.6-2.57-0.42-3.86c0.05-0.33,0.18-0.49,0.22-0.83s-0.03-0.71-0.01-1.05
	c0.02-0.39,0.2-0.69,0.22-1.09c0.02-0.41-0.06-0.81,0.04-1.21c0.31-1.2,0.45-2.34,0.84-3.5c0.21-0.62,0.77-1.37,1.15-1.93
	c0.28-0.4,0.46-0.84,0.72-1.25c0.25-0.39,0.66-0.7,0.96-1.05c0.36-0.41,0.75-0.8,1.14-1.19c0.21-0.21,0.43-0.4,0.63-0.62
	c0.25-0.28,0.43-0.79,0.78-0.89c0-1.11,0.27-2.44,0.21-3.55c-0.03-0.52-0.26-1-0.43-1.46c-0.07-0.2-0.11-0.35-0.2-0.55
	c-0.1-0.21-0.31-0.55-0.37-0.76c-0.15-0.53-0.28-1.09-0.42-1.62c-0.06-0.25-0.01-0.49-0.06-0.73c-0.08-0.36-0.2-0.55-0.19-0.94
	c0.01-0.56,0.01-1.11,0-1.67c0-0.28,0.04-0.47,0.1-0.73c0.05-0.23,0.25-0.6,0.27-0.78c0.06-0.44-0.43-0.46-0.74-0.83
	c-0.32-0.39-0.69-0.69-1.05-1.05c-0.66-0.67-1.2-1.4-1.47-2.29c-0.13-0.44-0.21-0.94-0.62-1.27c-0.36-0.3-1.02-0.47-1.47-0.62
	c-0.43-0.14-0.86-0.36-1.29-0.57c-0.47-0.23-1.02-0.31-0.69-0.89c0.37-0.66,1.53-1.38,1.32-2.25c-0.04-0.18-0.19-0.39-0.27-0.56
	c-0.09-0.2-0.12-0.33-0.18-0.55c-0.06-0.23-0.13-0.37-0.18-0.64c-0.06-0.33-0.2-0.6-0.22-0.94c-0.02-0.42,0.16-1.12-0.09-1.47
	c-0.18-0.25-0.87-0.52-1.15-0.62c-0.26-0.09-0.37-0.11-0.62-0.26c-0.24-0.14-0.5-0.24-0.74-0.37c-0.44-0.23-0.72-0.62-1.14-0.84
	c-0.53-0.28-0.93-0.49-1.37-0.94c-0.45-0.45-0.92-0.97-1.4-1.36c-0.32-0.26-0.87-0.59-0.88-1.04c0-0.22,0.24-0.52,0.28-0.73
	c0.06-0.29,0.02-0.64,0.02-0.94c0-0.53-0.02-0.81,0.41-1.15c0.46-0.37,1.03-0.48,1.52-0.68c0.85-0.36,1.4-1.17,2.19-1.56
	c0.49-0.24,1-0.43,1.5-0.58c0.59-0.18,1.3-0.19,1.85-0.45c0.55-0.26,1.04-0.81,1.5-1.17c0.14-0.11,0.46-0.2,0.63-0.3
	c0.3-0.18,0.54-0.37,0.83-0.57c0.63-0.45,1.34-0.77,2-1.18c0.32-0.2,0.6-0.39,0.94-0.55c0.36-0.17,0.46-0.35,0.75-0.58
	c0.45-0.35,1-0.58,1.44-0.93c0.33-0.26,1.09-1.08,1.57-0.94c0.07-0.53,0.19-1.18,0.37-1.67c0.18-0.48,0.29-0.98,0.46-1.46
	c0.32-0.87,0.77-1.67,1.1-2.5c0.15-0.37,0.41-0.75,0.53-1.1c0.08-0.24,0.09-0.41,0.2-0.63c0.1-0.2,0.19-0.37,0.27-0.58
	c0.17-0.47,0.49-0.79,0.68-1.25c0.23-0.54,0.27-1.01,0.38-1.56c0.09-0.49,0.28-0.97,0.38-1.46c0.09-0.47-0.06-0.99,0.04-1.46
	c0.05-0.27,0.18-0.44,0.2-0.73c0.01-0.24-0.01-0.49,0-0.73c0-0.49,0-0.97,0-1.46c0-0.52-0.06-0.99,0.18-1.47
	c0.19-0.37,0.59-0.71,0.98-0.93c0.42-0.24,0.98-0.41,1.44-0.52c0.45-0.11,1.03-0.39,1.49-0.31c-0.05,0-0.09,0-0.14,0
	c0-0.61,0.23-1.74,0.41-2.31c0.2-0.66,0.9-0.53,1.34-0.85c0.34-0.24,0.3-0.29,0.34-0.71c0.03-0.36,0.15-0.5,0.22-0.83
	c0.04-0.17-0.03-0.36-0.01-0.53c0.03-0.23,0.13-0.3,0.17-0.46c0.07-0.32,0-0.64,0.09-0.95c0.3-1.04,1.67-1.81,2.41-2.6
	c0.42-0.45,0.93-0.86,1.31-1.32c0.19-0.24,0.3-0.48,0.52-0.71c0.18-0.18,0.47-0.37,0.52-0.63c-2.37,0-4.73,0.21-7.1,0.21
	c-0.5,0-1.2,0.13-1.68,0.01c-0.26-0.06-0.32-0.19-0.61-0.22c-0.3-0.04-0.64,0-0.94,0c-0.56,0-1.11,0-1.67,0
	c-0.25,0-0.6-0.06-0.84-0.01c-0.28,0.06-0.42,0.19-0.72,0.22c-0.27,0.03-0.59-0.08-0.85-0.02c-0.24,0.06-0.33,0.2-0.61,0.23
	c-0.58,0.06-1.14,0.17-1.68,0.46c-0.87,0.47-1.49,1.26-2.29,1.83c-0.82,0.59-1.62,1.14-2.39,1.79c-0.43,0.36-0.82,0.81-1.28,1.13
	c-0.51,0.36-1.31,0.26-1.61,0.78c-0.21,0.37,0.04,1.15-0.34,1.32c-0.41,0.18-1.43-0.01-1.89-0.01c-0.28,0-0.56,0-0.83,0
	c-0.33,0-0.42,0.09-0.67,0.16c-0.58,0.17-1.24-0.07-1.83,0.04c-1.12,0.2-2.17,0.64-3.23,0.95c-0.56,0.16-1.08,0.29-1.67,0.31
	c-0.33,0.01-0.39,0.15-0.64,0.19c-0.35,0.07-0.67,0.02-1.03,0.12c-0.28,0.07-0.56,0.24-0.84,0.3s-0.56-0.02-0.84,0.04
	c-0.33,0.07-0.48,0.19-0.84,0.19c-0.32,0.01-0.61-0.02-0.92,0.04c-0.71,0.15-1.37,0.16-2.1,0.16c-0.29,0-0.59,0.01-0.88,0
	c-0.45-0.01-0.77-0.19-1.21-0.22c-1.31-0.07-2.61-0.13-3.85-0.51c-0.77-0.24-1.61-0.48-2.41-0.53c-0.28-0.02-0.52,0.03-0.79-0.04
	c-0.28-0.08-0.41-0.17-0.78-0.16c-1.26,0.01-2.54-0.14-3.66,0.42c-0.5,0.25-1.03,0.77-1.46,1.15c-0.37,0.33-0.68,0.66-0.88,1.09
	c-0.06,0.13-0.13,0.06-0.17,0.25c-0.04,0.16,0.1,0.37,0,0.53c-0.14,0.22-0.68,0.11-0.93,0.11c-0.31,0-0.6-0.02-0.89,0.05
	c-0.05,0.01-0.15,0.15-0.24,0.17c-0.21,0.05-0.44-0.07-0.65-0.02c-0.23,0.05-0.46,0.17-0.7,0.24c-0.21,0.06-0.54,0.23-0.76,0.34
	C7.59,26.27,6.78,26.69,6.69,27.2z M53.35,89.51c-0.1,0.2-0.13,0.4-0.19,0.63c-0.07,0.28-0.14,0.41-0.31,0.65
	c-0.28,0.4-0.6,0.77-0.76,1.23c-0.19,0.52-0.38,1.03-0.55,1.57c-0.17,0.53-0.26,1.03-0.39,1.57c-0.11,0.48-0.36,0.76-0.73,1.06
	c-0.48,0.4-0.83,0.94-1.18,1.44c-0.35,0.51-0.68,1.04-1.04,1.54c-0.16,0.21-0.37,0.41-0.52,0.64c-0.19,0.31-0.46,0.68-0.58,1.03
	c-0.11,0.32-0.25,0.63-0.31,0.97c-0.05,0.29-0.03,0.55-0.1,0.83c-0.15,0.56,0.08,1.13,0.08,1.67c0,0.52,0.04,1.03,0.2,1.51
	c0.18,0.54,0.63,0.79,0.99,1.2c0.38,0.44,0.5,0.97,0.64,1.51c0.08,0.3,0.19,0.61,0.29,0.91c0.14,0.41,0.16,0.83,0.29,1.24
	c0.21,0.67,0.29,1.37,0.57,2.02c0.32,0.73,0.48,1.58,0.94,2.25c0.26,0.38,0.55,0.73,0.79,1.12c0.14,0.24,0.32,0.36,0.49,0.57
	c0.41,0.49,0.84,0.97,1.17,1.53c0.46,0.77,0.77,1.6,1.12,2.41c0.12,0.28,0.22,0.56,0.34,0.84c0.07,0.16,0.18,0.47,0.31,0.58
	c0.21-0.26,0.48-0.49,0.65-0.76c0.21-0.32,0.3-0.72,0.52-1.05c0.56-0.84,1.46-1.45,1.96-2.32c0.18-0.32,0.33-0.7,0.5-1.04
	c0.18-0.37,0.35-0.78,0.57-1.13c0.25-0.38,0.5-0.72,0.6-1.17c0.03-0.12,0.01-0.19,0.07-0.32c0.05-0.09,0.11-0.1,0.14-0.2
	c0.08-0.29-0.17-0.53-0.31-0.75c-0.31-0.49-0.7-0.9-0.93-1.43c-0.05-0.11-0.08-0.23-0.14-0.33c-0.08-0.12-0.22-0.19-0.28-0.31
	c-0.05-0.11-0.05-0.2-0.12-0.31c-0.05-0.09-0.11-0.16-0.16-0.26c-0.14-0.27-0.21-0.58-0.34-0.87c-0.33-0.75-0.57-1.53-0.93-2.27
	c-0.26-0.54-0.42-1.22-0.56-1.81c-0.12-0.51-0.36-1-0.45-1.52c-0.09-0.52-0.24-0.98-0.4-1.48c-0.07-0.23-0.07-0.44-0.12-0.67
	c-0.04-0.18-0.13-0.33-0.17-0.51c-0.04-0.21-0.01-0.41-0.02-0.61c-0.01-0.21-0.09-0.34-0.11-0.53c-0.09-0.64,0.01-1.35,0.01-1.99
	c0-0.29,0.02-0.58-0.02-0.86c-0.05-0.3-0.14-0.59-0.18-0.88c-0.06-0.41-0.13-0.81-0.24-1.21c-0.1-0.33-0.22-0.59-0.36-0.9
	c-0.26-0.58-0.47-1.16-0.55-1.78c-0.07-0.53,0-1.13,0.01-1.67c0-0.23-0.07-0.39-0.13-0.6C53.4,90.33,53.2,90.1,53.35,89.51z
	 M56.27,83.04c-0.21,0.17-0.11,0.65-0.1,0.89c0,0.32-0.11,0.58-0.1,0.89c0,0.29,0.04,0.6,0,0.89c-0.02,0.15-0.09,0.27-0.11,0.42
	c-0.02,0.17,0.03,0.35-0.01,0.52c-0.06,0.28-0.13,0.55-0.21,0.82c-0.06,0.18-0.07,0.3-0.09,0.48c-0.01,0.15-0.08,0.22-0.11,0.36
	c-0.03,0.13,0.03,0.29,0.01,0.42c-0.03,0.18-0.1,0.31-0.11,0.49c-0.02,0.37,0,0.75,0,1.12c0,0.58-0.12,1.32,0.02,1.88
	c0.15,0.58-0.03,1.19,0.08,1.77c0.1,0.58,0.36,1.13,0.63,1.68c0.25,0.5,0.39,0.91,0.52,1.45c0.2,0.82,0.39,1.63,0.7,2.43
	c0.17,0.44,0.42,0.83,0.68,1.22c0.16,0.24,0.26,0.61,0.47,0.81c0.09-0.3,0.19-0.6,0.1-0.91c-0.08-0.28-0.08-0.53-0.08-0.83
	c0-0.32-0.04-0.58-0.1-0.89c-0.02-0.12,0-0.24-0.01-0.36c-0.01-0.16-0.08-0.26-0.11-0.42c-0.04-0.22,0-0.5,0.01-0.73
	c0-0.37-0.07-0.71-0.13-1.07c-0.12-0.73-0.39-1.49-0.39-2.23c0-0.31-0.07-0.62-0.11-0.92c-0.02-0.16-0.09-0.3-0.1-0.48
	c0-0.13,0.03-0.28,0.01-0.41s-0.1-0.23-0.11-0.37c-0.01-0.12,0-0.25,0-0.37c0-0.31-0.08-0.55-0.1-0.84
	c-0.06-0.69-0.32-1.38-0.31-2.08c0-0.29,0.05-0.63,0.01-0.91c-0.03-0.17-0.1-0.27-0.11-0.44c-0.01-0.14,0-0.3,0-0.44
	c0-0.35,0.02-0.68-0.08-1.02c-0.06-0.19-0.15-0.36-0.21-0.54c-0.06-0.18-0.06-0.35-0.15-0.52C56.3,84.26,56.07,83.65,56.27,83.04z
	 M60.24,80.64c0,0.19,0.05,0.26,0.1,0.43c0.04,0.17-0.01,0.34,0.01,0.51c0.02,0.2,0.1,0.36,0.11,0.56c0.01,0.19-0.05,0.41-0.01,0.59
	c0.04,0.18,0.09,0.32,0.12,0.51c0.06,0.42,0.22,0.83,0.29,1.26c0.24,1.43,0.6,2.83,0.85,4.23c0.05,0.26,0.1,0.51,0.21,0.78
	c0.1,0.25,0.09,0.5,0.16,0.73c0.13,0.49,0.04,1.09,0.05,1.62c0,0.21,0.09,0.37,0.11,0.58c0.02,0.18-0.02,0.35,0.02,0.52
	c0.05,0.22,0.08,0.37,0.08,0.61c0,0.13-0.03,0.3-0.01,0.43c0.03,0.17,0.09,0.36,0.14,0.53c0.05,0.19,0.06,0.33,0.08,0.52
	c0.01,0.15,0.05,0.26,0.11,0.41c0.07,0.18,0.06,0.35,0.1,0.53c0.15,0.71,0.44,1.36,0.81,1.97c0.25,0.41,0.46,0.85,0.76,1.24
	c0.12,0.16,0.29,0.27,0.4,0.44c0.08,0.12-0.03,0.7,0.13,0.73c0.05-0.08,0.12-0.11,0.2-0.09c-0.12,0.28-0.09,0.62-0.18,0.93
	c-0.08,0.3-0.02,0.68-0.02,0.99c0,0.39,0.1,0.71,0.18,1.09c0.15,0.7,0.32,1.39,0.47,2.09c0.07,0.32,0.21,0.59,0.27,0.92
	c0.04,0.2,0.05,0.38,0.12,0.58c0.13,0.36,0.27,0.65,0.32,1.03c0.03,0.17,0.08,0.33,0.13,0.5c0.05,0.18,0.06,0.35,0.1,0.53
	c0.08,0.31,0.16,0.64,0.19,0.96c0.03,0.33,0.14,0.62,0.21,0.94c0.13,0.62,0.28,1.27,0.55,1.86c0.12,0.26,0.14,0.61,0.18,0.89
	c0.02,0.15,0.1,0.27,0.11,0.42c0.02,0.16,0.01,0.26,0.05,0.42c0.08,0.31,0.05,0.64,0.05,0.97c0,0.42,0.11,0.8,0.1,1.22
	c0,0.79,0,1.58,0,2.38c0,0.2-0.01,0.4,0,0.6c0.01,0.19,0.09,0.35,0.11,0.53c0.04,0.31-0.01,0.65-0.01,0.96c0,0.4,0.07,0.74,0.1,1.13
	c0.02,0.31,0.32,0.73,0.32,1.04c0,0.34,0,0.68,0,1.02c0,0.51-0.11,0.99-0.1,1.5c0,0.56,0,1.12,0,1.68c-0.01,0.43,0.11,0.9,0.19,1.33
	c0.04,0.2,0.02,0.38,0.07,0.57c0.04,0.14,0.1,0.28,0.16,0.42c0.13,0.3,0.22,0.64,0.41,0.92c0.28,0.4,0.67,0.9,1.04,1.21
	c0.39,0.33,0.73,0.74,1.16,1.04c0.24,0.17,0.38,0.38,0.67,0.49c0.27,0.1,0.52,0.21,0.78,0.34c0.49,0.24,0.99,0.48,1.46,0.73
	c0.22,0.12,0.47,0.21,0.67,0.35c0.15,0.1,0.27,0.25,0.4,0.38c0.37,0.36,0.3,0.92,0.52,1.36c0.11,0.22,0.22,0.47,0.34,0.7
	c0.16,0.29,0.36,0.52,0.55,0.78c0.29,0.4,0.63,0.78,0.94,1.17c0.08,0.1,0.09,0.19,0.21,0.29c0.09,0.08,0.18,0.18,0.29,0.26
	c0.24,0.19,0.55,0.35,0.76,0.57c0.12,0.12,0.17,0.22,0.34,0.32c0.12,0.07,0.25,0.13,0.36,0.21c0.14,0.08,0.23,0.21,0.37,0.3
	c0.15,0.1,0.34,0.15,0.5,0.23c0.25,0.13,0.47,0.31,0.7,0.48c0.15,0.11,0.3,0.15,0.45,0.24c0.17,0.11,0.3,0.28,0.44,0.42
	c0.55,0.55,1.17,0.99,1.77,1.46c0.24,0.19,0.49,0.46,0.78,0.58c0.26,0.11,0.52,0.21,0.78,0.34c0.43,0.21,0.66,0.61,0.97,0.96
	c0.18,0.21,0.27,0.47,0.44,0.68c0.18,0.23,0.3,0.43,0.47,0.67c0.49,0.68,0.63,1.59,1.03,2.32c0.38,0.67,0.73,1.3,1.18,1.94
	c0.26,0.37,0.51,0.75,0.77,1.12c0.19,0.27,0.72,0.55,0.77,0.89c0-0.35,0.06-0.76-0.01-1.11c-0.07-0.38-0.1-0.71-0.1-1.1
	c0-0.49-0.09-0.93-0.1-1.41c0-0.23-0.08-0.43-0.11-0.66c-0.02-0.16,0.03-0.32,0-0.48c-0.09-0.49-0.2-1.15-0.09-1.66
	c0.06-0.26,0.26-0.55,0.38-0.78c0.13-0.25,0.17-0.53,0.29-0.79c0.1-0.21,0.28-0.41,0.36-0.63c0.08-0.23,0.07-0.48,0.12-0.72
	c0.05-0.25,0.14-0.49,0.19-0.74c0.03-0.15,0-0.31,0.01-0.46c0.01-0.14,0.07-0.23,0.1-0.36c0.04-0.21,0.04-0.52,0-0.73
	c-0.03-0.13-0.09-0.22-0.1-0.37c0-0.11,0.01-0.2-0.02-0.31c-0.12-0.47-0.29-0.98-0.29-1.48c0-0.52,0.08-1.14,0-1.65
	c-0.03-0.23-0.11-0.37-0.11-0.62c0-0.21,0.05-0.52-0.02-0.71c-0.03-0.01-0.16-0.01-0.19-0.02c0-0.05,0.02-0.08,0.06-0.1
	c-0.08-0.06-0.16-0.53-0.17-0.63c-0.03-0.26-0.05-0.42-0.13-0.67c-0.12-0.36-0.08-0.75-0.18-1.12c-0.08-0.29-0.2-0.59-0.31-0.87
	c-0.35-0.91-0.65-1.87-1.1-2.72c-0.34-0.65-0.51-1.39-0.86-2.04c-0.47-0.87-0.95-1.74-1.36-2.64c-0.18-0.4-0.41-0.78-0.54-1.2
	s-0.26-0.84-0.42-1.26c-0.31-0.79-0.44-1.63-0.68-2.44c-0.1-0.34-0.19-0.68-0.29-1.02c-0.08-0.31-0.09-0.62-0.18-0.93
	c-0.26-0.86-0.36-1.75-0.73-2.59c-0.48-1.07-0.84-2.22-1.25-3.32c-0.36-0.94-0.79-1.86-1.17-2.79c-0.35-0.86-0.84-1.65-1.13-2.53
	c-0.27-0.84-0.52-1.68-0.91-2.46c-0.38-0.77-0.86-1.52-1.24-2.29c-0.2-0.42-0.45-0.76-0.69-1.14c-0.15-0.25-0.34-0.46-0.5-0.7
	c-0.15-0.22-0.24-0.47-0.42-0.66c-0.21-0.24-0.44-0.45-0.63-0.7c-0.18-0.24-0.33-0.49-0.51-0.73c-0.36-0.47-0.76-0.9-1.11-1.38
	c-0.2-0.29-0.34-0.58-0.57-0.84c-0.14-0.16-0.18-0.34-0.3-0.5c-0.08-0.1-0.19-0.13-0.26-0.24c-0.06-0.1-0.11-0.21-0.17-0.31
	c-0.08-0.14-0.19-0.22-0.29-0.33c-0.31-0.38-0.57-0.83-0.86-1.23c-0.37-0.5-0.73-1.01-1.04-1.54c-0.15-0.26-0.33-0.52-0.52-0.75
	c-0.09-0.11-0.19-0.16-0.27-0.28c-0.06-0.1-0.08-0.22-0.14-0.32c-0.3-0.46-0.73-0.79-1.02-1.25c-0.17-0.26-0.38-0.5-0.55-0.76
	c-0.15-0.22-0.26-0.43-0.42-0.65c-0.24-0.34-0.48-0.68-0.71-1.02c-0.13-0.2-0.31-0.31-0.44-0.52c-0.13-0.2-0.26-0.35-0.42-0.52
	c-0.36-0.4-0.57-0.93-0.93-1.34c-0.38-0.43-0.77-0.84-1.15-1.27c-0.15-0.17-0.25-0.37-0.42-0.53c-0.16-0.16-0.36-0.25-0.52-0.41
	c-0.31-0.3-0.59-0.67-0.94-0.92s-0.6-0.6-0.94-0.86c-0.34-0.26-0.68-0.52-1.05-0.75c-0.15-0.1-0.25-0.24-0.41-0.32
	c-0.14-0.07-0.28-0.11-0.42-0.18C60.22,80.28,60.24,80.45,60.24,80.64z"/>
</svg>
