<?xml version="1.0" encoding="utf-8"?>
<!-- Generator: Adobe Illustrator 25.2.0, SVG Export Plug-In . SVG Version: 6.00 Build 0)  -->
<svg version="1.1" id="Layer_1" xmlns="http://www.w3.org/2000/svg" xmlns:xlink="http://www.w3.org/1999/xlink" x="0px" y="0px"
	 viewBox="0 0 213.95 177.37" style="enable-background:new 0 0 213.95 177.37;" xml:space="preserve">
<style type="text/css">
	.st0{fill:none;}
	.st1{fill:#D5BCD5;}
</style>
<g>
	<path class="st0" d="M60.12,136.99c1.5,0.94,2.49,1.49,3.84,1.22c0.15-0.03,0.3-0.07,0.44-0.11c-1.51-0.35-3.13-0.84-4.86-1.47
		C59.73,136.75,59.92,136.87,60.12,136.99z"/>
	<path class="st0" d="M55.24,109.82c1.02,0.19,1.64,0.81,2.14,1.31c0.39,0.38,0.62,0.6,0.92,0.68c0.43,0.1,1.03,0,1.67-0.11
		c0.53-0.09,1.12-0.19,1.73-0.19c0.24,0,0.48,0.02,0.72,0.05c1.74,0.27,3.75,0.96,5.69,1.63c0.93,0.32,1.81,0.62,2.63,0.87
		c-0.18-2.15-0.5-4.27-0.83-6.48c-0.09-0.63-0.19-1.26-0.28-1.9c-0.82-1.09-1.79-2.2-2.9-3.33l-0.45-0.45
		c-1.41-1.44-2.73-2.8-4.52-3.37c-0.49-0.16-1.12-0.14-1.79-0.13c-0.79,0.02-1.6,0.04-2.4-0.2c-0.94-0.28-1.57-0.83-2.08-1.28
		c-0.39-0.34-0.65-0.56-0.89-0.6c-5.72-1.04-10.85,0.39-16.97,2.37c-2.02,0.65-3.94,0.89-5.63,1.09c-3.5,0.42-5.68,0.69-6.94,3.97
		c1.47-0.08,2.89-0.27,4.23-0.62c0.54-0.14,1.12-0.31,1.73-0.48c4.42-1.26,10.47-2.99,14.38,0.66c1.79,1.67,3.17,3.85,4.15,6.29
		C51.46,109.48,53.37,109.46,55.24,109.82z"/>
	<path class="st0" d="M50.68,132.71c0.23,0.37,0.48,0.71,0.74,1.03c0.33,0.13,0.67,0.26,1,0.39c0.87,0.32,1.6,0.49,2.36,0.66
		c0.17,0.04,0.34,0.08,0.51,0.12c-1.25-0.56-2.56-1.17-3.91-1.85C51.14,132.95,50.91,132.83,50.68,132.71z"/>
	<path class="st0" d="M70.77,120.02c0.07-1.03,0.14-2,0.12-2.9c0-0.04,0-0.09,0-0.13c-0.15-0.04-0.3-0.09-0.45-0.13
		c-1.02-0.29-2.1-0.66-3.24-1.05c-1.83-0.63-3.72-1.28-5.21-1.51c-0.42-0.06-0.97,0.03-1.56,0.13c-0.85,0.15-1.81,0.31-2.8,0.07
		c-1.07-0.26-1.73-0.92-2.22-1.4c-0.28-0.28-0.52-0.52-0.7-0.55c-1.35-0.26-2.76-0.28-4.22-0.23c0.72,2.62,1.05,5.41,1.03,8.14
		c0.36-0.12,0.74-0.22,1.13-0.3c0.87-0.18,1.8-0.27,2.77-0.27c6.2,0,13.92,3.55,15.73,8.88c0.69,2.05,0.55,4.46-0.38,6.65
		c0.67-1.18,1.23-2.54,1.72-3.9c-0.9-2.56-1.67-6.03-1.68-6.08C70.52,123.72,70.65,121.84,70.77,120.02z"/>
	<path class="st0" d="M53.23,122.89c-0.72,0.15-1.34,0.37-1.87,0.66c-0.22,2.05-0.64,4-1.26,5.74c0.84,0.43,1.67,0.86,2.51,1.27
		c6.63,3.31,11.39,4.8,14.8,5.25c0.13-0.18,0.25-0.38,0.37-0.58c1.02-1.77,1.31-3.91,0.75-5.57
		C66.93,124.97,58.42,121.81,53.23,122.89z"/>
	<path class="st0" d="M28.28,106.99c1.91,0.07,3.88,0.13,5.72,0.53c1.31,0.28,2.46,0.7,3.57,1.11c1.24,0.46,2.42,0.88,3.74,1.09
		c1.7,0.26,3.47,0.2,5.33,0.07c-0.8-1.73-1.84-3.26-3.11-4.45c-2.76-2.58-7.73-1.16-11.72-0.02c-0.63,0.18-1.24,0.35-1.8,0.5
		c-1.89,0.49-3.87,0.7-5.87,0.75c-0.02,0.05-0.03,0.1-0.05,0.15C25.4,106.89,26.81,106.94,28.28,106.99z"/>
	<path class="st0" d="M18.15,103.65c0,0,0.01,0,0.01,0c1.32,0.06,2.65,0.12,3.97,0.14l0.13-0.39c1.77-5.47,5.67-5.94,9.44-6.4
		c1.64-0.2,3.34-0.4,5.11-0.97c6.49-2.1,11.96-3.61,18.32-2.46c1.01,0.18,1.68,0.77,2.22,1.24c0.37,0.32,0.69,0.6,1.04,0.71
		c0.38,0.11,0.94,0.1,1.54,0.09c0.83-0.02,1.77-0.04,2.71,0.26c2.44,0.78,4.08,2.46,5.66,4.08l0.44,0.44
		c0.11,0.11,0.22,0.23,0.33,0.34c-0.11-1.32-0.18-2.66-0.17-4.04c0-0.78,0-1.57,0.01-2.35c-1.24-5.37-0.62-12.09,0.39-17.43
		c0.09-1.73,0.21-3.46,0.35-5.2c-14.03-0.74-29.77-0.85-40.3,6.43c-2.21,1.53-2.99,3.05-4.26,5.56l-0.27,0.53
		c-0.98,1.92-2.03,3.04-3.05,4.11c-0.68,0.72-1.31,1.39-1.94,2.32c-2.22,3.3-4.1,7.97-2.69,11.21
		C17.43,102.56,17.77,103.14,18.15,103.65z"/>
	<path class="st0" d="M40.88,112.46c-1.59-0.25-2.95-0.74-4.27-1.23c-1.07-0.39-2.07-0.76-3.19-1c-1.6-0.34-3.37-0.4-5.24-0.47
		c-1.59-0.05-3.25-0.11-4.86-0.36c-0.74,3.24-0.19,5.35,3.75,7.4c3.72,1.94,7.44,4,11.04,6c2.72,1.51,5.5,3.05,8.3,4.55
		c0.03-2.23,0.82-4.05,2.29-5.33c0.2-3.17-0.14-6.52-1.04-9.52C45.43,112.66,43.14,112.81,40.88,112.46z"/>
	<path class="st0" d="M74.19,134.82c0.1-0.07,0.2-0.14,0.3-0.22c-0.05-0.03-0.1-0.07-0.16-0.1
		C74.29,134.61,74.24,134.72,74.19,134.82z"/>
	<path class="st0" d="M25.79,119.27c-5.58-2.91-6.06-6.47-5.15-10.52c-1.4-0.49-2.7-1.23-3.83-2.38c-1.52-0.07-2.97-0.11-4.39-0.08
		c-0.69,0.02-1.29,0-1.83-0.02c-0.6-0.02-1.41-0.04-1.61,0.06c0.01,0-0.19,0.28-0.21,1.56c-0.02,1.42,1.93,4.52,3.32,5.64
		c0.46,0.37,1.25,0.62,2.08,0.89c1.08,0.35,2.3,0.74,3.29,1.55c0.73,0.6,1.21,1.38,1.67,2.13c0.39,0.63,0.75,1.22,1.18,1.57
		c1.3,1.04,3.31,1.79,5.25,2.51c1.14,0.42,2.22,0.83,3.17,1.29c2.07,1.01,4.11,1.82,6.09,2.6c1.54,0.61,3.13,1.24,4.71,1.95
		c1.72,0.78,3.45,1.66,5.12,2.51c0.49,0.25,0.98,0.5,1.47,0.75c0.14-0.22,0.27-0.46,0.4-0.71c-3.3-1.75-6.57-3.56-9.76-5.33
		C33.18,123.25,29.47,121.2,25.79,119.27z"/>
	<path class="st0" d="M184.12,137.64c-0.21-1.01-0.41-2.03-0.62-3.06c-3.33,0.38-6.69,1.65-9.98,2.89
		c-0.62,0.23-1.23,0.46-1.83,0.68c-4.44,1.63-9.05,4.53-13.33,8.39c-2.8,2.53-2.8,2.53-2.02,5.16c1.42,4.8,9.64,3.1,12.13,2.46
		c3.85-0.99,9.07-3.12,16.82-10.24c-0.15-0.81-0.3-1.63-0.45-2.45C184.62,140.23,184.39,138.93,184.12,137.64z"/>
	<path class="st0" d="M73.67,118.03c-0.02,0.72-0.07,1.46-0.12,2.18c-0.11,1.66-0.23,3.37,0.01,4.78c0.05,0.29,0.23,1.01,0.46,1.88
		c0.01-0.02,0.01-0.03,0.02-0.05c1.02-3.13,0.52-5.72-0.12-8.66C73.84,118.11,73.76,118.07,73.67,118.03z"/>
	<path class="st0" d="M188.33,144.95c1.12,5.26,2.85,9.43,8.41,12.1c2.56,1.23,8.15,2.35,11.07,1.31c0.73-0.26,1.19-0.62,1.42-1.09
		c1.75-3.74-0.97-6.45-4.99-9.89c-1.2-1.02-2.34-1.99-3.18-2.98c-1.78-2.09-3.88-4.4-6.2-6.25
		C192.81,140.43,190.63,142.75,188.33,144.95z"/>
	<path class="st0" d="M188.72,134.85c-0.79-0.2-1.6-0.31-2.4-0.36c0.17,0.87,0.35,1.73,0.52,2.58c0.28,1.33,0.51,2.65,0.74,3.92
		c0.04,0.22,0.08,0.43,0.12,0.65c1.53-1.51,3.16-3.21,4.88-5.11C191.34,135.76,190.04,135.17,188.72,134.85z"/>
	<path class="st0" d="M206.48,111.41c0.55-1.8,1.31-3.48,2.05-5.11c0.98-2.16,1.91-4.19,2.33-6.44c0.42-2.24,0.32-4.71,0.21-7.1
		c-0.05-1.23-0.11-2.51-0.09-3.76c0.07-5.49-1.25-11.12-2.53-16.57c-0.34-1.45-0.68-2.89-0.99-4.32
		c-2.43-11.15-6.56-24.75-17.08-30.97c-3.8-2.25-7.41-4.78-10.91-7.22c-1.45-1.01-2.9-2.03-4.37-3.03
		c-3.33-2.27-7.06-4.02-10.68-5.72c-2.08-0.98-4.24-2-6.33-3.11c-2.85-1.52-5.98-2.72-9.01-3.88c-4.35-1.66-8.85-3.39-12.73-6.13
		c-4.94-3.49-10.1-5.26-15.33-5.26c-7.71,0-18.22,4.87-31.25,14.48c-9.19,6.78-11.7,20.52-13.92,32.65
		c-0.42,2.32-0.82,4.51-1.26,6.58c-0.65,3.08-1.15,6.15-1.54,9.21c2.47-3.74,6.25-5.73,12.2-6.67c6.63-1.05,16.92-1.57,23.84-0.24
		c6.61,1.27,13.14,6.96,18.38,11.53c0.82,0.72,1.61,1.4,2.36,2.04c3.85,3.26,7.27,7.08,9.96,11.05c0.34,0,0.79-0.08,1.23-0.16
		c0.86-0.16,1.83-0.33,2.79-0.08c4.51,1.2,9.65,5.07,14.18,8.49c1.94,1.47,3.78,2.85,5.4,3.9c6.82,4.42,13.23,11.26,16.73,17.85
		c2.95,5.56,4.38,11.97,5.64,18.28c1.2,0.02,2.41,0.16,3.62,0.46c1.77,0.44,3.47,1.24,5.07,2.28c2.38-2.69,4.66-5.41,6.67-8.42
		c2.43-3.63,3.21-6.64,4.21-10.45C205.68,114.25,206.03,112.89,206.48,111.41z"/>
	<path class="st0" d="M76.68,127.68c-0.15,0.46-0.3,0.95-0.46,1.46c-0.24,0.77-0.49,1.57-0.77,2.39c0.08,0.22,0.16,0.4,0.23,0.52
		c0.16,0.12,0.32,0.22,0.49,0.31c0.58-1.33,0.85-3.02,0.83-5.08c0-0.21-0.01-0.42-0.01-0.62C76.9,126.99,76.8,127.33,76.68,127.68z"
		/>
	<path class="st0" d="M72.05,77.19c-0.3,5.67-0.36,11.29-0.38,16.83c0.07,0.29,0.15,0.57,0.23,0.84c1.4,4.61,5.31,8.64,9.09,12.53
		c2.1,2.16,4.08,4.2,5.68,6.35c1.01,1.36,2.23,2.74,3.4,4.08c1.34,1.53,2.73,3.1,3.89,4.73c2.95-2.71,5.93-5.77,7.1-8.48
		c1.33-3.08,1.23-12.63,0.41-16c-1.11-4.62-2.58-9.88-4.99-13.81c-2.53-4.13-5.89-7.01-10.55-9.07c-1.81-0.8-3.11-0.88-4.74-0.97
		c-0.88-0.05-1.88-0.11-3.03-0.3c-1.46-0.24-2.67-0.69-3.84-1.12c-0.38-0.14-0.76-0.28-1.14-0.41
		C72.76,73.87,72.38,75.49,72.05,77.19z"/>
	<path class="st0" d="M84.44,115.4c-1.49-2.01-3.41-3.98-5.45-6.07c-2.55-2.62-5.15-5.3-7.13-8.26c0.11,1.19,0.26,2.37,0.42,3.53
		c1.99,2.81,3.16,5.56,3.47,8.22c0.15,1.29,0.39,2.49,0.64,3.65c3.26,2.38,3.3,5.75,3.37,10.76c0.03,2.15-0.24,4.01-0.79,5.57
		c3.73-0.44,8.07-4.09,9.62-5.5c0.66-0.6,1.41-1.25,2.2-1.95c0.35-0.3,0.71-0.62,1.08-0.95c-1.11-1.6-2.52-3.2-3.89-4.76
		C86.77,118.28,85.52,116.86,84.44,115.4z"/>
	<path class="st0" d="M138.02,85.73c-0.5-0.29-0.92-0.69-1.29-1.03c-0.12-0.11-0.28-0.26-0.38-0.34c-0.22-0.05-0.45-0.11-0.69-0.16
		c-1.04-0.25-2.24-0.54-3.29-0.54c-0.53,0-1.03,0.08-1.43,0.27c-6.22,2.97-8.02,18.66-6.23,24.81c1.37,4.69,4.05,7.81,7.18,8.35
		c2.72,0.47,5.55-1.1,7.95-4.42c4.22-5.84,4.76-12.72,1.61-20.47C140.56,90.05,139.4,87.87,138.02,85.73z"/>
	<path class="st1" d="M208.03,116.26c0.34-1.29,0.68-2.61,1.12-4.05c0.49-1.63,1.19-3.15,1.92-4.76c1.01-2.21,2.05-4.5,2.53-7.08
		c0.48-2.56,0.37-5.19,0.26-7.74c-0.05-1.25-0.11-2.43-0.09-3.6c0.07-5.83-1.29-11.63-2.61-17.24c-0.34-1.44-0.67-2.86-0.98-4.28
		c-2.55-11.71-6.94-26.01-18.39-32.77c-3.71-2.19-7.28-4.69-10.73-7.1c-1.46-1.02-2.92-2.04-4.4-3.05
		c-3.51-2.39-7.35-4.2-11.06-5.94c-2.05-0.97-4.18-1.97-6.2-3.05c-3.01-1.61-6.22-2.83-9.33-4.02c-4.38-1.68-8.52-3.26-12.12-5.81
		C132.54,1.94,126.84,0,121.02,0c-8.32,0-19.39,5.06-32.9,15.03c-10.08,7.44-12.81,22.38-15,34.38c-0.42,2.3-0.82,4.47-1.25,6.51
		c-0.92,4.37-1.55,8.71-1.99,13.02c-14.52-0.77-30.86-0.88-42.13,6.92c-2.79,1.93-3.79,3.88-5.16,6.59l-0.27,0.52
		c-0.8,1.57-1.67,2.49-2.6,3.47c-0.72,0.77-1.47,1.56-2.22,2.67c-1.28,1.9-5.27,8.5-2.93,13.88c0.08,0.18,0.16,0.36,0.25,0.53
		c-0.84-0.02-1.67-0.03-2.48,0c-0.61,0.02-1.17,0-1.67-0.02c-1.42-0.04-2.65-0.08-3.59,0.81c-0.92,0.88-1.07,2.28-1.09,3.54
		c-0.05,2.59,2.59,6.44,4.36,7.86c0.86,0.69,1.93,1.03,2.97,1.37c0.92,0.3,1.79,0.58,2.37,1.05c0.37,0.3,0.71,0.86,1.07,1.44
		c0.47,0.77,1,1.63,1.81,2.28c1.65,1.32,3.97,2.18,6.02,2.94c1.08,0.4,2.09,0.78,2.92,1.18c2.16,1.06,4.26,1.89,6.29,2.69
		c1.58,0.62,3.06,1.21,4.58,1.9c1.66,0.75,3.36,1.62,5,2.46c0.27,0.14,0.54,0.28,0.81,0.41c-1.71,1.22-3.97,1.37-7.22,0.67
		c-1-0.22-1.81-0.59-2.67-0.99c-0.96-0.45-1.96-0.91-3.28-1.19c-1.62-0.34-3.53-0.21-5.38-0.08c-0.76,0.05-1.48,0.11-2.12,0.12
		c-1.2,0.02-2.75-0.37-4.4-0.79c-3.09-0.78-6.28-1.58-8.71-0.11c-1.28,0.77-2.15,2.09-2.58,3.91c-1.21,5.06,3.64,10.39,6.69,12.74
		c2.32,1.79,5,2.6,7.59,3.38c1.7,0.51,3.3,1,4.76,1.74c5.28,2.66,8.49,5.53,13,9.87c-2.7,5.66-13.9,4.82-23.82,4.08
		c-6-0.45-11.67-0.87-15.11,0.23c-0.73,0.23-1.13,1.01-0.9,1.74c1.02,3.28,6.66,4.67,11.2,5.79c1.15,0.28,2.14,0.53,2.81,0.75
		c5.31,1.76,9.54,2.1,15.44,2.1c0.05,0,0.1,0,0.15,0c0.77,0,1.39-0.62,1.39-1.39c0-0.77-0.62-1.39-1.39-1.39
		c-0.04,0.01-0.1,0-0.15,0c-5.61,0-9.61-0.32-14.57-1.96c-0.78-0.26-1.82-0.51-3.02-0.81c-2.08-0.51-5.84-1.44-7.87-2.61
		c3.05-0.32,7.33-0.01,11.81,0.33c11.39,0.85,24.29,1.81,26.99-6.8c0.16-0.5,0.02-1.05-0.36-1.42c-4.37-4.22-8.15-7.87-14.34-10.99
		c-1.68-0.85-3.48-1.39-5.21-1.91c-2.46-0.74-4.78-1.44-6.69-2.92c-2.73-2.1-6.49-6.48-5.68-9.89c0.26-1.08,0.69-1.79,1.32-2.17
		c1.44-0.87,4.05-0.21,6.59,0.43c1.75,0.44,3.55,0.9,5.12,0.87c0.71-0.01,1.47-0.07,2.27-0.12c1.66-0.12,3.37-0.24,4.6,0.02
		c1.01,0.22,1.82,0.59,2.68,0.99c0.96,0.44,1.94,0.9,3.25,1.19c4.7,1.02,8.06,0.41,10.51-2.04c0.95,0.46,1.9,0.9,2.85,1.3
		c1.48,1.59,3.43,2.84,5.8,3.69c0.72,0.26,1.46,0.56,2.17,0.84c4.02,1.62,8.57,3.46,13.06-0.65c0.45-0.41,0.86-0.87,1.24-1.36
		c1.31-0.23,2.46-0.66,3.47-1.29c0.74-0.46,1.38-1.03,1.93-1.69c4.93,0.49,10.51-3.93,13.04-6.23c0.65-0.59,1.38-1.23,2.16-1.91
		c0.23-0.2,0.47-0.41,0.71-0.62c0.35,0.66,0.67,1.32,0.99,1.96c1.28,2.61,2.61,5.31,5.52,7.66c0.6,0.48,1.47,0.39,1.96-0.21
		c0.48-0.6,0.39-1.47-0.21-1.96c-2.43-1.96-3.51-4.17-4.77-6.72c-0.42-0.86-0.86-1.74-1.35-2.63c3.34-3.03,6.71-6.45,8.14-9.77
		c1.6-3.71,1.52-13.79,0.56-17.76c-1.16-4.83-2.71-10.35-5.32-14.61c-2.84-4.63-6.59-7.86-11.79-10.16c-2.27-1-3.94-1.1-5.71-1.2
		c-0.85-0.05-1.74-0.1-2.75-0.27c-1.19-0.19-2.22-0.58-3.31-0.98c-0.4-0.15-0.8-0.3-1.22-0.44c1.96-4.8,5.22-6.96,11.62-7.97
		c6.6-1.04,16.58-1.47,22.89-0.26c5.88,1.13,12.09,6.54,17.08,10.89c0.83,0.73,1.63,1.42,2.39,2.06c2.39,2.03,4.61,4.28,6.57,6.64
		c-1.61-0.31-3.35-0.43-4.89,0.3c-7.92,3.78-9.78,20.94-7.7,28.09c1.67,5.73,5.17,9.59,9.37,10.32c3.83,0.66,7.62-1.3,10.67-5.53
		c4.75-6.57,5.42-14.58,1.93-23.15c-0.7-1.71-1.56-3.44-2.56-5.15c0.03-0.01,0.06-0.01,0.09-0.02c0.6-0.11,1.21-0.22,1.58-0.12
		c3.99,1.06,8.89,4.76,13.22,8.02c1.99,1.5,3.86,2.91,5.56,4.01c6.45,4.18,12.5,10.63,15.79,16.82c2.71,5.11,4.09,11.16,5.29,17.14
		c-3.62,0.46-7.16,1.79-10.42,3.02c-0.61,0.23-1.21,0.46-1.81,0.68c-4.77,1.75-9.69,4.84-14.24,8.94c-3.57,3.22-3.94,4.27-2.83,8.02
		c1.46,4.92,7.1,6.51,15.49,4.36c6.17-1.58,11.78-5.3,16.82-9.76c1.28,5.07,3.54,9.56,9.56,12.45c3,1.44,9.42,2.77,13.21,1.42
		c1.44-0.52,2.45-1.37,3-2.53c2.79-5.95-2.12-10.13-5.71-13.18c-1.11-0.95-2.17-1.85-2.86-2.66c-1.84-2.17-4.02-4.55-6.47-6.52
		c2.38-2.7,4.67-5.44,6.72-8.51C206.12,123.54,207.01,120.17,208.03,116.26z M19.82,90.66c0.62-0.92,1.26-1.6,1.94-2.32
		c1.02-1.08,2.07-2.19,3.05-4.11l0.27-0.53c1.28-2.51,2.05-4.03,4.26-5.56c10.53-7.28,26.26-7.18,40.3-6.43
		c-0.14,1.74-0.26,3.47-0.35,5.2c-1.02,5.34-1.63,12.06-0.39,17.43c0,0.79-0.01,1.57-0.01,2.35c0,1.38,0.06,2.72,0.17,4.04
		c-0.11-0.11-0.22-0.23-0.33-0.34l-0.44-0.44c-1.58-1.62-3.21-3.29-5.66-4.08c-0.93-0.3-1.88-0.28-2.71-0.26
		c-0.6,0.01-1.16,0.03-1.54-0.09c-0.36-0.11-0.68-0.39-1.04-0.71c-0.54-0.47-1.21-1.06-2.22-1.24c-6.36-1.15-11.83,0.36-18.32,2.46
		c-1.77,0.57-3.47,0.78-5.11,0.97c-3.77,0.45-7.66,0.92-9.44,6.4l-0.13,0.39c-1.32-0.02-2.65-0.08-3.97-0.14c0,0-0.01,0-0.01,0
		c-0.38-0.51-0.71-1.09-1.01-1.77C15.72,98.64,17.6,93.96,19.82,90.66z M30.01,105.81c0.56-0.15,1.16-0.32,1.8-0.5
		c3.99-1.14,8.96-2.56,11.72,0.02c1.28,1.19,2.31,2.72,3.11,4.45c-1.86,0.12-3.63,0.19-5.33-0.07c-1.32-0.2-2.49-0.63-3.74-1.09
		c-1.11-0.41-2.26-0.83-3.57-1.11c-1.84-0.39-3.81-0.46-5.72-0.53c-1.47-0.05-2.88-0.1-4.19-0.28c0.02-0.05,0.03-0.1,0.05-0.15
		C26.14,106.51,28.12,106.31,30.01,105.81z M46.13,131.28c-0.49-0.25-0.98-0.5-1.47-0.75c-1.67-0.85-3.4-1.74-5.12-2.51
		c-1.58-0.71-3.17-1.34-4.71-1.95c-1.98-0.78-4.03-1.59-6.09-2.6c-0.95-0.46-2.03-0.86-3.17-1.29c-1.94-0.72-3.95-1.46-5.25-2.51
		c-0.43-0.35-0.8-0.94-1.18-1.57c-0.46-0.75-0.94-1.53-1.67-2.13c-0.98-0.81-2.21-1.2-3.29-1.55c-0.83-0.27-1.62-0.52-2.08-0.89
		c-1.39-1.12-3.35-4.22-3.32-5.64c0.02-1.28,0.22-1.56,0.21-1.56c0.19-0.11,1.01-0.08,1.61-0.06c0.53,0.02,1.13,0.04,1.83,0.02
		c1.42-0.04,2.87,0.01,4.39,0.08c1.13,1.15,2.43,1.89,3.83,2.38c-0.91,4.05-0.43,7.61,5.15,10.52c3.69,1.93,7.4,3.98,10.98,5.97
		c3.19,1.77,6.46,3.58,9.76,5.33C46.4,130.82,46.27,131.06,46.13,131.28z M48.71,122.02c-1.46,1.28-2.26,3.1-2.29,5.33
		c-2.8-1.5-5.58-3.04-8.3-4.55c-3.6-1.99-7.32-4.06-11.04-6c-3.94-2.06-4.48-4.16-3.75-7.4c1.61,0.25,3.27,0.31,4.86,0.36
		c1.87,0.06,3.64,0.13,5.24,0.47c1.12,0.24,2.13,0.61,3.19,1c1.32,0.48,2.67,0.98,4.27,1.23c2.25,0.35,4.55,0.2,6.78,0.04
		C48.57,115.51,48.9,118.85,48.71,122.02z M49.58,109.59c-0.99-2.44-2.36-4.62-4.15-6.29c-3.91-3.65-9.96-1.92-14.38-0.66
		c-0.61,0.18-1.19,0.34-1.73,0.48c-1.34,0.35-2.76,0.53-4.23,0.62c1.26-3.29,3.44-3.55,6.94-3.97c1.69-0.2,3.61-0.44,5.63-1.09
		c6.11-1.98,11.24-3.41,16.97-2.37c0.24,0.04,0.49,0.26,0.89,0.6c0.51,0.44,1.14,1,2.08,1.28c0.8,0.24,1.61,0.22,2.4,0.2
		c0.67-0.01,1.3-0.03,1.79,0.13c1.78,0.57,3.11,1.93,4.52,3.37l0.45,0.45c1.11,1.13,2.08,2.24,2.9,3.33
		c0.09,0.64,0.19,1.27,0.28,1.9c0.33,2.21,0.65,4.33,0.83,6.48c-0.82-0.25-1.7-0.55-2.63-0.87c-1.94-0.67-3.95-1.36-5.69-1.63
		c-0.24-0.04-0.48-0.05-0.72-0.05c-0.61,0-1.19,0.1-1.73,0.19c-0.64,0.11-1.24,0.21-1.67,0.11c-0.3-0.07-0.54-0.29-0.92-0.68
		c-0.5-0.5-1.12-1.11-2.14-1.31C53.37,109.46,51.46,109.48,49.58,109.59z M54.78,134.79c-0.76-0.18-1.49-0.34-2.36-0.66
		c-0.33-0.12-0.66-0.25-1-0.39c-0.26-0.32-0.51-0.66-0.74-1.03c0.23,0.12,0.46,0.23,0.69,0.35c1.35,0.68,2.66,1.29,3.91,1.85
		C55.11,134.87,54.94,134.83,54.78,134.79z M63.95,138.22c-1.34,0.27-2.33-0.29-3.84-1.22c-0.19-0.12-0.39-0.24-0.58-0.36
		c1.73,0.63,3.35,1.12,4.86,1.47C64.25,138.15,64.1,138.19,63.95,138.22z M67.78,135.24c-0.12,0.2-0.24,0.4-0.37,0.58
		c-3.41-0.45-8.17-1.94-14.8-5.25c-0.84-0.42-1.67-0.84-2.51-1.27c0.61-1.74,1.04-3.7,1.26-5.74c0.53-0.29,1.15-0.51,1.87-0.66
		c5.19-1.08,13.7,2.08,15.3,6.79C69.09,131.33,68.81,133.47,67.78,135.24z M70.78,135.44c0.92-2.19,1.07-4.6,0.38-6.65
		c-1.81-5.33-9.52-8.88-15.73-8.88c-0.97,0-1.91,0.09-2.77,0.27c-0.39,0.08-0.77,0.18-1.13,0.3c0.02-2.73-0.32-5.53-1.03-8.14
		c1.46-0.06,2.87-0.03,4.22,0.23c0.18,0.03,0.42,0.27,0.7,0.55c0.49,0.48,1.15,1.14,2.22,1.4c0.99,0.24,1.95,0.08,2.8-0.07
		c0.59-0.1,1.14-0.19,1.56-0.13c1.49,0.23,3.38,0.88,5.21,1.51c1.14,0.39,2.22,0.77,3.24,1.05c0.15,0.04,0.3,0.09,0.45,0.13
		c0,0.04,0,0.09,0,0.13c0.01,0.9-0.05,1.87-0.12,2.9c-0.12,1.82-0.25,3.7,0.05,5.44c0.01,0.05,0.78,3.52,1.68,6.08
		C72.02,132.9,71.46,134.25,70.78,135.44z M74.19,134.82c0.05-0.11,0.09-0.21,0.14-0.32c0.05,0.03,0.1,0.07,0.16,0.1
		C74.39,134.68,74.3,134.75,74.19,134.82z M74.04,126.82c-0.01,0.02-0.01,0.03-0.02,0.05c-0.24-0.88-0.41-1.59-0.46-1.88
		c-0.24-1.41-0.12-3.12-0.01-4.78c0.05-0.72,0.1-1.46,0.12-2.18c0.09,0.04,0.17,0.09,0.25,0.13
		C74.56,121.1,75.06,123.69,74.04,126.82z M76.16,132.36c-0.17-0.09-0.33-0.19-0.49-0.31c-0.06-0.12-0.14-0.3-0.23-0.52
		c0.28-0.82,0.53-1.63,0.77-2.39c0.16-0.51,0.31-0.99,0.46-1.46c0.11-0.35,0.21-0.69,0.3-1.03c0,0.2,0.01,0.41,0.01,0.62
		C77.02,129.33,76.74,131.03,76.16,132.36z M90.8,125.36c-0.79,0.7-1.54,1.35-2.2,1.95c-1.55,1.41-5.89,5.06-9.62,5.5
		c0.56-1.56,0.82-3.42,0.79-5.57c-0.06-5.01-0.11-8.38-3.37-10.76c-0.25-1.16-0.49-2.36-0.64-3.65c-0.31-2.66-1.48-5.42-3.47-8.22
		c-0.16-1.16-0.31-2.34-0.42-3.53c1.97,2.95,4.58,5.63,7.13,8.26c2.03,2.09,3.95,4.07,5.45,6.07c1.08,1.45,2.33,2.88,3.54,4.25
		c1.37,1.56,2.78,3.16,3.89,4.76C91.51,124.74,91.15,125.06,90.8,125.36z M74.33,72.8c1.17,0.43,2.37,0.88,3.84,1.12
		c1.15,0.19,2.15,0.25,3.03,0.3c1.64,0.1,2.93,0.17,4.74,0.97c4.66,2.06,8.01,4.94,10.55,9.07c2.41,3.93,3.88,9.19,4.99,13.81
		c0.81,3.38,0.92,12.92-0.41,16c-1.17,2.71-4.15,5.77-7.1,8.48c-1.16-1.63-2.55-3.2-3.89-4.73c-1.17-1.33-2.39-2.72-3.4-4.08
		c-1.6-2.15-3.58-4.19-5.68-6.35c-3.78-3.89-7.69-7.92-9.09-12.53c-0.08-0.27-0.16-0.55-0.23-0.84c0.02-5.54,0.08-11.16,0.38-16.83
		c0.33-1.7,0.72-3.32,1.14-4.8C73.57,72.52,73.94,72.66,74.33,72.8z M139.83,112.67c-2.4,3.32-5.22,4.89-7.95,4.42
		c-3.13-0.54-5.81-3.66-7.18-8.35c-1.79-6.15,0.01-21.84,6.23-24.81c0.41-0.19,0.9-0.27,1.43-0.27c1.04,0,2.25,0.29,3.29,0.54
		c0.24,0.06,0.47,0.11,0.69,0.16c0.1,0.08,0.27,0.24,0.38,0.34c0.37,0.34,0.8,0.74,1.29,1.03c1.39,2.14,2.54,4.32,3.42,6.46
		C144.58,99.94,144.04,106.83,139.83,112.67z M168.47,154.17c-2.49,0.64-10.71,2.34-12.13-2.46c-0.78-2.63-0.78-2.63,2.02-5.16
		c4.29-3.86,8.9-6.76,13.33-8.39c0.6-0.22,1.21-0.45,1.83-0.68c3.29-1.24,6.66-2.51,9.98-2.89c0.2,1.03,0.41,2.05,0.62,3.06
		c0.27,1.29,0.5,2.59,0.72,3.84c0.15,0.82,0.29,1.64,0.45,2.45C177.54,151.05,172.32,153.19,168.47,154.17z M187.58,140.99
		c-0.23-1.27-0.46-2.59-0.74-3.92c-0.18-0.85-0.35-1.72-0.52-2.58c0.8,0.05,1.61,0.16,2.4,0.36c1.32,0.33,2.61,0.92,3.86,1.68
		c-1.72,1.91-3.35,3.6-4.88,5.11C187.66,141.43,187.62,141.21,187.58,140.99z M201.06,144.4c0.84,0.99,1.98,1.96,3.18,2.98
		c4.03,3.43,6.74,6.15,4.99,9.89c-0.22,0.48-0.69,0.83-1.42,1.09c-2.92,1.04-8.51-0.08-11.07-1.31c-5.56-2.67-7.29-6.84-8.41-12.1
		c2.3-2.2,4.48-4.52,6.53-6.8C197.18,140,199.28,142.3,201.06,144.4z M194.46,134.43c-1.6-1.03-3.3-1.84-5.07-2.28
		c-1.21-0.3-2.42-0.44-3.62-0.46c-1.26-6.31-2.69-12.72-5.64-18.28c-3.5-6.59-9.91-13.43-16.73-17.85c-1.61-1.05-3.45-2.43-5.4-3.9
		c-4.53-3.42-9.66-7.29-14.18-8.49c-0.97-0.26-1.94-0.08-2.79,0.08c-0.44,0.08-0.88,0.16-1.23,0.16c-2.69-3.97-6.11-7.79-9.96-11.05
		c-0.75-0.63-1.54-1.32-2.36-2.04c-5.24-4.57-11.77-10.26-18.38-11.53c-6.93-1.33-17.22-0.81-23.84,0.24
		c-5.96,0.94-9.74,2.93-12.2,6.67c0.39-3.06,0.89-6.14,1.54-9.21c0.44-2.08,0.84-4.27,1.26-6.58c2.22-12.12,4.73-25.86,13.92-32.65
		c13.02-9.61,23.54-14.48,31.25-14.48c5.24,0,10.4,1.77,15.33,5.26c3.88,2.75,8.38,4.47,12.73,6.13c3.03,1.16,6.16,2.36,9.01,3.88
		c2.08,1.11,4.24,2.13,6.33,3.11c3.61,1.7,7.35,3.46,10.68,5.72c1.47,1,2.92,2.02,4.37,3.03c3.49,2.45,7.1,4.97,10.91,7.22
		c10.52,6.21,14.66,19.81,17.08,30.97c0.31,1.43,0.65,2.87,0.99,4.32c1.28,5.45,2.6,11.08,2.53,16.57
		c-0.02,1.25,0.04,2.52,0.09,3.76c0.1,2.39,0.21,4.85-0.21,7.1c-0.43,2.25-1.35,4.29-2.33,6.44c-0.74,1.63-1.5,3.31-2.05,5.11
		c-0.45,1.49-0.8,2.84-1.15,4.15c-1,3.81-1.78,6.82-4.21,10.45C199.11,129.02,196.83,131.73,194.46,134.43z"/>
</g>
</svg>
