<?xml version="1.0" encoding="utf-8"?>
<!-- Generator: Adobe Illustrator 25.2.0, SVG Export Plug-In . SVG Version: 6.00 Build 0)  -->
<svg version="1.1" id="Layer_1" xmlns="http://www.w3.org/2000/svg" xmlns:xlink="http://www.w3.org/1999/xlink" x="0px" y="0px"
	 viewBox="0 0 161.9 145.51" style="enable-background:new 0 0 161.9 145.51;" xml:space="preserve">
<style type="text/css">
	.st0{fill:#DEB887;}
</style>
<g>
	<path class="st0" d="M104,96.7c0.12-0.41,0.48-0.65,0.82-0.91c0.76-0.58,0.8-0.85,0.17-1.54c-0.49-0.55-0.63-1.14-0.34-1.85
		c0.26-0.61,0.46-1.25,0.66-1.89c0.14-0.45,0.37-0.82,0.74-1.11c0.23-0.18,0.46-0.37,0.64-0.6c0.46-0.61,0.39-0.98-0.29-1.36
		c-0.27-0.15-0.6-0.19-0.91-0.26c-0.77-0.16-1.06-0.66-0.84-1.39c0.14-0.47,0.36-0.88,0.73-1.22c0.7-0.63,0.81-1.48,0.59-2.29
		c-0.28-1.06-0.71-2.09-1.79-2.65c-0.32-0.16-0.49-0.43-0.46-0.78c0.08-0.74,0.07-1.51,0.32-2.2c0.26-0.74,0.12-1.31-0.29-1.88
		c-0.54-0.75-1.09-1.5-1.68-2.22c-0.28-0.34-0.26-0.64-0.03-0.94c0.3-0.41,0.59-0.84,0.96-1.19c0.63-0.61,0.59-1.29,0.29-1.99
		c-0.21-0.48-0.56-0.82-1.16-0.83c-0.68-0.01-0.95-0.57-0.57-1.16c0.58-0.92,1.2-1.83,1.81-2.72c0.46-0.67,0.48-1.01,0.04-1.69
		c-0.07-0.11-0.16-0.21-0.24-0.32c-0.53-0.76-0.51-1.07,0.23-1.61c0.68-0.49,1.04-1.11,1.08-1.96c0.02-0.54,0.18-0.68,0.71-0.83
		c0.26-0.07,0.53-0.11,0.77-0.22c0.82-0.37,0.91-0.8,0.22-1.34c-0.47-0.37-0.76-0.82-0.98-1.34c-0.19-0.44-0.36-0.89-0.53-1.35
		c-0.22-0.6-0.15-0.87,0.37-1.23c0.15-0.11,0.33-0.19,0.5-0.25c0.52-0.2,0.74-0.59,0.69-1.14c-0.03-0.34-0.09-0.69-0.14-1.03
		c-0.07-0.45-0.18-0.89-0.23-1.34c-0.1-0.86,0.17-1.51,1.01-1.89c0.31-0.14,0.6-0.36,0.84-0.61c0.33-0.34,0.3-0.7-0.11-0.93
		c-0.26-0.15-0.6-0.18-0.91-0.21c-0.83-0.07-1.09-0.45-0.79-1.24c0.05-0.12,0.1-0.23,0.15-0.35c8.37-8.56,27.09-26.35,36.24-35.5
		c10.69-10.69,2.17-4.53-1.45-1.27c-3.62,3.26-21.19,18.3-27.35,24.45c-2.68,2.68-7.03,6.49-11.34,10.11
		c-0.29,0.03-0.55-0.04-0.76-0.32c-0.48-0.64-1.18-0.77-1.91-0.87c-0.68-0.09-1.37-0.22-2.04-0.38c-0.49-0.12-0.98-0.26-1.44-0.48
		c-0.65-0.31-1.28-0.68-1.88-1.07c-0.48-0.31-0.97-0.36-1.45-0.13c-0.58,0.28-1.19,0.28-1.8,0.3c-0.33,0.01-0.74,0.04-0.98,0.23
		c-0.76,0.6-1.5,0.49-2.23,0.04c-0.72-0.44-1.47-0.4-2.15-0.05c-0.52,0.26-1.13,0.64-1.25,1.26c-0.1,0.52-0.36,0.84-0.68,1.21
		c-0.38,0.43-0.88,0.47-1.34,0.66c-1.17,0.48-2.36,0.62-3.61,0.34c-0.89-0.2-1.75-0.06-2.53,0.46c-0.64,0.43-1.29,0.48-1.94-0.02
		c-0.34-0.26-0.74-0.34-1.14-0.23c-0.46,0.13-0.92,0.28-1.33,0.52c-0.37,0.22-0.67,0.35-1.12,0.21c-0.27-0.09-0.62,0.02-0.91,0.1
		c-0.25,0.07-0.47,0.25-0.71,0.36c-0.6,0.28-1.03,0.13-1.32-0.45c-0.08-0.17-0.13-0.35-0.19-0.53c-0.51-1.47-1.69-2.33-3.25-2.34
		c-0.61,0-1.14-0.15-1.67-0.45c-0.65-0.36-1.22-0.78-1.7-1.32c-0.47-0.53-1.01-0.75-1.72-0.57c-0.36,0.09-0.75,0.08-1.12,0.07
		c-0.49-0.02-0.79-0.29-0.91-0.76c-0.05-0.21-0.04-0.43-0.11-0.63c-0.21-0.62-0.48-1.2-1.15-1.46c-0.62-0.24-1.25-0.47-1.86-0.73
		c-0.46-0.2-0.9-0.28-1.4-0.18c-0.39,0.08-0.8,0.07-1.2,0.08c-0.31,0.01-0.56-0.09-0.74-0.39c-0.55-0.94-1.78-1.22-2.73-0.64
		c-0.55,0.33-1.11,0.64-1.64,0.99c-0.67,0.43-0.81,0.44-1.32-0.22c-0.62-0.81-1.33-1.35-2.44-1.19c-1,0.14-1.85-0.2-2.47-1.02
		c-0.08-0.11-0.18-0.2-0.29-0.28c-0.45-0.37-0.82-0.39-1.31-0.06c-0.31,0.21-0.59,0.45-0.69,0.85c-0.05,0.19-0.18,0.42-0.34,0.5
		c-0.4,0.2-0.84,0.28-1.28,0.26c-8.31-7.95-19.04-17.42-25.3-23.52C-3.51-5.17-2.42-0.64,7.18,9.5c4.63,4.89,13.92,14.48,21.74,22.1
		c0.16,0.16,0.31,0.31,0.47,0.46c0.43,0.61,0.82,1.24,1.09,1.95c0.39,1.03,0.88,2.01,0.71,3.16c-0.06,0.39-0.12,0.78-0.22,1.17
		c-0.11,0.44-0.31,0.86-0.37,1.31c-0.05,0.36-0.03,0.76,0.09,1.09c0.31,0.83,0.97,1.38,1.66,1.9c0.5,0.38,0.98,0.82,1.4,1.29
		c0.71,0.8,0.96,1.84,1.34,2.81c0.26,0.66,0.48,1.37,0.54,2.08c0.07,0.7,0.2,1.31,0.71,1.81c0.25,0.25,0.37,0.58,0.18,0.88
		c-0.54,0.84-0.57,1.69-0.21,2.59c0.09,0.22,0.1,0.47,0.11,0.71c0.03,0.65,0.21,1.25,0.44,1.86c0.31,0.81,0.63,1.67,0.27,2.57
		c-0.48,1.19-0.28,2.36,0.05,3.54c0.03,0.1,0.07,0.21,0.08,0.31c0.08,0.84,0.23,1.66-0.06,2.52c-0.36,1.06-0.55,2.18-0.55,3.31
		c0,0.62,0.24,1.07,0.74,1.42c0.28,0.19,0.55,0.44,0.72,0.73c0.47,0.77,0.91,1.56,1.33,2.37c0.13,0.25,0.21,0.56,0.22,0.85
		c0.01,0.25-0.03,0.58-0.18,0.74c-0.47,0.48-0.69,1.07-0.95,1.65c-0.15,0.33-0.41,0.62-0.6,0.94c-0.13,0.23-0.27,0.47-0.3,0.72
		c-0.05,0.4-0.02,0.8-0.02,1.2c0,0.36,0.14,0.62,0.52,0.71c0.49,0.11,0.74,0.51,1.01,0.87c0.16,0.21,0.26,0.49,0.44,0.66
		c0.44,0.41,0.48,0.88,0.26,1.39c-0.14,0.31-0.32,0.62-0.53,0.88c-0.28,0.35-0.64,0.65-0.93,1c-0.4,0.5-0.31,0.8,0.26,1.06
		c0.07,0.03,0.15,0.05,0.23,0.07c0.35,0.09,0.48,0.32,0.4,0.67c-0.06,0.26-0.09,0.53-0.18,0.78c-0.26,0.7-0.55,1.39-0.82,2.09
		c-0.21,0.54-0.47,1.06-0.76,1.57c-0.5,0.9-0.66,1.92,0.14,2.75c0.5,0.52,0.67,1.21,0.73,1.91c0.04,0.48,0.17,0.88,0.48,1.24
		c0.23,0.26,0.45,0.53,0.64,0.82c0.17,0.26,0.28,0.56,0.44,0.9c-0.17,0.32-0.3,0.64-0.5,0.9c-0.39,0.52-0.81,1.02-1.21,1.54
		c-6.35,6.67-13.83,13.4-20.39,19.89c-15.22,15.03-7.43,10.69,0,3.99c7.43-6.7,10.87-9.96,21.92-20.11c0.49-0.45,0.98-0.9,1.47-1.35
		c0.42-0.27,0.88-0.44,1.38-0.53c0.73-0.12,1.07,0.05,1.43,0.71c0.45,0.82,1.03,0.95,1.7,0.32c0.32-0.3,0.56-0.24,0.92-0.07
		c0.42,0.2,0.92,0.38,1.36,0.34c1.12-0.1,2.22-0.35,3.33-0.51c0.36-0.05,0.74-0.07,1.11-0.05c1.76,0.08,3.42-0.14,4.8-1.37
		c0.16-0.14,0.36-0.24,0.55-0.32c0.72-0.29,1.45-0.55,2.16-0.85c0.93-0.38,1.88-0.63,2.89-0.36c0.1,0.03,0.21,0.02,0.32,0.02
		c0.97,0.06,1.79-0.2,2.35-1.07c0.15-0.23,0.41-0.42,0.66-0.54c1.44-0.73,2.78-0.65,3.98,0.52c0.41,0.4,0.93,0.52,1.49,0.35
		c1.03-0.31,2.02-0.67,2.8-1.48c0.43-0.44,0.86-0.42,1.38-0.09c0.22,0.14,0.45,0.32,0.7,0.36c0.5,0.08,1.01,0.12,1.52,0.11
		c0.96-0.02,1.8,0.27,2.45,0.99c0.67,0.74,1.54,1.05,2.48,1.17c0.76,0.1,1.31,0.48,1.72,1.06c0.83,1.15,1.1,1.23,2.41,0.86
		c0.41-0.12,0.95-0.15,1.32,0.02c0.92,0.43,1.7,0.23,2.5-0.24c0.39-0.23,0.82-0.42,1.25-0.53c0.57-0.14,0.92,0.09,1.12,0.64
		c0.05,0.12,0.05,0.26,0.1,0.39c0.2,0.56,0.55,0.74,1.13,0.6c1.72-0.4,2.19-0.82,2.8-2.49c0.01-0.03,0.01-0.05,0.02-0.08
		c0.23-0.63,0.64-0.9,1.3-0.77c0.33,0.07,0.65,0.23,0.94,0.41c0.68,0.43,1.37,0.83,2.15,1.07c4.08,3.7,7.79,7.3,10.65,9.99
		c9.42,8.88,15.03,13.77,27.71,26.08c12.68,12.32,11.96,6.52,3.62-1.99C137.07,129.7,116.83,109.77,104,96.7z"/>
	<path class="st0" d="M130.56,67.21c-0.91-0.48-1.92-0.8-2.89-1.17c-0.07-0.03-0.16-0.04-0.24-0.03c-0.96,0.12-1.94,0.25-2.65,0.99
		c-0.45,0.47-0.83,1.04-1.17,1.61c-0.72,1.23-1.03,2.57-0.99,3.99c0.02,0.75,0.3,1.44,0.92,1.88c1.46,1.03,2.95,1.99,4.88,1.34
		c0.05-0.02,0.11-0.02,0.16-0.02c1.18-0.07,2.22-0.44,3.11-1.29c0.51-0.5,0.87-1,0.9-1.72c0.01-0.32,0-0.64,0-0.96
		c0.02-1.45,0.03-1.49-0.95-3.4C131.41,67.95,131.02,67.45,130.56,67.21z"/>
	<path class="st0" d="M158.61,97.8c0.06-0.44,0-0.88-0.33-1.2c-0.63-0.6-0.93-1.35-1.13-2.17c-0.28-1.12-1.08-1.9-1.92-2.6
		c-0.3-0.25-0.79-0.41-1.19-0.39c-2.02,0.07-2.88,0.36-3.75,2.16c-0.26,0.53-0.3,1.18-0.42,1.71c0.11,0.62,0.17,1.15,0.3,1.66
		c0.17,0.64,0.59,1.1,1.25,1.23c1.1,0.2,2.21,0.39,3.35,0.17c0.72-0.14,1.39-0.13,2.07,0.32C157.62,99.22,158.49,98.74,158.61,97.8z
		"/>
	<path class="st0" d="M161.67,134.2c-0.36-0.65-0.77-1.29-1.23-1.87c-0.57-0.71-1.36-0.92-2.24-0.67c-1.29,0.38-1.98,1.33-2.07,2.69
		c0.16,0.75,0.25,1.53,0.49,2.26c0.25,0.74,0.77,1.04,1.4,0.96c0.87-0.11,1.69-0.18,2.38,0.56c0.29,0.31,0.69,0.13,0.76-0.31
		c0.06-0.37,0.01-0.75,0.06-1.12c0.05-0.31,0.09-0.69,0.29-0.88C162.04,135.3,161.96,134.74,161.67,134.2z"/>
</g>
</svg>
