<svg xmlns="http://www.w3.org/2000/svg" viewBox="0 0 173.7 158.46"><defs><style>.cls-1{fill:#cf691e;}</style></defs><g id="Layer_2" data-name="Layer 2"><g id="Layer_1-2" data-name="Layer 1"><path class="cls-1" d="M159.31,68.89l5.42.29c-2.34,2.24-2.24,2.88,1,5.57l-9.94.62c7.27,1.77,11,6.84,17.93,8.23-5.5,3-9.38-.51-13.51-.34s-8-2.09-13.5-1.8c4.1,3.52,8.48,3.25,12,5,2.43,1.18,4.33,2.15,1.54,4.61-1.86,1.65-.22,1.89.68,2.4,1.92,1.07,3.91,2,6.38,3.29-4.51,1.75-9.26,1.66-13.22,5,3.9,2.7,7.32,5.07,10.75,7.43,1,.68,2.29,1.21,1.37,2.8-.65,1.11-1.56,2.25-2.93,1.52-3-1.57-6.27.2-9.26-1.08-.87-.37-2-.56-2.52.76,3,.54-1.46,3.14,1.22,4.09a10,10,0,0,1,5,3.69c-.39,1.34-6.56-2-2.3,3.23,1.5,1.83-.6,5.5,2.2,7.72a8.42,8.42,0,0,1,3.32,8.86c-.2.13-.81-.53-1.42-.51-5.87.12-5.82.1-9.92-4-2.73-2.74-5.37-5.83-10.33-5.26,1.67,4.93,3.2,9.5,4.86,14.4-3.38-1-2.83-4.62-5.7-5.81-.2,3.51,2.48,6.56,1.2,10.11-3.33-1.15-2-6.08-6-7-1,2.52,1.15,5.24-.42,8.05-2.11-2.29-1.45-6.43-5.39-7.51,0,2.69,0,5.29,0,7.89,0,1.07-.49,2.11-1.69,1.92-1.65-.27-1.2-1.87-1.43-3,.35-1.47.74-3.29-.32-4.27-1.25-1.15-1.58,1.35-2.76,1.41-.08-1.39-.15-2.79-.22-4.19a1.35,1.35,0,0,0-.74-1.9,16.81,16.81,0,0,0-6-10.38c.86,3.36,1.62,5.66,2,8,.75,4.43,1,8.87-1.15,13.08-1,1.93-1,.09-1.4-.31-1.65-1.5-1.23.38-1.4,1a23.81,23.81,0,0,0-.52,2.9c-2.45.09.29-3.64-2.94-3.54-2.81.1-2.55,1.82-2.63,3.27-.13,2.36-1.4,1-2.4,1.3-2.66.83-2.12-2.91-3.23-2.17s-1.62,2.77-2.41,4.29c-1.8-1.15.61-3.49-1.48-4.36,1.6-.43,1.6-.43,1.25-3.37-.43,1.42-.75,2.49-1.08,3.57-1.32.39-1.7-.25-1.55-1.43a53.93,53.93,0,0,0-1-17.58c0,4.41.07,8.83,0,13.24A16.36,16.36,0,0,1,92.41,156c-3.54-3.38-3.09,1.75-5.31,2.4.53-5,2.06-9.88.86-15-1.6,1-1.82,2.43-2.49,3.61a8.16,8.16,0,0,1-5.8-1.49c-1.88-4,2.13-7.53.75-11.64-1.64,5.12-3.28,10.12-6.41,14.66-2.08-4.26,2-7.79.72-12-1.73,1.8-.71,4.63-2.78,6l-2.63-.07c-.09-.53-.17-1.06-.26-1.59.12-.6-.15-1.09-.73-1-.3,0-.51.67-.77,1-.38,1-1.84,1.86-.24,3l-.16-.24c-4.35,1.69-6.5,5.63-9.28,9-1.28,1.53-2.05,4.41-5.14,2.87.74-.69,1.53-1.35,1.21-2.54,1.16-4.4,6.27-6.49,6.45-11.46-1.28-.79-1.88,1.27-3.13,1.09s-2.65.62-3.19-1c-.33-1,.34-1.8,1.13-2.55,2.69-2.55,5.12-5.3,5.95-10.89-2.61,3.16-4.13,5.27-5.94,7.08-1.18,1.17-2.08,4-4.62,1.54s-.4-3.79,1.29-5.27c1.24-1.09,3-1.78,3.39-4.47-5.66,2.74-10.31,8.92-17.65,4.66,2.34-3,5.53-4.56,6.16-8.5-2.95-.58-5.58,1.74-8.3,1.21-2.26-.43-2.42,3.79-4.62,1.92-1.19-1-.31-3.79-3.4-3.59-1.6.1-.59-1.56-.09-2.06,1.72-1.75,3.61-3.33,5.82-5.32-2.4-2.22-5.34-1-7.67-1.91.26-1.79,3.31.21,3.09-2.1-.17-1.85-1.79-1.24-2.94-1.39s-2.37.76-3.45,0c-.05-2.37,1.15-3,3.18-3.49,2.59-.61,1.07-2,.06-3.08a4.51,4.51,0,0,0-.08-1.42c1.49-2.76,5.62-.15,6.9-3.41-.7-1.43-2.26-1.6-3.43-2.33-1.72-1.09-7.17,1.76-4.4-4.12,0-.06-.26-.38-.42-.39-6.88-.42-8.71-6.76-12.29-10.87C10.56,79.52,9.34,79.56,8.17,79,5.51,77.85,2.69,77,0,75.73c3.24,1.17,6.66.92,10,1.45,1.16.18,1.47-1,1.61-2.05,3.17-1,6.15,2.33,9.7.84C19,73,15.78,72.79,13.1,71.8S7.5,70,5.77,67.31c2.57-2.73,5.25-1.34,8.14-.5,2.69.78,4.88,3.69,8.74,2.08-4-3.38-9.25-4.42-13.07-9.18,6.48.35,10.35,4.67,15.61,6-1.29-2.63-3.75-3.45-6-4.16a9.05,9.05,0,0,1-6.58-7.05c7.47-2.55,13.27,2.13,20,4.54C25.32,52.75,21.19,44.1,15.05,36.76c4.87,2.36,8.77,6,14.52,8.64-1.88-3.74.77-7.6-3.09-10.22.85-.44,1.38-.92,1.61-.8,1.46.77,2.84,1.66,4.25,2.51A10.84,10.84,0,0,1,33,35.73c2.6,1.08,2.15-3.8,5.24-2.57,1,.38.62-1.95.07-2.92-1.72-3-3.57-5.89-5.19-9.3,2.51,2.65,6.13-1.68,8.48,1.86,1.76,2.64,2.52,6,5.63,8.1-.53-4.14-3.43-7.31-3.56-11.72l4.16,3.35c.31.86-.17,2.75,1.45,2,1.1-.48.16-2-.4-2.92.07-2.1-2-4-.39-6.36,3,3.26,4.25,7.34,5.6,11.35-.27,1.73-.34,3.34,2.57,4.3-.59-2.86,0-5.36-2.37-7.08-.82-2.86-1.55-5.74-2.49-8.56-.49-1.47-.93-2.93-.28-4.34.56-1.25,1.28-3,2.33-3.33,1.57-.56,2.58,1,3.22,2.45a57.36,57.36,0,0,1,3.86,12.78c-.22-3.83,1.44-7.32,1.69-10.95.2-2.78,5.16.59,3.74-3.6-.67-2-.11-4.39-.11-7.38,2.16,3.06,1.34,6.69,4,9,.32-1.87.6-3.57.9-5.31,3.42.92,1.65,4.39,3.48,6.45C76,7.19,73.75,2,78.83.11c3.81,8.2,4.83,17,4.15,26.31,5.61-8,6.91-17.85,12.76-25.71,2.15.57-1.12,3.48,1.14,4.6S98.87,6.64,99,8c.18,2-2,3.65-.61,5.89,3.09-3.79,2.72-9.26,7.06-13.85-1.7,5-1.61,8.94-1.49,12.89,0,.65-.13,1.62,1,1.61a2,2,0,0,0,1.35-.38c.71-.76-.24-2.77,1.35-2.63,1,.09.35,1.71.41,2.65,0,.67-.15,1.76,1,1.52.42-.09.49-1.35,1-1.76,1.08-.89,2,1.1,3.48.3.7-.37.55,1.67.34,2.41a116.85,116.85,0,0,0-3.58,14l8.28-16c.35-.68.41-.51,4-2,1.1-.45.42-3,2.47-3.29.57,5.61-2.2,10.08-4.9,14.58-2.27,1.32-2.75,3.29-2.43,7.17,1.72-2.79,3.64-3.62,3.89-5.82l8.17-13.76c-1.23,5.1.34,10.21-.91,15a3.33,3.33,0,0,0-2,2.7c0,.14.63.64,1,.63,1.58-.07,1.6-1.43,1.93-2.52a1.72,1.72,0,0,0,1.15-.36l1.43,1.56c-.2,1.13-2.93,3.32,1.12,2.64l1.77,1.61a14.81,14.81,0,0,1-4.92,5.45c-.45.3-1.05,1.24-.15,1.59.52.2,1.35-.42,2.05-.66,1.65,1.69,3.16,4.14,5.7,1.06,1.41-1.88,3.54-2.78,5.42-4l1,1.32c-2.91,4.75-9,6.25-11.76,11.77,4.8.33,7.89-3.88,12.66-4.8-2.21,3.8-6.21,4.31-8.49,7.75,5.52,0,9.75-4.3,15.91-2.84-5.64,3-10.15,6.49-15.68,8.37,4.24.94,7.72-1.95,11.72-1.65-.43,2.33-.78,4.45,2.85,4.28s7.42-1.35,10.82,1c.25,1.37-.19,2.93,1.64,3.84-2.85,1.25-5.34.5-7.73.79-3.16-.88-5.39,1.17-7.95,2.32A27.56,27.56,0,0,0,159.31,68.89Z"/></g></g></svg>