<svg xmlns="http://www.w3.org/2000/svg" viewBox="0 0 161.92 145.55"><defs><style>.cls-1{fill:#deb887;}</style></defs><g id="Layer_2" data-name="Layer 2"><g id="Layer_1-2" data-name="Layer 1"><path class="cls-1" d="M104,96.67a1.89,1.89,0,0,1,.82-.91c.76-.58.79-.84.17-1.54a1.61,1.61,0,0,1-.34-1.85,17.6,17.6,0,0,0,.66-1.89,2.17,2.17,0,0,1,.74-1.11,3.32,3.32,0,0,0,.64-.6c.47-.61.39-1-.29-1.36a3.41,3.41,0,0,0-.91-.26,1,1,0,0,1-.83-1.39,2.52,2.52,0,0,1,.73-1.22,2.18,2.18,0,0,0,.59-2.29,3.81,3.81,0,0,0-1.79-2.65.75.75,0,0,1-.45-.78,9.42,9.42,0,0,1,.31-2.2,1.86,1.86,0,0,0-.29-1.87c-.54-.76-1.09-1.5-1.68-2.22a.69.69,0,0,1,0-.94,8.47,8.47,0,0,1,1-1.19,1.63,1.63,0,0,0,.29-2,1.23,1.23,0,0,0-1.16-.83c-.68,0-1-.57-.58-1.17.59-.92,1.2-1.82,1.82-2.72a1.23,1.23,0,0,0,0-1.69c-.07-.11-.16-.21-.24-.32-.53-.76-.51-1.07.23-1.61a2.41,2.41,0,0,0,1.08-2c0-.54.17-.68.7-.83a4.87,4.87,0,0,0,.77-.22c.82-.37.91-.8.22-1.34a3.33,3.33,0,0,1-1-1.34c-.19-.44-.35-.89-.52-1.35a.84.84,0,0,1,.37-1.22,2.38,2.38,0,0,1,.5-.26,1,1,0,0,0,.69-1.13c0-.35-.09-.69-.14-1s-.18-.89-.23-1.34a1.64,1.64,0,0,1,1-1.89,2.79,2.79,0,0,0,.83-.61.53.53,0,0,0-.1-.93,2.21,2.21,0,0,0-.92-.21c-.83-.08-1.08-.45-.78-1.24,0-.12.1-.23.15-.35,8.37-8.56,27.09-26.35,36.24-35.5C153-3.36,144.48,2.8,140.86,6.06s-21.19,18.3-27.35,24.45c-2.68,2.69-7,6.49-11.34,10.12a.76.76,0,0,1-.76-.33,2.58,2.58,0,0,0-1.91-.87,19.79,19.79,0,0,1-2-.37A7.07,7.07,0,0,1,96,38.58a16.57,16.57,0,0,1-1.88-1.07,1.41,1.41,0,0,0-1.45-.13,4.34,4.34,0,0,1-1.81.3,1.78,1.78,0,0,0-1,.23,1.78,1.78,0,0,1-2.23,0,2.12,2.12,0,0,0-2.15-.05c-.52.26-1.12.64-1.24,1.26a2.55,2.55,0,0,1-.68,1.21c-.38.43-.89.46-1.35.65a5.81,5.81,0,0,1-3.61.34,3.16,3.16,0,0,0-2.53.46,1.54,1.54,0,0,1-1.94,0A1.27,1.27,0,0,0,73,41.57a5.52,5.52,0,0,0-1.33.53,1.28,1.28,0,0,1-1.12.2,1.81,1.81,0,0,0-.91.1,6.76,6.76,0,0,0-.71.36.87.87,0,0,1-1.32-.45,4.76,4.76,0,0,1-.19-.53,3.33,3.33,0,0,0-3.26-2.34A3.32,3.32,0,0,1,62.53,39a5.94,5.94,0,0,1-1.7-1.32,1.6,1.6,0,0,0-1.72-.57,3.82,3.82,0,0,1-1.12.06.91.91,0,0,1-.91-.76c0-.2,0-.43-.11-.63a2.08,2.08,0,0,0-1.15-1.46c-.62-.24-1.24-.47-1.86-.73a2.31,2.31,0,0,0-1.4-.18,6.85,6.85,0,0,1-1.2.08.74.74,0,0,1-.73-.39,2,2,0,0,0-2.73-.64c-.55.34-1.11.65-1.65,1s-.81.44-1.31-.22A2.51,2.51,0,0,0,42.49,32,2.5,2.5,0,0,1,40,31a1.94,1.94,0,0,0-.29-.28,1,1,0,0,0-1.31-.06,1.49,1.49,0,0,0-.69.86.86.86,0,0,1-.34.5,2.6,2.6,0,0,1-1.29.26c-8.3-7.95-19-17.41-25.3-23.51C-3.51-5.17-2.42-.64,7.18,9.5,11.81,14.39,21.1,24,28.92,31.6l.46.46a8.74,8.74,0,0,1,1.1,2,6.18,6.18,0,0,1,.71,3.15A11,11,0,0,1,31,38.34c-.11.44-.3.86-.37,1.31a2.37,2.37,0,0,0,.1,1.09,4.36,4.36,0,0,0,1.66,1.9,9.52,9.52,0,0,1,1.4,1.29,9,9,0,0,1,1.34,2.81,7.52,7.52,0,0,1,.55,2.08,2.69,2.69,0,0,0,.7,1.81.67.67,0,0,1,.18.88,2.69,2.69,0,0,0-.21,2.59,2.4,2.4,0,0,1,.11.71,5.74,5.74,0,0,0,.44,1.86,3.37,3.37,0,0,1,.26,2.57,5.28,5.28,0,0,0,.06,3.53,1.87,1.87,0,0,1,.08.32,5.81,5.81,0,0,1-.06,2.52,10.26,10.26,0,0,0-.55,3.31,1.61,1.61,0,0,0,.74,1.42,2.81,2.81,0,0,1,.73.73c.47.77.91,1.57,1.32,2.37a1.92,1.92,0,0,1,.22.85,1.07,1.07,0,0,1-.18.74,5.25,5.25,0,0,0-1,1.65c-.15.34-.42.62-.6.94a2,2,0,0,0-.3.72,8.13,8.13,0,0,0,0,1.21.64.64,0,0,0,.51.71c.5.11.74.51,1,.87a4.5,4.5,0,0,0,.45.66,1.15,1.15,0,0,1,.26,1.4,4.38,4.38,0,0,1-.53.88c-.29.35-.64.64-.93,1s-.31.8.26,1.06l.23.07a.5.5,0,0,1,.4.67,5.16,5.16,0,0,1-.17.78c-.26.7-.55,1.39-.82,2.08a11.36,11.36,0,0,1-.76,1.57,2.2,2.2,0,0,0,.14,2.76A3,3,0,0,1,38.41,96a2,2,0,0,0,.48,1.24,8.35,8.35,0,0,1,.64.83c.16.26.27.56.44.9a7.57,7.57,0,0,1-.49.9c-.4.53-.81,1-1.22,1.54-6.35,6.67-13.82,13.4-20.39,19.89-15.22,15-7.43,10.68,0,4s10.87-10,21.92-20.11l1.47-1.35a3.5,3.5,0,0,1,1.38-.52,1.14,1.14,0,0,1,1.43.71c.45.82,1,1,1.7.32.32-.31.56-.24.92-.08a2.78,2.78,0,0,0,1.36.35c1.11-.1,2.21-.35,3.32-.51a5.9,5.9,0,0,1,1.11,0,6.34,6.34,0,0,0,4.8-1.37,2,2,0,0,1,.55-.32l2.17-.85a4.44,4.44,0,0,1,2.89-.36,1.66,1.66,0,0,0,.32,0,2.4,2.4,0,0,0,2.35-1.08,1.78,1.78,0,0,1,.67-.54,3.16,3.16,0,0,1,4,.52,1.45,1.45,0,0,0,1.49.36,6.09,6.09,0,0,0,2.8-1.48,1,1,0,0,1,1.38-.1,2.08,2.08,0,0,0,.69.36,7.78,7.78,0,0,0,1.52.11,3.05,3.05,0,0,1,2.45,1A3.83,3.83,0,0,0,83,101.45a2.44,2.44,0,0,1,1.72,1.06c.83,1.15,1.1,1.23,2.41.86a2.05,2.05,0,0,1,1.32,0,2.49,2.49,0,0,0,2.5-.23,4.9,4.9,0,0,1,1.25-.53.87.87,0,0,1,1.13.64c0,.13.05.27.1.39a.82.82,0,0,0,1.12.6,3.08,3.08,0,0,0,2.8-2.49l0-.07a1,1,0,0,1,1.29-.77,3,3,0,0,1,.94.41,9,9,0,0,0,2.15,1.07c4.08,3.71,7.79,7.3,10.64,10,9.42,8.88,15,13.77,27.72,26.08s12,6.53,3.62-2C137.09,129.67,116.85,109.74,104,96.67Z"/><path class="cls-1" d="M130.58,67.17A29.09,29.09,0,0,0,127.69,66a.48.48,0,0,0-.24,0,4.18,4.18,0,0,0-2.64,1,8.38,8.38,0,0,0-1.17,1.61,7.37,7.37,0,0,0-1,4,2.29,2.29,0,0,0,.92,1.88c1.46,1,3,2,4.88,1.34a.44.44,0,0,1,.16,0,4.68,4.68,0,0,0,3.11-1.29,2.46,2.46,0,0,0,.9-1.71c0-.33,0-.65,0-1,0-1.44,0-1.49-1-3.4A3,3,0,0,0,130.58,67.17Z"/><path class="cls-1" d="M158.63,97.77a1.34,1.34,0,0,0-.33-1.2,4.38,4.38,0,0,1-1.13-2.17,5,5,0,0,0-1.92-2.6,1.87,1.87,0,0,0-1.19-.39c-2,.07-2.87.36-3.75,2.16a7.54,7.54,0,0,0-.42,1.7c.11.62.16,1.16.3,1.67a1.6,1.6,0,0,0,1.26,1.22,9.15,9.15,0,0,0,3.34.18,2.58,2.58,0,0,1,2.07.32A1.12,1.12,0,0,0,158.63,97.77Z"/><path class="cls-1" d="M161.69,134.17a13.71,13.71,0,0,0-1.23-1.87,2,2,0,0,0-2.25-.67,2.75,2.75,0,0,0-2.06,2.69,16.8,16.8,0,0,0,.49,2.26,1.24,1.24,0,0,0,1.4,1,2.46,2.46,0,0,1,2.38.56c.29.31.69.12.76-.31s0-.76.06-1.12a1.62,1.62,0,0,1,.29-.88A1.23,1.23,0,0,0,161.69,134.17Z"/></g></g></svg>