<svg xmlns="http://www.w3.org/2000/svg" viewBox="0 0 287.02 137.22"><defs><style>.cls-1{fill:#b2800b;}</style></defs><g id="Layer_2" data-name="Layer 2"><g id="Layer_1-2" data-name="Layer 1"><path class="cls-1" d="M96.08,20.46C101.2-1.43,118-2.06,134.46,1.85c9.36,2.22,20.17,6.86,27.22,12.1C197.9,40.84,236.59,59.55,287,57.52c-20.14,35.78-50.31,53.17-74.82,76-2.82,2.62-8.61,4.39-12.23,3.46C134.65,120.07,64.61,127.1,1.81,97.81,1,97.43,1,95.24,0,91.55L45,67.19c4.8,5.24,9.5,10.58,14.42,15.69,14.28,14.85,21.79,13.42,38-7.06,8.32-2.5,12.7,3.67,17.86,8.13-.61,5.58-3,11.78-1.34,16.57,1.78,5.14,7.54,10.2,9.52-1.08,3.51-10.27,12.07-7.93,17.88-5,10.79,5.49,19.63,12.32,13.6-8.51-.85-2.91,3.4-7.23,5.12-11,3.16-6.91,18.51,6.16,14.08-6.36-1.84-5.19-3.91-21.81-22.54-18.59-14.28,2.46-30.48-6.18-45.83-9.88Z"/></g></g></svg>