<?xml version="1.0" encoding="utf-8"?>
<!-- Generator: Adobe Illustrator 25.2.0, SVG Export Plug-In . SVG Version: 6.00 Build 0)  -->
<svg version="1.1" id="Layer_1" xmlns="http://www.w3.org/2000/svg" xmlns:xlink="http://www.w3.org/1999/xlink" x="0px" y="0px"
	 viewBox="0 0 120.27 131.12" style="enable-background:new 0 0 120.27 131.12;" xml:space="preserve">
<style type="text/css">
	.st0{fill:#D2691E;}
</style>
<path class="st0" d="M120.27,50.16c-2.06-1.59-4.23-3.05-6.16-4.73c-1.77-1.54-2.85-2.8-4.96-3.65c-1.58,1.84-3.38,3.7-5.21,5.3
	c-2.9,2.53-6.52,1.35-9.96,2.35c-0.99,0.29-2,1.23-2.82,1.92c-1.28,1.08-1.47,2.14-2.34,3.34c-1.91,2.63-4.09,5.59-6.18,8.04
	c-1.82,2.13-3.78,4.17-6.3,5.43c-3.17,1.59-5.26,0.76-8.09-1.17c-3.56-2.44-7.14-4.48-10.51-7.18c-2.85-2.28-6.2-4.88-8.24-7.97
	c-3.83-5.82-4.1-12.78-5.45-19.2c-1.4-6.69-0.37-14.39-0.47-21.3c-0.03-1.89,0.58-2.6,0.98-4.23c0.32-1.33,0.17-3.9-0.02-5.26
	c-0.31-2.3-0.8-2.15-2.86-1.18c-2.05,0.96-4.46,2.29-6.63,2.91C33.6,4,31.78,4.52,30.32,4.76c-1.53,0.26-3.02-0.47-3.73,1.45
	c-0.68,1.83,1.16,2.42,0.95,4.21c-0.1,0.88-0.86,0.97-1.07,1.82c-0.17,0.72,0.03,2.14,0.05,2.89c0.11,6.05-4.89,10.2-7.81,15.13
	c-1.57,2.65-3.58,4.71-4.73,7.58c-1.43,3.56-1.78,7.14-2.7,10.91c-0.74,3.07-1.86,5.95-2.96,9c-0.63,1.74-1.97,3.12-2.65,4.71
	c-0.6,1.38-0.66,3.05-1.13,4.55c-0.4,1.28-1.24,3.43-1.89,4.73c-0.52,1.04-2.1,2.2-2.44,3.26c-0.55,1.72,0.06,2.87,0.99,4.31
	c1.03,1.59,1.83,3.2,2.6,4.9c0.7,1.54,0.74,2.97,1.15,4.52c0.5,1.85,1.41,3.97,1.74,5.94c0.64,3.81,0.97,7.57,1.89,11.37
	c0.51,2.11,0.47,4.44,1.13,6.65c0.48,1.61,1.12,3.21,1.9,4.71c1.65,3.22,2.46,6.72,4.23,9.73c0.88,1.49,4.31,5.51,6.73,3.38
	c0.73-0.64,0.95-3.69,1.32-4.61c0.66-1.62,1.85-3.13,2.87-4.45c2.22-2.86,4.08-3,7.34-3.84c2.13-0.55,4.45-0.74,6.65-1.21
	c1.83-0.39,3.82-0.52,5.68-0.89c3.77-0.76,8.6-2.15,12.34-3.79c3.44-1.5,6.4-3.96,9.89-5.68c3.88-1.91,6.91-4.86,10.41-7.31
	c3.62-2.53,6.72-5.67,8.76-9.73c1.89-3.77,2.54-7.87,3.91-11.84c1.41-4.09,3.47-7.83,6.54-10.94c3.58-3.62,8.64-6.57,12.7-9.39
	c1.83-1.27,3.82-2.36,5.71-3.58C118.69,51.94,119.78,51.06,120.27,50.16z"/>
</svg>
