<?xml version="1.0" encoding="utf-8"?>
<!-- Generator: Adobe Illustrator 25.2.0, SVG Export Plug-In . SVG Version: 6.00 Build 0)  -->
<svg version="1.1" id="Layer_1" xmlns="http://www.w3.org/2000/svg" xmlns:xlink="http://www.w3.org/1999/xlink" x="0px" y="0px"
	 viewBox="0 0 163 153.69" style="enable-background:new 0 0 163 153.69;" xml:space="preserve">
<style type="text/css">
	.st0{fill:#FFE4B4;}
</style>
<path class="st0" d="M121.8,11.31c0.56,0.23,0.96,0.62,1.5,0.88c0.64,0.31,1.24,0.42,1.81,0.88c1.03,0.85,2.11,1.64,3.06,2.64
	c1.2,1.27,1.97,3.67,3.91,3.78c1.69,0.1,3.2,1.91,3.88,3.37c0.32,0.68,0.47,1.39,0.85,2.06c0.47,0.83,1.1,1.56,1.78,2.23
	c0.76,0.75,1.73,1.47,2.77,1.78c0.35,0.1,0.69,0.02,1.02,0.21c0.29,0.16,0.52,0.46,0.78,0.68c0.53,0.43,0.65,0.45,0.99,1.04
	c0.31,0.54,0.61,0.95,0.98,1.46c0.7,0.97,1.39,2.1,1.97,3.15c0.51,0.94,0.65,2.04,1.52,2.74c0.4,0.32,0.56,0.25,0.63,0.8
	c0.07,0.54-0.27,0.78,0.29,1.12c0.25,0.15,1.17,0.1,1.4-0.14c0.18,0.24,0.47,0.07,0.74,0.2c0.38,0.17,0.82,0.69,1.19,0.94
	c0.94,0.62,1.89,1.23,2.5,2.21c0.57,0.91,0.58,1.75,0.57,2.8c-0.01,1.61,0.08,3.3,0.41,4.88c0.24,1.16,0.62,2.04,1.54,2.81
	c0.79,0.66,1.62,1.3,2.44,1.93c1.51,1.18,2.41,2.99,2.59,4.89c0.08,0.79,0.14,1.94-0.05,2.71c-0.27,1.08-1.12,2.04-1.34,3.15
	c-0.38,1.98,1.1,3.7,1.11,5.67c0.01,0.88,0.28,1.64,0.27,2.54c-0.01,1.06,0.03,2.04-0.28,3.07c-0.6,2.02-1.06,4.19-2.23,5.96
	c-0.68,1.02-1.02,2-1.53,3.1c-0.48,1.04-0.74,2.05-1.15,3.11c-0.2,0.52-0.5,0.97-0.61,1.52c-0.08,0.39-0.01,0.75-0.05,1.13
	c-0.04,0.37-0.2,0.94-0.53,1.18c0.37,0.26,0.44,0.3,0.54,0.73c0.1,0.44-0.01,1.21-0.01,1.63c0,1.43-0.03,2.62,0.36,3.98
	c0.22,0.77,0.4,1.74,0.02,2.5c-0.52,1.03-1.59,1.65-2.43,2.37c-1.05,0.89-2.03,1.95-2.13,3.35c-0.11,1.48-0.48,2.58-1.31,3.76
	c-0.8,1.14-1.76,2.3-2.95,3.1c-0.4,0.27-0.69,0.42-0.97,0.82c-0.28,0.39-0.34,0.86-0.96,0.84c0.25,0.09,0.59,0.31,0.64,0.61
	c-0.32,0.69-1.06,0.89-1.65,1.27c-0.53,0.35-0.76,0.73-1.15,1.18c-0.77,0.89-1.15,1.45-1.34,2.63c-0.37,2.34-0.37,4.63-1.19,6.86
	c-0.6,1.62-1.23,2.74-2.63,3.78c-0.52,0.39-1.1,0.96-1.66,1.26s-1.27,0.27-1.85,0.53c-0.46,0.2-0.95,0.44-1.37,0.71
	c-0.69,0.43-1.36,0.9-1.76,1.58c-0.59,1.02-0.76,2.06-1.54,2.96c-1,1.16-1.74,1.98-3.15,2.65c-1.89,0.89-3.74,1.61-5.89,1.6
	c-0.6,0-1.27,0.09-1.86-0.05c-0.62-0.14-1.14-0.53-1.74-0.74c-0.64-0.22-1.15-0.3-1.81-0.35c-0.05,0.4-0.61,0.79-0.82,1.15
	c-0.35,0.59-0.56,1.2-1.02,1.73c-0.85,0.96-2.18,2.4-3.56,2.46c-1.46,0.06-2.89,0.28-4.34,0.25c-1.24-0.02-2.53,0.28-3.72,0.64
	c-1.83,0.56-4.04,0.14-5.89-0.1c-0.96-0.12-1.83-0.26-2.81-0.25c-1,0.01-1.94-0.01-2.93-0.14c-1.89-0.25-3.82-0.13-5.73-0.14
	c-1.38-0.01-2.66,0.3-4.04,0.27c-0.92-0.01-1.71,0.29-2.64,0.28c-0.54,0-1.11-0.04-1.65-0.01c-0.46,0.03-0.76,0.23-1.2,0.3
	c-0.69,0.12-1.35-0.07-2.03,0.12c-0.86,0.25-1.55,0.71-2.35,1.12c-1.27,0.64-2.58,0.98-3.89,1.47c-0.78,0.29-1.55,0.57-2.34,0.84
	c-1,0.34-1.78,0.34-2.82,0.35c-1.39,0.01-3.14-0.02-4.44-0.54c-1.3-0.52-2.58-1.21-3.83-1.83c-1.48-0.74-2.64-1.81-4.06-2.64
	c-0.74-0.43-2.17-1.55-3.01-1.52c-0.35-0.43-0.1-1.09-0.39-1.58c-0.21-0.36-0.56-0.57-0.89-0.81c-1.03-0.76-2.23-1.42-3.51-1.67
	c-1.39-0.27-3.12-0.03-4.55-0.01c-1.47,0.02-2.87-0.54-4.12-1.26c-0.79-0.46-1-1.41-1.45-2.16c-0.36-0.6-0.73-1.19-1.05-1.85
	c-0.18-0.37-0.2-0.61-0.56-0.84c-0.56-0.35-1.48-0.26-2.1-0.38c-1.47-0.28-3.02,0-4.44-0.48c-0.68-0.23-1.05-0.64-1.67-0.96
	c-0.72-0.37-1.28-0.6-1.95-1.12c-1-0.76-2.18-1.37-2.87-2.4c-0.65-0.97-0.8-2.07-1.01-3.23c-0.3-1.62-0.31-3.14-0.31-4.79
	c0-1.53,0.28-3,0.28-4.51c0-1.19-0.79-1.48-1.73-2.09c-0.71-0.46-1.17-0.98-1.76-1.54c-0.38-0.36-0.77-0.32-1.23-0.57
	c-0.56-0.3-0.47-0.48-0.74-1.08c-0.26-0.59-0.68-1.24-1.02-1.8c-0.3-0.49-0.82-0.96-1.19-1.42c-0.38-0.46-0.73-0.93-1.11-1.39
	c-0.74-0.9-1.68-1.73-1.83-2.96c-0.15-1.24,0.01-2.63,0.01-3.88c0-0.56,0.03-1.13,0.01-1.69c-0.03-0.73-0.34-1.34-0.51-2.03
	c-0.15-0.62-0.14-1.29-0.5-1.85c-0.33-0.51-0.76-0.89-1.07-1.43c-0.65-1.13-1.56-2.04-2.18-3.2c-0.32-0.59-0.64-0.99-0.75-1.69
	c-0.12-0.74-0.02-1.58-0.02-2.33c0-1.51,0.27-2.81,0.56-4.28c0.26-1.35,0.28-2.6,0.28-3.97c0-1.06,0.03-1.56-0.54-2.42
	c-0.41-0.62-0.74-0.91-0.88-1.63c-0.14-0.73-0.51-1.39-0.68-2.12c-0.43-1.8,0.09-3.33,1.19-4.77c1.58-2.05,2.66-4.41,3.92-6.55
	c0.47-0.81,0.66-1.67,0.62-2.59c-0.02-0.51-0.21-0.83-0.3-1.32c-0.09-0.5,0.01-0.83-0.19-1.32c-0.85-2.14-0.86-4.48,0.41-6.45
	c0.3-0.46,0.67-0.79,0.95-1.24c0.23-0.37,0.41-0.68,0.56-1.11c0.4-1.15,0.12-2.35,0.51-3.51c0.34-1.02,0.75-2.04,1.4-2.92
	c0.83-1.11,1.41-1.29,2.73-1.6c1.09-0.26,2.2-0.5,3.28-0.74c0.3-0.07,1.37-0.59,1.55-0.44c-0.32-0.28-0.75-0.09-1.13-0.18
	c-0.03-0.39,0.37-0.89,0.48-1.28c0.14-0.5,0.2-1.01,0.33-1.51c0.18-0.71,0.43-1.53,0.76-2.19c0.85-1.72,2.38-3.06,3.6-4.5
	c0.71-0.84,1.61-2.04,2.76-2.22c1.61-0.24,3.35,0.26,4.97,0.02c0.88-0.13,1.78-0.28,2.5-0.83c0.93-0.71,1.82-1.57,2.5-2.53
	c0.37-0.52,0.89-1.05,1.33-1.51c0.29-0.3,0.6-0.53,0.83-0.87c0.2-0.3,0.34-0.64,0.56-0.94c0.74-0.97,1.05-2.11,1.73-3.1
	c0.65-0.95,2.19-1.01,3.23-1.11c0.72-0.07,1.45-0.2,2.16-0.3c0.34-0.05,1.12-0.25,1.38-0.52c0.25-0.27,0.44-1.02,0.57-1.39
	c0.23-0.66,0.46-1.1,0.85-1.69c0.57-0.87,1.08-1.72,2.08-2.17c0.93-0.42,2.11-0.39,3.07-0.67c0.65-0.19,1.47-0.59,2.01-0.98
	c0.87-0.64,1.85-1.34,2.78-1.83c0.91-0.48,2.58-0.7,3.58-0.76c0.55-0.03,1.26,0.15,1.79-0.01c0.23-0.07,0.62-0.41,0.85-0.54
	c0.81-0.44,1.44-0.98,2.31-1.32c0.57-0.23,1.1-0.49,1.75-0.36c0.41,0.08,0.67,0.27,1.1,0.3c0.96,0.06,2.06,0.09,3-0.07
	c1.14-0.19,2.31-0.15,3.4-0.43C74.52,3.53,75,3.58,75.6,3.35c0.46-0.18,0.94-0.28,1.39-0.48c1.86-0.81,3.48-2.88,5.58-2.87
	c1.02,0.01,1.79,0.35,2.73,0.76c0.42,0.18,0.74,0.56,1.18,0.66c0.36,0.08,0.88-0.02,1.26-0.02c0.41,0,0.84,0.03,1.26,0.01
	c0.5-0.03,0.89-0.27,1.39-0.29c0.55-0.02,0.77-0.13,1.28-0.25c0.64-0.14,0.99,0.05,1.57,0.19c1.05,0.25,2.07,0.03,3.08,0.54
	c0.99,0.49,1.6,1.02,2.38,1.77c0.63,0.6,1.44,0.84,2.28,1.1c0.81,0.26,1.82,0.52,2.65,0.56c0.92,0.04,1.88,0.04,2.8,0
	c0.75-0.03,1.31-0.52,2.09-0.57c1.56-0.09,3.22-0.09,4.68,0.35c1.68,0.5,2.4,2.23,3.53,3.42c0.95,1,2.12,1.78,3.37,2.38
	c0.46,0.22,0.67,0.16,1.13,0.27c0.33,0.08,0.58,0.39,0.97,0.29C121.06,11.16,121.43,11.16,121.8,11.31z M64.98,54.36
	c-0.71-0.15-1.83,0.56-2.51,0.77c-0.88,0.27-1.75,0.66-2.52,1.19c-0.75,0.51-1.24,1.12-1.87,1.75c-0.73,0.73-1.53,1.41-2.25,2.17
	c-0.58,0.61-1.03,1.15-1.4,1.94c-0.37,0.82-0.84,1.34-1.53,1.95c-1.37,1.21-1.88,2.71-2.16,4.45c-0.3,1.88-1.03,3.7-1.11,5.59
	c-0.02,0.51-0.27,0.88-0.3,1.39c-0.02,0.46,0.01,0.93,0.01,1.39c0,0.37,0.03,0.75,0.01,1.12c-0.03,0.5-0.23,0.9-0.29,1.39
	c-0.19,1.68-0.82,3.23-0.5,5.01c0.17,0.91,0.35,1.67,0.56,2.53c0.1,0.39,0.16,0.71,0.21,1.12c0.05,0.44,0.24,0.67,0.29,1.1
	c0.1,0.79,0.29,1.44,0.49,2.24c0.1,0.39,0.07,0.74,0.26,1.12c0.24,0.49,0.6,0.9,0.85,1.39c0.2,0.39,0.29,0.89,0.51,1.23
	c0.21,0.31,0.52,0.59,0.74,0.94c0.46,0.72,1.15,1.29,1.6,2.01c1.8,2.86,3.72,5.74,6.63,7.6c0.71,0.45,1.34,1.03,2.02,1.54
	c0.78,0.6,1.6,1.15,2.47,1.67c0.54,0.32,1.27,0.44,1.85,0.66c0.42,0.16,0.8,0.43,1.24,0.53c1.09,0.25,2.18,0.27,3.3,0.27
	c1.14,0,2.29,0.03,3.43,0c0.43-0.01,0.7-0.11,1.1-0.22c0.54-0.14,1.13-0.06,1.69-0.06c2.2,0,4.04-0.21,6.06-1.12
	c0.76-0.34,1.6-0.75,2.36-1.04c0.36-0.14,0.71-0.23,1.06-0.42c0.42-0.23,0.7-0.33,1.11-0.48c1.6-0.59,3.03-1.49,4.27-2.74
	c1.32-1.34,2.53-2.8,4.02-3.95c1.06-0.82,2.09-1.7,3.15-2.5c0.78-0.59,1.93-1.7,2.46-2.52c2.09-3.26,5.01-6.11,6.55-9.76
	c0.42-1.01,0.48-1.99,0.48-3.08s0.12-2.28,0.01-3.36c-0.11-0.98-0.38-2.01-0.63-2.99c-0.29-1.15-0.99-2.13-1.41-3.2
	c-0.67-1.71-1.26-3.37-2.22-4.9c-0.99-1.56-2.12-3.12-3.34-4.53c-2.97-3.43-6.71-6.35-10.81-8.57c-1.44-0.78-2.88-1.61-4.48-1.96
	c-0.93-0.21-1.83-0.26-2.8-0.34c-0.41-0.03-0.71-0.23-1.1-0.3c-0.45-0.08-0.92,0.04-1.38-0.05c-1.73-0.32-3.53-0.22-5.31-0.22
	c-1.74,0-3.38,0.09-5.02,0.5C69.26,53,67.86,53.64,66.37,54c-0.94,0.23-1.04,0.32-1.46,1.18c-0.33,0.68-0.85,1.34-1.33,1.95
	c-0.56,0.71-1.22,1.21-2.02,1.62c-0.33,0.17-0.71,0.24-1.05,0.41c-0.55,0.27-0.89,0.67-1.39,0.99c-1.44,0.93-2.78,1.76-3.84,3.2
	c-0.9,1.22-1.44,2.84-1.81,4.32c-0.07,0.3-0.27,0.7-0.36,1.06c-0.12,0.52-0.24,1.04-0.36,1.56c-0.27,1.18-0.34,2.41-0.34,3.63
	c0,2.57-0.19,5.17,0.35,7.69c0.23,1.06,0.5,2.11,0.49,3.2c-0.01,0.91,0,1.82,0,2.73c0,0.83,0.05,1.49-0.28,2.22
	c-0.34,0.76-0.62,1.23-1.13,1.87c0.07-1.45,0.29-2.62,0.29-4.09c0-1.54,0-3.08,0-4.63c0-0.41,0.03-0.83,0.01-1.24
	c-0.03-0.43-0.23-0.7-0.3-1.11c-0.13-0.79-0.27-1.54-0.26-2.37c0-1.53,0-3.07,0-4.6c0-0.7-0.03-1.4,0-2.09
	c0.02-0.43,0.2-0.53,0.26-0.86c0.07-0.39-0.02-0.78,0.09-1.17c0.09-0.33,0.2-0.47,0.21-0.89c0.01-0.45,0.19-0.81,0.26-1.24
	c0.12-0.74,0.22-1.25,0.51-1.91c0.54-1.2,0.99-2.33,2.04-3.22c0.45-0.39,0.79-0.71,1.31-0.96c0.6-0.29,1.24-0.51,1.86-0.8
	c0.32-0.15,0.61-0.43,0.94-0.6c0.32-0.16,0.68-0.31,1.01-0.48c0.59-0.3,1.1-0.74,1.67-1.12c1.22-0.81,2.4-1.93,1.79-3.58
	C63.46,54.67,63.38,54.66,64.98,54.36z"/>
</svg>
