<?xml version="1.0" encoding="utf-8"?>
<!-- Generator: Adobe Illustrator 25.2.0, SVG Export Plug-In . SVG Version: 6.00 Build 0)  -->
<svg version="1.1" id="Layer_1" xmlns="http://www.w3.org/2000/svg" xmlns:xlink="http://www.w3.org/1999/xlink" x="0px" y="0px"
	 viewBox="0 0 134.11 170.79" style="enable-background:new 0 0 134.11 170.79;" xml:space="preserve">
<style type="text/css">
	.st0{fill:#FFD7B6;}
</style>
<g>
	<g>
		<path class="st0" d="M41.25,154.02c-0.28-0.38-0.98-0.48-1.2-0.1c-1.38,2.36-4.79,2.06-5.96,4.64c-3.81,0.64-7.06,4.12-7.21,7.36
			c-0.08,1.72,0.81,4.99-0.7,4.87c-2.41-0.19-0.91-3.18-1.03-4.9c-0.2-2.85-0.99-3.1-3.4-1.72c-2.26,1.29-4.57,2.81-7.49,2.36
			c-2.85-0.81-2.98-3.47,1.47-3.08c4.45,0.39,8.1-2.3,11.53-4.9c0.45-0.06,0.98,0,1.35-0.21c4.3-2.42,8.6-4.85,12.86-7.37
			c0.72-0.43,1.96-1.26,1.22-2.12c-2.88-3.34-1.18-7.2-1.24-10.75c-0.05-2.75,4.16-4.83,1.93-8.44c-0.08-0.13,1.3-2.16,1.56-3.51
			c1.76-0.44,1.64-1.85,1.67-3.2c0.9-0.69,1.81-1.39,2.71-2.08c0.52,0.15,1.04,0.3,1.57,0.45c1.4,1.28,2.72,2.48,3.33-0.66
			c0.2-1.03,1.02-1.31,1.9-0.44c0.47,1.53,1.67,1.4,2.88,1.28c0.71,0.64,1.57,1.27,1.81-0.25c0.18-1.1,0.62-1.79,1.6-2.21
			c-0.45,2.94,0.94,3.65,3.72,3.73c2.54,0.08,4.71-0.83,6.91-1.79c0.62,1.43-1.41,2.18-0.35,3.08c1.01,0.86,2.49,0.58,3.64,0.24
			c1.47-0.43,0.42-1.37,0.12-2.16c-0.36-0.94,0.51-1.07,1.08-1.39c2.19-1.24,4.31-2.06,6.59-0.03c0.98,0.87,2.17,0.52,3.06-0.46
			c0.51-0.56,1.56-0.91,1.28-1.86c-0.41-1.39-1.66-0.82-2.63-0.89c-0.44-0.03-1.15-0.03-1.26-0.27c-1.23-2.56-2.67-0.87-4.32-0.55
			c-2.64,0.51-5.45,3.7-8.18-0.15c-0.68-0.96-2.05-0.64-1.88,1c0.17,1.59-1.01,2.19-1.74,1.42c-2.26-2.4-4.09-0.56-6.08,0.17
			c0.42-1.63,0.13-2.78-1.89-2.53c-2.07,0.25-2.95-0.67-2.88-2.67c0.25-0.43,0.49-0.86,0.74-1.29c2.62,1.18,5.56,1.52,8.06,3.03
			c0.7,0.42,1.64,0.82,2.2,0.12c0.72-0.9-0.33-1.29-0.88-1.83c-2.29-2.28-4.53-4.6-6.79-6.91c0.94-0.57,1.97-0.54,3.01-0.47
			c2.46,3.99,7.36,5.17,10.15,8.8c0.38,0.49,1.01,0.64,1.53,0.27c0.73-0.51,0.52-1.26,0.07-1.8c-0.81-0.96-1.76-1.8-2.59-2.75
			c-0.73-0.83-2.43-1.37-1.99-2.53c0.55-1.48,2.29-0.69,3.41-0.57c3.1,0.32,5.7-1.03,7.7-2.85c4.59-4.16,9.04-8.48,11.63-14.4
			c0.62-1.42,0.86-3.34,2.41-4.4c0.53-0.36,0.84-1.28,1.67-0.77c0.88,0.53,0.77,1.47,0.29,2.12c-1.89,2.6-2.24,5.91-4.01,8.52
			c-0.93,1.37-0.6,2.04,0.85,2.41c2.78,0.71,5.26,2.07,7.07,4.23c2.17,2.59,3.41,1.09,4.08-0.89c0.48-1.42,1.47-2.25,2.17-3.38
			c2.67-4.25,6.23-8.7,4.22-13.84c-1.35-3.45-2.88-6.97-4.25-10.44c-1.87-6.12,2.84-8.07,3-4.64c-0.89,6.1,2.42,11.28,4.11,16.74
			c0.55,1.76,0.44,3.78,1.73,5.64c2.17,3.13,2.82,7.15,4.13,10.78c1.23,3.44,2.11,7.03,4.09,10.26c1.7,2.79,2.64,6.05,3.92,9.1
			c-0.68,0.79-0.46,1.51,0.38,1.88c0.76,0.33,1.25-0.14,1.34-0.96c1.58-0.79,2.88-1.04,3.03,1.38c0.11,1.78-0.03,3.26-2.45,2.99
			c-1.23-0.14-2.52,0.21-3.7-0.39c-0.02-0.75-0.42-1.21-1.16-1.17c-0.58,0.04-0.92,0.45-0.89,1.08c-2.56,0.12-1.65-2.44-2.57-3.6
			c-0.62-0.78,1.34-0.51,1.59-0.98c0.83-1.53,3.35-3,1.97-4.67c-1.22-1.47-2.28-3.06-3.41-5.04c-0.93,1.73-1.12,3.48-3.32,3.75
			c-1.08,0.14-0.84,1.73-0.05,2.56c1.52,1.58,1.39,3.23,0.44,4.99c-0.64-0.47-1.29-0.95-1.93-1.42c-0.91-0.93-0.74-2.1-0.78-3.25
			c-0.03-0.89-0.44-1.62-1.44-1.58c-1.96,0.08-2.69,1.95-4.03,2.96c-0.49,0.37-0.69,0.91-0.34,1.5c0.1,0.17,0.42,0.38,0.54,0.33
			c2.29-0.88,3.64,1.58,5.68,1.57c0.69,0.57,1.38,1.14,2.06,1.71c1.13,1.29,0.68,2.84,0.63,4.28c-0.06,2.06,1.34,2.73,2.55,1.81
			c2.23-1.69,4.59-0.99,6.91-1.19c0.51-0.04,1.31-0.05,1.5,0.24c0.42,0.64,0.03,1.39-0.58,1.77c-2.28,1.42-2,3.63-1.95,5.81
			c0.04,2.06,0.04,4.13,0.03,6.19c0,0.79,0.14,1.87-0.92,1.91c-1.06,0.04-1.01-1.02-1.01-1.82c0-2.41,0.02-4.82,0.03-7.23
			c0.01-3.48-1.86-4.7-5.23-3.51c-1.39,0.49-1.27,1.4-0.87,2.46c0.25,0.67,1.62,0.73,1.01,1.93c-1.54,0.46-1.6-1.28-2.49-1.79
			c-0.82-0.47-1.37-1.24-2.28-0.18c-2.15,2.52-4.89,3.74-8.2,3.99c-1.56,0.12-1.84,1.47-1.06,2.54c0.91,1.25,2.01,2.24,3.91,2.35
			c3.95,0.24,7.8,0.95,9.03,5.76c0.18,0.72,1.21,1.56,1.98,1.74c1.93,0.44,3.03,1.91,4.43,3c-0.35,0.37-0.66,0.75-0.44,1.31
			c-1.19-0.18-1.08,0.71-1.27,1.45c-0.29,1.09-0.78,2.03-2.21,1.46l0.09,0.06c0.53-2.85-1.73-7.43-4.45-8.26
			c-1.03-0.32-1.72-2.13-2.9-1.1c-1.59,1.39-2.69,1.1-4.1-0.2c-0.88-0.8-2.56-0.82-3.26-0.22c-3.71,3.17-7.17-0.18-10.26-0.86
			c-4.89-1.07-9.3-4.28-13.94-6.6c0.14-1.16,2.44-0.77,1.84-1.94c-0.55-1.08-1.74-2.33-3.26-2.12c-2.19,0.29-3.63-0.84-4.5-2.44
			c-1.06-1.94-2.03-1.4-3.15-0.33c-1.33,1.26-2.53,2.66-3.9,3.87c-0.85,0.75-2.08,0.84-2.7-0.21c-0.67-1.13-0.4-2.39,1.19-2.5
			c1.36-0.1,2.03-1.05,2.75-1.85c0.72-0.81,2.79-1.39,1.57-2.77c-0.82-0.93-2.8-0.68-3.76,0.35c-1.51,1.61-3.44,2.47-5.21,3.62
			c-1.42,0.22-1.74,1.65-2.66,2.41c-0.48,0.04-0.96,0.07-1.44,0.11c-0.13-0.62-0.26-1.25-0.39-1.87c2.03-2.87,5.94-3.27,7.98-6.13
			c1.29-0.24,2.87-0.02,3.08-1.98c0.05-0.44,0.25-1.13-0.26-1.11c-0.8,0.03-1.91-0.27-2.25,0.97c-1.61-0.29-2.1,1.56-3.48,1.79
			c-3.71,0.62-7.55,0.93-10.32,4.01c-0.3,0.34-0.79,0.62-1.2,0.24c-1.62-1.52-2.42,0-3.32,0.9c-2.14,2.13-4.75,4.04-3.75,7.72
			c0.14,0.52-0.03,1.26-0.8,1.19c-0.66-0.06-0.92-0.71-0.84-1.29c0.22-1.71-0.74-3.66,1.26-5.03c0.76-0.52,0.92-1.73,0.12-2.42
			c-0.63-0.54-1.25,0.04-1.61,0.71c-0.56,0.02-1.15-0.06-1.44,0.59c-0.39,0.19-1.1,0.37-1.11,0.57c-0.1,3.18-0.19,6.36-0.11,9.54
			c0.03,1.1,1.34,1.25,1.8,0.8c1.29-1.26,3.18-0.97,4.48-2.04c0.07,0.51,0.13,1.02,0.2,1.54c-0.05,2.32-0.86,4.77,1.46,6.63
			c0.47,0.38,0.28,1.43-0.38,1.82c-0.85,0.5-1.44-0.19-1.34-0.89c0.25-1.83-1.7-2.5-1.93-4.23c-0.19-1.42-1.79-1.24-2.61-0.11
			C44.13,152.35,43.01,154.25,41.25,154.02z M2.32,2.51c-0.43,4.15,1.82,7.91,1.7,12.01C4.01,14.75,4.73,15,5.11,15.23
			c0.67,1.83-1.65,4.82,2.12,5.45c-0.61,3.19,1.04,6.1,2.25,8.54c3.93,7.92,6.58,16.44,11.12,23.98c1.15,1.91-0.05,4.6,2.43,5.68
			c0.16,0.56,0.34,1.11,1.05,0.49c-0.33,3.6,2.38,5.91,3.56,8.8c2.33,5.76,6.15,10.51,9.74,15.17c4.94,6.41,11.42,11.63,17.24,17.35
			c-0.17,0.5-0.34,1-0.51,1.5c-1.99-0.85-3.66-2.09-5.13-3.71c-1.69-1.87-3.53-3.61-5.34-5.37c-0.52-0.5-0.93-1.57-1.92-0.9
			c-2.54,1.73-3.8,4.47-5,7.1c-1.06,2.34,1.63,1.78,2.61,2.57c0.16,0.13,0.24,0.38,0.35,0.57c1.21,2.07,5.7,5.12,8.18,5.43
			c1.62,0.21,1.77,0.79,0.72,1.92c-0.47,0.5-0.91,1.02-1.36,1.53c-3.12,0.76-6.37,1.36-7.38,5.11c-0.27,0.98-0.96,1.17-1.72,1.42
			c-0.26-0.47-1.4-0.77-0.95-1.14c2.35-1.98,3.72-4.79,5.98-6.81c0.47-0.42,1.41-0.5,1.33-1.29c-0.12-1.1-1.16-0.9-1.91-0.93
			c-0.91-0.04-1.91-0.15-2.58,0.62c-1.49,1.72-2.77,1.18-3.93-0.32c-1.91-2.48-3.93-2.2-6.18-0.45c-1.52,1.19-3.16,2.23-4.28,3.84
			c-0.65,0.93-2.54,1.39-1.54,2.97c0.8,1.27,2.1,1.99,3.79,1.94c1.3-0.04,2.86-0.53,3.8,0.9c1.53,2.35,3.93,2.44,6.33,2.61
			c0.95,1.67,2.57,1.09,3.96,1.13c1.41,0.04,2.82-0.07,2.85,1.93c-0.43,0.2-0.59,0.52-0.43,0.98c-1.68,0.6-3.89,1-5,0.12
			c-2.44-1.92-4,0.12-5.67,0.78c-1.37,0.54-2.26,2.21-3.44,3.29c-1.77,1.62-3.01,3.24-0.31,5.1c-1.22,0.96-1.88-1.35-2.89-0.07
			c-0.4,0.5-0.44,1.07-0.13,1.6c0.65,1.11,1.8,0.77,2.79,0.9c0.75,0.1,1.25-0.4,1.86-0.69c1.04-0.51,2.4-0.86,3.14,0.15
			s-0.4,1.81-1.04,2.61c-0.63,0.78-1.65,1.3-1.82,2.43c-0.12,0.74,0.06,1.89-1.13,1.64c-0.93-0.19-1.35-0.9-0.8-2.05
			c0.28-0.58,0.3-1.68-0.62-2.11c-0.91-0.42-1.69-0.12-2.51,0.5c-3.36,2.56-3.79,6.77-2.24,10.91c0.87,2.32,2.47,4.59,2.26,7.3
			c-2.75-2.4-4.29-5.54-4.74-9.04c-0.33-2.58,0.07-5.25,0.1-7.88c0.01-0.85-0.05-2.47-1.17-1.81c-2.95,1.73-3.07-1.02-4.19-2.22
			c0.11-0.19,0.15-0.39,0.11-0.61c1.14-1.07,2.88,2.53,3.78-0.48c2.77,0.17,4.71-0.95,5.4-3.71c0.62-2.47,2.33-4.15,4.14-5.64
			c2.38-1.96,1.64-3.73-0.4-4.83c-1.71-0.93-3.37-2.36-5.49-2.29c-2.03,0.07-2.76-0.92-2.44-2.71c0.52-2.84-1.1-4.44-3.1-5.89
			c0.04-0.47,0.08-0.93,0.12-1.4c2.12,0.48,3.19-0.19,2.91-2.54c-0.12-0.98-0.02-1.99-0.02-2.99c0.14-0.3,0.47-0.74,0.38-0.86
			c-1.46-2.01-2.18-3.94-0.18-6.1c0.42-0.46-0.3-1.01-0.59-1.74c-1.14-2.86,0.37-3.36,1.83-0.87c0.71,4.2,2.91,8.84,0.39,13.34
			c-0.3,0.53-0.07,1.35-0.05,2.04c0.04,1.21,0.77,1.54,1.85,1.42c1.26-0.15,1.18-1.06,1.32-2.01c0.16-1.02-2.05-1.13-0.65-2.67
			c0.85,1.15,2.1,2.23,3.31,1.15c1.48-1.31,3.06-2.52,4-4.52c1.11-2.36-0.11-5.41,2.96-7.29c2.82-1.73,2.09-4.58,0.92-7.5
			c-1.14-2.87-4.4-3.73-5.3-6.68c-0.47-1.56-1.84-2.84-2.57-4.24C27.12,71.2,22.93,68,21.3,63.04c-0.63-1.92-1.32-4.38-4.17-4.51
			c0.45-2.24,2.85-4.92-1.39-6.09c-0.93-1.6,0.75-4.14-1.87-5.12c0.65-1.74-1.17-2.65-1.39-3.96c-0.97-5.8-4.87-10.37-6.37-15.91
			c-0.79-2.94-3.26-5.17-3.49-8.25c-0.31-4.12-2.47-7.94-1.77-12.23c0.32-1.96-1.43-4.3-0.65-6.05C0.96-0.81,2.31,0,2.32,2.51z
			 M58.35,124.29c-1.94,0.01-3.87,0-5.81,0.03c-3.89,0.04-7.02,4.04-6.24,7.88c0.34,1.69,1.38,2.16,2.71,1.42
			c2.73-1.52,5.66-2.32,8.69-2.89c0.4-0.08,0.83-0.33,1.11-0.63c0.11-0.12-0.08-0.82-0.22-0.84c-4.75-0.91-0.63-2.22-0.16-3.35
			c0.65,0.43,1.93-0.06,2.08,0.85c0.67,4.16,3.85,2.27,5.91,2.29c1.51,0.01,2.74-1.75,2.79-3.28c0.07-1.99-1.8-1.68-3.09-1.61
			C63.53,124.28,60.93,123.63,58.35,124.29z M121.44,109.37c-1.44-5.11-4.49-9.65-5.32-14.98c-0.07-0.46-0.45-0.72-1.02-0.64
			c-1.34,0.18-1.63,1.44-2.39,2.22c-0.94,0.96-0.03,1.52,0.5,1.9c1.41,1.02,1.35,2.38,1.45,3.9c0.16,2.38-0.92,5.04,1.51,7.03
			c0.51,0.42,0.43,1.56-0.47,2.05c-0.51,0.28-0.99-0.08-1.08-0.51c-0.54-2.67-2.43-4.7-3.29-7.2c-0.33-0.97,0.86-2.75-0.75-2.86
			c-1.32-0.09-2.16,1.44-2.47,2.89c-0.09,0.43-0.22,1.02-0.53,1.22c-4.57,2.87-1.78,5.7,0,8.54c0.02,0.87,1.14,1.97-0.48,2.52
			c-0.8-0.45-0.33-1.39-0.7-1.82c-1.25-1.49-2.4-3.95-4.33-3.65c-1.91,0.29-2.72,2.54-2.34,4.74c0.13,0.74,0.53,1.23,1.06,1.69
			c0.69,0.6,0.89,1.33,0.36,2.13c-0.5,0.76-2.05,1.37-0.69,2.43c1.05,0.81,2.08,0.1,3-0.76c1.06-1,2.68-1.51,3.87-1.81
			c2.71-0.66,2.79-2.26,2.67-4.3c-0.07-1.13-0.43-2.43,1.47-2.29c0.48,0.89,1.78,1.56,0.75,2.85c-0.97,0.26-0.98,0.97-0.32,1.38
			c0.85,0.52,1.9,0.75,2.39-0.62c2.27-1.18,4.53-2.35,6.8-3.53c0.97-0.22,1.52-0.9,1.54-1.81
			C122.65,109.42,122.04,109.26,121.44,109.37z M96.25,109.18c-1.76,0.79-2.42-0.65-3.48-1.18c-0.88-0.44-2.53-0.73-2.22,0.8
			c0.38,1.91,2.23,3.22,3.92,4.05s2.46-0.43,2.53-2.11c0.03-0.71,0.62-0.8,1.2-0.96c2-0.55,3.65-1.63,3.5-3.92
			c-0.11-1.76-4.5-5.02-6.25-4.51c-2.45,0.72-4.74,1.95-7.45,0.23C89.73,105.58,95.02,104.91,96.25,109.18z M81.24,114.46
			c1.4-1.29-1.12-2.3,0.41-2.95c1-0.43,2.33-0.34,3.25,0.51c1.68,1.56,3.29,3.18,4.89,4.82c0.61,0.62,1.2,1.22,2.01,0.44
			c0.63-0.61,1.99-1.2,1.51-2.06c-0.91-1.64-2.17-3.36-4.09-3.79c-1.94-0.43-2.03-0.19-0.89-2.24c0.48-0.86,0.9-1.82,0.09-2.52
			c-1.02-0.89-1.53,0.29-2.2,0.84c-0.69,0.58-1.1,2.11-2.43,1.05c-2.61-2.08-3.99,0.23-4.91,1.76
			C77.46,112.69,80.16,113.14,81.24,114.46z M53.56,148.65c1.2,1.18,2.37,2.8,3.84,3.21c2.99,0.83,2.15,1.86,0.84,3.52
			c-0.66,0.83-2.9,1.36-1.52,2.74c1.24,1.24,2.43-0.38,3.4-1.32c0.74-0.72,1.61-1.37,2.15-2.21c0.7-1.1,0.67-2.35-0.9-2.67
			c-3.01-0.62-4.81-2.53-6.32-5.06c-0.83-1.4-1-1.99,0.72-2.79c1.98-0.92,4.04-1.94,5.34-3.89c-0.67-1.14-1.73-1.22-2.88-1.03
			c-1.73,0.65-2.17,3.48-4.7,2.77c-0.43,0.11-0.86,0.21-1.28,0.32c0.24,2.11-2.22,2.5-2.65,4.18c0.56-0.03,1.01,0.09,1.08,0.76
			C52,146.95,52.73,147.83,53.56,148.65z M114.45,162.72c1.84-1.63,2.32-4.05,3.5-6.06c0.13-0.22-0.21-0.88-0.51-1.15
			c-0.4-0.37-0.84-0.08-1.2,0.25c-1.7,1.59-2.16,3.9-3.35,5.79c-0.33,0.53-0.02,1.37,0.94,1.45
			C114.05,162.91,114.29,162.86,114.45,162.72z M108.17,164.88c-1.06,0-1.74,0.4-1.77,1.54c-0.02,1.09,0.5,1.67,1.62,1.7
			c1.08,0.03,1.71-0.43,1.79-1.78C109.74,165.54,109.32,164.88,108.17,164.88z M123.77,160.16l0.09,0.06
			c-1.13-0.25-1.14,0.96-1.78,1.36c0.37,0.12,0.74,0.25,1.12,0.37C123.59,161.42,124.85,161.17,123.77,160.16z M60,106.75
			c0.23-0.61,0.47-1.22,0.7-1.83c-1.12-0.57-1.77-1.84-3.12-2.06c-0.43,0.43-1.15,0.64-1.05,1.46c2.17,2.41-1.16,2.26-1.61,3.46
			c0.34,3.99-2.4,3.77-5.04,3.71c-0.29,0.51-0.63,0.97-1.29,1.01c-0.16,0.24-0.32,0.49-0.48,0.73c0.41,0.69,0.82,1.38,1.23,2.08
			c0.82,1.07-0.04,2.19,0.1,3.28c0.63,0.03,1.25,0.07,1.88,0.1c1.47-1.72,1.61-4.71,4.69-4.87c0.09-1.12,1.2-1.29,1.81-1.92
			C57.27,109.63,57.72,107.81,60,106.75z M10.68,7.13C9.63,7.07,8.9,7.45,8.83,8.58c-0.06,1.05,0.4,1.72,1.53,1.77
			c1.03,0.04,1.75-0.31,1.86-1.45C12.25,7.83,11.8,7.19,10.68,7.13z M57.3,86.78c-0.61,0.04-1.27,0.36-0.98,1.03
			c0.4,0.92,1.11,1.82,2.15,1.99c0.9,0.15,0.99-0.7,0.98-1.41C59.31,87.08,58.45,86.7,57.3,86.78z M13.99,16.76
			c-0.73-0.03-1.49,0.03-1.58,0.88c-0.07,0.63,0.49,0.95,1.14,0.96c0.72,0.02,1.39-0.02,1.62-0.87
			C15.05,17.07,14.64,16.79,13.99,16.76z M31.79,94.81c0.03-0.64-0.54-1.44-0.86-1.19c-1.2,0.95-3.34,0.64-3.77,2.27
			c-0.25,0.93,1.17,0.68,1.91,0.78C30.38,96.62,31.71,96.63,31.79,94.81z M37.21,126.21c-1.14,0.45-2.11,1.38-2.4,2.68
			c-0.15,0.69,0.11,1.7,0.88,1.49c1.34-0.36,2.21-1.48,2.65-2.87C38.2,126.84,38.05,125.88,37.21,126.21z M30.89,150.52
			c-0.89-0.18-1.02,0.71-0.98,1.4c0.07,1.3,0.94,1.68,2.09,1.63c0.65-0.03,1.03-0.37,1.02-1.12
			C32.53,151.58,31.88,150.71,30.89,150.52z M36.98,136.32c-0.13,0.62,0.57,0.88,1.19,0.88c1.14,0,1.63-0.69,1.7-1.73
			c0.04-0.61-0.17-1.11-0.96-1.26C37.97,134.59,37.2,135.31,36.98,136.32z M20.07,127.81c-1.51,0.01-3.02,0.02-4.53,0.03
			c-0.8,1.76,0.6,2.72,1.4,3.9c0.62-0.02,1.24-0.04,1.86-0.05C19.61,130.53,21,129.55,20.07,127.81z"/>
	</g>
</g>
</svg>
