<?xml version="1.0" encoding="utf-8"?>
<!-- Generator: Adobe Illustrator 25.2.0, SVG Export Plug-In . SVG Version: 6.00 Build 0)  -->
<svg version="1.1" id="Layer_1" xmlns="http://www.w3.org/2000/svg" xmlns:xlink="http://www.w3.org/1999/xlink" x="0px" y="0px"
	 viewBox="0 0 160.92 172.65" style="enable-background:new 0 0 160.92 172.65;" xml:space="preserve">
<style type="text/css">
	.st0{fill:#DDA0DD;}
</style>
<g>
	<path class="st0" d="M84.58,169.53c-0.29,5.74-7.8,1.77-11.19,1.91c-3.39,0.15-11.93-5.45-19.85-11.2
		c-6.29-3.86-6.29-3.86-7.62,0.02c-1.26,1.19-0.65,0.58-1.16-1.31c-1.16-1.29,1.65-4.01-2.09-4.65c-3.27-0.55-4.95-2.7-2.33-6.17
		c1.07-1.42,1.41-3.24,0.45-5.06c-0.52-0.99-0.66-2.09,0.47-3.44c0.83,1.51,1.32,2.8,2.15,3.81c1.13,1.38,0.19,3.92,2.62,4.5
		c0.19-0.09,0.38-0.18,0.57-0.28c-0.2-0.2-0.4-0.4-0.6-0.6c-0.88-1.39,1.82-2.91-0.01-4.14c-2.75-1.84-2.84-4.07-1.31-6.62
		c0.6-0.99,0.75-2.06,0.16-2.87c-0.22-0.3-1.55,0.2-2.37,0.37c-2.25,0.47,0.73,2.15-0.67,2.82c-3.22-2.09-7.54-2.09-11.24,0.04
		c1.12,0.63,2.18,1.34,3.55,0.99c0.22,0.17,0.44,0.35,0.67,0.52c-0.67,0.94-2.64,1.62-1.57,2.95c1.27,1.57,2.02-0.49,2.94-1.09
		c1.04-0.68,1.51-2.14,3.17-2.3c0.59,1.43,0.25,2.45-0.59,3.81c-1.19,1.94-2.79,3.64-1.17,6.77c0.92,1.78-0.03,5.68-3.22,7.48
		c0.4-2.13-0.58-3.71-1.35-5.38c-0.09-0.19,0.68-0.72,0.94-1.16c0.42-0.69,0.26-1.41-0.62-1.31c-1.97,0.21-2.86-4.12-5.41-1.23
		c-0.53,0.6-1.11,0.48-1.67-0.06c-0.63-0.6-0.98-1.15-0.25-1.96c0.35-0.39,1.42-0.79,0.71-1.41c-2.86-2.49-4.68-6.31-8.87-7.12
		c-1.38-0.27-2.28,0.14-2.98,1.59c-0.9,1.86,0.96,1.36,1.41,2.02c0.36,0.53,1.09,0.85,1.33,1.41c0.84,1.96,5.52,3.98,0.03,5.99
		c-0.28,0.1-0.56,0.47-0.66,0.78c-0.44,1.36-0.47,3.5-2.19,3.37c-1.87-0.14-3.32-1.7-4.13-3.62c-0.65-1.53-3.77-1.51-5.27-1.08
		c-6.91,1.98-5.32-5.96-4.92-10.42c0.4-4.42,4.28-7.23,8.7-6.43c1.86,0.34,3.16,0.81,3.87,2.57c0.44,1.09,1.3,1.8,2.43,1.38
		c1.61-0.6,0.08-1.39-0.05-2.1c-0.3-1.76,0.7-2.17,2.01-1.55c2.64,1.24,5.59,0.04,8.28,1.29c0.99,0.46,2.98,0.62,3.45-0.85
		c0.82-2.55-2.55,0.23-2.48-1.98c2.05-0.8,4.55-0.8,7.13-2.58c-5.51-2.41-11.31,0.98-16.59-2.64c2.07,0.17,3.66,0.64,5.48-0.15
		c-2.65-3.49-5.61-6.65-5.73-11.04c-0.29-10.2,0.71-20.45-1.56-30.56c-0.58-2.58,0.78-3.24,3.08-2.27c2.22,0.94,4.12,0.35,5.89-1.12
		c-1.23-0.25-2.44-0.25-3.59,0c-1.68,0.37-2.5-1.2-3.78-1.5c-2.78-0.66-3.05-0.7-1.44-2.87c0.91-1.23-0.07-2.41,0.64-3.43
		c3.41-2.41,0.24-5.21,0.6-7.8c-1.26,2.59-0.91,5.25-0.48,7.91c-1.16-0.45-5.12-5.52-5.32-6.68c-0.13-0.76,0.48-0.54,0.69-0.52
		c1.42,0.1,1.23-0.86,1.35-1.78c0.71-5.62,1.4-11.24,2.27-16.83c0.89-5.72,0.8-11.3-0.6-16.98c-0.59-2.4-3.37-3.52-3.13-6.64
		c6.93,4.96,9.96,15.43,20.97,13.17c-0.5,1.3-1.21,1.7-2.21,1.6c-0.82-0.08-1.67,0.02-2.01,0.84c-0.47,1.14,0.89,1.33,1.28,2.04
		c1.28,2.33,3.83,1.66,6.35,2c-3.83,2.76-4.06,4.16-1.57,7.39c1.87,2.42,5.32,1.94,7.64,3.9c-0.47,0.14-0.71,0.26-0.96,0.28
		c-1.47,0.13-3.61-0.51-3.64,1.77c-0.03,2.52,0.52,5.33,2.79,6.73c1.27,0.79,2-1.57,2.96-2.4c3.82-3.3,3.64-7.75-1.01-11.25
		c4.01,1.31,5.74-0.2,6.07-3.02c0.31-2.66,0.62-5.57-3.4-6.15c-0.86-0.12-2.05-1.07-1.92-2.48c0.66-0.57,0.95,0.19,1.32,0.34
		c1.96,0.82,3.83,1.61,5.61-0.37c1.63-1.81,0.72-3.54,0-5.33c-0.8-1.97-2.39-3.3-3.72-4.84c0.23-0.17,0.45-0.33,0.68-0.5
		c0.39,0.04,0.81,0,1.16,0.15c0.91,0.38,1.24,2.34,2.78,0.99c1.14-1.01,0.15-2.04,0.17-3.05c0.04-2.34-2.35-2.53-3.68-4.71
		c7.38,3.77,8.13-3.57,11.76-5.84c-0.85,2.78-1.83,5.31-3.16,7.63c-0.64,1.13-1.72,1.66-0.38,3.17c0.93,1.05,1.99,0.08,2.72,0.81
		c0.64-1.02,2.85-1.39,1.3-3.32c-0.55-0.69,0.07-1.35,0.6-1.58c1.21-0.52,1.19,1.04,1.23,1.28c0.48,3.02,0.79,6.06,1.09,9.1
		c0.08,0.76-0.57,1.11-1.31,1.56c-0.01-2.58-1.03-4.24-4.04-4.11c1.12-0.52,2.55-0.34,2.74-1.73c-2.88-1.94-3.94,1.16-5.44,2.26
		c-1.69,1.25,1.14,1.62,1.36,2.82c0.51,2.93,1.4,5.95-1.78,7.88c-1.13,0.68-0.4,0.93-0.08,1.27c3.82,4.08,2.54,8.28-0.14,12.09
		c-1.64,2.34-2.97,3.9,0.49,5.59c0.79,0.38,0.94,1.19,0.79,2.49c-0.47,3.92-3.69,5.52-5.81,8.08c4.64,1.5,6.07,4.37,4.64,9.06
		c-0.13,0.43-0.91,0.71-0.1,1.51c2.56,2.52,2.16,5.45,0.64,8.36c-0.36,0.69-1.09,1.37,0.17,1.75c4.71,1.46,2.91,5.27,2.98,8.34
		c0.01,0.59-1.1,1.36,0.03,1.8c2.47,0.97,2.87,3.33,4.01,5.33c-1.55-7.97-1.22-16.06-2.23-23.99c-0.22-1.73,0.54-2.41,0.85-3.4
		c2.28-7.52-0.06-15.29,1.44-22.8c0.33-1.65-0.74-2.97-1.07-4.32c-0.68-2.82,2.29-1.83,2.52-3.43c0.89-6.29,3.01-12.58,2.27-18.89
		C64.42,19.37,65,11.88,64.96,4.37C64.95,3.08,65.39,1.1,67.36,0c-2.73,5.58,0.77,10.74,0.63,16.18c-0.09,3.56,0.3,7.21,0.99,10.71
		c1.34,6.76,2.09,13.58,2.85,20.41c0.81,7.28,2.06,14.43,6.96,20.78c-0.24-3.13-0.95-5.91-0.32-8.76c0.78-3.52-0.96-6.85-1.22-10.08
		c-0.38-4.75,0.14-9.99,1.28-14.74c1.35-5.59,1.62-11.28,2.72-16.86c0.68-3.43-0.62-6.66-0.84-10c3.7,8.09,4.56,16.66,4.75,25.37
		c0.03,1.38,0.42,2.78,0.59,4.1c0.83,6.43,3.98,12.19,4.37,18.89c0.51,8.63,0.4,17.17,0.13,26.28c1.53-2.43,4.55-5.46,3.95-6.63
		c-1.43-2.77,0.39-3.22,1.47-4.61c0.91-1.17,1.82-2.65,1.07-4.25c-0.72-1.52-1.85,1.33-2.74-0.07c0.94-1.94,5.14-1.69,4.25-3.65
		c-1.64-3.61,1.33-3.52,2.69-4.47c1.43-1,1.72-2.29,2.12-3.81c-0.69,0.56-1.42,0.64-2.16,0.66c-0.22-0.17-0.44-0.35-0.67-0.52
		c1.27-1.05,2.6-2.04,3.79-3.17c1.87-1.75,1.45-2.81-2.16-2.91c8.56-4.51,5.18-11.96,6.24-18.59c1.75,2.98,1.48,6.01,2.08,8.88
		c1.31,6.3,2.27,12.36-0.26,18.59c-0.76,1.86-1.71,4.31,1.32,5.55c0.53,0.22,0.8,0.83,0.3,1.21c-4.68,3.62-1.56,6.48,0.89,9.41
		c-4.47,2.75-4.52,6.91,0.13,13.04c-4.37-1.16-4.8,1.37-4.68,4.42c0.03,0.91-0.31,1.99,0.07,2.71c1.27,2.42-0.35,3.22-1.98,4.11
		c-0.19,2.85-2.89,4.92-2.58,9c1.46-3.54,5.14-5.34,2.53-9.03c1.37,0.47,2.95,0.97,3.86-0.47c1.41-2.21,3.46-4.26,2.99-7.24
		c-0.12-0.75-0.09-1.56,0.67-1.25c2.62,1.08,3.7-1,4.83-2.39c1.45-1.79,0.45-3.99-0.12-5.97c2.23,0.52,4.15,0.43,6.18,0.16
		c2-0.26,0.09-4.53,3.81-3.11c1.51,0.58,3.69-1.38,4.68-3.29c0.27-0.51,0.08-1.26,0.1-1.9c0.17-0.22,0.35-0.44,0.52-0.67
		c1.05,0.99,1.97,2.15,3.4,0.32c1.95-2.49,4.92-3.9,6.77-6.65c1.35-2.01,3.21-3.91,5.87-4.93c-1.94,3.39-3.55,6.83-3.97,10.72
		c3.03-0.16,5.17-2.12,7.81-2.84c3.98-1.09,5.64-1.07,7.6,1.14c-5.44-2.53-8.55,1.61-11.71,3.84c-4.16,2.94-7.67,6.03-13.31,5.54
		c-1.49-0.13-2.86,0.72-3.86-1.01c-1.57,1.38-4.2,2.57-3.98,4.59c0.26,2.39-0.71,0.92-1.36,0.88c-1.02-0.07-2.04,0.06-1.8,1.41
		c0.07,0.37,1.25-0.15,1.56,0.65c-0.61,0.16-1.29,0.2-1.8,0.52c-0.56,0.35-0.26,1.21,0.15,1.22c2.58,0.04,0.97,0.82,0.37,1.59
		c-2.17,2.83,1.01,5.77-0.1,8.64c-0.87,0.83-1.49,1.75-1.35,2.94c1.55-0.13,1.21-1.56,1.88-2.28c1.76-1.89,2.39-4.4,3.65-6.56
		c2.06-3.51,4.11-7.09,8.64-8.92c-1.2,6.6-4.2,12.06-7.28,17.51c-1.52,2.69-3.15,3.65-6.52,2.5c-2.47-0.84-5.1,0.89-6.87,3.18
		c-1.84,2.37-1.94,4.01,1.51,4.72c0.26,0.05,0.24,1.49,0.41,2.72c1.02-3.03,2.12-4.54,5.43-3.36c2.09,0.74,4.72,0.46,6.98,0.01
		c1.35-0.27,2.67,1.08,3.87-0.16c0.52,1.23,2.7,1.26,1.89,3.65c-0.69,2.05-1.51,1.28-2.87,1.62c-2.95,0.75-6.91,1.44-8.6,0.6
		c-3.63-1.82-6.41-0.15-9.55,0.02c-1.08,0.06-1.36,0.31-1.33,1.25c0.13,4.07-1.18,7.89-2.37,11.81c1.81-0.31,1.42-2.31,2.72-2.8
		c0.17,0.23,0.33,0.45,0.5,0.68c-0.86,1.72-0.76,5.1-3.95,3.34c-2.07-1.14-4.3-2.06-6.25-3.46c-0.19-1.02-1.36-0.53-1.8-1.17
		c-0.78-1.52-2.99-1.5-3.59-3.3c1.5-1.21,5.15-2.01,0.86-4.33c-0.33-0.18-0.66-1.2,0.59-0.92c1.5,0.34,1.13-1.55,1.84-1.77
		c1.76-0.54,0.71-1.03,0.18-1.68c-0.91-1.11-1.42-0.51-1.97,0.35c-1.06,1.67-2.22,1.42-3.45-0.13c-1.41-1.77,0.33-3.35-0.06-5.37
		c-1.72,1.33-5.13,1.06-2.32,4.65c0.83,1.07-0.59,3.36-0.69,5.19c-0.07,1.33-1.73,0.5-2.66,0.69c-5.14,1.05-6.32,5.04-2.81,9.97
		c0.73-1.52-2.13-4.13,1-4.37c3.44-0.26,7.87,4.57,7.96,8.6c-0.88-5.91-6.29-0.63-8.28-3.95c1.32,3.62-2.61,4.97-3.16,7.59
		c1.31,0.63,1.84-0.49,2.68-0.65c0.59,1.3-2.56,2.93,0.25,3.88c0.71,0.24,2.45,1,2.78-0.82c0.46-2.48-1.29-2.82-3.14-2.95
		c-0.45-1.92,1.81-1.21,2.06-1.97c1.33-3.94,2.54-2.2,3.62,0.02c1.18,2.41,4.27,4.24,2.28,7.69c-0.4,0.69,0.16,1.72,1.65,1.64
		c0-2.19,0-4.35,0-6.92c3.07,1.8,5.69,3.55,8.49,4.92c1.93,0.94,1.33,1.94,0.78,3.32c-1.58,4-5.64,5.45-8.48,8.7
		c-0.17-2.65-1.2-4.83-0.22-7.17c0.25-0.6-0.15-1.47-0.88-1.46c-0.73,0.02-1.28,0.44-0.93,1.53c0.34,1.07,0,2.35,0.34,3.42
		c1.5,4.57-1.17,5.93-4.87,6.64c-0.73,0.14-1.48,0.39-2.11,0.78c-1.92,1.17-4.61,0.74-6.07,3.03
		C82.92,162.57,84.87,163.79,84.58,169.53z"/>
	<path class="st0" d="M18.55,61.62c-0.2-0.2-0.4-0.4-0.6-0.6c-0.09,0.19-0.18,0.38-0.27,0.57c-0.1,0.98,0.61,0.99,1.14,0.75
		C19.21,62.16,18.92,61.77,18.55,61.62z"/>
	<path class="st0" d="M34.9,82.13c0.23,0.75,0.73,0.83,1.37,0.55c-0.23-0.35-0.46-0.7-0.69-1.05c-0.49-0.78-1.15-1.29-2.13-1.19
		c-0.02-0.39,0.12-0.98-0.09-1.14c-2.16-1.71-4.56-0.12-6.87-0.32c-1.87-0.16,0.58,1.19-0.16,1.8c-0.24,0.2,0.01,1.33-0.6,0.71
		c-2.75-2.83-3.71,0.57-4.52,1.64c-1.33,1.75,0.02,3.55,1.8,4.34c1.49,0.66,0.89,1.1,0.34,1.93c-1.98,3-1.17,4.93,2.24,6.06
		c1.12,0.37,3.29,1.04,2.91,2.02c-1.21,3.16,1.74,4.71,2.46,7.14c3.79-8.46-2.43-15.97-2.11-24.01c1.09,0.13,2.59,0.31,4.09,0.49
		C33.36,81.88,34.04,82.17,34.9,82.13z"/>
	<path class="st0" d="M50.93,139.09c1.42,2.33,3.15,4.32,5.75,5.46c-1.68-2.1-1.36-5.87-5.2-6.1c-0.64-3.26,3.39-1.3,3.91-3.28
		c-4.9-2.91-7.02,1.78-10.39,3.17C46.89,141.42,49.15,137.24,50.93,139.09z"/>
	<path class="st0" d="M18.4,57.01c1.53-0.37,2.74-1.09,2.64-2.88c1.7,0.34,1.06,2.62,3.04,2.49c-0.41-3.38-1.25-6.57-2.88-9.55
		c-0.35,1.1-0.2,2.16-0.39,3.15c-0.19,1.02,1.57,1.73,0.42,2.73c-1.14,1-0.85-2-2.09-0.85c-0.33,0.31-0.56,0.85-0.61,1.31
		c-0.11,0.9-0.07,1.81-0.1,2.72c-0.2,0.2-0.4,0.4-0.6,0.6C18.02,56.83,18.21,56.92,18.4,57.01z"/>
	<path class="st0" d="M42.45,71.65c0.67-1.89,1.39-3.71,1.13-5.76c-0.2-1.55-1.61-1.43-2.53-1.73c-0.52-0.17-1.66,0.86-1.29,1.53
		C40.82,67.6,40.08,70.32,42.45,71.65z"/>
	<path class="st0" d="M26.19,67.11c0.4-2.09-1.08-3.62-0.73-5.47c0.13-0.68-0.67-1.51-1.51-1.42c-1.14,0.12-0.93,1.26-0.61,1.79
		C24.29,63.58,24.03,65.79,26.19,67.11z"/>
	<path class="st0" d="M17.58,34.16c0.63,3.12,1.18,5.79,1.69,8.46c0.1,0.53,0.17,1.06,0.86,0.97c0.66-0.09,0.84-0.65,0.61-1.13
		C19.5,39.94,20.14,36.75,17.58,34.16z"/>
	<path class="st0" d="M47.32,94.97c-1.36-1.45-2.34-4.67-5.36-1.06C44.19,93.35,45.36,95.28,47.32,94.97z"/>
	<path class="st0" d="M46.2,153.78c0.99-4.13,0.99-4.13-1.16-5.26C45.58,150.39,46.19,152.05,46.2,153.78z"/>
	<path class="st0" d="M59.44,112.17c1.14,0.82,0.85,2.4,2.24,2.73c0.58,0.14,0.74-0.55,0.69-1.06
		C62.21,112.35,61.48,111.59,59.44,112.17z"/>
	<path class="st0" d="M18.76,58.41c0.21,0.17,0.59,0.48,0.97,0.78c0.09-0.35,0.32-0.74,0.21-1.02c-0.11-0.29-0.51-0.58-0.83-0.64
		C18.74,57.46,18.49,57.74,18.76,58.41z"/>
	<path class="st0" d="M84.25,137.93c1.11,0.66,1.77,0.84,2.33,0.13c0.07-0.09-0.13-0.56-0.16-0.56
		C85.85,137.58,85.29,137.71,84.25,137.93z"/>
	<path class="st0" d="M42.33,61.6c-0.26,0.22-0.6,0.41-0.57,0.5c0.1,0.35,0.32,0.66,0.49,0.98c0.16-0.17,0.48-0.36,0.46-0.51
		C42.69,62.25,42.48,61.95,42.33,61.6z"/>
	<path class="st0" d="M32.2,141.62c-0.12,0.35-0.28,0.67-0.31,1.01c-0.01,0.09,0.33,0.23,0.51,0.34c0.18-0.33,0.36-0.66,0.53-0.99
		C32.72,141.87,32.52,141.77,32.2,141.62z"/>
	<path class="st0" d="M61.55,109.68c-0.09-0.22-0.17-0.43-0.26-0.65c-0.23,0.19-0.5,0.34-0.66,0.57c-0.07,0.11,0.05,0.48,0.18,0.55
		C61.26,110.38,61.43,110.05,61.55,109.68z"/>
	<path class="st0" d="M58.9,111.1c-0.09,0.09-0.25,0.18-0.24,0.24c0.04,0.16,0.14,0.31,0.22,0.47c0.08-0.15,0.19-0.3,0.23-0.46
		C59.13,111.28,58.98,111.18,58.9,111.1z"/>
	<path class="st0" d="M103.09,126.03c0.22,1.04,1.47,0.53,1.89,1.27c2,1.22,4,2.44,6,3.66c-0.09,0.21-0.18,0.41-0.27,0.62
		c-3.21-1.16-6.45-2.27-9.61-3.57c-0.33-0.13-0.51-1.59-0.2-2.1C101.48,124.96,102.31,126.37,103.09,126.03z"/>
	<path class="st0" d="M57.36,11.46c0.46-2.96,0.92-5.93,3.17-8.74C61.51,6.72,58.82,8.86,57.36,11.46z"/>
	<path class="st0" d="M15.95,121.31c0.77-0.02,1.09,0.37,1.11,0.9c0.01,0.19-0.4,0.55-0.65,0.58c-0.49,0.05-1.08-0.05-0.98-0.76
		C15.47,121.74,15.8,121.5,15.95,121.31z"/>
	<path class="st0" d="M100.86,55.48c-0.23,0.75-0.73,0.84-1.38,0.55c0.24-0.35,0.48-0.71,0.72-1.06
		C100.41,55.13,100.64,55.31,100.86,55.48z"/>
	<path class="st0" d="M101.6,50.75c-0.28-0.23-0.46-0.38-0.65-0.54c0.32-0.19,0.63-0.43,0.98-0.54c0.09-0.03,0.31,0.3,0.47,0.46
		C102.13,50.34,101.85,50.55,101.6,50.75z"/>
	<path class="st0" d="M132.88,72.72c-0.75-0.23-0.84-0.73-0.55-1.38c0.35,0.24,0.71,0.48,1.06,0.72
		C133.22,72.27,133.05,72.5,132.88,72.72z"/>
	<path class="st0" d="M46.09,25.28c-0.23-0.35-0.46-0.7-0.69-1.05c0.64-0.28,1.14-0.2,1.37,0.55
		C46.54,24.95,46.32,25.11,46.09,25.28z"/>
	<path class="st0" d="M10.34,19.48c0.21,0.33,0.44,0.59,0.53,0.89c0.04,0.12-0.22,0.33-0.34,0.5c-0.21-0.23-0.48-0.44-0.59-0.71
		C9.9,20.04,10.16,19.78,10.34,19.48z"/>
	<path class="st0" d="M34.11,137.66c0.23-0.75,0.73-0.84,1.38-0.55c-0.24,0.35-0.48,0.71-0.72,1.06
		C34.56,138,34.33,137.83,34.11,137.66z"/>
	<path class="st0" d="M115.26,126.12c0.35-0.23,0.7-0.46,1.05-0.69c0.28,0.64,0.2,1.14-0.55,1.37
		C115.59,126.58,115.42,126.35,115.26,126.12z"/>
</g>
</svg>
