<?xml version="1.0" encoding="utf-8"?>
<!-- Generator: Adobe Illustrator 25.2.0, SVG Export Plug-In . SVG Version: 6.00 Build 0)  -->
<svg version="1.1" id="Layer_1" xmlns="http://www.w3.org/2000/svg" xmlns:xlink="http://www.w3.org/1999/xlink" x="0px" y="0px"
	 viewBox="0 0 187.27 171.72" style="enable-background:new 0 0 187.27 171.72;" xml:space="preserve">
<style type="text/css">
	.st0{fill:#B5830B;}
</style>
<path class="st0" d="M187.27,92.86c-9.02,3.01-18.71,9.82-27.08,14.61c-5.05,2.89-9.24,5.34-14.87,6.66
	c-5.23,1.22-9.41,4.86-14.19,5.92c-7.93,1.76-13.27-4.19-19.19-7.96c-3.58-2.29-8.73-3.95-11.6-7.22c-2.19-2.48-3.79-6.1-5.84-8.82
	c-4.87-6.44-9.39-15.39-12.3-22.95c-1.41-3.67-3.6-7.71-4.73-11.44c-1.07-3.52-0.43-7.76-0.41-11.44
	c0.03-9.31-2.16-18.22-3.98-27.06C71.65,16.21,72.59,7.13,73,0c-2.38,2.28-2.93,4.89-4.67,7.59c-1.95,3.04-5.07,5.21-6.95,8.33
	c-2.99,4.98-7.28,9.36-10.4,14.56c-6.19,10.3-13.65,20.25-20.72,30.13c-3.75,5.24-7.86,9.93-11.91,15.03
	c-5.62,7.08-9.46,13.35-13.57,21.37c-1.51,2.95-2.26,5.09-2.6,8.32c-0.39,3.7-1.9,6.66-2.13,10.4c-0.43,7.12,1.96,14.26,4.27,20.84
	c1.65,4.7,3.34,9.31,7.7,12.94c5.54,4.63,10.35,6.69,17.19,8.27c2.93,0.67,5.77,2.37,8.33,3.7c2.14,1.11,4.32,1.18,6.3,2.02
	c5.45,2.32,12.37,5.27,18.61,6.41c4.38,0.8,8.21,0.41,12.57,1.5c4,1,5.56-0.67,9.31-1.43c3.08-0.62,6.37,0.51,9.42-0.08
	c3.52-0.68,8.11-3.07,11.48-4.26c5.13-1.81,9.32-3.42,14.46-6.24c5.16-2.84,8.1-6.57,12.46-10.4c4.22-3.71,8.97-7.29,13.43-10.86
	c3.57-2.86,6.82-5.3,10.04-8.43c2.31-2.25,3.23-4.84,5.14-7.33c1.58-2.06,3.98-3.66,5.73-5.59c2.53-2.79,4.36-6.11,6.81-8.96
	c1.56-1.82,3.51-3.34,5.15-5.1C180.55,100.5,182.49,95.5,187.27,92.86z"/>
</svg>
