<?xml version="1.0" encoding="utf-8"?>
<!-- Generator: Adobe Illustrator 25.2.0, SVG Export Plug-In . SVG Version: 6.00 Build 0)  -->
<svg version="1.1" id="Layer_1" xmlns="http://www.w3.org/2000/svg" xmlns:xlink="http://www.w3.org/1999/xlink" x="0px" y="0px"
	 viewBox="0 0 146.74 83.32" style="enable-background:new 0 0 146.74 83.32;" xml:space="preserve">
<style type="text/css">
	.st0{fill:#FAF0E6;}
</style>
<path class="st0" d="M0,68.46c0.71-2.09,2.88-3.16,4.27-4.76c1.09-1.25,2.7-2.78,3.22-4.33c0.71-2.09,1.24-3.41,2.67-5.35
	c1.88-2.55,2.52-1,4.97-0.69c4.35,0.54,7.96,1.81,12.33,1.87c2.11,0.02,3.69-0.58,5.69-1.13c2.03-0.56,4.68-2.89,5.49-4.76
	c1-2.3,1.33-11.09,4.87-11.03c0.9,0.02,3.92,2.84,4.99,3.41c2.05,1.09,3.11,1.81,5.26,2.36c1.09,0.28,1.59,0.76,3.05,0.74
	c0.94-0.01,1.89,0,2.84,0c2.03,0,4.71-0.5,6.68-0.05c4.04,0.92,4.87,6.49,8.24,7.53c2.29-3.44,5.97-7.03,5.91-11.27
	c-0.02-1.23,0.18-2.59,0.03-3.81c-0.17-1.31-0.74-1.62-1.02-2.77c-0.22-0.93-0.11-2.9,0.03-3.86c0.29-2,0.06-1.21,1.68-2.11
	c1.49-0.83,3.57-1.49,4.73-2.8c0.48-0.53,1.73-2.24,1.94-2.86c0.43-1.23-0.15-2.42,0.14-3.63c0.27-1.13,0.82-1.5,1.01-2.77
	c0.23-1.5-0.53-2.02-0.75-3.08c-0.51-2.39,0.26-4.97-0.16-7.36c-0.2-1.16-2.82-7.06,0.95-5.77c2.09,0.71,1.59,4.91,2.05,6.71
	c0.66,2.58,0.76,4.81,0.74,7.58c-0.02,2.53,0.22,4.74,1.61,6.86c0.99,1.51,3.24,3.21,4.97,3.6c2.49,0.56,4.25-0.1,5.94-1.68
	c2.04-1.91,2.74-3.16,3.81-5.73c0.54-1.29,1.57-3.64,2.63-4.61c-0.32,2.09,1.75,5.34,2.55,7.24c1.12,2.65,2.85,4.68,5.43,5.8
	c2.61,1.13,4.97,1.67,7.61,2.61c1.39,0.49,2.83,1.23,4.26,0.89c1.69-0.4,2.9-2.71,4.57-2.58c-0.12,1.74,1.07,1.72,2.08,2.72
	c0.78,0.76,1.35,1.81,2.1,2.63c1.06,1.15,2.21,2.22,3.32,3.31c3.33,3.28,3.66,7.95,2.99,12.51c-0.22,1.52-0.82,2.73-0.89,4.35
	c-0.06,1.54,0.02,3.12,0.02,4.66c0,3.63-0.18,7.3-0.01,10.92c0.11,2.46,0.81,4.57,0.93,7.09c0.07,1.47,0.71,2.34,1.02,3.74
	c0.3,1.35-0.06,3.12-0.05,4.52c0-2.09-13.3,0.26-16.1,0.26c-2.52,0-10.72-1.89-13.24-1.89c-5.27,0-10.28,0.71-15.5,1
	c-11.73,0.64-23.68-0.05-35.44-0.05c-5.12,0-10.24-0.01-15.37,0c-3.39,0.01-6.39-0.68-9.68-0.95c-3.84-0.32-8.19-0.81-11.93-1.89
	c-1.39-0.4-2.5-0.91-3.95-0.97c-1.38-0.06-2.01-0.46-3.06-0.71c-2.78-0.68-5.56-1.33-8.31-2.31c-2.77-0.99-4.82-2.97-7.58-3.81
	C3.92,71.2,0.9,69.78,0,68.46z"/>
</svg>
